G04 #@! TF.GenerationSoftware,KiCad,Pcbnew,(5.0.0-rc3)*
G04 #@! TF.CreationDate,2018-09-21T21:08:00-07:00*
G04 #@! TF.ProjectId,PCV MATOME MAIN V5-KICAD 5.0,504356204D41544F4D45204D41494E20,rev?*
G04 #@! TF.SameCoordinates,Original*
G04 #@! TF.FileFunction,Soldermask,Top*
G04 #@! TF.FilePolarity,Negative*
%FSLAX46Y46*%
G04 Gerber Fmt 4.6, Leading zero omitted, Abs format (unit mm)*
G04 Created by KiCad (PCBNEW (5.0.0-rc3)) date 09/21/18 21:08:00*
%MOMM*%
%LPD*%
G01*
G04 APERTURE LIST*
%ADD10R,4.000000X2.200000*%
%ADD11R,1.700000X2.200000*%
%ADD12R,2.700000X4.200000*%
%ADD13C,0.100000*%
%ADD14C,1.350000*%
%ADD15C,1.927200*%
%ADD16O,1.927200X1.927200*%
%ADD17O,1.927200X2.232000*%
%ADD18C,4.264000*%
%ADD19R,2.700000X1.200000*%
%ADD20R,1.200000X2.000000*%
%ADD21R,1.800000X2.800000*%
%ADD22R,1.100000X1.400000*%
%ADD23R,1.400000X1.100000*%
%ADD24R,1.100000X1.000000*%
%ADD25C,1.640000*%
%ADD26R,1.800000X1.800000*%
%ADD27O,1.800000X1.800000*%
%ADD28R,0.800000X2.200000*%
%ADD29R,2.200000X2.105000*%
%ADD30O,2.200000X2.105000*%
%ADD31C,1.700000*%
%ADD32R,1.927200X1.927200*%
%ADD33O,2.150000X1.900000*%
%ADD34R,2.150000X1.900000*%
%ADD35R,1.900000X2.150000*%
%ADD36O,1.900000X2.150000*%
%ADD37R,1.900000X2.200000*%
%ADD38O,1.900000X2.200000*%
%ADD39R,1.000000X1.100000*%
%ADD40C,3.700120*%
%ADD41R,3.700120X3.700120*%
G04 APERTURE END LIST*
D10*
G04 #@! TO.C,U5*
X134250000Y-132150000D03*
D11*
X134250000Y-125850000D03*
X131950000Y-125850000D03*
X136550000Y-125850000D03*
G04 #@! TD*
D12*
G04 #@! TO.C,C28*
X123250000Y-126700000D03*
X123250000Y-132800000D03*
G04 #@! TD*
D13*
G04 #@! TO.C,C25*
G36*
X129535289Y-126851413D02*
X129563778Y-126855639D01*
X129591715Y-126862637D01*
X129618832Y-126872340D01*
X129644867Y-126884653D01*
X129669570Y-126899460D01*
X129692703Y-126916616D01*
X129714043Y-126935957D01*
X129733384Y-126957297D01*
X129750540Y-126980430D01*
X129765347Y-127005133D01*
X129777660Y-127031168D01*
X129787363Y-127058285D01*
X129794361Y-127086222D01*
X129798587Y-127114711D01*
X129800000Y-127143477D01*
X129800000Y-127906523D01*
X129798587Y-127935289D01*
X129794361Y-127963778D01*
X129787363Y-127991715D01*
X129777660Y-128018832D01*
X129765347Y-128044867D01*
X129750540Y-128069570D01*
X129733384Y-128092703D01*
X129714043Y-128114043D01*
X129692703Y-128133384D01*
X129669570Y-128150540D01*
X129644867Y-128165347D01*
X129618832Y-128177660D01*
X129591715Y-128187363D01*
X129563778Y-128194361D01*
X129535289Y-128198587D01*
X129506523Y-128200000D01*
X128493477Y-128200000D01*
X128464711Y-128198587D01*
X128436222Y-128194361D01*
X128408285Y-128187363D01*
X128381168Y-128177660D01*
X128355133Y-128165347D01*
X128330430Y-128150540D01*
X128307297Y-128133384D01*
X128285957Y-128114043D01*
X128266616Y-128092703D01*
X128249460Y-128069570D01*
X128234653Y-128044867D01*
X128222340Y-128018832D01*
X128212637Y-127991715D01*
X128205639Y-127963778D01*
X128201413Y-127935289D01*
X128200000Y-127906523D01*
X128200000Y-127143477D01*
X128201413Y-127114711D01*
X128205639Y-127086222D01*
X128212637Y-127058285D01*
X128222340Y-127031168D01*
X128234653Y-127005133D01*
X128249460Y-126980430D01*
X128266616Y-126957297D01*
X128285957Y-126935957D01*
X128307297Y-126916616D01*
X128330430Y-126899460D01*
X128355133Y-126884653D01*
X128381168Y-126872340D01*
X128408285Y-126862637D01*
X128436222Y-126855639D01*
X128464711Y-126851413D01*
X128493477Y-126850000D01*
X129506523Y-126850000D01*
X129535289Y-126851413D01*
X129535289Y-126851413D01*
G37*
D14*
X129000000Y-127525000D03*
D13*
G36*
X129535289Y-124801413D02*
X129563778Y-124805639D01*
X129591715Y-124812637D01*
X129618832Y-124822340D01*
X129644867Y-124834653D01*
X129669570Y-124849460D01*
X129692703Y-124866616D01*
X129714043Y-124885957D01*
X129733384Y-124907297D01*
X129750540Y-124930430D01*
X129765347Y-124955133D01*
X129777660Y-124981168D01*
X129787363Y-125008285D01*
X129794361Y-125036222D01*
X129798587Y-125064711D01*
X129800000Y-125093477D01*
X129800000Y-125856523D01*
X129798587Y-125885289D01*
X129794361Y-125913778D01*
X129787363Y-125941715D01*
X129777660Y-125968832D01*
X129765347Y-125994867D01*
X129750540Y-126019570D01*
X129733384Y-126042703D01*
X129714043Y-126064043D01*
X129692703Y-126083384D01*
X129669570Y-126100540D01*
X129644867Y-126115347D01*
X129618832Y-126127660D01*
X129591715Y-126137363D01*
X129563778Y-126144361D01*
X129535289Y-126148587D01*
X129506523Y-126150000D01*
X128493477Y-126150000D01*
X128464711Y-126148587D01*
X128436222Y-126144361D01*
X128408285Y-126137363D01*
X128381168Y-126127660D01*
X128355133Y-126115347D01*
X128330430Y-126100540D01*
X128307297Y-126083384D01*
X128285957Y-126064043D01*
X128266616Y-126042703D01*
X128249460Y-126019570D01*
X128234653Y-125994867D01*
X128222340Y-125968832D01*
X128212637Y-125941715D01*
X128205639Y-125913778D01*
X128201413Y-125885289D01*
X128200000Y-125856523D01*
X128200000Y-125093477D01*
X128201413Y-125064711D01*
X128205639Y-125036222D01*
X128212637Y-125008285D01*
X128222340Y-124981168D01*
X128234653Y-124955133D01*
X128249460Y-124930430D01*
X128266616Y-124907297D01*
X128285957Y-124885957D01*
X128307297Y-124866616D01*
X128330430Y-124849460D01*
X128355133Y-124834653D01*
X128381168Y-124822340D01*
X128408285Y-124812637D01*
X128436222Y-124805639D01*
X128464711Y-124801413D01*
X128493477Y-124800000D01*
X129506523Y-124800000D01*
X129535289Y-124801413D01*
X129535289Y-124801413D01*
G37*
D14*
X129000000Y-125475000D03*
G04 #@! TD*
D15*
G04 #@! TO.C,P4*
X197349516Y-76012509D03*
D16*
X199889516Y-76012509D03*
X197349516Y-78552509D03*
X199889516Y-78552509D03*
X197349516Y-81092509D03*
X199889516Y-81092509D03*
X197349516Y-83632509D03*
X199889516Y-83632509D03*
X197349516Y-86172509D03*
X199889516Y-86172509D03*
X197349516Y-88712509D03*
X199889516Y-88712509D03*
X197349516Y-91252509D03*
X199889516Y-91252509D03*
X197349516Y-93792509D03*
X199889516Y-93792509D03*
X197349516Y-96332509D03*
X199889516Y-96332509D03*
X197349516Y-98872509D03*
X199889516Y-98872509D03*
X197349516Y-101412509D03*
X199889516Y-101412509D03*
X197349516Y-103952509D03*
X199889516Y-103952509D03*
X197349516Y-106492509D03*
X199889516Y-106492509D03*
X197349516Y-109032509D03*
X199889516Y-109032509D03*
X197349516Y-111572509D03*
X199889516Y-111572509D03*
X197349516Y-114112509D03*
X199889516Y-114112509D03*
X197349516Y-116652509D03*
X199889516Y-116652509D03*
X197349516Y-119192509D03*
X199889516Y-119192509D03*
G04 #@! TD*
D17*
G04 #@! TO.C,P1*
X131309516Y-70932509D03*
X133849516Y-70932509D03*
X136389516Y-70932509D03*
X138929516Y-70932509D03*
X141469516Y-70932509D03*
X144009516Y-70932509D03*
X146549516Y-70932509D03*
X149089516Y-70932509D03*
G04 #@! TD*
G04 #@! TO.C,P2*
X154169516Y-70932509D03*
X156709516Y-70932509D03*
X159249516Y-70932509D03*
X161789516Y-70932509D03*
X164329516Y-70932509D03*
X166869516Y-70932509D03*
X169409516Y-70932509D03*
X171949516Y-70932509D03*
G04 #@! TD*
G04 #@! TO.C,P3*
X177029516Y-70932509D03*
X179569516Y-70932509D03*
X182109516Y-70932509D03*
X184649516Y-70932509D03*
X187189516Y-70932509D03*
X189729516Y-70932509D03*
X192269516Y-70932509D03*
X194809516Y-70932509D03*
G04 #@! TD*
G04 #@! TO.C,P5*
X122165516Y-119192509D03*
X124705516Y-119192509D03*
X127245516Y-119192509D03*
X129785516Y-119192509D03*
X132325516Y-119192509D03*
X134865516Y-119192509D03*
X137405516Y-119192509D03*
X139945516Y-119192509D03*
X142485516Y-119192509D03*
X145025516Y-119192509D03*
G04 #@! TD*
G04 #@! TO.C,P6*
X149089516Y-119192509D03*
X151629516Y-119192509D03*
X154169516Y-119192509D03*
X156709516Y-119192509D03*
X159249516Y-119192509D03*
X161789516Y-119192509D03*
X164329516Y-119192509D03*
X166869516Y-119192509D03*
G04 #@! TD*
G04 #@! TO.C,P7*
X171949516Y-119192509D03*
X174489516Y-119192509D03*
X177029516Y-119192509D03*
X179569516Y-119192509D03*
X182109516Y-119192509D03*
X184649516Y-119192509D03*
X187189516Y-119192509D03*
X189729516Y-119192509D03*
G04 #@! TD*
D18*
G04 #@! TO.C,P8*
X117339516Y-70932509D03*
G04 #@! TD*
G04 #@! TO.C,P9*
X169409516Y-76012509D03*
G04 #@! TD*
G04 #@! TO.C,P10*
X199889516Y-70932509D03*
G04 #@! TD*
G04 #@! TO.C,P11*
X118609516Y-119192509D03*
G04 #@! TD*
G04 #@! TO.C,P12*
X169409516Y-103952509D03*
G04 #@! TD*
G04 #@! TO.C,P13*
X193539516Y-119192509D03*
G04 #@! TD*
D19*
G04 #@! TO.C,U2*
X224262000Y-132659000D03*
X224262000Y-130659000D03*
X224262000Y-128659000D03*
X224262000Y-126659000D03*
X224262000Y-124659000D03*
X224262000Y-122659000D03*
X224262000Y-120659000D03*
X224262000Y-118659000D03*
D20*
X221662000Y-117159000D03*
X219662000Y-117159000D03*
X217662000Y-117159000D03*
X215662000Y-117159000D03*
X213662000Y-117159000D03*
X211662000Y-117159000D03*
D19*
X209062000Y-118659000D03*
X209062000Y-120659000D03*
X209062000Y-122659000D03*
X209062000Y-124659000D03*
X209062000Y-126659000D03*
X209062000Y-128659000D03*
X209062000Y-130659000D03*
X209062000Y-132659000D03*
G04 #@! TD*
D13*
G04 #@! TO.C,C1*
G36*
X235835289Y-126101413D02*
X235863778Y-126105639D01*
X235891715Y-126112637D01*
X235918832Y-126122340D01*
X235944867Y-126134653D01*
X235969570Y-126149460D01*
X235992703Y-126166616D01*
X236014043Y-126185957D01*
X236033384Y-126207297D01*
X236050540Y-126230430D01*
X236065347Y-126255133D01*
X236077660Y-126281168D01*
X236087363Y-126308285D01*
X236094361Y-126336222D01*
X236098587Y-126364711D01*
X236100000Y-126393477D01*
X236100000Y-127406523D01*
X236098587Y-127435289D01*
X236094361Y-127463778D01*
X236087363Y-127491715D01*
X236077660Y-127518832D01*
X236065347Y-127544867D01*
X236050540Y-127569570D01*
X236033384Y-127592703D01*
X236014043Y-127614043D01*
X235992703Y-127633384D01*
X235969570Y-127650540D01*
X235944867Y-127665347D01*
X235918832Y-127677660D01*
X235891715Y-127687363D01*
X235863778Y-127694361D01*
X235835289Y-127698587D01*
X235806523Y-127700000D01*
X235043477Y-127700000D01*
X235014711Y-127698587D01*
X234986222Y-127694361D01*
X234958285Y-127687363D01*
X234931168Y-127677660D01*
X234905133Y-127665347D01*
X234880430Y-127650540D01*
X234857297Y-127633384D01*
X234835957Y-127614043D01*
X234816616Y-127592703D01*
X234799460Y-127569570D01*
X234784653Y-127544867D01*
X234772340Y-127518832D01*
X234762637Y-127491715D01*
X234755639Y-127463778D01*
X234751413Y-127435289D01*
X234750000Y-127406523D01*
X234750000Y-126393477D01*
X234751413Y-126364711D01*
X234755639Y-126336222D01*
X234762637Y-126308285D01*
X234772340Y-126281168D01*
X234784653Y-126255133D01*
X234799460Y-126230430D01*
X234816616Y-126207297D01*
X234835957Y-126185957D01*
X234857297Y-126166616D01*
X234880430Y-126149460D01*
X234905133Y-126134653D01*
X234931168Y-126122340D01*
X234958285Y-126112637D01*
X234986222Y-126105639D01*
X235014711Y-126101413D01*
X235043477Y-126100000D01*
X235806523Y-126100000D01*
X235835289Y-126101413D01*
X235835289Y-126101413D01*
G37*
D14*
X235425000Y-126900000D03*
D13*
G36*
X233785289Y-126101413D02*
X233813778Y-126105639D01*
X233841715Y-126112637D01*
X233868832Y-126122340D01*
X233894867Y-126134653D01*
X233919570Y-126149460D01*
X233942703Y-126166616D01*
X233964043Y-126185957D01*
X233983384Y-126207297D01*
X234000540Y-126230430D01*
X234015347Y-126255133D01*
X234027660Y-126281168D01*
X234037363Y-126308285D01*
X234044361Y-126336222D01*
X234048587Y-126364711D01*
X234050000Y-126393477D01*
X234050000Y-127406523D01*
X234048587Y-127435289D01*
X234044361Y-127463778D01*
X234037363Y-127491715D01*
X234027660Y-127518832D01*
X234015347Y-127544867D01*
X234000540Y-127569570D01*
X233983384Y-127592703D01*
X233964043Y-127614043D01*
X233942703Y-127633384D01*
X233919570Y-127650540D01*
X233894867Y-127665347D01*
X233868832Y-127677660D01*
X233841715Y-127687363D01*
X233813778Y-127694361D01*
X233785289Y-127698587D01*
X233756523Y-127700000D01*
X232993477Y-127700000D01*
X232964711Y-127698587D01*
X232936222Y-127694361D01*
X232908285Y-127687363D01*
X232881168Y-127677660D01*
X232855133Y-127665347D01*
X232830430Y-127650540D01*
X232807297Y-127633384D01*
X232785957Y-127614043D01*
X232766616Y-127592703D01*
X232749460Y-127569570D01*
X232734653Y-127544867D01*
X232722340Y-127518832D01*
X232712637Y-127491715D01*
X232705639Y-127463778D01*
X232701413Y-127435289D01*
X232700000Y-127406523D01*
X232700000Y-126393477D01*
X232701413Y-126364711D01*
X232705639Y-126336222D01*
X232712637Y-126308285D01*
X232722340Y-126281168D01*
X232734653Y-126255133D01*
X232749460Y-126230430D01*
X232766616Y-126207297D01*
X232785957Y-126185957D01*
X232807297Y-126166616D01*
X232830430Y-126149460D01*
X232855133Y-126134653D01*
X232881168Y-126122340D01*
X232908285Y-126112637D01*
X232936222Y-126105639D01*
X232964711Y-126101413D01*
X232993477Y-126100000D01*
X233756523Y-126100000D01*
X233785289Y-126101413D01*
X233785289Y-126101413D01*
G37*
D14*
X233375000Y-126900000D03*
G04 #@! TD*
D13*
G04 #@! TO.C,C2*
G36*
X227785289Y-118101413D02*
X227813778Y-118105639D01*
X227841715Y-118112637D01*
X227868832Y-118122340D01*
X227894867Y-118134653D01*
X227919570Y-118149460D01*
X227942703Y-118166616D01*
X227964043Y-118185957D01*
X227983384Y-118207297D01*
X228000540Y-118230430D01*
X228015347Y-118255133D01*
X228027660Y-118281168D01*
X228037363Y-118308285D01*
X228044361Y-118336222D01*
X228048587Y-118364711D01*
X228050000Y-118393477D01*
X228050000Y-119156523D01*
X228048587Y-119185289D01*
X228044361Y-119213778D01*
X228037363Y-119241715D01*
X228027660Y-119268832D01*
X228015347Y-119294867D01*
X228000540Y-119319570D01*
X227983384Y-119342703D01*
X227964043Y-119364043D01*
X227942703Y-119383384D01*
X227919570Y-119400540D01*
X227894867Y-119415347D01*
X227868832Y-119427660D01*
X227841715Y-119437363D01*
X227813778Y-119444361D01*
X227785289Y-119448587D01*
X227756523Y-119450000D01*
X226743477Y-119450000D01*
X226714711Y-119448587D01*
X226686222Y-119444361D01*
X226658285Y-119437363D01*
X226631168Y-119427660D01*
X226605133Y-119415347D01*
X226580430Y-119400540D01*
X226557297Y-119383384D01*
X226535957Y-119364043D01*
X226516616Y-119342703D01*
X226499460Y-119319570D01*
X226484653Y-119294867D01*
X226472340Y-119268832D01*
X226462637Y-119241715D01*
X226455639Y-119213778D01*
X226451413Y-119185289D01*
X226450000Y-119156523D01*
X226450000Y-118393477D01*
X226451413Y-118364711D01*
X226455639Y-118336222D01*
X226462637Y-118308285D01*
X226472340Y-118281168D01*
X226484653Y-118255133D01*
X226499460Y-118230430D01*
X226516616Y-118207297D01*
X226535957Y-118185957D01*
X226557297Y-118166616D01*
X226580430Y-118149460D01*
X226605133Y-118134653D01*
X226631168Y-118122340D01*
X226658285Y-118112637D01*
X226686222Y-118105639D01*
X226714711Y-118101413D01*
X226743477Y-118100000D01*
X227756523Y-118100000D01*
X227785289Y-118101413D01*
X227785289Y-118101413D01*
G37*
D14*
X227250000Y-118775000D03*
D13*
G36*
X227785289Y-116051413D02*
X227813778Y-116055639D01*
X227841715Y-116062637D01*
X227868832Y-116072340D01*
X227894867Y-116084653D01*
X227919570Y-116099460D01*
X227942703Y-116116616D01*
X227964043Y-116135957D01*
X227983384Y-116157297D01*
X228000540Y-116180430D01*
X228015347Y-116205133D01*
X228027660Y-116231168D01*
X228037363Y-116258285D01*
X228044361Y-116286222D01*
X228048587Y-116314711D01*
X228050000Y-116343477D01*
X228050000Y-117106523D01*
X228048587Y-117135289D01*
X228044361Y-117163778D01*
X228037363Y-117191715D01*
X228027660Y-117218832D01*
X228015347Y-117244867D01*
X228000540Y-117269570D01*
X227983384Y-117292703D01*
X227964043Y-117314043D01*
X227942703Y-117333384D01*
X227919570Y-117350540D01*
X227894867Y-117365347D01*
X227868832Y-117377660D01*
X227841715Y-117387363D01*
X227813778Y-117394361D01*
X227785289Y-117398587D01*
X227756523Y-117400000D01*
X226743477Y-117400000D01*
X226714711Y-117398587D01*
X226686222Y-117394361D01*
X226658285Y-117387363D01*
X226631168Y-117377660D01*
X226605133Y-117365347D01*
X226580430Y-117350540D01*
X226557297Y-117333384D01*
X226535957Y-117314043D01*
X226516616Y-117292703D01*
X226499460Y-117269570D01*
X226484653Y-117244867D01*
X226472340Y-117218832D01*
X226462637Y-117191715D01*
X226455639Y-117163778D01*
X226451413Y-117135289D01*
X226450000Y-117106523D01*
X226450000Y-116343477D01*
X226451413Y-116314711D01*
X226455639Y-116286222D01*
X226462637Y-116258285D01*
X226472340Y-116231168D01*
X226484653Y-116205133D01*
X226499460Y-116180430D01*
X226516616Y-116157297D01*
X226535957Y-116135957D01*
X226557297Y-116116616D01*
X226580430Y-116099460D01*
X226605133Y-116084653D01*
X226631168Y-116072340D01*
X226658285Y-116062637D01*
X226686222Y-116055639D01*
X226714711Y-116051413D01*
X226743477Y-116050000D01*
X227756523Y-116050000D01*
X227785289Y-116051413D01*
X227785289Y-116051413D01*
G37*
D14*
X227250000Y-116725000D03*
G04 #@! TD*
D13*
G04 #@! TO.C,C3*
G36*
X230091289Y-106961413D02*
X230119778Y-106965639D01*
X230147715Y-106972637D01*
X230174832Y-106982340D01*
X230200867Y-106994653D01*
X230225570Y-107009460D01*
X230248703Y-107026616D01*
X230270043Y-107045957D01*
X230289384Y-107067297D01*
X230306540Y-107090430D01*
X230321347Y-107115133D01*
X230333660Y-107141168D01*
X230343363Y-107168285D01*
X230350361Y-107196222D01*
X230354587Y-107224711D01*
X230356000Y-107253477D01*
X230356000Y-108266523D01*
X230354587Y-108295289D01*
X230350361Y-108323778D01*
X230343363Y-108351715D01*
X230333660Y-108378832D01*
X230321347Y-108404867D01*
X230306540Y-108429570D01*
X230289384Y-108452703D01*
X230270043Y-108474043D01*
X230248703Y-108493384D01*
X230225570Y-108510540D01*
X230200867Y-108525347D01*
X230174832Y-108537660D01*
X230147715Y-108547363D01*
X230119778Y-108554361D01*
X230091289Y-108558587D01*
X230062523Y-108560000D01*
X229299477Y-108560000D01*
X229270711Y-108558587D01*
X229242222Y-108554361D01*
X229214285Y-108547363D01*
X229187168Y-108537660D01*
X229161133Y-108525347D01*
X229136430Y-108510540D01*
X229113297Y-108493384D01*
X229091957Y-108474043D01*
X229072616Y-108452703D01*
X229055460Y-108429570D01*
X229040653Y-108404867D01*
X229028340Y-108378832D01*
X229018637Y-108351715D01*
X229011639Y-108323778D01*
X229007413Y-108295289D01*
X229006000Y-108266523D01*
X229006000Y-107253477D01*
X229007413Y-107224711D01*
X229011639Y-107196222D01*
X229018637Y-107168285D01*
X229028340Y-107141168D01*
X229040653Y-107115133D01*
X229055460Y-107090430D01*
X229072616Y-107067297D01*
X229091957Y-107045957D01*
X229113297Y-107026616D01*
X229136430Y-107009460D01*
X229161133Y-106994653D01*
X229187168Y-106982340D01*
X229214285Y-106972637D01*
X229242222Y-106965639D01*
X229270711Y-106961413D01*
X229299477Y-106960000D01*
X230062523Y-106960000D01*
X230091289Y-106961413D01*
X230091289Y-106961413D01*
G37*
D14*
X229681000Y-107760000D03*
D13*
G36*
X232141289Y-106961413D02*
X232169778Y-106965639D01*
X232197715Y-106972637D01*
X232224832Y-106982340D01*
X232250867Y-106994653D01*
X232275570Y-107009460D01*
X232298703Y-107026616D01*
X232320043Y-107045957D01*
X232339384Y-107067297D01*
X232356540Y-107090430D01*
X232371347Y-107115133D01*
X232383660Y-107141168D01*
X232393363Y-107168285D01*
X232400361Y-107196222D01*
X232404587Y-107224711D01*
X232406000Y-107253477D01*
X232406000Y-108266523D01*
X232404587Y-108295289D01*
X232400361Y-108323778D01*
X232393363Y-108351715D01*
X232383660Y-108378832D01*
X232371347Y-108404867D01*
X232356540Y-108429570D01*
X232339384Y-108452703D01*
X232320043Y-108474043D01*
X232298703Y-108493384D01*
X232275570Y-108510540D01*
X232250867Y-108525347D01*
X232224832Y-108537660D01*
X232197715Y-108547363D01*
X232169778Y-108554361D01*
X232141289Y-108558587D01*
X232112523Y-108560000D01*
X231349477Y-108560000D01*
X231320711Y-108558587D01*
X231292222Y-108554361D01*
X231264285Y-108547363D01*
X231237168Y-108537660D01*
X231211133Y-108525347D01*
X231186430Y-108510540D01*
X231163297Y-108493384D01*
X231141957Y-108474043D01*
X231122616Y-108452703D01*
X231105460Y-108429570D01*
X231090653Y-108404867D01*
X231078340Y-108378832D01*
X231068637Y-108351715D01*
X231061639Y-108323778D01*
X231057413Y-108295289D01*
X231056000Y-108266523D01*
X231056000Y-107253477D01*
X231057413Y-107224711D01*
X231061639Y-107196222D01*
X231068637Y-107168285D01*
X231078340Y-107141168D01*
X231090653Y-107115133D01*
X231105460Y-107090430D01*
X231122616Y-107067297D01*
X231141957Y-107045957D01*
X231163297Y-107026616D01*
X231186430Y-107009460D01*
X231211133Y-106994653D01*
X231237168Y-106982340D01*
X231264285Y-106972637D01*
X231292222Y-106965639D01*
X231320711Y-106961413D01*
X231349477Y-106960000D01*
X232112523Y-106960000D01*
X232141289Y-106961413D01*
X232141289Y-106961413D01*
G37*
D14*
X231731000Y-107760000D03*
G04 #@! TD*
D13*
G04 #@! TO.C,C4*
G36*
X232763289Y-76401413D02*
X232791778Y-76405639D01*
X232819715Y-76412637D01*
X232846832Y-76422340D01*
X232872867Y-76434653D01*
X232897570Y-76449460D01*
X232920703Y-76466616D01*
X232942043Y-76485957D01*
X232961384Y-76507297D01*
X232978540Y-76530430D01*
X232993347Y-76555133D01*
X233005660Y-76581168D01*
X233015363Y-76608285D01*
X233022361Y-76636222D01*
X233026587Y-76664711D01*
X233028000Y-76693477D01*
X233028000Y-77706523D01*
X233026587Y-77735289D01*
X233022361Y-77763778D01*
X233015363Y-77791715D01*
X233005660Y-77818832D01*
X232993347Y-77844867D01*
X232978540Y-77869570D01*
X232961384Y-77892703D01*
X232942043Y-77914043D01*
X232920703Y-77933384D01*
X232897570Y-77950540D01*
X232872867Y-77965347D01*
X232846832Y-77977660D01*
X232819715Y-77987363D01*
X232791778Y-77994361D01*
X232763289Y-77998587D01*
X232734523Y-78000000D01*
X231971477Y-78000000D01*
X231942711Y-77998587D01*
X231914222Y-77994361D01*
X231886285Y-77987363D01*
X231859168Y-77977660D01*
X231833133Y-77965347D01*
X231808430Y-77950540D01*
X231785297Y-77933384D01*
X231763957Y-77914043D01*
X231744616Y-77892703D01*
X231727460Y-77869570D01*
X231712653Y-77844867D01*
X231700340Y-77818832D01*
X231690637Y-77791715D01*
X231683639Y-77763778D01*
X231679413Y-77735289D01*
X231678000Y-77706523D01*
X231678000Y-76693477D01*
X231679413Y-76664711D01*
X231683639Y-76636222D01*
X231690637Y-76608285D01*
X231700340Y-76581168D01*
X231712653Y-76555133D01*
X231727460Y-76530430D01*
X231744616Y-76507297D01*
X231763957Y-76485957D01*
X231785297Y-76466616D01*
X231808430Y-76449460D01*
X231833133Y-76434653D01*
X231859168Y-76422340D01*
X231886285Y-76412637D01*
X231914222Y-76405639D01*
X231942711Y-76401413D01*
X231971477Y-76400000D01*
X232734523Y-76400000D01*
X232763289Y-76401413D01*
X232763289Y-76401413D01*
G37*
D14*
X232353000Y-77200000D03*
D13*
G36*
X230713289Y-76401413D02*
X230741778Y-76405639D01*
X230769715Y-76412637D01*
X230796832Y-76422340D01*
X230822867Y-76434653D01*
X230847570Y-76449460D01*
X230870703Y-76466616D01*
X230892043Y-76485957D01*
X230911384Y-76507297D01*
X230928540Y-76530430D01*
X230943347Y-76555133D01*
X230955660Y-76581168D01*
X230965363Y-76608285D01*
X230972361Y-76636222D01*
X230976587Y-76664711D01*
X230978000Y-76693477D01*
X230978000Y-77706523D01*
X230976587Y-77735289D01*
X230972361Y-77763778D01*
X230965363Y-77791715D01*
X230955660Y-77818832D01*
X230943347Y-77844867D01*
X230928540Y-77869570D01*
X230911384Y-77892703D01*
X230892043Y-77914043D01*
X230870703Y-77933384D01*
X230847570Y-77950540D01*
X230822867Y-77965347D01*
X230796832Y-77977660D01*
X230769715Y-77987363D01*
X230741778Y-77994361D01*
X230713289Y-77998587D01*
X230684523Y-78000000D01*
X229921477Y-78000000D01*
X229892711Y-77998587D01*
X229864222Y-77994361D01*
X229836285Y-77987363D01*
X229809168Y-77977660D01*
X229783133Y-77965347D01*
X229758430Y-77950540D01*
X229735297Y-77933384D01*
X229713957Y-77914043D01*
X229694616Y-77892703D01*
X229677460Y-77869570D01*
X229662653Y-77844867D01*
X229650340Y-77818832D01*
X229640637Y-77791715D01*
X229633639Y-77763778D01*
X229629413Y-77735289D01*
X229628000Y-77706523D01*
X229628000Y-76693477D01*
X229629413Y-76664711D01*
X229633639Y-76636222D01*
X229640637Y-76608285D01*
X229650340Y-76581168D01*
X229662653Y-76555133D01*
X229677460Y-76530430D01*
X229694616Y-76507297D01*
X229713957Y-76485957D01*
X229735297Y-76466616D01*
X229758430Y-76449460D01*
X229783133Y-76434653D01*
X229809168Y-76422340D01*
X229836285Y-76412637D01*
X229864222Y-76405639D01*
X229892711Y-76401413D01*
X229921477Y-76400000D01*
X230684523Y-76400000D01*
X230713289Y-76401413D01*
X230713289Y-76401413D01*
G37*
D14*
X230303000Y-77200000D03*
G04 #@! TD*
D13*
G04 #@! TO.C,C5*
G36*
X192860258Y-103366672D02*
X192888747Y-103370898D01*
X192916684Y-103377896D01*
X192943801Y-103387599D01*
X192969836Y-103399912D01*
X192994539Y-103414719D01*
X193017672Y-103431875D01*
X193039012Y-103451216D01*
X193058353Y-103472556D01*
X193075509Y-103495689D01*
X193090316Y-103520392D01*
X193102629Y-103546427D01*
X193112332Y-103573544D01*
X193119330Y-103601481D01*
X193123556Y-103629970D01*
X193124969Y-103658736D01*
X193124969Y-104421782D01*
X193123556Y-104450548D01*
X193119330Y-104479037D01*
X193112332Y-104506974D01*
X193102629Y-104534091D01*
X193090316Y-104560126D01*
X193075509Y-104584829D01*
X193058353Y-104607962D01*
X193039012Y-104629302D01*
X193017672Y-104648643D01*
X192994539Y-104665799D01*
X192969836Y-104680606D01*
X192943801Y-104692919D01*
X192916684Y-104702622D01*
X192888747Y-104709620D01*
X192860258Y-104713846D01*
X192831492Y-104715259D01*
X191818446Y-104715259D01*
X191789680Y-104713846D01*
X191761191Y-104709620D01*
X191733254Y-104702622D01*
X191706137Y-104692919D01*
X191680102Y-104680606D01*
X191655399Y-104665799D01*
X191632266Y-104648643D01*
X191610926Y-104629302D01*
X191591585Y-104607962D01*
X191574429Y-104584829D01*
X191559622Y-104560126D01*
X191547309Y-104534091D01*
X191537606Y-104506974D01*
X191530608Y-104479037D01*
X191526382Y-104450548D01*
X191524969Y-104421782D01*
X191524969Y-103658736D01*
X191526382Y-103629970D01*
X191530608Y-103601481D01*
X191537606Y-103573544D01*
X191547309Y-103546427D01*
X191559622Y-103520392D01*
X191574429Y-103495689D01*
X191591585Y-103472556D01*
X191610926Y-103451216D01*
X191632266Y-103431875D01*
X191655399Y-103414719D01*
X191680102Y-103399912D01*
X191706137Y-103387599D01*
X191733254Y-103377896D01*
X191761191Y-103370898D01*
X191789680Y-103366672D01*
X191818446Y-103365259D01*
X192831492Y-103365259D01*
X192860258Y-103366672D01*
X192860258Y-103366672D01*
G37*
D14*
X192324969Y-104040259D03*
D13*
G36*
X192860258Y-101316672D02*
X192888747Y-101320898D01*
X192916684Y-101327896D01*
X192943801Y-101337599D01*
X192969836Y-101349912D01*
X192994539Y-101364719D01*
X193017672Y-101381875D01*
X193039012Y-101401216D01*
X193058353Y-101422556D01*
X193075509Y-101445689D01*
X193090316Y-101470392D01*
X193102629Y-101496427D01*
X193112332Y-101523544D01*
X193119330Y-101551481D01*
X193123556Y-101579970D01*
X193124969Y-101608736D01*
X193124969Y-102371782D01*
X193123556Y-102400548D01*
X193119330Y-102429037D01*
X193112332Y-102456974D01*
X193102629Y-102484091D01*
X193090316Y-102510126D01*
X193075509Y-102534829D01*
X193058353Y-102557962D01*
X193039012Y-102579302D01*
X193017672Y-102598643D01*
X192994539Y-102615799D01*
X192969836Y-102630606D01*
X192943801Y-102642919D01*
X192916684Y-102652622D01*
X192888747Y-102659620D01*
X192860258Y-102663846D01*
X192831492Y-102665259D01*
X191818446Y-102665259D01*
X191789680Y-102663846D01*
X191761191Y-102659620D01*
X191733254Y-102652622D01*
X191706137Y-102642919D01*
X191680102Y-102630606D01*
X191655399Y-102615799D01*
X191632266Y-102598643D01*
X191610926Y-102579302D01*
X191591585Y-102557962D01*
X191574429Y-102534829D01*
X191559622Y-102510126D01*
X191547309Y-102484091D01*
X191537606Y-102456974D01*
X191530608Y-102429037D01*
X191526382Y-102400548D01*
X191524969Y-102371782D01*
X191524969Y-101608736D01*
X191526382Y-101579970D01*
X191530608Y-101551481D01*
X191537606Y-101523544D01*
X191547309Y-101496427D01*
X191559622Y-101470392D01*
X191574429Y-101445689D01*
X191591585Y-101422556D01*
X191610926Y-101401216D01*
X191632266Y-101381875D01*
X191655399Y-101364719D01*
X191680102Y-101349912D01*
X191706137Y-101337599D01*
X191733254Y-101327896D01*
X191761191Y-101320898D01*
X191789680Y-101316672D01*
X191818446Y-101315259D01*
X192831492Y-101315259D01*
X192860258Y-101316672D01*
X192860258Y-101316672D01*
G37*
D14*
X192324969Y-101990259D03*
G04 #@! TD*
D13*
G04 #@! TO.C,C6*
G36*
X192860258Y-99556672D02*
X192888747Y-99560898D01*
X192916684Y-99567896D01*
X192943801Y-99577599D01*
X192969836Y-99589912D01*
X192994539Y-99604719D01*
X193017672Y-99621875D01*
X193039012Y-99641216D01*
X193058353Y-99662556D01*
X193075509Y-99685689D01*
X193090316Y-99710392D01*
X193102629Y-99736427D01*
X193112332Y-99763544D01*
X193119330Y-99791481D01*
X193123556Y-99819970D01*
X193124969Y-99848736D01*
X193124969Y-100611782D01*
X193123556Y-100640548D01*
X193119330Y-100669037D01*
X193112332Y-100696974D01*
X193102629Y-100724091D01*
X193090316Y-100750126D01*
X193075509Y-100774829D01*
X193058353Y-100797962D01*
X193039012Y-100819302D01*
X193017672Y-100838643D01*
X192994539Y-100855799D01*
X192969836Y-100870606D01*
X192943801Y-100882919D01*
X192916684Y-100892622D01*
X192888747Y-100899620D01*
X192860258Y-100903846D01*
X192831492Y-100905259D01*
X191818446Y-100905259D01*
X191789680Y-100903846D01*
X191761191Y-100899620D01*
X191733254Y-100892622D01*
X191706137Y-100882919D01*
X191680102Y-100870606D01*
X191655399Y-100855799D01*
X191632266Y-100838643D01*
X191610926Y-100819302D01*
X191591585Y-100797962D01*
X191574429Y-100774829D01*
X191559622Y-100750126D01*
X191547309Y-100724091D01*
X191537606Y-100696974D01*
X191530608Y-100669037D01*
X191526382Y-100640548D01*
X191524969Y-100611782D01*
X191524969Y-99848736D01*
X191526382Y-99819970D01*
X191530608Y-99791481D01*
X191537606Y-99763544D01*
X191547309Y-99736427D01*
X191559622Y-99710392D01*
X191574429Y-99685689D01*
X191591585Y-99662556D01*
X191610926Y-99641216D01*
X191632266Y-99621875D01*
X191655399Y-99604719D01*
X191680102Y-99589912D01*
X191706137Y-99577599D01*
X191733254Y-99567896D01*
X191761191Y-99560898D01*
X191789680Y-99556672D01*
X191818446Y-99555259D01*
X192831492Y-99555259D01*
X192860258Y-99556672D01*
X192860258Y-99556672D01*
G37*
D14*
X192324969Y-100230259D03*
D13*
G36*
X192860258Y-97506672D02*
X192888747Y-97510898D01*
X192916684Y-97517896D01*
X192943801Y-97527599D01*
X192969836Y-97539912D01*
X192994539Y-97554719D01*
X193017672Y-97571875D01*
X193039012Y-97591216D01*
X193058353Y-97612556D01*
X193075509Y-97635689D01*
X193090316Y-97660392D01*
X193102629Y-97686427D01*
X193112332Y-97713544D01*
X193119330Y-97741481D01*
X193123556Y-97769970D01*
X193124969Y-97798736D01*
X193124969Y-98561782D01*
X193123556Y-98590548D01*
X193119330Y-98619037D01*
X193112332Y-98646974D01*
X193102629Y-98674091D01*
X193090316Y-98700126D01*
X193075509Y-98724829D01*
X193058353Y-98747962D01*
X193039012Y-98769302D01*
X193017672Y-98788643D01*
X192994539Y-98805799D01*
X192969836Y-98820606D01*
X192943801Y-98832919D01*
X192916684Y-98842622D01*
X192888747Y-98849620D01*
X192860258Y-98853846D01*
X192831492Y-98855259D01*
X191818446Y-98855259D01*
X191789680Y-98853846D01*
X191761191Y-98849620D01*
X191733254Y-98842622D01*
X191706137Y-98832919D01*
X191680102Y-98820606D01*
X191655399Y-98805799D01*
X191632266Y-98788643D01*
X191610926Y-98769302D01*
X191591585Y-98747962D01*
X191574429Y-98724829D01*
X191559622Y-98700126D01*
X191547309Y-98674091D01*
X191537606Y-98646974D01*
X191530608Y-98619037D01*
X191526382Y-98590548D01*
X191524969Y-98561782D01*
X191524969Y-97798736D01*
X191526382Y-97769970D01*
X191530608Y-97741481D01*
X191537606Y-97713544D01*
X191547309Y-97686427D01*
X191559622Y-97660392D01*
X191574429Y-97635689D01*
X191591585Y-97612556D01*
X191610926Y-97591216D01*
X191632266Y-97571875D01*
X191655399Y-97554719D01*
X191680102Y-97539912D01*
X191706137Y-97527599D01*
X191733254Y-97517896D01*
X191761191Y-97510898D01*
X191789680Y-97506672D01*
X191818446Y-97505259D01*
X192831492Y-97505259D01*
X192860258Y-97506672D01*
X192860258Y-97506672D01*
G37*
D14*
X192324969Y-98180259D03*
G04 #@! TD*
D13*
G04 #@! TO.C,C7*
G36*
X192860258Y-93696672D02*
X192888747Y-93700898D01*
X192916684Y-93707896D01*
X192943801Y-93717599D01*
X192969836Y-93729912D01*
X192994539Y-93744719D01*
X193017672Y-93761875D01*
X193039012Y-93781216D01*
X193058353Y-93802556D01*
X193075509Y-93825689D01*
X193090316Y-93850392D01*
X193102629Y-93876427D01*
X193112332Y-93903544D01*
X193119330Y-93931481D01*
X193123556Y-93959970D01*
X193124969Y-93988736D01*
X193124969Y-94751782D01*
X193123556Y-94780548D01*
X193119330Y-94809037D01*
X193112332Y-94836974D01*
X193102629Y-94864091D01*
X193090316Y-94890126D01*
X193075509Y-94914829D01*
X193058353Y-94937962D01*
X193039012Y-94959302D01*
X193017672Y-94978643D01*
X192994539Y-94995799D01*
X192969836Y-95010606D01*
X192943801Y-95022919D01*
X192916684Y-95032622D01*
X192888747Y-95039620D01*
X192860258Y-95043846D01*
X192831492Y-95045259D01*
X191818446Y-95045259D01*
X191789680Y-95043846D01*
X191761191Y-95039620D01*
X191733254Y-95032622D01*
X191706137Y-95022919D01*
X191680102Y-95010606D01*
X191655399Y-94995799D01*
X191632266Y-94978643D01*
X191610926Y-94959302D01*
X191591585Y-94937962D01*
X191574429Y-94914829D01*
X191559622Y-94890126D01*
X191547309Y-94864091D01*
X191537606Y-94836974D01*
X191530608Y-94809037D01*
X191526382Y-94780548D01*
X191524969Y-94751782D01*
X191524969Y-93988736D01*
X191526382Y-93959970D01*
X191530608Y-93931481D01*
X191537606Y-93903544D01*
X191547309Y-93876427D01*
X191559622Y-93850392D01*
X191574429Y-93825689D01*
X191591585Y-93802556D01*
X191610926Y-93781216D01*
X191632266Y-93761875D01*
X191655399Y-93744719D01*
X191680102Y-93729912D01*
X191706137Y-93717599D01*
X191733254Y-93707896D01*
X191761191Y-93700898D01*
X191789680Y-93696672D01*
X191818446Y-93695259D01*
X192831492Y-93695259D01*
X192860258Y-93696672D01*
X192860258Y-93696672D01*
G37*
D14*
X192324969Y-94370259D03*
D13*
G36*
X192860258Y-95746672D02*
X192888747Y-95750898D01*
X192916684Y-95757896D01*
X192943801Y-95767599D01*
X192969836Y-95779912D01*
X192994539Y-95794719D01*
X193017672Y-95811875D01*
X193039012Y-95831216D01*
X193058353Y-95852556D01*
X193075509Y-95875689D01*
X193090316Y-95900392D01*
X193102629Y-95926427D01*
X193112332Y-95953544D01*
X193119330Y-95981481D01*
X193123556Y-96009970D01*
X193124969Y-96038736D01*
X193124969Y-96801782D01*
X193123556Y-96830548D01*
X193119330Y-96859037D01*
X193112332Y-96886974D01*
X193102629Y-96914091D01*
X193090316Y-96940126D01*
X193075509Y-96964829D01*
X193058353Y-96987962D01*
X193039012Y-97009302D01*
X193017672Y-97028643D01*
X192994539Y-97045799D01*
X192969836Y-97060606D01*
X192943801Y-97072919D01*
X192916684Y-97082622D01*
X192888747Y-97089620D01*
X192860258Y-97093846D01*
X192831492Y-97095259D01*
X191818446Y-97095259D01*
X191789680Y-97093846D01*
X191761191Y-97089620D01*
X191733254Y-97082622D01*
X191706137Y-97072919D01*
X191680102Y-97060606D01*
X191655399Y-97045799D01*
X191632266Y-97028643D01*
X191610926Y-97009302D01*
X191591585Y-96987962D01*
X191574429Y-96964829D01*
X191559622Y-96940126D01*
X191547309Y-96914091D01*
X191537606Y-96886974D01*
X191530608Y-96859037D01*
X191526382Y-96830548D01*
X191524969Y-96801782D01*
X191524969Y-96038736D01*
X191526382Y-96009970D01*
X191530608Y-95981481D01*
X191537606Y-95953544D01*
X191547309Y-95926427D01*
X191559622Y-95900392D01*
X191574429Y-95875689D01*
X191591585Y-95852556D01*
X191610926Y-95831216D01*
X191632266Y-95811875D01*
X191655399Y-95794719D01*
X191680102Y-95779912D01*
X191706137Y-95767599D01*
X191733254Y-95757896D01*
X191761191Y-95750898D01*
X191789680Y-95746672D01*
X191818446Y-95745259D01*
X192831492Y-95745259D01*
X192860258Y-95746672D01*
X192860258Y-95746672D01*
G37*
D14*
X192324969Y-96420259D03*
G04 #@! TD*
D13*
G04 #@! TO.C,C8*
G36*
X192860258Y-91901671D02*
X192888747Y-91905897D01*
X192916684Y-91912895D01*
X192943801Y-91922598D01*
X192969836Y-91934911D01*
X192994539Y-91949718D01*
X193017672Y-91966874D01*
X193039012Y-91986215D01*
X193058353Y-92007555D01*
X193075509Y-92030688D01*
X193090316Y-92055391D01*
X193102629Y-92081426D01*
X193112332Y-92108543D01*
X193119330Y-92136480D01*
X193123556Y-92164969D01*
X193124969Y-92193735D01*
X193124969Y-92956781D01*
X193123556Y-92985547D01*
X193119330Y-93014036D01*
X193112332Y-93041973D01*
X193102629Y-93069090D01*
X193090316Y-93095125D01*
X193075509Y-93119828D01*
X193058353Y-93142961D01*
X193039012Y-93164301D01*
X193017672Y-93183642D01*
X192994539Y-93200798D01*
X192969836Y-93215605D01*
X192943801Y-93227918D01*
X192916684Y-93237621D01*
X192888747Y-93244619D01*
X192860258Y-93248845D01*
X192831492Y-93250258D01*
X191818446Y-93250258D01*
X191789680Y-93248845D01*
X191761191Y-93244619D01*
X191733254Y-93237621D01*
X191706137Y-93227918D01*
X191680102Y-93215605D01*
X191655399Y-93200798D01*
X191632266Y-93183642D01*
X191610926Y-93164301D01*
X191591585Y-93142961D01*
X191574429Y-93119828D01*
X191559622Y-93095125D01*
X191547309Y-93069090D01*
X191537606Y-93041973D01*
X191530608Y-93014036D01*
X191526382Y-92985547D01*
X191524969Y-92956781D01*
X191524969Y-92193735D01*
X191526382Y-92164969D01*
X191530608Y-92136480D01*
X191537606Y-92108543D01*
X191547309Y-92081426D01*
X191559622Y-92055391D01*
X191574429Y-92030688D01*
X191591585Y-92007555D01*
X191610926Y-91986215D01*
X191632266Y-91966874D01*
X191655399Y-91949718D01*
X191680102Y-91934911D01*
X191706137Y-91922598D01*
X191733254Y-91912895D01*
X191761191Y-91905897D01*
X191789680Y-91901671D01*
X191818446Y-91900258D01*
X192831492Y-91900258D01*
X192860258Y-91901671D01*
X192860258Y-91901671D01*
G37*
D14*
X192324969Y-92575258D03*
D13*
G36*
X192860258Y-89851671D02*
X192888747Y-89855897D01*
X192916684Y-89862895D01*
X192943801Y-89872598D01*
X192969836Y-89884911D01*
X192994539Y-89899718D01*
X193017672Y-89916874D01*
X193039012Y-89936215D01*
X193058353Y-89957555D01*
X193075509Y-89980688D01*
X193090316Y-90005391D01*
X193102629Y-90031426D01*
X193112332Y-90058543D01*
X193119330Y-90086480D01*
X193123556Y-90114969D01*
X193124969Y-90143735D01*
X193124969Y-90906781D01*
X193123556Y-90935547D01*
X193119330Y-90964036D01*
X193112332Y-90991973D01*
X193102629Y-91019090D01*
X193090316Y-91045125D01*
X193075509Y-91069828D01*
X193058353Y-91092961D01*
X193039012Y-91114301D01*
X193017672Y-91133642D01*
X192994539Y-91150798D01*
X192969836Y-91165605D01*
X192943801Y-91177918D01*
X192916684Y-91187621D01*
X192888747Y-91194619D01*
X192860258Y-91198845D01*
X192831492Y-91200258D01*
X191818446Y-91200258D01*
X191789680Y-91198845D01*
X191761191Y-91194619D01*
X191733254Y-91187621D01*
X191706137Y-91177918D01*
X191680102Y-91165605D01*
X191655399Y-91150798D01*
X191632266Y-91133642D01*
X191610926Y-91114301D01*
X191591585Y-91092961D01*
X191574429Y-91069828D01*
X191559622Y-91045125D01*
X191547309Y-91019090D01*
X191537606Y-90991973D01*
X191530608Y-90964036D01*
X191526382Y-90935547D01*
X191524969Y-90906781D01*
X191524969Y-90143735D01*
X191526382Y-90114969D01*
X191530608Y-90086480D01*
X191537606Y-90058543D01*
X191547309Y-90031426D01*
X191559622Y-90005391D01*
X191574429Y-89980688D01*
X191591585Y-89957555D01*
X191610926Y-89936215D01*
X191632266Y-89916874D01*
X191655399Y-89899718D01*
X191680102Y-89884911D01*
X191706137Y-89872598D01*
X191733254Y-89862895D01*
X191761191Y-89855897D01*
X191789680Y-89851671D01*
X191818446Y-89850258D01*
X192831492Y-89850258D01*
X192860258Y-89851671D01*
X192860258Y-89851671D01*
G37*
D14*
X192324969Y-90525258D03*
G04 #@! TD*
D13*
G04 #@! TO.C,C9*
G36*
X192860258Y-85822672D02*
X192888747Y-85826898D01*
X192916684Y-85833896D01*
X192943801Y-85843599D01*
X192969836Y-85855912D01*
X192994539Y-85870719D01*
X193017672Y-85887875D01*
X193039012Y-85907216D01*
X193058353Y-85928556D01*
X193075509Y-85951689D01*
X193090316Y-85976392D01*
X193102629Y-86002427D01*
X193112332Y-86029544D01*
X193119330Y-86057481D01*
X193123556Y-86085970D01*
X193124969Y-86114736D01*
X193124969Y-86877782D01*
X193123556Y-86906548D01*
X193119330Y-86935037D01*
X193112332Y-86962974D01*
X193102629Y-86990091D01*
X193090316Y-87016126D01*
X193075509Y-87040829D01*
X193058353Y-87063962D01*
X193039012Y-87085302D01*
X193017672Y-87104643D01*
X192994539Y-87121799D01*
X192969836Y-87136606D01*
X192943801Y-87148919D01*
X192916684Y-87158622D01*
X192888747Y-87165620D01*
X192860258Y-87169846D01*
X192831492Y-87171259D01*
X191818446Y-87171259D01*
X191789680Y-87169846D01*
X191761191Y-87165620D01*
X191733254Y-87158622D01*
X191706137Y-87148919D01*
X191680102Y-87136606D01*
X191655399Y-87121799D01*
X191632266Y-87104643D01*
X191610926Y-87085302D01*
X191591585Y-87063962D01*
X191574429Y-87040829D01*
X191559622Y-87016126D01*
X191547309Y-86990091D01*
X191537606Y-86962974D01*
X191530608Y-86935037D01*
X191526382Y-86906548D01*
X191524969Y-86877782D01*
X191524969Y-86114736D01*
X191526382Y-86085970D01*
X191530608Y-86057481D01*
X191537606Y-86029544D01*
X191547309Y-86002427D01*
X191559622Y-85976392D01*
X191574429Y-85951689D01*
X191591585Y-85928556D01*
X191610926Y-85907216D01*
X191632266Y-85887875D01*
X191655399Y-85870719D01*
X191680102Y-85855912D01*
X191706137Y-85843599D01*
X191733254Y-85833896D01*
X191761191Y-85826898D01*
X191789680Y-85822672D01*
X191818446Y-85821259D01*
X192831492Y-85821259D01*
X192860258Y-85822672D01*
X192860258Y-85822672D01*
G37*
D14*
X192324969Y-86496259D03*
D13*
G36*
X192860258Y-87872672D02*
X192888747Y-87876898D01*
X192916684Y-87883896D01*
X192943801Y-87893599D01*
X192969836Y-87905912D01*
X192994539Y-87920719D01*
X193017672Y-87937875D01*
X193039012Y-87957216D01*
X193058353Y-87978556D01*
X193075509Y-88001689D01*
X193090316Y-88026392D01*
X193102629Y-88052427D01*
X193112332Y-88079544D01*
X193119330Y-88107481D01*
X193123556Y-88135970D01*
X193124969Y-88164736D01*
X193124969Y-88927782D01*
X193123556Y-88956548D01*
X193119330Y-88985037D01*
X193112332Y-89012974D01*
X193102629Y-89040091D01*
X193090316Y-89066126D01*
X193075509Y-89090829D01*
X193058353Y-89113962D01*
X193039012Y-89135302D01*
X193017672Y-89154643D01*
X192994539Y-89171799D01*
X192969836Y-89186606D01*
X192943801Y-89198919D01*
X192916684Y-89208622D01*
X192888747Y-89215620D01*
X192860258Y-89219846D01*
X192831492Y-89221259D01*
X191818446Y-89221259D01*
X191789680Y-89219846D01*
X191761191Y-89215620D01*
X191733254Y-89208622D01*
X191706137Y-89198919D01*
X191680102Y-89186606D01*
X191655399Y-89171799D01*
X191632266Y-89154643D01*
X191610926Y-89135302D01*
X191591585Y-89113962D01*
X191574429Y-89090829D01*
X191559622Y-89066126D01*
X191547309Y-89040091D01*
X191537606Y-89012974D01*
X191530608Y-88985037D01*
X191526382Y-88956548D01*
X191524969Y-88927782D01*
X191524969Y-88164736D01*
X191526382Y-88135970D01*
X191530608Y-88107481D01*
X191537606Y-88079544D01*
X191547309Y-88052427D01*
X191559622Y-88026392D01*
X191574429Y-88001689D01*
X191591585Y-87978556D01*
X191610926Y-87957216D01*
X191632266Y-87937875D01*
X191655399Y-87920719D01*
X191680102Y-87905912D01*
X191706137Y-87893599D01*
X191733254Y-87883896D01*
X191761191Y-87876898D01*
X191789680Y-87872672D01*
X191818446Y-87871259D01*
X192831492Y-87871259D01*
X192860258Y-87872672D01*
X192860258Y-87872672D01*
G37*
D14*
X192324969Y-88546259D03*
G04 #@! TD*
D13*
G04 #@! TO.C,C10*
G36*
X192860258Y-83893671D02*
X192888747Y-83897897D01*
X192916684Y-83904895D01*
X192943801Y-83914598D01*
X192969836Y-83926911D01*
X192994539Y-83941718D01*
X193017672Y-83958874D01*
X193039012Y-83978215D01*
X193058353Y-83999555D01*
X193075509Y-84022688D01*
X193090316Y-84047391D01*
X193102629Y-84073426D01*
X193112332Y-84100543D01*
X193119330Y-84128480D01*
X193123556Y-84156969D01*
X193124969Y-84185735D01*
X193124969Y-84948781D01*
X193123556Y-84977547D01*
X193119330Y-85006036D01*
X193112332Y-85033973D01*
X193102629Y-85061090D01*
X193090316Y-85087125D01*
X193075509Y-85111828D01*
X193058353Y-85134961D01*
X193039012Y-85156301D01*
X193017672Y-85175642D01*
X192994539Y-85192798D01*
X192969836Y-85207605D01*
X192943801Y-85219918D01*
X192916684Y-85229621D01*
X192888747Y-85236619D01*
X192860258Y-85240845D01*
X192831492Y-85242258D01*
X191818446Y-85242258D01*
X191789680Y-85240845D01*
X191761191Y-85236619D01*
X191733254Y-85229621D01*
X191706137Y-85219918D01*
X191680102Y-85207605D01*
X191655399Y-85192798D01*
X191632266Y-85175642D01*
X191610926Y-85156301D01*
X191591585Y-85134961D01*
X191574429Y-85111828D01*
X191559622Y-85087125D01*
X191547309Y-85061090D01*
X191537606Y-85033973D01*
X191530608Y-85006036D01*
X191526382Y-84977547D01*
X191524969Y-84948781D01*
X191524969Y-84185735D01*
X191526382Y-84156969D01*
X191530608Y-84128480D01*
X191537606Y-84100543D01*
X191547309Y-84073426D01*
X191559622Y-84047391D01*
X191574429Y-84022688D01*
X191591585Y-83999555D01*
X191610926Y-83978215D01*
X191632266Y-83958874D01*
X191655399Y-83941718D01*
X191680102Y-83926911D01*
X191706137Y-83914598D01*
X191733254Y-83904895D01*
X191761191Y-83897897D01*
X191789680Y-83893671D01*
X191818446Y-83892258D01*
X192831492Y-83892258D01*
X192860258Y-83893671D01*
X192860258Y-83893671D01*
G37*
D14*
X192324969Y-84567258D03*
D13*
G36*
X192860258Y-81843671D02*
X192888747Y-81847897D01*
X192916684Y-81854895D01*
X192943801Y-81864598D01*
X192969836Y-81876911D01*
X192994539Y-81891718D01*
X193017672Y-81908874D01*
X193039012Y-81928215D01*
X193058353Y-81949555D01*
X193075509Y-81972688D01*
X193090316Y-81997391D01*
X193102629Y-82023426D01*
X193112332Y-82050543D01*
X193119330Y-82078480D01*
X193123556Y-82106969D01*
X193124969Y-82135735D01*
X193124969Y-82898781D01*
X193123556Y-82927547D01*
X193119330Y-82956036D01*
X193112332Y-82983973D01*
X193102629Y-83011090D01*
X193090316Y-83037125D01*
X193075509Y-83061828D01*
X193058353Y-83084961D01*
X193039012Y-83106301D01*
X193017672Y-83125642D01*
X192994539Y-83142798D01*
X192969836Y-83157605D01*
X192943801Y-83169918D01*
X192916684Y-83179621D01*
X192888747Y-83186619D01*
X192860258Y-83190845D01*
X192831492Y-83192258D01*
X191818446Y-83192258D01*
X191789680Y-83190845D01*
X191761191Y-83186619D01*
X191733254Y-83179621D01*
X191706137Y-83169918D01*
X191680102Y-83157605D01*
X191655399Y-83142798D01*
X191632266Y-83125642D01*
X191610926Y-83106301D01*
X191591585Y-83084961D01*
X191574429Y-83061828D01*
X191559622Y-83037125D01*
X191547309Y-83011090D01*
X191537606Y-82983973D01*
X191530608Y-82956036D01*
X191526382Y-82927547D01*
X191524969Y-82898781D01*
X191524969Y-82135735D01*
X191526382Y-82106969D01*
X191530608Y-82078480D01*
X191537606Y-82050543D01*
X191547309Y-82023426D01*
X191559622Y-81997391D01*
X191574429Y-81972688D01*
X191591585Y-81949555D01*
X191610926Y-81928215D01*
X191632266Y-81908874D01*
X191655399Y-81891718D01*
X191680102Y-81876911D01*
X191706137Y-81864598D01*
X191733254Y-81854895D01*
X191761191Y-81847897D01*
X191789680Y-81843671D01*
X191818446Y-81842258D01*
X192831492Y-81842258D01*
X192860258Y-81843671D01*
X192860258Y-81843671D01*
G37*
D14*
X192324969Y-82517258D03*
G04 #@! TD*
D13*
G04 #@! TO.C,C11*
G36*
X192860258Y-77948672D02*
X192888747Y-77952898D01*
X192916684Y-77959896D01*
X192943801Y-77969599D01*
X192969836Y-77981912D01*
X192994539Y-77996719D01*
X193017672Y-78013875D01*
X193039012Y-78033216D01*
X193058353Y-78054556D01*
X193075509Y-78077689D01*
X193090316Y-78102392D01*
X193102629Y-78128427D01*
X193112332Y-78155544D01*
X193119330Y-78183481D01*
X193123556Y-78211970D01*
X193124969Y-78240736D01*
X193124969Y-79003782D01*
X193123556Y-79032548D01*
X193119330Y-79061037D01*
X193112332Y-79088974D01*
X193102629Y-79116091D01*
X193090316Y-79142126D01*
X193075509Y-79166829D01*
X193058353Y-79189962D01*
X193039012Y-79211302D01*
X193017672Y-79230643D01*
X192994539Y-79247799D01*
X192969836Y-79262606D01*
X192943801Y-79274919D01*
X192916684Y-79284622D01*
X192888747Y-79291620D01*
X192860258Y-79295846D01*
X192831492Y-79297259D01*
X191818446Y-79297259D01*
X191789680Y-79295846D01*
X191761191Y-79291620D01*
X191733254Y-79284622D01*
X191706137Y-79274919D01*
X191680102Y-79262606D01*
X191655399Y-79247799D01*
X191632266Y-79230643D01*
X191610926Y-79211302D01*
X191591585Y-79189962D01*
X191574429Y-79166829D01*
X191559622Y-79142126D01*
X191547309Y-79116091D01*
X191537606Y-79088974D01*
X191530608Y-79061037D01*
X191526382Y-79032548D01*
X191524969Y-79003782D01*
X191524969Y-78240736D01*
X191526382Y-78211970D01*
X191530608Y-78183481D01*
X191537606Y-78155544D01*
X191547309Y-78128427D01*
X191559622Y-78102392D01*
X191574429Y-78077689D01*
X191591585Y-78054556D01*
X191610926Y-78033216D01*
X191632266Y-78013875D01*
X191655399Y-77996719D01*
X191680102Y-77981912D01*
X191706137Y-77969599D01*
X191733254Y-77959896D01*
X191761191Y-77952898D01*
X191789680Y-77948672D01*
X191818446Y-77947259D01*
X192831492Y-77947259D01*
X192860258Y-77948672D01*
X192860258Y-77948672D01*
G37*
D14*
X192324969Y-78622259D03*
D13*
G36*
X192860258Y-79998672D02*
X192888747Y-80002898D01*
X192916684Y-80009896D01*
X192943801Y-80019599D01*
X192969836Y-80031912D01*
X192994539Y-80046719D01*
X193017672Y-80063875D01*
X193039012Y-80083216D01*
X193058353Y-80104556D01*
X193075509Y-80127689D01*
X193090316Y-80152392D01*
X193102629Y-80178427D01*
X193112332Y-80205544D01*
X193119330Y-80233481D01*
X193123556Y-80261970D01*
X193124969Y-80290736D01*
X193124969Y-81053782D01*
X193123556Y-81082548D01*
X193119330Y-81111037D01*
X193112332Y-81138974D01*
X193102629Y-81166091D01*
X193090316Y-81192126D01*
X193075509Y-81216829D01*
X193058353Y-81239962D01*
X193039012Y-81261302D01*
X193017672Y-81280643D01*
X192994539Y-81297799D01*
X192969836Y-81312606D01*
X192943801Y-81324919D01*
X192916684Y-81334622D01*
X192888747Y-81341620D01*
X192860258Y-81345846D01*
X192831492Y-81347259D01*
X191818446Y-81347259D01*
X191789680Y-81345846D01*
X191761191Y-81341620D01*
X191733254Y-81334622D01*
X191706137Y-81324919D01*
X191680102Y-81312606D01*
X191655399Y-81297799D01*
X191632266Y-81280643D01*
X191610926Y-81261302D01*
X191591585Y-81239962D01*
X191574429Y-81216829D01*
X191559622Y-81192126D01*
X191547309Y-81166091D01*
X191537606Y-81138974D01*
X191530608Y-81111037D01*
X191526382Y-81082548D01*
X191524969Y-81053782D01*
X191524969Y-80290736D01*
X191526382Y-80261970D01*
X191530608Y-80233481D01*
X191537606Y-80205544D01*
X191547309Y-80178427D01*
X191559622Y-80152392D01*
X191574429Y-80127689D01*
X191591585Y-80104556D01*
X191610926Y-80083216D01*
X191632266Y-80063875D01*
X191655399Y-80046719D01*
X191680102Y-80031912D01*
X191706137Y-80019599D01*
X191733254Y-80009896D01*
X191761191Y-80002898D01*
X191789680Y-79998672D01*
X191818446Y-79997259D01*
X192831492Y-79997259D01*
X192860258Y-79998672D01*
X192860258Y-79998672D01*
G37*
D14*
X192324969Y-80672259D03*
G04 #@! TD*
D13*
G04 #@! TO.C,C12*
G36*
X192860258Y-76188672D02*
X192888747Y-76192898D01*
X192916684Y-76199896D01*
X192943801Y-76209599D01*
X192969836Y-76221912D01*
X192994539Y-76236719D01*
X193017672Y-76253875D01*
X193039012Y-76273216D01*
X193058353Y-76294556D01*
X193075509Y-76317689D01*
X193090316Y-76342392D01*
X193102629Y-76368427D01*
X193112332Y-76395544D01*
X193119330Y-76423481D01*
X193123556Y-76451970D01*
X193124969Y-76480736D01*
X193124969Y-77243782D01*
X193123556Y-77272548D01*
X193119330Y-77301037D01*
X193112332Y-77328974D01*
X193102629Y-77356091D01*
X193090316Y-77382126D01*
X193075509Y-77406829D01*
X193058353Y-77429962D01*
X193039012Y-77451302D01*
X193017672Y-77470643D01*
X192994539Y-77487799D01*
X192969836Y-77502606D01*
X192943801Y-77514919D01*
X192916684Y-77524622D01*
X192888747Y-77531620D01*
X192860258Y-77535846D01*
X192831492Y-77537259D01*
X191818446Y-77537259D01*
X191789680Y-77535846D01*
X191761191Y-77531620D01*
X191733254Y-77524622D01*
X191706137Y-77514919D01*
X191680102Y-77502606D01*
X191655399Y-77487799D01*
X191632266Y-77470643D01*
X191610926Y-77451302D01*
X191591585Y-77429962D01*
X191574429Y-77406829D01*
X191559622Y-77382126D01*
X191547309Y-77356091D01*
X191537606Y-77328974D01*
X191530608Y-77301037D01*
X191526382Y-77272548D01*
X191524969Y-77243782D01*
X191524969Y-76480736D01*
X191526382Y-76451970D01*
X191530608Y-76423481D01*
X191537606Y-76395544D01*
X191547309Y-76368427D01*
X191559622Y-76342392D01*
X191574429Y-76317689D01*
X191591585Y-76294556D01*
X191610926Y-76273216D01*
X191632266Y-76253875D01*
X191655399Y-76236719D01*
X191680102Y-76221912D01*
X191706137Y-76209599D01*
X191733254Y-76199896D01*
X191761191Y-76192898D01*
X191789680Y-76188672D01*
X191818446Y-76187259D01*
X192831492Y-76187259D01*
X192860258Y-76188672D01*
X192860258Y-76188672D01*
G37*
D14*
X192324969Y-76862259D03*
D13*
G36*
X192860258Y-74138672D02*
X192888747Y-74142898D01*
X192916684Y-74149896D01*
X192943801Y-74159599D01*
X192969836Y-74171912D01*
X192994539Y-74186719D01*
X193017672Y-74203875D01*
X193039012Y-74223216D01*
X193058353Y-74244556D01*
X193075509Y-74267689D01*
X193090316Y-74292392D01*
X193102629Y-74318427D01*
X193112332Y-74345544D01*
X193119330Y-74373481D01*
X193123556Y-74401970D01*
X193124969Y-74430736D01*
X193124969Y-75193782D01*
X193123556Y-75222548D01*
X193119330Y-75251037D01*
X193112332Y-75278974D01*
X193102629Y-75306091D01*
X193090316Y-75332126D01*
X193075509Y-75356829D01*
X193058353Y-75379962D01*
X193039012Y-75401302D01*
X193017672Y-75420643D01*
X192994539Y-75437799D01*
X192969836Y-75452606D01*
X192943801Y-75464919D01*
X192916684Y-75474622D01*
X192888747Y-75481620D01*
X192860258Y-75485846D01*
X192831492Y-75487259D01*
X191818446Y-75487259D01*
X191789680Y-75485846D01*
X191761191Y-75481620D01*
X191733254Y-75474622D01*
X191706137Y-75464919D01*
X191680102Y-75452606D01*
X191655399Y-75437799D01*
X191632266Y-75420643D01*
X191610926Y-75401302D01*
X191591585Y-75379962D01*
X191574429Y-75356829D01*
X191559622Y-75332126D01*
X191547309Y-75306091D01*
X191537606Y-75278974D01*
X191530608Y-75251037D01*
X191526382Y-75222548D01*
X191524969Y-75193782D01*
X191524969Y-74430736D01*
X191526382Y-74401970D01*
X191530608Y-74373481D01*
X191537606Y-74345544D01*
X191547309Y-74318427D01*
X191559622Y-74292392D01*
X191574429Y-74267689D01*
X191591585Y-74244556D01*
X191610926Y-74223216D01*
X191632266Y-74203875D01*
X191655399Y-74186719D01*
X191680102Y-74171912D01*
X191706137Y-74159599D01*
X191733254Y-74149896D01*
X191761191Y-74142898D01*
X191789680Y-74138672D01*
X191818446Y-74137259D01*
X192831492Y-74137259D01*
X192860258Y-74138672D01*
X192860258Y-74138672D01*
G37*
D14*
X192324969Y-74812259D03*
G04 #@! TD*
D13*
G04 #@! TO.C,C13*
G36*
X205259289Y-109063413D02*
X205287778Y-109067639D01*
X205315715Y-109074637D01*
X205342832Y-109084340D01*
X205368867Y-109096653D01*
X205393570Y-109111460D01*
X205416703Y-109128616D01*
X205438043Y-109147957D01*
X205457384Y-109169297D01*
X205474540Y-109192430D01*
X205489347Y-109217133D01*
X205501660Y-109243168D01*
X205511363Y-109270285D01*
X205518361Y-109298222D01*
X205522587Y-109326711D01*
X205524000Y-109355477D01*
X205524000Y-110118523D01*
X205522587Y-110147289D01*
X205518361Y-110175778D01*
X205511363Y-110203715D01*
X205501660Y-110230832D01*
X205489347Y-110256867D01*
X205474540Y-110281570D01*
X205457384Y-110304703D01*
X205438043Y-110326043D01*
X205416703Y-110345384D01*
X205393570Y-110362540D01*
X205368867Y-110377347D01*
X205342832Y-110389660D01*
X205315715Y-110399363D01*
X205287778Y-110406361D01*
X205259289Y-110410587D01*
X205230523Y-110412000D01*
X204217477Y-110412000D01*
X204188711Y-110410587D01*
X204160222Y-110406361D01*
X204132285Y-110399363D01*
X204105168Y-110389660D01*
X204079133Y-110377347D01*
X204054430Y-110362540D01*
X204031297Y-110345384D01*
X204009957Y-110326043D01*
X203990616Y-110304703D01*
X203973460Y-110281570D01*
X203958653Y-110256867D01*
X203946340Y-110230832D01*
X203936637Y-110203715D01*
X203929639Y-110175778D01*
X203925413Y-110147289D01*
X203924000Y-110118523D01*
X203924000Y-109355477D01*
X203925413Y-109326711D01*
X203929639Y-109298222D01*
X203936637Y-109270285D01*
X203946340Y-109243168D01*
X203958653Y-109217133D01*
X203973460Y-109192430D01*
X203990616Y-109169297D01*
X204009957Y-109147957D01*
X204031297Y-109128616D01*
X204054430Y-109111460D01*
X204079133Y-109096653D01*
X204105168Y-109084340D01*
X204132285Y-109074637D01*
X204160222Y-109067639D01*
X204188711Y-109063413D01*
X204217477Y-109062000D01*
X205230523Y-109062000D01*
X205259289Y-109063413D01*
X205259289Y-109063413D01*
G37*
D14*
X204724000Y-109737000D03*
D13*
G36*
X205259289Y-107013413D02*
X205287778Y-107017639D01*
X205315715Y-107024637D01*
X205342832Y-107034340D01*
X205368867Y-107046653D01*
X205393570Y-107061460D01*
X205416703Y-107078616D01*
X205438043Y-107097957D01*
X205457384Y-107119297D01*
X205474540Y-107142430D01*
X205489347Y-107167133D01*
X205501660Y-107193168D01*
X205511363Y-107220285D01*
X205518361Y-107248222D01*
X205522587Y-107276711D01*
X205524000Y-107305477D01*
X205524000Y-108068523D01*
X205522587Y-108097289D01*
X205518361Y-108125778D01*
X205511363Y-108153715D01*
X205501660Y-108180832D01*
X205489347Y-108206867D01*
X205474540Y-108231570D01*
X205457384Y-108254703D01*
X205438043Y-108276043D01*
X205416703Y-108295384D01*
X205393570Y-108312540D01*
X205368867Y-108327347D01*
X205342832Y-108339660D01*
X205315715Y-108349363D01*
X205287778Y-108356361D01*
X205259289Y-108360587D01*
X205230523Y-108362000D01*
X204217477Y-108362000D01*
X204188711Y-108360587D01*
X204160222Y-108356361D01*
X204132285Y-108349363D01*
X204105168Y-108339660D01*
X204079133Y-108327347D01*
X204054430Y-108312540D01*
X204031297Y-108295384D01*
X204009957Y-108276043D01*
X203990616Y-108254703D01*
X203973460Y-108231570D01*
X203958653Y-108206867D01*
X203946340Y-108180832D01*
X203936637Y-108153715D01*
X203929639Y-108125778D01*
X203925413Y-108097289D01*
X203924000Y-108068523D01*
X203924000Y-107305477D01*
X203925413Y-107276711D01*
X203929639Y-107248222D01*
X203936637Y-107220285D01*
X203946340Y-107193168D01*
X203958653Y-107167133D01*
X203973460Y-107142430D01*
X203990616Y-107119297D01*
X204009957Y-107097957D01*
X204031297Y-107078616D01*
X204054430Y-107061460D01*
X204079133Y-107046653D01*
X204105168Y-107034340D01*
X204132285Y-107024637D01*
X204160222Y-107017639D01*
X204188711Y-107013413D01*
X204217477Y-107012000D01*
X205230523Y-107012000D01*
X205259289Y-107013413D01*
X205259289Y-107013413D01*
G37*
D14*
X204724000Y-107687000D03*
G04 #@! TD*
D13*
G04 #@! TO.C,C14*
G36*
X205259289Y-102949413D02*
X205287778Y-102953639D01*
X205315715Y-102960637D01*
X205342832Y-102970340D01*
X205368867Y-102982653D01*
X205393570Y-102997460D01*
X205416703Y-103014616D01*
X205438043Y-103033957D01*
X205457384Y-103055297D01*
X205474540Y-103078430D01*
X205489347Y-103103133D01*
X205501660Y-103129168D01*
X205511363Y-103156285D01*
X205518361Y-103184222D01*
X205522587Y-103212711D01*
X205524000Y-103241477D01*
X205524000Y-104004523D01*
X205522587Y-104033289D01*
X205518361Y-104061778D01*
X205511363Y-104089715D01*
X205501660Y-104116832D01*
X205489347Y-104142867D01*
X205474540Y-104167570D01*
X205457384Y-104190703D01*
X205438043Y-104212043D01*
X205416703Y-104231384D01*
X205393570Y-104248540D01*
X205368867Y-104263347D01*
X205342832Y-104275660D01*
X205315715Y-104285363D01*
X205287778Y-104292361D01*
X205259289Y-104296587D01*
X205230523Y-104298000D01*
X204217477Y-104298000D01*
X204188711Y-104296587D01*
X204160222Y-104292361D01*
X204132285Y-104285363D01*
X204105168Y-104275660D01*
X204079133Y-104263347D01*
X204054430Y-104248540D01*
X204031297Y-104231384D01*
X204009957Y-104212043D01*
X203990616Y-104190703D01*
X203973460Y-104167570D01*
X203958653Y-104142867D01*
X203946340Y-104116832D01*
X203936637Y-104089715D01*
X203929639Y-104061778D01*
X203925413Y-104033289D01*
X203924000Y-104004523D01*
X203924000Y-103241477D01*
X203925413Y-103212711D01*
X203929639Y-103184222D01*
X203936637Y-103156285D01*
X203946340Y-103129168D01*
X203958653Y-103103133D01*
X203973460Y-103078430D01*
X203990616Y-103055297D01*
X204009957Y-103033957D01*
X204031297Y-103014616D01*
X204054430Y-102997460D01*
X204079133Y-102982653D01*
X204105168Y-102970340D01*
X204132285Y-102960637D01*
X204160222Y-102953639D01*
X204188711Y-102949413D01*
X204217477Y-102948000D01*
X205230523Y-102948000D01*
X205259289Y-102949413D01*
X205259289Y-102949413D01*
G37*
D14*
X204724000Y-103623000D03*
D13*
G36*
X205259289Y-104999413D02*
X205287778Y-105003639D01*
X205315715Y-105010637D01*
X205342832Y-105020340D01*
X205368867Y-105032653D01*
X205393570Y-105047460D01*
X205416703Y-105064616D01*
X205438043Y-105083957D01*
X205457384Y-105105297D01*
X205474540Y-105128430D01*
X205489347Y-105153133D01*
X205501660Y-105179168D01*
X205511363Y-105206285D01*
X205518361Y-105234222D01*
X205522587Y-105262711D01*
X205524000Y-105291477D01*
X205524000Y-106054523D01*
X205522587Y-106083289D01*
X205518361Y-106111778D01*
X205511363Y-106139715D01*
X205501660Y-106166832D01*
X205489347Y-106192867D01*
X205474540Y-106217570D01*
X205457384Y-106240703D01*
X205438043Y-106262043D01*
X205416703Y-106281384D01*
X205393570Y-106298540D01*
X205368867Y-106313347D01*
X205342832Y-106325660D01*
X205315715Y-106335363D01*
X205287778Y-106342361D01*
X205259289Y-106346587D01*
X205230523Y-106348000D01*
X204217477Y-106348000D01*
X204188711Y-106346587D01*
X204160222Y-106342361D01*
X204132285Y-106335363D01*
X204105168Y-106325660D01*
X204079133Y-106313347D01*
X204054430Y-106298540D01*
X204031297Y-106281384D01*
X204009957Y-106262043D01*
X203990616Y-106240703D01*
X203973460Y-106217570D01*
X203958653Y-106192867D01*
X203946340Y-106166832D01*
X203936637Y-106139715D01*
X203929639Y-106111778D01*
X203925413Y-106083289D01*
X203924000Y-106054523D01*
X203924000Y-105291477D01*
X203925413Y-105262711D01*
X203929639Y-105234222D01*
X203936637Y-105206285D01*
X203946340Y-105179168D01*
X203958653Y-105153133D01*
X203973460Y-105128430D01*
X203990616Y-105105297D01*
X204009957Y-105083957D01*
X204031297Y-105064616D01*
X204054430Y-105047460D01*
X204079133Y-105032653D01*
X204105168Y-105020340D01*
X204132285Y-105010637D01*
X204160222Y-105003639D01*
X204188711Y-104999413D01*
X204217477Y-104998000D01*
X205230523Y-104998000D01*
X205259289Y-104999413D01*
X205259289Y-104999413D01*
G37*
D14*
X204724000Y-105673000D03*
G04 #@! TD*
D13*
G04 #@! TO.C,C15*
G36*
X205293009Y-101174878D02*
X205321498Y-101179104D01*
X205349435Y-101186102D01*
X205376552Y-101195805D01*
X205402587Y-101208118D01*
X205427290Y-101222925D01*
X205450423Y-101240081D01*
X205471763Y-101259422D01*
X205491104Y-101280762D01*
X205508260Y-101303895D01*
X205523067Y-101328598D01*
X205535380Y-101354633D01*
X205545083Y-101381750D01*
X205552081Y-101409687D01*
X205556307Y-101438176D01*
X205557720Y-101466942D01*
X205557720Y-102229988D01*
X205556307Y-102258754D01*
X205552081Y-102287243D01*
X205545083Y-102315180D01*
X205535380Y-102342297D01*
X205523067Y-102368332D01*
X205508260Y-102393035D01*
X205491104Y-102416168D01*
X205471763Y-102437508D01*
X205450423Y-102456849D01*
X205427290Y-102474005D01*
X205402587Y-102488812D01*
X205376552Y-102501125D01*
X205349435Y-102510828D01*
X205321498Y-102517826D01*
X205293009Y-102522052D01*
X205264243Y-102523465D01*
X204251197Y-102523465D01*
X204222431Y-102522052D01*
X204193942Y-102517826D01*
X204166005Y-102510828D01*
X204138888Y-102501125D01*
X204112853Y-102488812D01*
X204088150Y-102474005D01*
X204065017Y-102456849D01*
X204043677Y-102437508D01*
X204024336Y-102416168D01*
X204007180Y-102393035D01*
X203992373Y-102368332D01*
X203980060Y-102342297D01*
X203970357Y-102315180D01*
X203963359Y-102287243D01*
X203959133Y-102258754D01*
X203957720Y-102229988D01*
X203957720Y-101466942D01*
X203959133Y-101438176D01*
X203963359Y-101409687D01*
X203970357Y-101381750D01*
X203980060Y-101354633D01*
X203992373Y-101328598D01*
X204007180Y-101303895D01*
X204024336Y-101280762D01*
X204043677Y-101259422D01*
X204065017Y-101240081D01*
X204088150Y-101222925D01*
X204112853Y-101208118D01*
X204138888Y-101195805D01*
X204166005Y-101186102D01*
X204193942Y-101179104D01*
X204222431Y-101174878D01*
X204251197Y-101173465D01*
X205264243Y-101173465D01*
X205293009Y-101174878D01*
X205293009Y-101174878D01*
G37*
D14*
X204757720Y-101848465D03*
D13*
G36*
X205293009Y-99124878D02*
X205321498Y-99129104D01*
X205349435Y-99136102D01*
X205376552Y-99145805D01*
X205402587Y-99158118D01*
X205427290Y-99172925D01*
X205450423Y-99190081D01*
X205471763Y-99209422D01*
X205491104Y-99230762D01*
X205508260Y-99253895D01*
X205523067Y-99278598D01*
X205535380Y-99304633D01*
X205545083Y-99331750D01*
X205552081Y-99359687D01*
X205556307Y-99388176D01*
X205557720Y-99416942D01*
X205557720Y-100179988D01*
X205556307Y-100208754D01*
X205552081Y-100237243D01*
X205545083Y-100265180D01*
X205535380Y-100292297D01*
X205523067Y-100318332D01*
X205508260Y-100343035D01*
X205491104Y-100366168D01*
X205471763Y-100387508D01*
X205450423Y-100406849D01*
X205427290Y-100424005D01*
X205402587Y-100438812D01*
X205376552Y-100451125D01*
X205349435Y-100460828D01*
X205321498Y-100467826D01*
X205293009Y-100472052D01*
X205264243Y-100473465D01*
X204251197Y-100473465D01*
X204222431Y-100472052D01*
X204193942Y-100467826D01*
X204166005Y-100460828D01*
X204138888Y-100451125D01*
X204112853Y-100438812D01*
X204088150Y-100424005D01*
X204065017Y-100406849D01*
X204043677Y-100387508D01*
X204024336Y-100366168D01*
X204007180Y-100343035D01*
X203992373Y-100318332D01*
X203980060Y-100292297D01*
X203970357Y-100265180D01*
X203963359Y-100237243D01*
X203959133Y-100208754D01*
X203957720Y-100179988D01*
X203957720Y-99416942D01*
X203959133Y-99388176D01*
X203963359Y-99359687D01*
X203970357Y-99331750D01*
X203980060Y-99304633D01*
X203992373Y-99278598D01*
X204007180Y-99253895D01*
X204024336Y-99230762D01*
X204043677Y-99209422D01*
X204065017Y-99190081D01*
X204088150Y-99172925D01*
X204112853Y-99158118D01*
X204138888Y-99145805D01*
X204166005Y-99136102D01*
X204193942Y-99129104D01*
X204222431Y-99124878D01*
X204251197Y-99123465D01*
X205264243Y-99123465D01*
X205293009Y-99124878D01*
X205293009Y-99124878D01*
G37*
D14*
X204757720Y-99798465D03*
G04 #@! TD*
D13*
G04 #@! TO.C,C16*
G36*
X205293009Y-95314878D02*
X205321498Y-95319104D01*
X205349435Y-95326102D01*
X205376552Y-95335805D01*
X205402587Y-95348118D01*
X205427290Y-95362925D01*
X205450423Y-95380081D01*
X205471763Y-95399422D01*
X205491104Y-95420762D01*
X205508260Y-95443895D01*
X205523067Y-95468598D01*
X205535380Y-95494633D01*
X205545083Y-95521750D01*
X205552081Y-95549687D01*
X205556307Y-95578176D01*
X205557720Y-95606942D01*
X205557720Y-96369988D01*
X205556307Y-96398754D01*
X205552081Y-96427243D01*
X205545083Y-96455180D01*
X205535380Y-96482297D01*
X205523067Y-96508332D01*
X205508260Y-96533035D01*
X205491104Y-96556168D01*
X205471763Y-96577508D01*
X205450423Y-96596849D01*
X205427290Y-96614005D01*
X205402587Y-96628812D01*
X205376552Y-96641125D01*
X205349435Y-96650828D01*
X205321498Y-96657826D01*
X205293009Y-96662052D01*
X205264243Y-96663465D01*
X204251197Y-96663465D01*
X204222431Y-96662052D01*
X204193942Y-96657826D01*
X204166005Y-96650828D01*
X204138888Y-96641125D01*
X204112853Y-96628812D01*
X204088150Y-96614005D01*
X204065017Y-96596849D01*
X204043677Y-96577508D01*
X204024336Y-96556168D01*
X204007180Y-96533035D01*
X203992373Y-96508332D01*
X203980060Y-96482297D01*
X203970357Y-96455180D01*
X203963359Y-96427243D01*
X203959133Y-96398754D01*
X203957720Y-96369988D01*
X203957720Y-95606942D01*
X203959133Y-95578176D01*
X203963359Y-95549687D01*
X203970357Y-95521750D01*
X203980060Y-95494633D01*
X203992373Y-95468598D01*
X204007180Y-95443895D01*
X204024336Y-95420762D01*
X204043677Y-95399422D01*
X204065017Y-95380081D01*
X204088150Y-95362925D01*
X204112853Y-95348118D01*
X204138888Y-95335805D01*
X204166005Y-95326102D01*
X204193942Y-95319104D01*
X204222431Y-95314878D01*
X204251197Y-95313465D01*
X205264243Y-95313465D01*
X205293009Y-95314878D01*
X205293009Y-95314878D01*
G37*
D14*
X204757720Y-95988465D03*
D13*
G36*
X205293009Y-97364878D02*
X205321498Y-97369104D01*
X205349435Y-97376102D01*
X205376552Y-97385805D01*
X205402587Y-97398118D01*
X205427290Y-97412925D01*
X205450423Y-97430081D01*
X205471763Y-97449422D01*
X205491104Y-97470762D01*
X205508260Y-97493895D01*
X205523067Y-97518598D01*
X205535380Y-97544633D01*
X205545083Y-97571750D01*
X205552081Y-97599687D01*
X205556307Y-97628176D01*
X205557720Y-97656942D01*
X205557720Y-98419988D01*
X205556307Y-98448754D01*
X205552081Y-98477243D01*
X205545083Y-98505180D01*
X205535380Y-98532297D01*
X205523067Y-98558332D01*
X205508260Y-98583035D01*
X205491104Y-98606168D01*
X205471763Y-98627508D01*
X205450423Y-98646849D01*
X205427290Y-98664005D01*
X205402587Y-98678812D01*
X205376552Y-98691125D01*
X205349435Y-98700828D01*
X205321498Y-98707826D01*
X205293009Y-98712052D01*
X205264243Y-98713465D01*
X204251197Y-98713465D01*
X204222431Y-98712052D01*
X204193942Y-98707826D01*
X204166005Y-98700828D01*
X204138888Y-98691125D01*
X204112853Y-98678812D01*
X204088150Y-98664005D01*
X204065017Y-98646849D01*
X204043677Y-98627508D01*
X204024336Y-98606168D01*
X204007180Y-98583035D01*
X203992373Y-98558332D01*
X203980060Y-98532297D01*
X203970357Y-98505180D01*
X203963359Y-98477243D01*
X203959133Y-98448754D01*
X203957720Y-98419988D01*
X203957720Y-97656942D01*
X203959133Y-97628176D01*
X203963359Y-97599687D01*
X203970357Y-97571750D01*
X203980060Y-97544633D01*
X203992373Y-97518598D01*
X204007180Y-97493895D01*
X204024336Y-97470762D01*
X204043677Y-97449422D01*
X204065017Y-97430081D01*
X204088150Y-97412925D01*
X204112853Y-97398118D01*
X204138888Y-97385805D01*
X204166005Y-97376102D01*
X204193942Y-97369104D01*
X204222431Y-97364878D01*
X204251197Y-97363465D01*
X205264243Y-97363465D01*
X205293009Y-97364878D01*
X205293009Y-97364878D01*
G37*
D14*
X204757720Y-98038465D03*
G04 #@! TD*
D13*
G04 #@! TO.C,C17*
G36*
X205293009Y-93554878D02*
X205321498Y-93559104D01*
X205349435Y-93566102D01*
X205376552Y-93575805D01*
X205402587Y-93588118D01*
X205427290Y-93602925D01*
X205450423Y-93620081D01*
X205471763Y-93639422D01*
X205491104Y-93660762D01*
X205508260Y-93683895D01*
X205523067Y-93708598D01*
X205535380Y-93734633D01*
X205545083Y-93761750D01*
X205552081Y-93789687D01*
X205556307Y-93818176D01*
X205557720Y-93846942D01*
X205557720Y-94609988D01*
X205556307Y-94638754D01*
X205552081Y-94667243D01*
X205545083Y-94695180D01*
X205535380Y-94722297D01*
X205523067Y-94748332D01*
X205508260Y-94773035D01*
X205491104Y-94796168D01*
X205471763Y-94817508D01*
X205450423Y-94836849D01*
X205427290Y-94854005D01*
X205402587Y-94868812D01*
X205376552Y-94881125D01*
X205349435Y-94890828D01*
X205321498Y-94897826D01*
X205293009Y-94902052D01*
X205264243Y-94903465D01*
X204251197Y-94903465D01*
X204222431Y-94902052D01*
X204193942Y-94897826D01*
X204166005Y-94890828D01*
X204138888Y-94881125D01*
X204112853Y-94868812D01*
X204088150Y-94854005D01*
X204065017Y-94836849D01*
X204043677Y-94817508D01*
X204024336Y-94796168D01*
X204007180Y-94773035D01*
X203992373Y-94748332D01*
X203980060Y-94722297D01*
X203970357Y-94695180D01*
X203963359Y-94667243D01*
X203959133Y-94638754D01*
X203957720Y-94609988D01*
X203957720Y-93846942D01*
X203959133Y-93818176D01*
X203963359Y-93789687D01*
X203970357Y-93761750D01*
X203980060Y-93734633D01*
X203992373Y-93708598D01*
X204007180Y-93683895D01*
X204024336Y-93660762D01*
X204043677Y-93639422D01*
X204065017Y-93620081D01*
X204088150Y-93602925D01*
X204112853Y-93588118D01*
X204138888Y-93575805D01*
X204166005Y-93566102D01*
X204193942Y-93559104D01*
X204222431Y-93554878D01*
X204251197Y-93553465D01*
X205264243Y-93553465D01*
X205293009Y-93554878D01*
X205293009Y-93554878D01*
G37*
D14*
X204757720Y-94228465D03*
D13*
G36*
X205293009Y-91504878D02*
X205321498Y-91509104D01*
X205349435Y-91516102D01*
X205376552Y-91525805D01*
X205402587Y-91538118D01*
X205427290Y-91552925D01*
X205450423Y-91570081D01*
X205471763Y-91589422D01*
X205491104Y-91610762D01*
X205508260Y-91633895D01*
X205523067Y-91658598D01*
X205535380Y-91684633D01*
X205545083Y-91711750D01*
X205552081Y-91739687D01*
X205556307Y-91768176D01*
X205557720Y-91796942D01*
X205557720Y-92559988D01*
X205556307Y-92588754D01*
X205552081Y-92617243D01*
X205545083Y-92645180D01*
X205535380Y-92672297D01*
X205523067Y-92698332D01*
X205508260Y-92723035D01*
X205491104Y-92746168D01*
X205471763Y-92767508D01*
X205450423Y-92786849D01*
X205427290Y-92804005D01*
X205402587Y-92818812D01*
X205376552Y-92831125D01*
X205349435Y-92840828D01*
X205321498Y-92847826D01*
X205293009Y-92852052D01*
X205264243Y-92853465D01*
X204251197Y-92853465D01*
X204222431Y-92852052D01*
X204193942Y-92847826D01*
X204166005Y-92840828D01*
X204138888Y-92831125D01*
X204112853Y-92818812D01*
X204088150Y-92804005D01*
X204065017Y-92786849D01*
X204043677Y-92767508D01*
X204024336Y-92746168D01*
X204007180Y-92723035D01*
X203992373Y-92698332D01*
X203980060Y-92672297D01*
X203970357Y-92645180D01*
X203963359Y-92617243D01*
X203959133Y-92588754D01*
X203957720Y-92559988D01*
X203957720Y-91796942D01*
X203959133Y-91768176D01*
X203963359Y-91739687D01*
X203970357Y-91711750D01*
X203980060Y-91684633D01*
X203992373Y-91658598D01*
X204007180Y-91633895D01*
X204024336Y-91610762D01*
X204043677Y-91589422D01*
X204065017Y-91570081D01*
X204088150Y-91552925D01*
X204112853Y-91538118D01*
X204138888Y-91525805D01*
X204166005Y-91516102D01*
X204193942Y-91509104D01*
X204222431Y-91504878D01*
X204251197Y-91503465D01*
X205264243Y-91503465D01*
X205293009Y-91504878D01*
X205293009Y-91504878D01*
G37*
D14*
X204757720Y-92178465D03*
G04 #@! TD*
D13*
G04 #@! TO.C,C18*
G36*
X205293009Y-89744878D02*
X205321498Y-89749104D01*
X205349435Y-89756102D01*
X205376552Y-89765805D01*
X205402587Y-89778118D01*
X205427290Y-89792925D01*
X205450423Y-89810081D01*
X205471763Y-89829422D01*
X205491104Y-89850762D01*
X205508260Y-89873895D01*
X205523067Y-89898598D01*
X205535380Y-89924633D01*
X205545083Y-89951750D01*
X205552081Y-89979687D01*
X205556307Y-90008176D01*
X205557720Y-90036942D01*
X205557720Y-90799988D01*
X205556307Y-90828754D01*
X205552081Y-90857243D01*
X205545083Y-90885180D01*
X205535380Y-90912297D01*
X205523067Y-90938332D01*
X205508260Y-90963035D01*
X205491104Y-90986168D01*
X205471763Y-91007508D01*
X205450423Y-91026849D01*
X205427290Y-91044005D01*
X205402587Y-91058812D01*
X205376552Y-91071125D01*
X205349435Y-91080828D01*
X205321498Y-91087826D01*
X205293009Y-91092052D01*
X205264243Y-91093465D01*
X204251197Y-91093465D01*
X204222431Y-91092052D01*
X204193942Y-91087826D01*
X204166005Y-91080828D01*
X204138888Y-91071125D01*
X204112853Y-91058812D01*
X204088150Y-91044005D01*
X204065017Y-91026849D01*
X204043677Y-91007508D01*
X204024336Y-90986168D01*
X204007180Y-90963035D01*
X203992373Y-90938332D01*
X203980060Y-90912297D01*
X203970357Y-90885180D01*
X203963359Y-90857243D01*
X203959133Y-90828754D01*
X203957720Y-90799988D01*
X203957720Y-90036942D01*
X203959133Y-90008176D01*
X203963359Y-89979687D01*
X203970357Y-89951750D01*
X203980060Y-89924633D01*
X203992373Y-89898598D01*
X204007180Y-89873895D01*
X204024336Y-89850762D01*
X204043677Y-89829422D01*
X204065017Y-89810081D01*
X204088150Y-89792925D01*
X204112853Y-89778118D01*
X204138888Y-89765805D01*
X204166005Y-89756102D01*
X204193942Y-89749104D01*
X204222431Y-89744878D01*
X204251197Y-89743465D01*
X205264243Y-89743465D01*
X205293009Y-89744878D01*
X205293009Y-89744878D01*
G37*
D14*
X204757720Y-90418465D03*
D13*
G36*
X205293009Y-87694878D02*
X205321498Y-87699104D01*
X205349435Y-87706102D01*
X205376552Y-87715805D01*
X205402587Y-87728118D01*
X205427290Y-87742925D01*
X205450423Y-87760081D01*
X205471763Y-87779422D01*
X205491104Y-87800762D01*
X205508260Y-87823895D01*
X205523067Y-87848598D01*
X205535380Y-87874633D01*
X205545083Y-87901750D01*
X205552081Y-87929687D01*
X205556307Y-87958176D01*
X205557720Y-87986942D01*
X205557720Y-88749988D01*
X205556307Y-88778754D01*
X205552081Y-88807243D01*
X205545083Y-88835180D01*
X205535380Y-88862297D01*
X205523067Y-88888332D01*
X205508260Y-88913035D01*
X205491104Y-88936168D01*
X205471763Y-88957508D01*
X205450423Y-88976849D01*
X205427290Y-88994005D01*
X205402587Y-89008812D01*
X205376552Y-89021125D01*
X205349435Y-89030828D01*
X205321498Y-89037826D01*
X205293009Y-89042052D01*
X205264243Y-89043465D01*
X204251197Y-89043465D01*
X204222431Y-89042052D01*
X204193942Y-89037826D01*
X204166005Y-89030828D01*
X204138888Y-89021125D01*
X204112853Y-89008812D01*
X204088150Y-88994005D01*
X204065017Y-88976849D01*
X204043677Y-88957508D01*
X204024336Y-88936168D01*
X204007180Y-88913035D01*
X203992373Y-88888332D01*
X203980060Y-88862297D01*
X203970357Y-88835180D01*
X203963359Y-88807243D01*
X203959133Y-88778754D01*
X203957720Y-88749988D01*
X203957720Y-87986942D01*
X203959133Y-87958176D01*
X203963359Y-87929687D01*
X203970357Y-87901750D01*
X203980060Y-87874633D01*
X203992373Y-87848598D01*
X204007180Y-87823895D01*
X204024336Y-87800762D01*
X204043677Y-87779422D01*
X204065017Y-87760081D01*
X204088150Y-87742925D01*
X204112853Y-87728118D01*
X204138888Y-87715805D01*
X204166005Y-87706102D01*
X204193942Y-87699104D01*
X204222431Y-87694878D01*
X204251197Y-87693465D01*
X205264243Y-87693465D01*
X205293009Y-87694878D01*
X205293009Y-87694878D01*
G37*
D14*
X204757720Y-88368465D03*
G04 #@! TD*
D13*
G04 #@! TO.C,C19*
G36*
X205293009Y-83630878D02*
X205321498Y-83635104D01*
X205349435Y-83642102D01*
X205376552Y-83651805D01*
X205402587Y-83664118D01*
X205427290Y-83678925D01*
X205450423Y-83696081D01*
X205471763Y-83715422D01*
X205491104Y-83736762D01*
X205508260Y-83759895D01*
X205523067Y-83784598D01*
X205535380Y-83810633D01*
X205545083Y-83837750D01*
X205552081Y-83865687D01*
X205556307Y-83894176D01*
X205557720Y-83922942D01*
X205557720Y-84685988D01*
X205556307Y-84714754D01*
X205552081Y-84743243D01*
X205545083Y-84771180D01*
X205535380Y-84798297D01*
X205523067Y-84824332D01*
X205508260Y-84849035D01*
X205491104Y-84872168D01*
X205471763Y-84893508D01*
X205450423Y-84912849D01*
X205427290Y-84930005D01*
X205402587Y-84944812D01*
X205376552Y-84957125D01*
X205349435Y-84966828D01*
X205321498Y-84973826D01*
X205293009Y-84978052D01*
X205264243Y-84979465D01*
X204251197Y-84979465D01*
X204222431Y-84978052D01*
X204193942Y-84973826D01*
X204166005Y-84966828D01*
X204138888Y-84957125D01*
X204112853Y-84944812D01*
X204088150Y-84930005D01*
X204065017Y-84912849D01*
X204043677Y-84893508D01*
X204024336Y-84872168D01*
X204007180Y-84849035D01*
X203992373Y-84824332D01*
X203980060Y-84798297D01*
X203970357Y-84771180D01*
X203963359Y-84743243D01*
X203959133Y-84714754D01*
X203957720Y-84685988D01*
X203957720Y-83922942D01*
X203959133Y-83894176D01*
X203963359Y-83865687D01*
X203970357Y-83837750D01*
X203980060Y-83810633D01*
X203992373Y-83784598D01*
X204007180Y-83759895D01*
X204024336Y-83736762D01*
X204043677Y-83715422D01*
X204065017Y-83696081D01*
X204088150Y-83678925D01*
X204112853Y-83664118D01*
X204138888Y-83651805D01*
X204166005Y-83642102D01*
X204193942Y-83635104D01*
X204222431Y-83630878D01*
X204251197Y-83629465D01*
X205264243Y-83629465D01*
X205293009Y-83630878D01*
X205293009Y-83630878D01*
G37*
D14*
X204757720Y-84304465D03*
D13*
G36*
X205293009Y-85680878D02*
X205321498Y-85685104D01*
X205349435Y-85692102D01*
X205376552Y-85701805D01*
X205402587Y-85714118D01*
X205427290Y-85728925D01*
X205450423Y-85746081D01*
X205471763Y-85765422D01*
X205491104Y-85786762D01*
X205508260Y-85809895D01*
X205523067Y-85834598D01*
X205535380Y-85860633D01*
X205545083Y-85887750D01*
X205552081Y-85915687D01*
X205556307Y-85944176D01*
X205557720Y-85972942D01*
X205557720Y-86735988D01*
X205556307Y-86764754D01*
X205552081Y-86793243D01*
X205545083Y-86821180D01*
X205535380Y-86848297D01*
X205523067Y-86874332D01*
X205508260Y-86899035D01*
X205491104Y-86922168D01*
X205471763Y-86943508D01*
X205450423Y-86962849D01*
X205427290Y-86980005D01*
X205402587Y-86994812D01*
X205376552Y-87007125D01*
X205349435Y-87016828D01*
X205321498Y-87023826D01*
X205293009Y-87028052D01*
X205264243Y-87029465D01*
X204251197Y-87029465D01*
X204222431Y-87028052D01*
X204193942Y-87023826D01*
X204166005Y-87016828D01*
X204138888Y-87007125D01*
X204112853Y-86994812D01*
X204088150Y-86980005D01*
X204065017Y-86962849D01*
X204043677Y-86943508D01*
X204024336Y-86922168D01*
X204007180Y-86899035D01*
X203992373Y-86874332D01*
X203980060Y-86848297D01*
X203970357Y-86821180D01*
X203963359Y-86793243D01*
X203959133Y-86764754D01*
X203957720Y-86735988D01*
X203957720Y-85972942D01*
X203959133Y-85944176D01*
X203963359Y-85915687D01*
X203970357Y-85887750D01*
X203980060Y-85860633D01*
X203992373Y-85834598D01*
X204007180Y-85809895D01*
X204024336Y-85786762D01*
X204043677Y-85765422D01*
X204065017Y-85746081D01*
X204088150Y-85728925D01*
X204112853Y-85714118D01*
X204138888Y-85701805D01*
X204166005Y-85692102D01*
X204193942Y-85685104D01*
X204222431Y-85680878D01*
X204251197Y-85679465D01*
X205264243Y-85679465D01*
X205293009Y-85680878D01*
X205293009Y-85680878D01*
G37*
D14*
X204757720Y-86354465D03*
G04 #@! TD*
D13*
G04 #@! TO.C,C20*
G36*
X205293009Y-81870878D02*
X205321498Y-81875104D01*
X205349435Y-81882102D01*
X205376552Y-81891805D01*
X205402587Y-81904118D01*
X205427290Y-81918925D01*
X205450423Y-81936081D01*
X205471763Y-81955422D01*
X205491104Y-81976762D01*
X205508260Y-81999895D01*
X205523067Y-82024598D01*
X205535380Y-82050633D01*
X205545083Y-82077750D01*
X205552081Y-82105687D01*
X205556307Y-82134176D01*
X205557720Y-82162942D01*
X205557720Y-82925988D01*
X205556307Y-82954754D01*
X205552081Y-82983243D01*
X205545083Y-83011180D01*
X205535380Y-83038297D01*
X205523067Y-83064332D01*
X205508260Y-83089035D01*
X205491104Y-83112168D01*
X205471763Y-83133508D01*
X205450423Y-83152849D01*
X205427290Y-83170005D01*
X205402587Y-83184812D01*
X205376552Y-83197125D01*
X205349435Y-83206828D01*
X205321498Y-83213826D01*
X205293009Y-83218052D01*
X205264243Y-83219465D01*
X204251197Y-83219465D01*
X204222431Y-83218052D01*
X204193942Y-83213826D01*
X204166005Y-83206828D01*
X204138888Y-83197125D01*
X204112853Y-83184812D01*
X204088150Y-83170005D01*
X204065017Y-83152849D01*
X204043677Y-83133508D01*
X204024336Y-83112168D01*
X204007180Y-83089035D01*
X203992373Y-83064332D01*
X203980060Y-83038297D01*
X203970357Y-83011180D01*
X203963359Y-82983243D01*
X203959133Y-82954754D01*
X203957720Y-82925988D01*
X203957720Y-82162942D01*
X203959133Y-82134176D01*
X203963359Y-82105687D01*
X203970357Y-82077750D01*
X203980060Y-82050633D01*
X203992373Y-82024598D01*
X204007180Y-81999895D01*
X204024336Y-81976762D01*
X204043677Y-81955422D01*
X204065017Y-81936081D01*
X204088150Y-81918925D01*
X204112853Y-81904118D01*
X204138888Y-81891805D01*
X204166005Y-81882102D01*
X204193942Y-81875104D01*
X204222431Y-81870878D01*
X204251197Y-81869465D01*
X205264243Y-81869465D01*
X205293009Y-81870878D01*
X205293009Y-81870878D01*
G37*
D14*
X204757720Y-82544465D03*
D13*
G36*
X205293009Y-79820878D02*
X205321498Y-79825104D01*
X205349435Y-79832102D01*
X205376552Y-79841805D01*
X205402587Y-79854118D01*
X205427290Y-79868925D01*
X205450423Y-79886081D01*
X205471763Y-79905422D01*
X205491104Y-79926762D01*
X205508260Y-79949895D01*
X205523067Y-79974598D01*
X205535380Y-80000633D01*
X205545083Y-80027750D01*
X205552081Y-80055687D01*
X205556307Y-80084176D01*
X205557720Y-80112942D01*
X205557720Y-80875988D01*
X205556307Y-80904754D01*
X205552081Y-80933243D01*
X205545083Y-80961180D01*
X205535380Y-80988297D01*
X205523067Y-81014332D01*
X205508260Y-81039035D01*
X205491104Y-81062168D01*
X205471763Y-81083508D01*
X205450423Y-81102849D01*
X205427290Y-81120005D01*
X205402587Y-81134812D01*
X205376552Y-81147125D01*
X205349435Y-81156828D01*
X205321498Y-81163826D01*
X205293009Y-81168052D01*
X205264243Y-81169465D01*
X204251197Y-81169465D01*
X204222431Y-81168052D01*
X204193942Y-81163826D01*
X204166005Y-81156828D01*
X204138888Y-81147125D01*
X204112853Y-81134812D01*
X204088150Y-81120005D01*
X204065017Y-81102849D01*
X204043677Y-81083508D01*
X204024336Y-81062168D01*
X204007180Y-81039035D01*
X203992373Y-81014332D01*
X203980060Y-80988297D01*
X203970357Y-80961180D01*
X203963359Y-80933243D01*
X203959133Y-80904754D01*
X203957720Y-80875988D01*
X203957720Y-80112942D01*
X203959133Y-80084176D01*
X203963359Y-80055687D01*
X203970357Y-80027750D01*
X203980060Y-80000633D01*
X203992373Y-79974598D01*
X204007180Y-79949895D01*
X204024336Y-79926762D01*
X204043677Y-79905422D01*
X204065017Y-79886081D01*
X204088150Y-79868925D01*
X204112853Y-79854118D01*
X204138888Y-79841805D01*
X204166005Y-79832102D01*
X204193942Y-79825104D01*
X204222431Y-79820878D01*
X204251197Y-79819465D01*
X205264243Y-79819465D01*
X205293009Y-79820878D01*
X205293009Y-79820878D01*
G37*
D14*
X204757720Y-80494465D03*
G04 #@! TD*
D13*
G04 #@! TO.C,C21*
G36*
X158285289Y-127351413D02*
X158313778Y-127355639D01*
X158341715Y-127362637D01*
X158368832Y-127372340D01*
X158394867Y-127384653D01*
X158419570Y-127399460D01*
X158442703Y-127416616D01*
X158464043Y-127435957D01*
X158483384Y-127457297D01*
X158500540Y-127480430D01*
X158515347Y-127505133D01*
X158527660Y-127531168D01*
X158537363Y-127558285D01*
X158544361Y-127586222D01*
X158548587Y-127614711D01*
X158550000Y-127643477D01*
X158550000Y-128406523D01*
X158548587Y-128435289D01*
X158544361Y-128463778D01*
X158537363Y-128491715D01*
X158527660Y-128518832D01*
X158515347Y-128544867D01*
X158500540Y-128569570D01*
X158483384Y-128592703D01*
X158464043Y-128614043D01*
X158442703Y-128633384D01*
X158419570Y-128650540D01*
X158394867Y-128665347D01*
X158368832Y-128677660D01*
X158341715Y-128687363D01*
X158313778Y-128694361D01*
X158285289Y-128698587D01*
X158256523Y-128700000D01*
X157243477Y-128700000D01*
X157214711Y-128698587D01*
X157186222Y-128694361D01*
X157158285Y-128687363D01*
X157131168Y-128677660D01*
X157105133Y-128665347D01*
X157080430Y-128650540D01*
X157057297Y-128633384D01*
X157035957Y-128614043D01*
X157016616Y-128592703D01*
X156999460Y-128569570D01*
X156984653Y-128544867D01*
X156972340Y-128518832D01*
X156962637Y-128491715D01*
X156955639Y-128463778D01*
X156951413Y-128435289D01*
X156950000Y-128406523D01*
X156950000Y-127643477D01*
X156951413Y-127614711D01*
X156955639Y-127586222D01*
X156962637Y-127558285D01*
X156972340Y-127531168D01*
X156984653Y-127505133D01*
X156999460Y-127480430D01*
X157016616Y-127457297D01*
X157035957Y-127435957D01*
X157057297Y-127416616D01*
X157080430Y-127399460D01*
X157105133Y-127384653D01*
X157131168Y-127372340D01*
X157158285Y-127362637D01*
X157186222Y-127355639D01*
X157214711Y-127351413D01*
X157243477Y-127350000D01*
X158256523Y-127350000D01*
X158285289Y-127351413D01*
X158285289Y-127351413D01*
G37*
D14*
X157750000Y-128025000D03*
D13*
G36*
X158285289Y-125301413D02*
X158313778Y-125305639D01*
X158341715Y-125312637D01*
X158368832Y-125322340D01*
X158394867Y-125334653D01*
X158419570Y-125349460D01*
X158442703Y-125366616D01*
X158464043Y-125385957D01*
X158483384Y-125407297D01*
X158500540Y-125430430D01*
X158515347Y-125455133D01*
X158527660Y-125481168D01*
X158537363Y-125508285D01*
X158544361Y-125536222D01*
X158548587Y-125564711D01*
X158550000Y-125593477D01*
X158550000Y-126356523D01*
X158548587Y-126385289D01*
X158544361Y-126413778D01*
X158537363Y-126441715D01*
X158527660Y-126468832D01*
X158515347Y-126494867D01*
X158500540Y-126519570D01*
X158483384Y-126542703D01*
X158464043Y-126564043D01*
X158442703Y-126583384D01*
X158419570Y-126600540D01*
X158394867Y-126615347D01*
X158368832Y-126627660D01*
X158341715Y-126637363D01*
X158313778Y-126644361D01*
X158285289Y-126648587D01*
X158256523Y-126650000D01*
X157243477Y-126650000D01*
X157214711Y-126648587D01*
X157186222Y-126644361D01*
X157158285Y-126637363D01*
X157131168Y-126627660D01*
X157105133Y-126615347D01*
X157080430Y-126600540D01*
X157057297Y-126583384D01*
X157035957Y-126564043D01*
X157016616Y-126542703D01*
X156999460Y-126519570D01*
X156984653Y-126494867D01*
X156972340Y-126468832D01*
X156962637Y-126441715D01*
X156955639Y-126413778D01*
X156951413Y-126385289D01*
X156950000Y-126356523D01*
X156950000Y-125593477D01*
X156951413Y-125564711D01*
X156955639Y-125536222D01*
X156962637Y-125508285D01*
X156972340Y-125481168D01*
X156984653Y-125455133D01*
X156999460Y-125430430D01*
X157016616Y-125407297D01*
X157035957Y-125385957D01*
X157057297Y-125366616D01*
X157080430Y-125349460D01*
X157105133Y-125334653D01*
X157131168Y-125322340D01*
X157158285Y-125312637D01*
X157186222Y-125305639D01*
X157214711Y-125301413D01*
X157243477Y-125300000D01*
X158256523Y-125300000D01*
X158285289Y-125301413D01*
X158285289Y-125301413D01*
G37*
D14*
X157750000Y-125975000D03*
G04 #@! TD*
D13*
G04 #@! TO.C,C22*
G36*
X162035289Y-125276413D02*
X162063778Y-125280639D01*
X162091715Y-125287637D01*
X162118832Y-125297340D01*
X162144867Y-125309653D01*
X162169570Y-125324460D01*
X162192703Y-125341616D01*
X162214043Y-125360957D01*
X162233384Y-125382297D01*
X162250540Y-125405430D01*
X162265347Y-125430133D01*
X162277660Y-125456168D01*
X162287363Y-125483285D01*
X162294361Y-125511222D01*
X162298587Y-125539711D01*
X162300000Y-125568477D01*
X162300000Y-126331523D01*
X162298587Y-126360289D01*
X162294361Y-126388778D01*
X162287363Y-126416715D01*
X162277660Y-126443832D01*
X162265347Y-126469867D01*
X162250540Y-126494570D01*
X162233384Y-126517703D01*
X162214043Y-126539043D01*
X162192703Y-126558384D01*
X162169570Y-126575540D01*
X162144867Y-126590347D01*
X162118832Y-126602660D01*
X162091715Y-126612363D01*
X162063778Y-126619361D01*
X162035289Y-126623587D01*
X162006523Y-126625000D01*
X160993477Y-126625000D01*
X160964711Y-126623587D01*
X160936222Y-126619361D01*
X160908285Y-126612363D01*
X160881168Y-126602660D01*
X160855133Y-126590347D01*
X160830430Y-126575540D01*
X160807297Y-126558384D01*
X160785957Y-126539043D01*
X160766616Y-126517703D01*
X160749460Y-126494570D01*
X160734653Y-126469867D01*
X160722340Y-126443832D01*
X160712637Y-126416715D01*
X160705639Y-126388778D01*
X160701413Y-126360289D01*
X160700000Y-126331523D01*
X160700000Y-125568477D01*
X160701413Y-125539711D01*
X160705639Y-125511222D01*
X160712637Y-125483285D01*
X160722340Y-125456168D01*
X160734653Y-125430133D01*
X160749460Y-125405430D01*
X160766616Y-125382297D01*
X160785957Y-125360957D01*
X160807297Y-125341616D01*
X160830430Y-125324460D01*
X160855133Y-125309653D01*
X160881168Y-125297340D01*
X160908285Y-125287637D01*
X160936222Y-125280639D01*
X160964711Y-125276413D01*
X160993477Y-125275000D01*
X162006523Y-125275000D01*
X162035289Y-125276413D01*
X162035289Y-125276413D01*
G37*
D14*
X161500000Y-125950000D03*
D13*
G36*
X162035289Y-127326413D02*
X162063778Y-127330639D01*
X162091715Y-127337637D01*
X162118832Y-127347340D01*
X162144867Y-127359653D01*
X162169570Y-127374460D01*
X162192703Y-127391616D01*
X162214043Y-127410957D01*
X162233384Y-127432297D01*
X162250540Y-127455430D01*
X162265347Y-127480133D01*
X162277660Y-127506168D01*
X162287363Y-127533285D01*
X162294361Y-127561222D01*
X162298587Y-127589711D01*
X162300000Y-127618477D01*
X162300000Y-128381523D01*
X162298587Y-128410289D01*
X162294361Y-128438778D01*
X162287363Y-128466715D01*
X162277660Y-128493832D01*
X162265347Y-128519867D01*
X162250540Y-128544570D01*
X162233384Y-128567703D01*
X162214043Y-128589043D01*
X162192703Y-128608384D01*
X162169570Y-128625540D01*
X162144867Y-128640347D01*
X162118832Y-128652660D01*
X162091715Y-128662363D01*
X162063778Y-128669361D01*
X162035289Y-128673587D01*
X162006523Y-128675000D01*
X160993477Y-128675000D01*
X160964711Y-128673587D01*
X160936222Y-128669361D01*
X160908285Y-128662363D01*
X160881168Y-128652660D01*
X160855133Y-128640347D01*
X160830430Y-128625540D01*
X160807297Y-128608384D01*
X160785957Y-128589043D01*
X160766616Y-128567703D01*
X160749460Y-128544570D01*
X160734653Y-128519867D01*
X160722340Y-128493832D01*
X160712637Y-128466715D01*
X160705639Y-128438778D01*
X160701413Y-128410289D01*
X160700000Y-128381523D01*
X160700000Y-127618477D01*
X160701413Y-127589711D01*
X160705639Y-127561222D01*
X160712637Y-127533285D01*
X160722340Y-127506168D01*
X160734653Y-127480133D01*
X160749460Y-127455430D01*
X160766616Y-127432297D01*
X160785957Y-127410957D01*
X160807297Y-127391616D01*
X160830430Y-127374460D01*
X160855133Y-127359653D01*
X160881168Y-127347340D01*
X160908285Y-127337637D01*
X160936222Y-127330639D01*
X160964711Y-127326413D01*
X160993477Y-127325000D01*
X162006523Y-127325000D01*
X162035289Y-127326413D01*
X162035289Y-127326413D01*
G37*
D14*
X161500000Y-128000000D03*
G04 #@! TD*
D13*
G04 #@! TO.C,C23*
G36*
X165535289Y-127351413D02*
X165563778Y-127355639D01*
X165591715Y-127362637D01*
X165618832Y-127372340D01*
X165644867Y-127384653D01*
X165669570Y-127399460D01*
X165692703Y-127416616D01*
X165714043Y-127435957D01*
X165733384Y-127457297D01*
X165750540Y-127480430D01*
X165765347Y-127505133D01*
X165777660Y-127531168D01*
X165787363Y-127558285D01*
X165794361Y-127586222D01*
X165798587Y-127614711D01*
X165800000Y-127643477D01*
X165800000Y-128406523D01*
X165798587Y-128435289D01*
X165794361Y-128463778D01*
X165787363Y-128491715D01*
X165777660Y-128518832D01*
X165765347Y-128544867D01*
X165750540Y-128569570D01*
X165733384Y-128592703D01*
X165714043Y-128614043D01*
X165692703Y-128633384D01*
X165669570Y-128650540D01*
X165644867Y-128665347D01*
X165618832Y-128677660D01*
X165591715Y-128687363D01*
X165563778Y-128694361D01*
X165535289Y-128698587D01*
X165506523Y-128700000D01*
X164493477Y-128700000D01*
X164464711Y-128698587D01*
X164436222Y-128694361D01*
X164408285Y-128687363D01*
X164381168Y-128677660D01*
X164355133Y-128665347D01*
X164330430Y-128650540D01*
X164307297Y-128633384D01*
X164285957Y-128614043D01*
X164266616Y-128592703D01*
X164249460Y-128569570D01*
X164234653Y-128544867D01*
X164222340Y-128518832D01*
X164212637Y-128491715D01*
X164205639Y-128463778D01*
X164201413Y-128435289D01*
X164200000Y-128406523D01*
X164200000Y-127643477D01*
X164201413Y-127614711D01*
X164205639Y-127586222D01*
X164212637Y-127558285D01*
X164222340Y-127531168D01*
X164234653Y-127505133D01*
X164249460Y-127480430D01*
X164266616Y-127457297D01*
X164285957Y-127435957D01*
X164307297Y-127416616D01*
X164330430Y-127399460D01*
X164355133Y-127384653D01*
X164381168Y-127372340D01*
X164408285Y-127362637D01*
X164436222Y-127355639D01*
X164464711Y-127351413D01*
X164493477Y-127350000D01*
X165506523Y-127350000D01*
X165535289Y-127351413D01*
X165535289Y-127351413D01*
G37*
D14*
X165000000Y-128025000D03*
D13*
G36*
X165535289Y-125301413D02*
X165563778Y-125305639D01*
X165591715Y-125312637D01*
X165618832Y-125322340D01*
X165644867Y-125334653D01*
X165669570Y-125349460D01*
X165692703Y-125366616D01*
X165714043Y-125385957D01*
X165733384Y-125407297D01*
X165750540Y-125430430D01*
X165765347Y-125455133D01*
X165777660Y-125481168D01*
X165787363Y-125508285D01*
X165794361Y-125536222D01*
X165798587Y-125564711D01*
X165800000Y-125593477D01*
X165800000Y-126356523D01*
X165798587Y-126385289D01*
X165794361Y-126413778D01*
X165787363Y-126441715D01*
X165777660Y-126468832D01*
X165765347Y-126494867D01*
X165750540Y-126519570D01*
X165733384Y-126542703D01*
X165714043Y-126564043D01*
X165692703Y-126583384D01*
X165669570Y-126600540D01*
X165644867Y-126615347D01*
X165618832Y-126627660D01*
X165591715Y-126637363D01*
X165563778Y-126644361D01*
X165535289Y-126648587D01*
X165506523Y-126650000D01*
X164493477Y-126650000D01*
X164464711Y-126648587D01*
X164436222Y-126644361D01*
X164408285Y-126637363D01*
X164381168Y-126627660D01*
X164355133Y-126615347D01*
X164330430Y-126600540D01*
X164307297Y-126583384D01*
X164285957Y-126564043D01*
X164266616Y-126542703D01*
X164249460Y-126519570D01*
X164234653Y-126494867D01*
X164222340Y-126468832D01*
X164212637Y-126441715D01*
X164205639Y-126413778D01*
X164201413Y-126385289D01*
X164200000Y-126356523D01*
X164200000Y-125593477D01*
X164201413Y-125564711D01*
X164205639Y-125536222D01*
X164212637Y-125508285D01*
X164222340Y-125481168D01*
X164234653Y-125455133D01*
X164249460Y-125430430D01*
X164266616Y-125407297D01*
X164285957Y-125385957D01*
X164307297Y-125366616D01*
X164330430Y-125349460D01*
X164355133Y-125334653D01*
X164381168Y-125322340D01*
X164408285Y-125312637D01*
X164436222Y-125305639D01*
X164464711Y-125301413D01*
X164493477Y-125300000D01*
X165506523Y-125300000D01*
X165535289Y-125301413D01*
X165535289Y-125301413D01*
G37*
D14*
X165000000Y-125975000D03*
G04 #@! TD*
D13*
G04 #@! TO.C,C24*
G36*
X169285289Y-125301413D02*
X169313778Y-125305639D01*
X169341715Y-125312637D01*
X169368832Y-125322340D01*
X169394867Y-125334653D01*
X169419570Y-125349460D01*
X169442703Y-125366616D01*
X169464043Y-125385957D01*
X169483384Y-125407297D01*
X169500540Y-125430430D01*
X169515347Y-125455133D01*
X169527660Y-125481168D01*
X169537363Y-125508285D01*
X169544361Y-125536222D01*
X169548587Y-125564711D01*
X169550000Y-125593477D01*
X169550000Y-126356523D01*
X169548587Y-126385289D01*
X169544361Y-126413778D01*
X169537363Y-126441715D01*
X169527660Y-126468832D01*
X169515347Y-126494867D01*
X169500540Y-126519570D01*
X169483384Y-126542703D01*
X169464043Y-126564043D01*
X169442703Y-126583384D01*
X169419570Y-126600540D01*
X169394867Y-126615347D01*
X169368832Y-126627660D01*
X169341715Y-126637363D01*
X169313778Y-126644361D01*
X169285289Y-126648587D01*
X169256523Y-126650000D01*
X168243477Y-126650000D01*
X168214711Y-126648587D01*
X168186222Y-126644361D01*
X168158285Y-126637363D01*
X168131168Y-126627660D01*
X168105133Y-126615347D01*
X168080430Y-126600540D01*
X168057297Y-126583384D01*
X168035957Y-126564043D01*
X168016616Y-126542703D01*
X167999460Y-126519570D01*
X167984653Y-126494867D01*
X167972340Y-126468832D01*
X167962637Y-126441715D01*
X167955639Y-126413778D01*
X167951413Y-126385289D01*
X167950000Y-126356523D01*
X167950000Y-125593477D01*
X167951413Y-125564711D01*
X167955639Y-125536222D01*
X167962637Y-125508285D01*
X167972340Y-125481168D01*
X167984653Y-125455133D01*
X167999460Y-125430430D01*
X168016616Y-125407297D01*
X168035957Y-125385957D01*
X168057297Y-125366616D01*
X168080430Y-125349460D01*
X168105133Y-125334653D01*
X168131168Y-125322340D01*
X168158285Y-125312637D01*
X168186222Y-125305639D01*
X168214711Y-125301413D01*
X168243477Y-125300000D01*
X169256523Y-125300000D01*
X169285289Y-125301413D01*
X169285289Y-125301413D01*
G37*
D14*
X168750000Y-125975000D03*
D13*
G36*
X169285289Y-127351413D02*
X169313778Y-127355639D01*
X169341715Y-127362637D01*
X169368832Y-127372340D01*
X169394867Y-127384653D01*
X169419570Y-127399460D01*
X169442703Y-127416616D01*
X169464043Y-127435957D01*
X169483384Y-127457297D01*
X169500540Y-127480430D01*
X169515347Y-127505133D01*
X169527660Y-127531168D01*
X169537363Y-127558285D01*
X169544361Y-127586222D01*
X169548587Y-127614711D01*
X169550000Y-127643477D01*
X169550000Y-128406523D01*
X169548587Y-128435289D01*
X169544361Y-128463778D01*
X169537363Y-128491715D01*
X169527660Y-128518832D01*
X169515347Y-128544867D01*
X169500540Y-128569570D01*
X169483384Y-128592703D01*
X169464043Y-128614043D01*
X169442703Y-128633384D01*
X169419570Y-128650540D01*
X169394867Y-128665347D01*
X169368832Y-128677660D01*
X169341715Y-128687363D01*
X169313778Y-128694361D01*
X169285289Y-128698587D01*
X169256523Y-128700000D01*
X168243477Y-128700000D01*
X168214711Y-128698587D01*
X168186222Y-128694361D01*
X168158285Y-128687363D01*
X168131168Y-128677660D01*
X168105133Y-128665347D01*
X168080430Y-128650540D01*
X168057297Y-128633384D01*
X168035957Y-128614043D01*
X168016616Y-128592703D01*
X167999460Y-128569570D01*
X167984653Y-128544867D01*
X167972340Y-128518832D01*
X167962637Y-128491715D01*
X167955639Y-128463778D01*
X167951413Y-128435289D01*
X167950000Y-128406523D01*
X167950000Y-127643477D01*
X167951413Y-127614711D01*
X167955639Y-127586222D01*
X167962637Y-127558285D01*
X167972340Y-127531168D01*
X167984653Y-127505133D01*
X167999460Y-127480430D01*
X168016616Y-127457297D01*
X168035957Y-127435957D01*
X168057297Y-127416616D01*
X168080430Y-127399460D01*
X168105133Y-127384653D01*
X168131168Y-127372340D01*
X168158285Y-127362637D01*
X168186222Y-127355639D01*
X168214711Y-127351413D01*
X168243477Y-127350000D01*
X169256523Y-127350000D01*
X169285289Y-127351413D01*
X169285289Y-127351413D01*
G37*
D14*
X168750000Y-128025000D03*
G04 #@! TD*
D21*
G04 #@! TO.C,C26*
X108000000Y-125950000D03*
X108000000Y-129550000D03*
G04 #@! TD*
D12*
G04 #@! TO.C,C27*
X143750000Y-131800000D03*
X143750000Y-125700000D03*
G04 #@! TD*
D22*
G04 #@! TO.C,D1*
X144654000Y-75184000D03*
X147954000Y-75184000D03*
G04 #@! TD*
G04 #@! TO.C,D2*
X102900000Y-138430000D03*
X99600000Y-138430000D03*
G04 #@! TD*
G04 #@! TO.C,D3*
X100850000Y-125750000D03*
X104150000Y-125750000D03*
G04 #@! TD*
D23*
G04 #@! TO.C,D4*
X117250000Y-126850000D03*
X117250000Y-130150000D03*
G04 #@! TD*
D24*
G04 #@! TO.C,Q1*
X193278000Y-135570000D03*
X193278000Y-133670000D03*
X191278000Y-134620000D03*
G04 #@! TD*
G04 #@! TO.C,Q2*
X190516000Y-126746000D03*
X192516000Y-125796000D03*
X192516000Y-127696000D03*
G04 #@! TD*
D13*
G04 #@! TO.C,R1*
G36*
X230168281Y-135109294D02*
X230196770Y-135113520D01*
X230224707Y-135120518D01*
X230251824Y-135130221D01*
X230277859Y-135142534D01*
X230302562Y-135157341D01*
X230325695Y-135174497D01*
X230347035Y-135193838D01*
X230366376Y-135215178D01*
X230383532Y-135238311D01*
X230398339Y-135263014D01*
X230410652Y-135289049D01*
X230420355Y-135316166D01*
X230427353Y-135344103D01*
X230431579Y-135372592D01*
X230432992Y-135401358D01*
X230432992Y-136164404D01*
X230431579Y-136193170D01*
X230427353Y-136221659D01*
X230420355Y-136249596D01*
X230410652Y-136276713D01*
X230398339Y-136302748D01*
X230383532Y-136327451D01*
X230366376Y-136350584D01*
X230347035Y-136371924D01*
X230325695Y-136391265D01*
X230302562Y-136408421D01*
X230277859Y-136423228D01*
X230251824Y-136435541D01*
X230224707Y-136445244D01*
X230196770Y-136452242D01*
X230168281Y-136456468D01*
X230139515Y-136457881D01*
X229126469Y-136457881D01*
X229097703Y-136456468D01*
X229069214Y-136452242D01*
X229041277Y-136445244D01*
X229014160Y-136435541D01*
X228988125Y-136423228D01*
X228963422Y-136408421D01*
X228940289Y-136391265D01*
X228918949Y-136371924D01*
X228899608Y-136350584D01*
X228882452Y-136327451D01*
X228867645Y-136302748D01*
X228855332Y-136276713D01*
X228845629Y-136249596D01*
X228838631Y-136221659D01*
X228834405Y-136193170D01*
X228832992Y-136164404D01*
X228832992Y-135401358D01*
X228834405Y-135372592D01*
X228838631Y-135344103D01*
X228845629Y-135316166D01*
X228855332Y-135289049D01*
X228867645Y-135263014D01*
X228882452Y-135238311D01*
X228899608Y-135215178D01*
X228918949Y-135193838D01*
X228940289Y-135174497D01*
X228963422Y-135157341D01*
X228988125Y-135142534D01*
X229014160Y-135130221D01*
X229041277Y-135120518D01*
X229069214Y-135113520D01*
X229097703Y-135109294D01*
X229126469Y-135107881D01*
X230139515Y-135107881D01*
X230168281Y-135109294D01*
X230168281Y-135109294D01*
G37*
D14*
X229632992Y-135782881D03*
D13*
G36*
X230168281Y-137159294D02*
X230196770Y-137163520D01*
X230224707Y-137170518D01*
X230251824Y-137180221D01*
X230277859Y-137192534D01*
X230302562Y-137207341D01*
X230325695Y-137224497D01*
X230347035Y-137243838D01*
X230366376Y-137265178D01*
X230383532Y-137288311D01*
X230398339Y-137313014D01*
X230410652Y-137339049D01*
X230420355Y-137366166D01*
X230427353Y-137394103D01*
X230431579Y-137422592D01*
X230432992Y-137451358D01*
X230432992Y-138214404D01*
X230431579Y-138243170D01*
X230427353Y-138271659D01*
X230420355Y-138299596D01*
X230410652Y-138326713D01*
X230398339Y-138352748D01*
X230383532Y-138377451D01*
X230366376Y-138400584D01*
X230347035Y-138421924D01*
X230325695Y-138441265D01*
X230302562Y-138458421D01*
X230277859Y-138473228D01*
X230251824Y-138485541D01*
X230224707Y-138495244D01*
X230196770Y-138502242D01*
X230168281Y-138506468D01*
X230139515Y-138507881D01*
X229126469Y-138507881D01*
X229097703Y-138506468D01*
X229069214Y-138502242D01*
X229041277Y-138495244D01*
X229014160Y-138485541D01*
X228988125Y-138473228D01*
X228963422Y-138458421D01*
X228940289Y-138441265D01*
X228918949Y-138421924D01*
X228899608Y-138400584D01*
X228882452Y-138377451D01*
X228867645Y-138352748D01*
X228855332Y-138326713D01*
X228845629Y-138299596D01*
X228838631Y-138271659D01*
X228834405Y-138243170D01*
X228832992Y-138214404D01*
X228832992Y-137451358D01*
X228834405Y-137422592D01*
X228838631Y-137394103D01*
X228845629Y-137366166D01*
X228855332Y-137339049D01*
X228867645Y-137313014D01*
X228882452Y-137288311D01*
X228899608Y-137265178D01*
X228918949Y-137243838D01*
X228940289Y-137224497D01*
X228963422Y-137207341D01*
X228988125Y-137192534D01*
X229014160Y-137180221D01*
X229041277Y-137170518D01*
X229069214Y-137163520D01*
X229097703Y-137159294D01*
X229126469Y-137157881D01*
X230139515Y-137157881D01*
X230168281Y-137159294D01*
X230168281Y-137159294D01*
G37*
D14*
X229632992Y-137832881D03*
G04 #@! TD*
D13*
G04 #@! TO.C,R2*
G36*
X229897289Y-128240413D02*
X229925778Y-128244639D01*
X229953715Y-128251637D01*
X229980832Y-128261340D01*
X230006867Y-128273653D01*
X230031570Y-128288460D01*
X230054703Y-128305616D01*
X230076043Y-128324957D01*
X230095384Y-128346297D01*
X230112540Y-128369430D01*
X230127347Y-128394133D01*
X230139660Y-128420168D01*
X230149363Y-128447285D01*
X230156361Y-128475222D01*
X230160587Y-128503711D01*
X230162000Y-128532477D01*
X230162000Y-129295523D01*
X230160587Y-129324289D01*
X230156361Y-129352778D01*
X230149363Y-129380715D01*
X230139660Y-129407832D01*
X230127347Y-129433867D01*
X230112540Y-129458570D01*
X230095384Y-129481703D01*
X230076043Y-129503043D01*
X230054703Y-129522384D01*
X230031570Y-129539540D01*
X230006867Y-129554347D01*
X229980832Y-129566660D01*
X229953715Y-129576363D01*
X229925778Y-129583361D01*
X229897289Y-129587587D01*
X229868523Y-129589000D01*
X228855477Y-129589000D01*
X228826711Y-129587587D01*
X228798222Y-129583361D01*
X228770285Y-129576363D01*
X228743168Y-129566660D01*
X228717133Y-129554347D01*
X228692430Y-129539540D01*
X228669297Y-129522384D01*
X228647957Y-129503043D01*
X228628616Y-129481703D01*
X228611460Y-129458570D01*
X228596653Y-129433867D01*
X228584340Y-129407832D01*
X228574637Y-129380715D01*
X228567639Y-129352778D01*
X228563413Y-129324289D01*
X228562000Y-129295523D01*
X228562000Y-128532477D01*
X228563413Y-128503711D01*
X228567639Y-128475222D01*
X228574637Y-128447285D01*
X228584340Y-128420168D01*
X228596653Y-128394133D01*
X228611460Y-128369430D01*
X228628616Y-128346297D01*
X228647957Y-128324957D01*
X228669297Y-128305616D01*
X228692430Y-128288460D01*
X228717133Y-128273653D01*
X228743168Y-128261340D01*
X228770285Y-128251637D01*
X228798222Y-128244639D01*
X228826711Y-128240413D01*
X228855477Y-128239000D01*
X229868523Y-128239000D01*
X229897289Y-128240413D01*
X229897289Y-128240413D01*
G37*
D14*
X229362000Y-128914000D03*
D13*
G36*
X229897289Y-126190413D02*
X229925778Y-126194639D01*
X229953715Y-126201637D01*
X229980832Y-126211340D01*
X230006867Y-126223653D01*
X230031570Y-126238460D01*
X230054703Y-126255616D01*
X230076043Y-126274957D01*
X230095384Y-126296297D01*
X230112540Y-126319430D01*
X230127347Y-126344133D01*
X230139660Y-126370168D01*
X230149363Y-126397285D01*
X230156361Y-126425222D01*
X230160587Y-126453711D01*
X230162000Y-126482477D01*
X230162000Y-127245523D01*
X230160587Y-127274289D01*
X230156361Y-127302778D01*
X230149363Y-127330715D01*
X230139660Y-127357832D01*
X230127347Y-127383867D01*
X230112540Y-127408570D01*
X230095384Y-127431703D01*
X230076043Y-127453043D01*
X230054703Y-127472384D01*
X230031570Y-127489540D01*
X230006867Y-127504347D01*
X229980832Y-127516660D01*
X229953715Y-127526363D01*
X229925778Y-127533361D01*
X229897289Y-127537587D01*
X229868523Y-127539000D01*
X228855477Y-127539000D01*
X228826711Y-127537587D01*
X228798222Y-127533361D01*
X228770285Y-127526363D01*
X228743168Y-127516660D01*
X228717133Y-127504347D01*
X228692430Y-127489540D01*
X228669297Y-127472384D01*
X228647957Y-127453043D01*
X228628616Y-127431703D01*
X228611460Y-127408570D01*
X228596653Y-127383867D01*
X228584340Y-127357832D01*
X228574637Y-127330715D01*
X228567639Y-127302778D01*
X228563413Y-127274289D01*
X228562000Y-127245523D01*
X228562000Y-126482477D01*
X228563413Y-126453711D01*
X228567639Y-126425222D01*
X228574637Y-126397285D01*
X228584340Y-126370168D01*
X228596653Y-126344133D01*
X228611460Y-126319430D01*
X228628616Y-126296297D01*
X228647957Y-126274957D01*
X228669297Y-126255616D01*
X228692430Y-126238460D01*
X228717133Y-126223653D01*
X228743168Y-126211340D01*
X228770285Y-126201637D01*
X228798222Y-126194639D01*
X228826711Y-126190413D01*
X228855477Y-126189000D01*
X229868523Y-126189000D01*
X229897289Y-126190413D01*
X229897289Y-126190413D01*
G37*
D14*
X229362000Y-126864000D03*
G04 #@! TD*
D13*
G04 #@! TO.C,R3*
G36*
X230168281Y-132841294D02*
X230196770Y-132845520D01*
X230224707Y-132852518D01*
X230251824Y-132862221D01*
X230277859Y-132874534D01*
X230302562Y-132889341D01*
X230325695Y-132906497D01*
X230347035Y-132925838D01*
X230366376Y-132947178D01*
X230383532Y-132970311D01*
X230398339Y-132995014D01*
X230410652Y-133021049D01*
X230420355Y-133048166D01*
X230427353Y-133076103D01*
X230431579Y-133104592D01*
X230432992Y-133133358D01*
X230432992Y-133896404D01*
X230431579Y-133925170D01*
X230427353Y-133953659D01*
X230420355Y-133981596D01*
X230410652Y-134008713D01*
X230398339Y-134034748D01*
X230383532Y-134059451D01*
X230366376Y-134082584D01*
X230347035Y-134103924D01*
X230325695Y-134123265D01*
X230302562Y-134140421D01*
X230277859Y-134155228D01*
X230251824Y-134167541D01*
X230224707Y-134177244D01*
X230196770Y-134184242D01*
X230168281Y-134188468D01*
X230139515Y-134189881D01*
X229126469Y-134189881D01*
X229097703Y-134188468D01*
X229069214Y-134184242D01*
X229041277Y-134177244D01*
X229014160Y-134167541D01*
X228988125Y-134155228D01*
X228963422Y-134140421D01*
X228940289Y-134123265D01*
X228918949Y-134103924D01*
X228899608Y-134082584D01*
X228882452Y-134059451D01*
X228867645Y-134034748D01*
X228855332Y-134008713D01*
X228845629Y-133981596D01*
X228838631Y-133953659D01*
X228834405Y-133925170D01*
X228832992Y-133896404D01*
X228832992Y-133133358D01*
X228834405Y-133104592D01*
X228838631Y-133076103D01*
X228845629Y-133048166D01*
X228855332Y-133021049D01*
X228867645Y-132995014D01*
X228882452Y-132970311D01*
X228899608Y-132947178D01*
X228918949Y-132925838D01*
X228940289Y-132906497D01*
X228963422Y-132889341D01*
X228988125Y-132874534D01*
X229014160Y-132862221D01*
X229041277Y-132852518D01*
X229069214Y-132845520D01*
X229097703Y-132841294D01*
X229126469Y-132839881D01*
X230139515Y-132839881D01*
X230168281Y-132841294D01*
X230168281Y-132841294D01*
G37*
D14*
X229632992Y-133514881D03*
D13*
G36*
X230168281Y-130791294D02*
X230196770Y-130795520D01*
X230224707Y-130802518D01*
X230251824Y-130812221D01*
X230277859Y-130824534D01*
X230302562Y-130839341D01*
X230325695Y-130856497D01*
X230347035Y-130875838D01*
X230366376Y-130897178D01*
X230383532Y-130920311D01*
X230398339Y-130945014D01*
X230410652Y-130971049D01*
X230420355Y-130998166D01*
X230427353Y-131026103D01*
X230431579Y-131054592D01*
X230432992Y-131083358D01*
X230432992Y-131846404D01*
X230431579Y-131875170D01*
X230427353Y-131903659D01*
X230420355Y-131931596D01*
X230410652Y-131958713D01*
X230398339Y-131984748D01*
X230383532Y-132009451D01*
X230366376Y-132032584D01*
X230347035Y-132053924D01*
X230325695Y-132073265D01*
X230302562Y-132090421D01*
X230277859Y-132105228D01*
X230251824Y-132117541D01*
X230224707Y-132127244D01*
X230196770Y-132134242D01*
X230168281Y-132138468D01*
X230139515Y-132139881D01*
X229126469Y-132139881D01*
X229097703Y-132138468D01*
X229069214Y-132134242D01*
X229041277Y-132127244D01*
X229014160Y-132117541D01*
X228988125Y-132105228D01*
X228963422Y-132090421D01*
X228940289Y-132073265D01*
X228918949Y-132053924D01*
X228899608Y-132032584D01*
X228882452Y-132009451D01*
X228867645Y-131984748D01*
X228855332Y-131958713D01*
X228845629Y-131931596D01*
X228838631Y-131903659D01*
X228834405Y-131875170D01*
X228832992Y-131846404D01*
X228832992Y-131083358D01*
X228834405Y-131054592D01*
X228838631Y-131026103D01*
X228845629Y-130998166D01*
X228855332Y-130971049D01*
X228867645Y-130945014D01*
X228882452Y-130920311D01*
X228899608Y-130897178D01*
X228918949Y-130875838D01*
X228940289Y-130856497D01*
X228963422Y-130839341D01*
X228988125Y-130824534D01*
X229014160Y-130812221D01*
X229041277Y-130802518D01*
X229069214Y-130795520D01*
X229097703Y-130791294D01*
X229126469Y-130789881D01*
X230139515Y-130789881D01*
X230168281Y-130791294D01*
X230168281Y-130791294D01*
G37*
D14*
X229632992Y-131464881D03*
G04 #@! TD*
D13*
G04 #@! TO.C,R4*
G36*
X230731289Y-73861413D02*
X230759778Y-73865639D01*
X230787715Y-73872637D01*
X230814832Y-73882340D01*
X230840867Y-73894653D01*
X230865570Y-73909460D01*
X230888703Y-73926616D01*
X230910043Y-73945957D01*
X230929384Y-73967297D01*
X230946540Y-73990430D01*
X230961347Y-74015133D01*
X230973660Y-74041168D01*
X230983363Y-74068285D01*
X230990361Y-74096222D01*
X230994587Y-74124711D01*
X230996000Y-74153477D01*
X230996000Y-75166523D01*
X230994587Y-75195289D01*
X230990361Y-75223778D01*
X230983363Y-75251715D01*
X230973660Y-75278832D01*
X230961347Y-75304867D01*
X230946540Y-75329570D01*
X230929384Y-75352703D01*
X230910043Y-75374043D01*
X230888703Y-75393384D01*
X230865570Y-75410540D01*
X230840867Y-75425347D01*
X230814832Y-75437660D01*
X230787715Y-75447363D01*
X230759778Y-75454361D01*
X230731289Y-75458587D01*
X230702523Y-75460000D01*
X229939477Y-75460000D01*
X229910711Y-75458587D01*
X229882222Y-75454361D01*
X229854285Y-75447363D01*
X229827168Y-75437660D01*
X229801133Y-75425347D01*
X229776430Y-75410540D01*
X229753297Y-75393384D01*
X229731957Y-75374043D01*
X229712616Y-75352703D01*
X229695460Y-75329570D01*
X229680653Y-75304867D01*
X229668340Y-75278832D01*
X229658637Y-75251715D01*
X229651639Y-75223778D01*
X229647413Y-75195289D01*
X229646000Y-75166523D01*
X229646000Y-74153477D01*
X229647413Y-74124711D01*
X229651639Y-74096222D01*
X229658637Y-74068285D01*
X229668340Y-74041168D01*
X229680653Y-74015133D01*
X229695460Y-73990430D01*
X229712616Y-73967297D01*
X229731957Y-73945957D01*
X229753297Y-73926616D01*
X229776430Y-73909460D01*
X229801133Y-73894653D01*
X229827168Y-73882340D01*
X229854285Y-73872637D01*
X229882222Y-73865639D01*
X229910711Y-73861413D01*
X229939477Y-73860000D01*
X230702523Y-73860000D01*
X230731289Y-73861413D01*
X230731289Y-73861413D01*
G37*
D14*
X230321000Y-74660000D03*
D13*
G36*
X228681289Y-73861413D02*
X228709778Y-73865639D01*
X228737715Y-73872637D01*
X228764832Y-73882340D01*
X228790867Y-73894653D01*
X228815570Y-73909460D01*
X228838703Y-73926616D01*
X228860043Y-73945957D01*
X228879384Y-73967297D01*
X228896540Y-73990430D01*
X228911347Y-74015133D01*
X228923660Y-74041168D01*
X228933363Y-74068285D01*
X228940361Y-74096222D01*
X228944587Y-74124711D01*
X228946000Y-74153477D01*
X228946000Y-75166523D01*
X228944587Y-75195289D01*
X228940361Y-75223778D01*
X228933363Y-75251715D01*
X228923660Y-75278832D01*
X228911347Y-75304867D01*
X228896540Y-75329570D01*
X228879384Y-75352703D01*
X228860043Y-75374043D01*
X228838703Y-75393384D01*
X228815570Y-75410540D01*
X228790867Y-75425347D01*
X228764832Y-75437660D01*
X228737715Y-75447363D01*
X228709778Y-75454361D01*
X228681289Y-75458587D01*
X228652523Y-75460000D01*
X227889477Y-75460000D01*
X227860711Y-75458587D01*
X227832222Y-75454361D01*
X227804285Y-75447363D01*
X227777168Y-75437660D01*
X227751133Y-75425347D01*
X227726430Y-75410540D01*
X227703297Y-75393384D01*
X227681957Y-75374043D01*
X227662616Y-75352703D01*
X227645460Y-75329570D01*
X227630653Y-75304867D01*
X227618340Y-75278832D01*
X227608637Y-75251715D01*
X227601639Y-75223778D01*
X227597413Y-75195289D01*
X227596000Y-75166523D01*
X227596000Y-74153477D01*
X227597413Y-74124711D01*
X227601639Y-74096222D01*
X227608637Y-74068285D01*
X227618340Y-74041168D01*
X227630653Y-74015133D01*
X227645460Y-73990430D01*
X227662616Y-73967297D01*
X227681957Y-73945957D01*
X227703297Y-73926616D01*
X227726430Y-73909460D01*
X227751133Y-73894653D01*
X227777168Y-73882340D01*
X227804285Y-73872637D01*
X227832222Y-73865639D01*
X227860711Y-73861413D01*
X227889477Y-73860000D01*
X228652523Y-73860000D01*
X228681289Y-73861413D01*
X228681289Y-73861413D01*
G37*
D14*
X228271000Y-74660000D03*
G04 #@! TD*
D13*
G04 #@! TO.C,R5*
G36*
X205513289Y-120112413D02*
X205541778Y-120116639D01*
X205569715Y-120123637D01*
X205596832Y-120133340D01*
X205622867Y-120145653D01*
X205647570Y-120160460D01*
X205670703Y-120177616D01*
X205692043Y-120196957D01*
X205711384Y-120218297D01*
X205728540Y-120241430D01*
X205743347Y-120266133D01*
X205755660Y-120292168D01*
X205765363Y-120319285D01*
X205772361Y-120347222D01*
X205776587Y-120375711D01*
X205778000Y-120404477D01*
X205778000Y-121167523D01*
X205776587Y-121196289D01*
X205772361Y-121224778D01*
X205765363Y-121252715D01*
X205755660Y-121279832D01*
X205743347Y-121305867D01*
X205728540Y-121330570D01*
X205711384Y-121353703D01*
X205692043Y-121375043D01*
X205670703Y-121394384D01*
X205647570Y-121411540D01*
X205622867Y-121426347D01*
X205596832Y-121438660D01*
X205569715Y-121448363D01*
X205541778Y-121455361D01*
X205513289Y-121459587D01*
X205484523Y-121461000D01*
X204471477Y-121461000D01*
X204442711Y-121459587D01*
X204414222Y-121455361D01*
X204386285Y-121448363D01*
X204359168Y-121438660D01*
X204333133Y-121426347D01*
X204308430Y-121411540D01*
X204285297Y-121394384D01*
X204263957Y-121375043D01*
X204244616Y-121353703D01*
X204227460Y-121330570D01*
X204212653Y-121305867D01*
X204200340Y-121279832D01*
X204190637Y-121252715D01*
X204183639Y-121224778D01*
X204179413Y-121196289D01*
X204178000Y-121167523D01*
X204178000Y-120404477D01*
X204179413Y-120375711D01*
X204183639Y-120347222D01*
X204190637Y-120319285D01*
X204200340Y-120292168D01*
X204212653Y-120266133D01*
X204227460Y-120241430D01*
X204244616Y-120218297D01*
X204263957Y-120196957D01*
X204285297Y-120177616D01*
X204308430Y-120160460D01*
X204333133Y-120145653D01*
X204359168Y-120133340D01*
X204386285Y-120123637D01*
X204414222Y-120116639D01*
X204442711Y-120112413D01*
X204471477Y-120111000D01*
X205484523Y-120111000D01*
X205513289Y-120112413D01*
X205513289Y-120112413D01*
G37*
D14*
X204978000Y-120786000D03*
D13*
G36*
X205513289Y-118062413D02*
X205541778Y-118066639D01*
X205569715Y-118073637D01*
X205596832Y-118083340D01*
X205622867Y-118095653D01*
X205647570Y-118110460D01*
X205670703Y-118127616D01*
X205692043Y-118146957D01*
X205711384Y-118168297D01*
X205728540Y-118191430D01*
X205743347Y-118216133D01*
X205755660Y-118242168D01*
X205765363Y-118269285D01*
X205772361Y-118297222D01*
X205776587Y-118325711D01*
X205778000Y-118354477D01*
X205778000Y-119117523D01*
X205776587Y-119146289D01*
X205772361Y-119174778D01*
X205765363Y-119202715D01*
X205755660Y-119229832D01*
X205743347Y-119255867D01*
X205728540Y-119280570D01*
X205711384Y-119303703D01*
X205692043Y-119325043D01*
X205670703Y-119344384D01*
X205647570Y-119361540D01*
X205622867Y-119376347D01*
X205596832Y-119388660D01*
X205569715Y-119398363D01*
X205541778Y-119405361D01*
X205513289Y-119409587D01*
X205484523Y-119411000D01*
X204471477Y-119411000D01*
X204442711Y-119409587D01*
X204414222Y-119405361D01*
X204386285Y-119398363D01*
X204359168Y-119388660D01*
X204333133Y-119376347D01*
X204308430Y-119361540D01*
X204285297Y-119344384D01*
X204263957Y-119325043D01*
X204244616Y-119303703D01*
X204227460Y-119280570D01*
X204212653Y-119255867D01*
X204200340Y-119229832D01*
X204190637Y-119202715D01*
X204183639Y-119174778D01*
X204179413Y-119146289D01*
X204178000Y-119117523D01*
X204178000Y-118354477D01*
X204179413Y-118325711D01*
X204183639Y-118297222D01*
X204190637Y-118269285D01*
X204200340Y-118242168D01*
X204212653Y-118216133D01*
X204227460Y-118191430D01*
X204244616Y-118168297D01*
X204263957Y-118146957D01*
X204285297Y-118127616D01*
X204308430Y-118110460D01*
X204333133Y-118095653D01*
X204359168Y-118083340D01*
X204386285Y-118073637D01*
X204414222Y-118066639D01*
X204442711Y-118062413D01*
X204471477Y-118061000D01*
X205484523Y-118061000D01*
X205513289Y-118062413D01*
X205513289Y-118062413D01*
G37*
D14*
X204978000Y-118736000D03*
G04 #@! TD*
D13*
G04 #@! TO.C,R6*
G36*
X204109289Y-126836413D02*
X204137778Y-126840639D01*
X204165715Y-126847637D01*
X204192832Y-126857340D01*
X204218867Y-126869653D01*
X204243570Y-126884460D01*
X204266703Y-126901616D01*
X204288043Y-126920957D01*
X204307384Y-126942297D01*
X204324540Y-126965430D01*
X204339347Y-126990133D01*
X204351660Y-127016168D01*
X204361363Y-127043285D01*
X204368361Y-127071222D01*
X204372587Y-127099711D01*
X204374000Y-127128477D01*
X204374000Y-128141523D01*
X204372587Y-128170289D01*
X204368361Y-128198778D01*
X204361363Y-128226715D01*
X204351660Y-128253832D01*
X204339347Y-128279867D01*
X204324540Y-128304570D01*
X204307384Y-128327703D01*
X204288043Y-128349043D01*
X204266703Y-128368384D01*
X204243570Y-128385540D01*
X204218867Y-128400347D01*
X204192832Y-128412660D01*
X204165715Y-128422363D01*
X204137778Y-128429361D01*
X204109289Y-128433587D01*
X204080523Y-128435000D01*
X203317477Y-128435000D01*
X203288711Y-128433587D01*
X203260222Y-128429361D01*
X203232285Y-128422363D01*
X203205168Y-128412660D01*
X203179133Y-128400347D01*
X203154430Y-128385540D01*
X203131297Y-128368384D01*
X203109957Y-128349043D01*
X203090616Y-128327703D01*
X203073460Y-128304570D01*
X203058653Y-128279867D01*
X203046340Y-128253832D01*
X203036637Y-128226715D01*
X203029639Y-128198778D01*
X203025413Y-128170289D01*
X203024000Y-128141523D01*
X203024000Y-127128477D01*
X203025413Y-127099711D01*
X203029639Y-127071222D01*
X203036637Y-127043285D01*
X203046340Y-127016168D01*
X203058653Y-126990133D01*
X203073460Y-126965430D01*
X203090616Y-126942297D01*
X203109957Y-126920957D01*
X203131297Y-126901616D01*
X203154430Y-126884460D01*
X203179133Y-126869653D01*
X203205168Y-126857340D01*
X203232285Y-126847637D01*
X203260222Y-126840639D01*
X203288711Y-126836413D01*
X203317477Y-126835000D01*
X204080523Y-126835000D01*
X204109289Y-126836413D01*
X204109289Y-126836413D01*
G37*
D14*
X203699000Y-127635000D03*
D13*
G36*
X206159289Y-126836413D02*
X206187778Y-126840639D01*
X206215715Y-126847637D01*
X206242832Y-126857340D01*
X206268867Y-126869653D01*
X206293570Y-126884460D01*
X206316703Y-126901616D01*
X206338043Y-126920957D01*
X206357384Y-126942297D01*
X206374540Y-126965430D01*
X206389347Y-126990133D01*
X206401660Y-127016168D01*
X206411363Y-127043285D01*
X206418361Y-127071222D01*
X206422587Y-127099711D01*
X206424000Y-127128477D01*
X206424000Y-128141523D01*
X206422587Y-128170289D01*
X206418361Y-128198778D01*
X206411363Y-128226715D01*
X206401660Y-128253832D01*
X206389347Y-128279867D01*
X206374540Y-128304570D01*
X206357384Y-128327703D01*
X206338043Y-128349043D01*
X206316703Y-128368384D01*
X206293570Y-128385540D01*
X206268867Y-128400347D01*
X206242832Y-128412660D01*
X206215715Y-128422363D01*
X206187778Y-128429361D01*
X206159289Y-128433587D01*
X206130523Y-128435000D01*
X205367477Y-128435000D01*
X205338711Y-128433587D01*
X205310222Y-128429361D01*
X205282285Y-128422363D01*
X205255168Y-128412660D01*
X205229133Y-128400347D01*
X205204430Y-128385540D01*
X205181297Y-128368384D01*
X205159957Y-128349043D01*
X205140616Y-128327703D01*
X205123460Y-128304570D01*
X205108653Y-128279867D01*
X205096340Y-128253832D01*
X205086637Y-128226715D01*
X205079639Y-128198778D01*
X205075413Y-128170289D01*
X205074000Y-128141523D01*
X205074000Y-127128477D01*
X205075413Y-127099711D01*
X205079639Y-127071222D01*
X205086637Y-127043285D01*
X205096340Y-127016168D01*
X205108653Y-126990133D01*
X205123460Y-126965430D01*
X205140616Y-126942297D01*
X205159957Y-126920957D01*
X205181297Y-126901616D01*
X205204430Y-126884460D01*
X205229133Y-126869653D01*
X205255168Y-126857340D01*
X205282285Y-126847637D01*
X205310222Y-126840639D01*
X205338711Y-126836413D01*
X205367477Y-126835000D01*
X206130523Y-126835000D01*
X206159289Y-126836413D01*
X206159289Y-126836413D01*
G37*
D14*
X205749000Y-127635000D03*
G04 #@! TD*
D13*
G04 #@! TO.C,R7*
G36*
X204109289Y-123534413D02*
X204137778Y-123538639D01*
X204165715Y-123545637D01*
X204192832Y-123555340D01*
X204218867Y-123567653D01*
X204243570Y-123582460D01*
X204266703Y-123599616D01*
X204288043Y-123618957D01*
X204307384Y-123640297D01*
X204324540Y-123663430D01*
X204339347Y-123688133D01*
X204351660Y-123714168D01*
X204361363Y-123741285D01*
X204368361Y-123769222D01*
X204372587Y-123797711D01*
X204374000Y-123826477D01*
X204374000Y-124839523D01*
X204372587Y-124868289D01*
X204368361Y-124896778D01*
X204361363Y-124924715D01*
X204351660Y-124951832D01*
X204339347Y-124977867D01*
X204324540Y-125002570D01*
X204307384Y-125025703D01*
X204288043Y-125047043D01*
X204266703Y-125066384D01*
X204243570Y-125083540D01*
X204218867Y-125098347D01*
X204192832Y-125110660D01*
X204165715Y-125120363D01*
X204137778Y-125127361D01*
X204109289Y-125131587D01*
X204080523Y-125133000D01*
X203317477Y-125133000D01*
X203288711Y-125131587D01*
X203260222Y-125127361D01*
X203232285Y-125120363D01*
X203205168Y-125110660D01*
X203179133Y-125098347D01*
X203154430Y-125083540D01*
X203131297Y-125066384D01*
X203109957Y-125047043D01*
X203090616Y-125025703D01*
X203073460Y-125002570D01*
X203058653Y-124977867D01*
X203046340Y-124951832D01*
X203036637Y-124924715D01*
X203029639Y-124896778D01*
X203025413Y-124868289D01*
X203024000Y-124839523D01*
X203024000Y-123826477D01*
X203025413Y-123797711D01*
X203029639Y-123769222D01*
X203036637Y-123741285D01*
X203046340Y-123714168D01*
X203058653Y-123688133D01*
X203073460Y-123663430D01*
X203090616Y-123640297D01*
X203109957Y-123618957D01*
X203131297Y-123599616D01*
X203154430Y-123582460D01*
X203179133Y-123567653D01*
X203205168Y-123555340D01*
X203232285Y-123545637D01*
X203260222Y-123538639D01*
X203288711Y-123534413D01*
X203317477Y-123533000D01*
X204080523Y-123533000D01*
X204109289Y-123534413D01*
X204109289Y-123534413D01*
G37*
D14*
X203699000Y-124333000D03*
D13*
G36*
X206159289Y-123534413D02*
X206187778Y-123538639D01*
X206215715Y-123545637D01*
X206242832Y-123555340D01*
X206268867Y-123567653D01*
X206293570Y-123582460D01*
X206316703Y-123599616D01*
X206338043Y-123618957D01*
X206357384Y-123640297D01*
X206374540Y-123663430D01*
X206389347Y-123688133D01*
X206401660Y-123714168D01*
X206411363Y-123741285D01*
X206418361Y-123769222D01*
X206422587Y-123797711D01*
X206424000Y-123826477D01*
X206424000Y-124839523D01*
X206422587Y-124868289D01*
X206418361Y-124896778D01*
X206411363Y-124924715D01*
X206401660Y-124951832D01*
X206389347Y-124977867D01*
X206374540Y-125002570D01*
X206357384Y-125025703D01*
X206338043Y-125047043D01*
X206316703Y-125066384D01*
X206293570Y-125083540D01*
X206268867Y-125098347D01*
X206242832Y-125110660D01*
X206215715Y-125120363D01*
X206187778Y-125127361D01*
X206159289Y-125131587D01*
X206130523Y-125133000D01*
X205367477Y-125133000D01*
X205338711Y-125131587D01*
X205310222Y-125127361D01*
X205282285Y-125120363D01*
X205255168Y-125110660D01*
X205229133Y-125098347D01*
X205204430Y-125083540D01*
X205181297Y-125066384D01*
X205159957Y-125047043D01*
X205140616Y-125025703D01*
X205123460Y-125002570D01*
X205108653Y-124977867D01*
X205096340Y-124951832D01*
X205086637Y-124924715D01*
X205079639Y-124896778D01*
X205075413Y-124868289D01*
X205074000Y-124839523D01*
X205074000Y-123826477D01*
X205075413Y-123797711D01*
X205079639Y-123769222D01*
X205086637Y-123741285D01*
X205096340Y-123714168D01*
X205108653Y-123688133D01*
X205123460Y-123663430D01*
X205140616Y-123640297D01*
X205159957Y-123618957D01*
X205181297Y-123599616D01*
X205204430Y-123582460D01*
X205229133Y-123567653D01*
X205255168Y-123555340D01*
X205282285Y-123545637D01*
X205310222Y-123538639D01*
X205338711Y-123534413D01*
X205367477Y-123533000D01*
X206130523Y-123533000D01*
X206159289Y-123534413D01*
X206159289Y-123534413D01*
G37*
D14*
X205749000Y-124333000D03*
G04 #@! TD*
D13*
G04 #@! TO.C,R8*
G36*
X228059289Y-104675413D02*
X228087778Y-104679639D01*
X228115715Y-104686637D01*
X228142832Y-104696340D01*
X228168867Y-104708653D01*
X228193570Y-104723460D01*
X228216703Y-104740616D01*
X228238043Y-104759957D01*
X228257384Y-104781297D01*
X228274540Y-104804430D01*
X228289347Y-104829133D01*
X228301660Y-104855168D01*
X228311363Y-104882285D01*
X228318361Y-104910222D01*
X228322587Y-104938711D01*
X228324000Y-104967477D01*
X228324000Y-105980523D01*
X228322587Y-106009289D01*
X228318361Y-106037778D01*
X228311363Y-106065715D01*
X228301660Y-106092832D01*
X228289347Y-106118867D01*
X228274540Y-106143570D01*
X228257384Y-106166703D01*
X228238043Y-106188043D01*
X228216703Y-106207384D01*
X228193570Y-106224540D01*
X228168867Y-106239347D01*
X228142832Y-106251660D01*
X228115715Y-106261363D01*
X228087778Y-106268361D01*
X228059289Y-106272587D01*
X228030523Y-106274000D01*
X227267477Y-106274000D01*
X227238711Y-106272587D01*
X227210222Y-106268361D01*
X227182285Y-106261363D01*
X227155168Y-106251660D01*
X227129133Y-106239347D01*
X227104430Y-106224540D01*
X227081297Y-106207384D01*
X227059957Y-106188043D01*
X227040616Y-106166703D01*
X227023460Y-106143570D01*
X227008653Y-106118867D01*
X226996340Y-106092832D01*
X226986637Y-106065715D01*
X226979639Y-106037778D01*
X226975413Y-106009289D01*
X226974000Y-105980523D01*
X226974000Y-104967477D01*
X226975413Y-104938711D01*
X226979639Y-104910222D01*
X226986637Y-104882285D01*
X226996340Y-104855168D01*
X227008653Y-104829133D01*
X227023460Y-104804430D01*
X227040616Y-104781297D01*
X227059957Y-104759957D01*
X227081297Y-104740616D01*
X227104430Y-104723460D01*
X227129133Y-104708653D01*
X227155168Y-104696340D01*
X227182285Y-104686637D01*
X227210222Y-104679639D01*
X227238711Y-104675413D01*
X227267477Y-104674000D01*
X228030523Y-104674000D01*
X228059289Y-104675413D01*
X228059289Y-104675413D01*
G37*
D14*
X227649000Y-105474000D03*
D13*
G36*
X230109289Y-104675413D02*
X230137778Y-104679639D01*
X230165715Y-104686637D01*
X230192832Y-104696340D01*
X230218867Y-104708653D01*
X230243570Y-104723460D01*
X230266703Y-104740616D01*
X230288043Y-104759957D01*
X230307384Y-104781297D01*
X230324540Y-104804430D01*
X230339347Y-104829133D01*
X230351660Y-104855168D01*
X230361363Y-104882285D01*
X230368361Y-104910222D01*
X230372587Y-104938711D01*
X230374000Y-104967477D01*
X230374000Y-105980523D01*
X230372587Y-106009289D01*
X230368361Y-106037778D01*
X230361363Y-106065715D01*
X230351660Y-106092832D01*
X230339347Y-106118867D01*
X230324540Y-106143570D01*
X230307384Y-106166703D01*
X230288043Y-106188043D01*
X230266703Y-106207384D01*
X230243570Y-106224540D01*
X230218867Y-106239347D01*
X230192832Y-106251660D01*
X230165715Y-106261363D01*
X230137778Y-106268361D01*
X230109289Y-106272587D01*
X230080523Y-106274000D01*
X229317477Y-106274000D01*
X229288711Y-106272587D01*
X229260222Y-106268361D01*
X229232285Y-106261363D01*
X229205168Y-106251660D01*
X229179133Y-106239347D01*
X229154430Y-106224540D01*
X229131297Y-106207384D01*
X229109957Y-106188043D01*
X229090616Y-106166703D01*
X229073460Y-106143570D01*
X229058653Y-106118867D01*
X229046340Y-106092832D01*
X229036637Y-106065715D01*
X229029639Y-106037778D01*
X229025413Y-106009289D01*
X229024000Y-105980523D01*
X229024000Y-104967477D01*
X229025413Y-104938711D01*
X229029639Y-104910222D01*
X229036637Y-104882285D01*
X229046340Y-104855168D01*
X229058653Y-104829133D01*
X229073460Y-104804430D01*
X229090616Y-104781297D01*
X229109957Y-104759957D01*
X229131297Y-104740616D01*
X229154430Y-104723460D01*
X229179133Y-104708653D01*
X229205168Y-104696340D01*
X229232285Y-104686637D01*
X229260222Y-104679639D01*
X229288711Y-104675413D01*
X229317477Y-104674000D01*
X230080523Y-104674000D01*
X230109289Y-104675413D01*
X230109289Y-104675413D01*
G37*
D14*
X229699000Y-105474000D03*
G04 #@! TD*
D13*
G04 #@! TO.C,R9*
G36*
X197131289Y-132667413D02*
X197159778Y-132671639D01*
X197187715Y-132678637D01*
X197214832Y-132688340D01*
X197240867Y-132700653D01*
X197265570Y-132715460D01*
X197288703Y-132732616D01*
X197310043Y-132751957D01*
X197329384Y-132773297D01*
X197346540Y-132796430D01*
X197361347Y-132821133D01*
X197373660Y-132847168D01*
X197383363Y-132874285D01*
X197390361Y-132902222D01*
X197394587Y-132930711D01*
X197396000Y-132959477D01*
X197396000Y-133722523D01*
X197394587Y-133751289D01*
X197390361Y-133779778D01*
X197383363Y-133807715D01*
X197373660Y-133834832D01*
X197361347Y-133860867D01*
X197346540Y-133885570D01*
X197329384Y-133908703D01*
X197310043Y-133930043D01*
X197288703Y-133949384D01*
X197265570Y-133966540D01*
X197240867Y-133981347D01*
X197214832Y-133993660D01*
X197187715Y-134003363D01*
X197159778Y-134010361D01*
X197131289Y-134014587D01*
X197102523Y-134016000D01*
X196089477Y-134016000D01*
X196060711Y-134014587D01*
X196032222Y-134010361D01*
X196004285Y-134003363D01*
X195977168Y-133993660D01*
X195951133Y-133981347D01*
X195926430Y-133966540D01*
X195903297Y-133949384D01*
X195881957Y-133930043D01*
X195862616Y-133908703D01*
X195845460Y-133885570D01*
X195830653Y-133860867D01*
X195818340Y-133834832D01*
X195808637Y-133807715D01*
X195801639Y-133779778D01*
X195797413Y-133751289D01*
X195796000Y-133722523D01*
X195796000Y-132959477D01*
X195797413Y-132930711D01*
X195801639Y-132902222D01*
X195808637Y-132874285D01*
X195818340Y-132847168D01*
X195830653Y-132821133D01*
X195845460Y-132796430D01*
X195862616Y-132773297D01*
X195881957Y-132751957D01*
X195903297Y-132732616D01*
X195926430Y-132715460D01*
X195951133Y-132700653D01*
X195977168Y-132688340D01*
X196004285Y-132678637D01*
X196032222Y-132671639D01*
X196060711Y-132667413D01*
X196089477Y-132666000D01*
X197102523Y-132666000D01*
X197131289Y-132667413D01*
X197131289Y-132667413D01*
G37*
D14*
X196596000Y-133341000D03*
D13*
G36*
X197131289Y-134717413D02*
X197159778Y-134721639D01*
X197187715Y-134728637D01*
X197214832Y-134738340D01*
X197240867Y-134750653D01*
X197265570Y-134765460D01*
X197288703Y-134782616D01*
X197310043Y-134801957D01*
X197329384Y-134823297D01*
X197346540Y-134846430D01*
X197361347Y-134871133D01*
X197373660Y-134897168D01*
X197383363Y-134924285D01*
X197390361Y-134952222D01*
X197394587Y-134980711D01*
X197396000Y-135009477D01*
X197396000Y-135772523D01*
X197394587Y-135801289D01*
X197390361Y-135829778D01*
X197383363Y-135857715D01*
X197373660Y-135884832D01*
X197361347Y-135910867D01*
X197346540Y-135935570D01*
X197329384Y-135958703D01*
X197310043Y-135980043D01*
X197288703Y-135999384D01*
X197265570Y-136016540D01*
X197240867Y-136031347D01*
X197214832Y-136043660D01*
X197187715Y-136053363D01*
X197159778Y-136060361D01*
X197131289Y-136064587D01*
X197102523Y-136066000D01*
X196089477Y-136066000D01*
X196060711Y-136064587D01*
X196032222Y-136060361D01*
X196004285Y-136053363D01*
X195977168Y-136043660D01*
X195951133Y-136031347D01*
X195926430Y-136016540D01*
X195903297Y-135999384D01*
X195881957Y-135980043D01*
X195862616Y-135958703D01*
X195845460Y-135935570D01*
X195830653Y-135910867D01*
X195818340Y-135884832D01*
X195808637Y-135857715D01*
X195801639Y-135829778D01*
X195797413Y-135801289D01*
X195796000Y-135772523D01*
X195796000Y-135009477D01*
X195797413Y-134980711D01*
X195801639Y-134952222D01*
X195808637Y-134924285D01*
X195818340Y-134897168D01*
X195830653Y-134871133D01*
X195845460Y-134846430D01*
X195862616Y-134823297D01*
X195881957Y-134801957D01*
X195903297Y-134782616D01*
X195926430Y-134765460D01*
X195951133Y-134750653D01*
X195977168Y-134738340D01*
X196004285Y-134728637D01*
X196032222Y-134721639D01*
X196060711Y-134717413D01*
X196089477Y-134716000D01*
X197102523Y-134716000D01*
X197131289Y-134717413D01*
X197131289Y-134717413D01*
G37*
D14*
X196596000Y-135391000D03*
G04 #@! TD*
D13*
G04 #@! TO.C,R10*
G36*
X191681289Y-136869413D02*
X191709778Y-136873639D01*
X191737715Y-136880637D01*
X191764832Y-136890340D01*
X191790867Y-136902653D01*
X191815570Y-136917460D01*
X191838703Y-136934616D01*
X191860043Y-136953957D01*
X191879384Y-136975297D01*
X191896540Y-136998430D01*
X191911347Y-137023133D01*
X191923660Y-137049168D01*
X191933363Y-137076285D01*
X191940361Y-137104222D01*
X191944587Y-137132711D01*
X191946000Y-137161477D01*
X191946000Y-138174523D01*
X191944587Y-138203289D01*
X191940361Y-138231778D01*
X191933363Y-138259715D01*
X191923660Y-138286832D01*
X191911347Y-138312867D01*
X191896540Y-138337570D01*
X191879384Y-138360703D01*
X191860043Y-138382043D01*
X191838703Y-138401384D01*
X191815570Y-138418540D01*
X191790867Y-138433347D01*
X191764832Y-138445660D01*
X191737715Y-138455363D01*
X191709778Y-138462361D01*
X191681289Y-138466587D01*
X191652523Y-138468000D01*
X190889477Y-138468000D01*
X190860711Y-138466587D01*
X190832222Y-138462361D01*
X190804285Y-138455363D01*
X190777168Y-138445660D01*
X190751133Y-138433347D01*
X190726430Y-138418540D01*
X190703297Y-138401384D01*
X190681957Y-138382043D01*
X190662616Y-138360703D01*
X190645460Y-138337570D01*
X190630653Y-138312867D01*
X190618340Y-138286832D01*
X190608637Y-138259715D01*
X190601639Y-138231778D01*
X190597413Y-138203289D01*
X190596000Y-138174523D01*
X190596000Y-137161477D01*
X190597413Y-137132711D01*
X190601639Y-137104222D01*
X190608637Y-137076285D01*
X190618340Y-137049168D01*
X190630653Y-137023133D01*
X190645460Y-136998430D01*
X190662616Y-136975297D01*
X190681957Y-136953957D01*
X190703297Y-136934616D01*
X190726430Y-136917460D01*
X190751133Y-136902653D01*
X190777168Y-136890340D01*
X190804285Y-136880637D01*
X190832222Y-136873639D01*
X190860711Y-136869413D01*
X190889477Y-136868000D01*
X191652523Y-136868000D01*
X191681289Y-136869413D01*
X191681289Y-136869413D01*
G37*
D14*
X191271000Y-137668000D03*
D13*
G36*
X189631289Y-136869413D02*
X189659778Y-136873639D01*
X189687715Y-136880637D01*
X189714832Y-136890340D01*
X189740867Y-136902653D01*
X189765570Y-136917460D01*
X189788703Y-136934616D01*
X189810043Y-136953957D01*
X189829384Y-136975297D01*
X189846540Y-136998430D01*
X189861347Y-137023133D01*
X189873660Y-137049168D01*
X189883363Y-137076285D01*
X189890361Y-137104222D01*
X189894587Y-137132711D01*
X189896000Y-137161477D01*
X189896000Y-138174523D01*
X189894587Y-138203289D01*
X189890361Y-138231778D01*
X189883363Y-138259715D01*
X189873660Y-138286832D01*
X189861347Y-138312867D01*
X189846540Y-138337570D01*
X189829384Y-138360703D01*
X189810043Y-138382043D01*
X189788703Y-138401384D01*
X189765570Y-138418540D01*
X189740867Y-138433347D01*
X189714832Y-138445660D01*
X189687715Y-138455363D01*
X189659778Y-138462361D01*
X189631289Y-138466587D01*
X189602523Y-138468000D01*
X188839477Y-138468000D01*
X188810711Y-138466587D01*
X188782222Y-138462361D01*
X188754285Y-138455363D01*
X188727168Y-138445660D01*
X188701133Y-138433347D01*
X188676430Y-138418540D01*
X188653297Y-138401384D01*
X188631957Y-138382043D01*
X188612616Y-138360703D01*
X188595460Y-138337570D01*
X188580653Y-138312867D01*
X188568340Y-138286832D01*
X188558637Y-138259715D01*
X188551639Y-138231778D01*
X188547413Y-138203289D01*
X188546000Y-138174523D01*
X188546000Y-137161477D01*
X188547413Y-137132711D01*
X188551639Y-137104222D01*
X188558637Y-137076285D01*
X188568340Y-137049168D01*
X188580653Y-137023133D01*
X188595460Y-136998430D01*
X188612616Y-136975297D01*
X188631957Y-136953957D01*
X188653297Y-136934616D01*
X188676430Y-136917460D01*
X188701133Y-136902653D01*
X188727168Y-136890340D01*
X188754285Y-136880637D01*
X188782222Y-136873639D01*
X188810711Y-136869413D01*
X188839477Y-136868000D01*
X189602523Y-136868000D01*
X189631289Y-136869413D01*
X189631289Y-136869413D01*
G37*
D14*
X189221000Y-137668000D03*
G04 #@! TD*
D13*
G04 #@! TO.C,R11*
G36*
X197269289Y-124169413D02*
X197297778Y-124173639D01*
X197325715Y-124180637D01*
X197352832Y-124190340D01*
X197378867Y-124202653D01*
X197403570Y-124217460D01*
X197426703Y-124234616D01*
X197448043Y-124253957D01*
X197467384Y-124275297D01*
X197484540Y-124298430D01*
X197499347Y-124323133D01*
X197511660Y-124349168D01*
X197521363Y-124376285D01*
X197528361Y-124404222D01*
X197532587Y-124432711D01*
X197534000Y-124461477D01*
X197534000Y-125474523D01*
X197532587Y-125503289D01*
X197528361Y-125531778D01*
X197521363Y-125559715D01*
X197511660Y-125586832D01*
X197499347Y-125612867D01*
X197484540Y-125637570D01*
X197467384Y-125660703D01*
X197448043Y-125682043D01*
X197426703Y-125701384D01*
X197403570Y-125718540D01*
X197378867Y-125733347D01*
X197352832Y-125745660D01*
X197325715Y-125755363D01*
X197297778Y-125762361D01*
X197269289Y-125766587D01*
X197240523Y-125768000D01*
X196477477Y-125768000D01*
X196448711Y-125766587D01*
X196420222Y-125762361D01*
X196392285Y-125755363D01*
X196365168Y-125745660D01*
X196339133Y-125733347D01*
X196314430Y-125718540D01*
X196291297Y-125701384D01*
X196269957Y-125682043D01*
X196250616Y-125660703D01*
X196233460Y-125637570D01*
X196218653Y-125612867D01*
X196206340Y-125586832D01*
X196196637Y-125559715D01*
X196189639Y-125531778D01*
X196185413Y-125503289D01*
X196184000Y-125474523D01*
X196184000Y-124461477D01*
X196185413Y-124432711D01*
X196189639Y-124404222D01*
X196196637Y-124376285D01*
X196206340Y-124349168D01*
X196218653Y-124323133D01*
X196233460Y-124298430D01*
X196250616Y-124275297D01*
X196269957Y-124253957D01*
X196291297Y-124234616D01*
X196314430Y-124217460D01*
X196339133Y-124202653D01*
X196365168Y-124190340D01*
X196392285Y-124180637D01*
X196420222Y-124173639D01*
X196448711Y-124169413D01*
X196477477Y-124168000D01*
X197240523Y-124168000D01*
X197269289Y-124169413D01*
X197269289Y-124169413D01*
G37*
D14*
X196859000Y-124968000D03*
D13*
G36*
X195219289Y-124169413D02*
X195247778Y-124173639D01*
X195275715Y-124180637D01*
X195302832Y-124190340D01*
X195328867Y-124202653D01*
X195353570Y-124217460D01*
X195376703Y-124234616D01*
X195398043Y-124253957D01*
X195417384Y-124275297D01*
X195434540Y-124298430D01*
X195449347Y-124323133D01*
X195461660Y-124349168D01*
X195471363Y-124376285D01*
X195478361Y-124404222D01*
X195482587Y-124432711D01*
X195484000Y-124461477D01*
X195484000Y-125474523D01*
X195482587Y-125503289D01*
X195478361Y-125531778D01*
X195471363Y-125559715D01*
X195461660Y-125586832D01*
X195449347Y-125612867D01*
X195434540Y-125637570D01*
X195417384Y-125660703D01*
X195398043Y-125682043D01*
X195376703Y-125701384D01*
X195353570Y-125718540D01*
X195328867Y-125733347D01*
X195302832Y-125745660D01*
X195275715Y-125755363D01*
X195247778Y-125762361D01*
X195219289Y-125766587D01*
X195190523Y-125768000D01*
X194427477Y-125768000D01*
X194398711Y-125766587D01*
X194370222Y-125762361D01*
X194342285Y-125755363D01*
X194315168Y-125745660D01*
X194289133Y-125733347D01*
X194264430Y-125718540D01*
X194241297Y-125701384D01*
X194219957Y-125682043D01*
X194200616Y-125660703D01*
X194183460Y-125637570D01*
X194168653Y-125612867D01*
X194156340Y-125586832D01*
X194146637Y-125559715D01*
X194139639Y-125531778D01*
X194135413Y-125503289D01*
X194134000Y-125474523D01*
X194134000Y-124461477D01*
X194135413Y-124432711D01*
X194139639Y-124404222D01*
X194146637Y-124376285D01*
X194156340Y-124349168D01*
X194168653Y-124323133D01*
X194183460Y-124298430D01*
X194200616Y-124275297D01*
X194219957Y-124253957D01*
X194241297Y-124234616D01*
X194264430Y-124217460D01*
X194289133Y-124202653D01*
X194315168Y-124190340D01*
X194342285Y-124180637D01*
X194370222Y-124173639D01*
X194398711Y-124169413D01*
X194427477Y-124168000D01*
X195190523Y-124168000D01*
X195219289Y-124169413D01*
X195219289Y-124169413D01*
G37*
D14*
X194809000Y-124968000D03*
G04 #@! TD*
D13*
G04 #@! TO.C,R12*
G36*
X192951289Y-130265413D02*
X192979778Y-130269639D01*
X193007715Y-130276637D01*
X193034832Y-130286340D01*
X193060867Y-130298653D01*
X193085570Y-130313460D01*
X193108703Y-130330616D01*
X193130043Y-130349957D01*
X193149384Y-130371297D01*
X193166540Y-130394430D01*
X193181347Y-130419133D01*
X193193660Y-130445168D01*
X193203363Y-130472285D01*
X193210361Y-130500222D01*
X193214587Y-130528711D01*
X193216000Y-130557477D01*
X193216000Y-131570523D01*
X193214587Y-131599289D01*
X193210361Y-131627778D01*
X193203363Y-131655715D01*
X193193660Y-131682832D01*
X193181347Y-131708867D01*
X193166540Y-131733570D01*
X193149384Y-131756703D01*
X193130043Y-131778043D01*
X193108703Y-131797384D01*
X193085570Y-131814540D01*
X193060867Y-131829347D01*
X193034832Y-131841660D01*
X193007715Y-131851363D01*
X192979778Y-131858361D01*
X192951289Y-131862587D01*
X192922523Y-131864000D01*
X192159477Y-131864000D01*
X192130711Y-131862587D01*
X192102222Y-131858361D01*
X192074285Y-131851363D01*
X192047168Y-131841660D01*
X192021133Y-131829347D01*
X191996430Y-131814540D01*
X191973297Y-131797384D01*
X191951957Y-131778043D01*
X191932616Y-131756703D01*
X191915460Y-131733570D01*
X191900653Y-131708867D01*
X191888340Y-131682832D01*
X191878637Y-131655715D01*
X191871639Y-131627778D01*
X191867413Y-131599289D01*
X191866000Y-131570523D01*
X191866000Y-130557477D01*
X191867413Y-130528711D01*
X191871639Y-130500222D01*
X191878637Y-130472285D01*
X191888340Y-130445168D01*
X191900653Y-130419133D01*
X191915460Y-130394430D01*
X191932616Y-130371297D01*
X191951957Y-130349957D01*
X191973297Y-130330616D01*
X191996430Y-130313460D01*
X192021133Y-130298653D01*
X192047168Y-130286340D01*
X192074285Y-130276637D01*
X192102222Y-130269639D01*
X192130711Y-130265413D01*
X192159477Y-130264000D01*
X192922523Y-130264000D01*
X192951289Y-130265413D01*
X192951289Y-130265413D01*
G37*
D14*
X192541000Y-131064000D03*
D13*
G36*
X190901289Y-130265413D02*
X190929778Y-130269639D01*
X190957715Y-130276637D01*
X190984832Y-130286340D01*
X191010867Y-130298653D01*
X191035570Y-130313460D01*
X191058703Y-130330616D01*
X191080043Y-130349957D01*
X191099384Y-130371297D01*
X191116540Y-130394430D01*
X191131347Y-130419133D01*
X191143660Y-130445168D01*
X191153363Y-130472285D01*
X191160361Y-130500222D01*
X191164587Y-130528711D01*
X191166000Y-130557477D01*
X191166000Y-131570523D01*
X191164587Y-131599289D01*
X191160361Y-131627778D01*
X191153363Y-131655715D01*
X191143660Y-131682832D01*
X191131347Y-131708867D01*
X191116540Y-131733570D01*
X191099384Y-131756703D01*
X191080043Y-131778043D01*
X191058703Y-131797384D01*
X191035570Y-131814540D01*
X191010867Y-131829347D01*
X190984832Y-131841660D01*
X190957715Y-131851363D01*
X190929778Y-131858361D01*
X190901289Y-131862587D01*
X190872523Y-131864000D01*
X190109477Y-131864000D01*
X190080711Y-131862587D01*
X190052222Y-131858361D01*
X190024285Y-131851363D01*
X189997168Y-131841660D01*
X189971133Y-131829347D01*
X189946430Y-131814540D01*
X189923297Y-131797384D01*
X189901957Y-131778043D01*
X189882616Y-131756703D01*
X189865460Y-131733570D01*
X189850653Y-131708867D01*
X189838340Y-131682832D01*
X189828637Y-131655715D01*
X189821639Y-131627778D01*
X189817413Y-131599289D01*
X189816000Y-131570523D01*
X189816000Y-130557477D01*
X189817413Y-130528711D01*
X189821639Y-130500222D01*
X189828637Y-130472285D01*
X189838340Y-130445168D01*
X189850653Y-130419133D01*
X189865460Y-130394430D01*
X189882616Y-130371297D01*
X189901957Y-130349957D01*
X189923297Y-130330616D01*
X189946430Y-130313460D01*
X189971133Y-130298653D01*
X189997168Y-130286340D01*
X190024285Y-130276637D01*
X190052222Y-130269639D01*
X190080711Y-130265413D01*
X190109477Y-130264000D01*
X190872523Y-130264000D01*
X190901289Y-130265413D01*
X190901289Y-130265413D01*
G37*
D14*
X190491000Y-131064000D03*
G04 #@! TD*
D13*
G04 #@! TO.C,R13*
G36*
X156535289Y-129551413D02*
X156563778Y-129555639D01*
X156591715Y-129562637D01*
X156618832Y-129572340D01*
X156644867Y-129584653D01*
X156669570Y-129599460D01*
X156692703Y-129616616D01*
X156714043Y-129635957D01*
X156733384Y-129657297D01*
X156750540Y-129680430D01*
X156765347Y-129705133D01*
X156777660Y-129731168D01*
X156787363Y-129758285D01*
X156794361Y-129786222D01*
X156798587Y-129814711D01*
X156800000Y-129843477D01*
X156800000Y-130606523D01*
X156798587Y-130635289D01*
X156794361Y-130663778D01*
X156787363Y-130691715D01*
X156777660Y-130718832D01*
X156765347Y-130744867D01*
X156750540Y-130769570D01*
X156733384Y-130792703D01*
X156714043Y-130814043D01*
X156692703Y-130833384D01*
X156669570Y-130850540D01*
X156644867Y-130865347D01*
X156618832Y-130877660D01*
X156591715Y-130887363D01*
X156563778Y-130894361D01*
X156535289Y-130898587D01*
X156506523Y-130900000D01*
X155493477Y-130900000D01*
X155464711Y-130898587D01*
X155436222Y-130894361D01*
X155408285Y-130887363D01*
X155381168Y-130877660D01*
X155355133Y-130865347D01*
X155330430Y-130850540D01*
X155307297Y-130833384D01*
X155285957Y-130814043D01*
X155266616Y-130792703D01*
X155249460Y-130769570D01*
X155234653Y-130744867D01*
X155222340Y-130718832D01*
X155212637Y-130691715D01*
X155205639Y-130663778D01*
X155201413Y-130635289D01*
X155200000Y-130606523D01*
X155200000Y-129843477D01*
X155201413Y-129814711D01*
X155205639Y-129786222D01*
X155212637Y-129758285D01*
X155222340Y-129731168D01*
X155234653Y-129705133D01*
X155249460Y-129680430D01*
X155266616Y-129657297D01*
X155285957Y-129635957D01*
X155307297Y-129616616D01*
X155330430Y-129599460D01*
X155355133Y-129584653D01*
X155381168Y-129572340D01*
X155408285Y-129562637D01*
X155436222Y-129555639D01*
X155464711Y-129551413D01*
X155493477Y-129550000D01*
X156506523Y-129550000D01*
X156535289Y-129551413D01*
X156535289Y-129551413D01*
G37*
D14*
X156000000Y-130225000D03*
D13*
G36*
X156535289Y-131601413D02*
X156563778Y-131605639D01*
X156591715Y-131612637D01*
X156618832Y-131622340D01*
X156644867Y-131634653D01*
X156669570Y-131649460D01*
X156692703Y-131666616D01*
X156714043Y-131685957D01*
X156733384Y-131707297D01*
X156750540Y-131730430D01*
X156765347Y-131755133D01*
X156777660Y-131781168D01*
X156787363Y-131808285D01*
X156794361Y-131836222D01*
X156798587Y-131864711D01*
X156800000Y-131893477D01*
X156800000Y-132656523D01*
X156798587Y-132685289D01*
X156794361Y-132713778D01*
X156787363Y-132741715D01*
X156777660Y-132768832D01*
X156765347Y-132794867D01*
X156750540Y-132819570D01*
X156733384Y-132842703D01*
X156714043Y-132864043D01*
X156692703Y-132883384D01*
X156669570Y-132900540D01*
X156644867Y-132915347D01*
X156618832Y-132927660D01*
X156591715Y-132937363D01*
X156563778Y-132944361D01*
X156535289Y-132948587D01*
X156506523Y-132950000D01*
X155493477Y-132950000D01*
X155464711Y-132948587D01*
X155436222Y-132944361D01*
X155408285Y-132937363D01*
X155381168Y-132927660D01*
X155355133Y-132915347D01*
X155330430Y-132900540D01*
X155307297Y-132883384D01*
X155285957Y-132864043D01*
X155266616Y-132842703D01*
X155249460Y-132819570D01*
X155234653Y-132794867D01*
X155222340Y-132768832D01*
X155212637Y-132741715D01*
X155205639Y-132713778D01*
X155201413Y-132685289D01*
X155200000Y-132656523D01*
X155200000Y-131893477D01*
X155201413Y-131864711D01*
X155205639Y-131836222D01*
X155212637Y-131808285D01*
X155222340Y-131781168D01*
X155234653Y-131755133D01*
X155249460Y-131730430D01*
X155266616Y-131707297D01*
X155285957Y-131685957D01*
X155307297Y-131666616D01*
X155330430Y-131649460D01*
X155355133Y-131634653D01*
X155381168Y-131622340D01*
X155408285Y-131612637D01*
X155436222Y-131605639D01*
X155464711Y-131601413D01*
X155493477Y-131600000D01*
X156506523Y-131600000D01*
X156535289Y-131601413D01*
X156535289Y-131601413D01*
G37*
D14*
X156000000Y-132275000D03*
G04 #@! TD*
D13*
G04 #@! TO.C,R14*
G36*
X160035289Y-131601413D02*
X160063778Y-131605639D01*
X160091715Y-131612637D01*
X160118832Y-131622340D01*
X160144867Y-131634653D01*
X160169570Y-131649460D01*
X160192703Y-131666616D01*
X160214043Y-131685957D01*
X160233384Y-131707297D01*
X160250540Y-131730430D01*
X160265347Y-131755133D01*
X160277660Y-131781168D01*
X160287363Y-131808285D01*
X160294361Y-131836222D01*
X160298587Y-131864711D01*
X160300000Y-131893477D01*
X160300000Y-132656523D01*
X160298587Y-132685289D01*
X160294361Y-132713778D01*
X160287363Y-132741715D01*
X160277660Y-132768832D01*
X160265347Y-132794867D01*
X160250540Y-132819570D01*
X160233384Y-132842703D01*
X160214043Y-132864043D01*
X160192703Y-132883384D01*
X160169570Y-132900540D01*
X160144867Y-132915347D01*
X160118832Y-132927660D01*
X160091715Y-132937363D01*
X160063778Y-132944361D01*
X160035289Y-132948587D01*
X160006523Y-132950000D01*
X158993477Y-132950000D01*
X158964711Y-132948587D01*
X158936222Y-132944361D01*
X158908285Y-132937363D01*
X158881168Y-132927660D01*
X158855133Y-132915347D01*
X158830430Y-132900540D01*
X158807297Y-132883384D01*
X158785957Y-132864043D01*
X158766616Y-132842703D01*
X158749460Y-132819570D01*
X158734653Y-132794867D01*
X158722340Y-132768832D01*
X158712637Y-132741715D01*
X158705639Y-132713778D01*
X158701413Y-132685289D01*
X158700000Y-132656523D01*
X158700000Y-131893477D01*
X158701413Y-131864711D01*
X158705639Y-131836222D01*
X158712637Y-131808285D01*
X158722340Y-131781168D01*
X158734653Y-131755133D01*
X158749460Y-131730430D01*
X158766616Y-131707297D01*
X158785957Y-131685957D01*
X158807297Y-131666616D01*
X158830430Y-131649460D01*
X158855133Y-131634653D01*
X158881168Y-131622340D01*
X158908285Y-131612637D01*
X158936222Y-131605639D01*
X158964711Y-131601413D01*
X158993477Y-131600000D01*
X160006523Y-131600000D01*
X160035289Y-131601413D01*
X160035289Y-131601413D01*
G37*
D14*
X159500000Y-132275000D03*
D13*
G36*
X160035289Y-129551413D02*
X160063778Y-129555639D01*
X160091715Y-129562637D01*
X160118832Y-129572340D01*
X160144867Y-129584653D01*
X160169570Y-129599460D01*
X160192703Y-129616616D01*
X160214043Y-129635957D01*
X160233384Y-129657297D01*
X160250540Y-129680430D01*
X160265347Y-129705133D01*
X160277660Y-129731168D01*
X160287363Y-129758285D01*
X160294361Y-129786222D01*
X160298587Y-129814711D01*
X160300000Y-129843477D01*
X160300000Y-130606523D01*
X160298587Y-130635289D01*
X160294361Y-130663778D01*
X160287363Y-130691715D01*
X160277660Y-130718832D01*
X160265347Y-130744867D01*
X160250540Y-130769570D01*
X160233384Y-130792703D01*
X160214043Y-130814043D01*
X160192703Y-130833384D01*
X160169570Y-130850540D01*
X160144867Y-130865347D01*
X160118832Y-130877660D01*
X160091715Y-130887363D01*
X160063778Y-130894361D01*
X160035289Y-130898587D01*
X160006523Y-130900000D01*
X158993477Y-130900000D01*
X158964711Y-130898587D01*
X158936222Y-130894361D01*
X158908285Y-130887363D01*
X158881168Y-130877660D01*
X158855133Y-130865347D01*
X158830430Y-130850540D01*
X158807297Y-130833384D01*
X158785957Y-130814043D01*
X158766616Y-130792703D01*
X158749460Y-130769570D01*
X158734653Y-130744867D01*
X158722340Y-130718832D01*
X158712637Y-130691715D01*
X158705639Y-130663778D01*
X158701413Y-130635289D01*
X158700000Y-130606523D01*
X158700000Y-129843477D01*
X158701413Y-129814711D01*
X158705639Y-129786222D01*
X158712637Y-129758285D01*
X158722340Y-129731168D01*
X158734653Y-129705133D01*
X158749460Y-129680430D01*
X158766616Y-129657297D01*
X158785957Y-129635957D01*
X158807297Y-129616616D01*
X158830430Y-129599460D01*
X158855133Y-129584653D01*
X158881168Y-129572340D01*
X158908285Y-129562637D01*
X158936222Y-129555639D01*
X158964711Y-129551413D01*
X158993477Y-129550000D01*
X160006523Y-129550000D01*
X160035289Y-129551413D01*
X160035289Y-129551413D01*
G37*
D14*
X159500000Y-130225000D03*
G04 #@! TD*
D13*
G04 #@! TO.C,R15*
G36*
X163785289Y-129551413D02*
X163813778Y-129555639D01*
X163841715Y-129562637D01*
X163868832Y-129572340D01*
X163894867Y-129584653D01*
X163919570Y-129599460D01*
X163942703Y-129616616D01*
X163964043Y-129635957D01*
X163983384Y-129657297D01*
X164000540Y-129680430D01*
X164015347Y-129705133D01*
X164027660Y-129731168D01*
X164037363Y-129758285D01*
X164044361Y-129786222D01*
X164048587Y-129814711D01*
X164050000Y-129843477D01*
X164050000Y-130606523D01*
X164048587Y-130635289D01*
X164044361Y-130663778D01*
X164037363Y-130691715D01*
X164027660Y-130718832D01*
X164015347Y-130744867D01*
X164000540Y-130769570D01*
X163983384Y-130792703D01*
X163964043Y-130814043D01*
X163942703Y-130833384D01*
X163919570Y-130850540D01*
X163894867Y-130865347D01*
X163868832Y-130877660D01*
X163841715Y-130887363D01*
X163813778Y-130894361D01*
X163785289Y-130898587D01*
X163756523Y-130900000D01*
X162743477Y-130900000D01*
X162714711Y-130898587D01*
X162686222Y-130894361D01*
X162658285Y-130887363D01*
X162631168Y-130877660D01*
X162605133Y-130865347D01*
X162580430Y-130850540D01*
X162557297Y-130833384D01*
X162535957Y-130814043D01*
X162516616Y-130792703D01*
X162499460Y-130769570D01*
X162484653Y-130744867D01*
X162472340Y-130718832D01*
X162462637Y-130691715D01*
X162455639Y-130663778D01*
X162451413Y-130635289D01*
X162450000Y-130606523D01*
X162450000Y-129843477D01*
X162451413Y-129814711D01*
X162455639Y-129786222D01*
X162462637Y-129758285D01*
X162472340Y-129731168D01*
X162484653Y-129705133D01*
X162499460Y-129680430D01*
X162516616Y-129657297D01*
X162535957Y-129635957D01*
X162557297Y-129616616D01*
X162580430Y-129599460D01*
X162605133Y-129584653D01*
X162631168Y-129572340D01*
X162658285Y-129562637D01*
X162686222Y-129555639D01*
X162714711Y-129551413D01*
X162743477Y-129550000D01*
X163756523Y-129550000D01*
X163785289Y-129551413D01*
X163785289Y-129551413D01*
G37*
D14*
X163250000Y-130225000D03*
D13*
G36*
X163785289Y-131601413D02*
X163813778Y-131605639D01*
X163841715Y-131612637D01*
X163868832Y-131622340D01*
X163894867Y-131634653D01*
X163919570Y-131649460D01*
X163942703Y-131666616D01*
X163964043Y-131685957D01*
X163983384Y-131707297D01*
X164000540Y-131730430D01*
X164015347Y-131755133D01*
X164027660Y-131781168D01*
X164037363Y-131808285D01*
X164044361Y-131836222D01*
X164048587Y-131864711D01*
X164050000Y-131893477D01*
X164050000Y-132656523D01*
X164048587Y-132685289D01*
X164044361Y-132713778D01*
X164037363Y-132741715D01*
X164027660Y-132768832D01*
X164015347Y-132794867D01*
X164000540Y-132819570D01*
X163983384Y-132842703D01*
X163964043Y-132864043D01*
X163942703Y-132883384D01*
X163919570Y-132900540D01*
X163894867Y-132915347D01*
X163868832Y-132927660D01*
X163841715Y-132937363D01*
X163813778Y-132944361D01*
X163785289Y-132948587D01*
X163756523Y-132950000D01*
X162743477Y-132950000D01*
X162714711Y-132948587D01*
X162686222Y-132944361D01*
X162658285Y-132937363D01*
X162631168Y-132927660D01*
X162605133Y-132915347D01*
X162580430Y-132900540D01*
X162557297Y-132883384D01*
X162535957Y-132864043D01*
X162516616Y-132842703D01*
X162499460Y-132819570D01*
X162484653Y-132794867D01*
X162472340Y-132768832D01*
X162462637Y-132741715D01*
X162455639Y-132713778D01*
X162451413Y-132685289D01*
X162450000Y-132656523D01*
X162450000Y-131893477D01*
X162451413Y-131864711D01*
X162455639Y-131836222D01*
X162462637Y-131808285D01*
X162472340Y-131781168D01*
X162484653Y-131755133D01*
X162499460Y-131730430D01*
X162516616Y-131707297D01*
X162535957Y-131685957D01*
X162557297Y-131666616D01*
X162580430Y-131649460D01*
X162605133Y-131634653D01*
X162631168Y-131622340D01*
X162658285Y-131612637D01*
X162686222Y-131605639D01*
X162714711Y-131601413D01*
X162743477Y-131600000D01*
X163756523Y-131600000D01*
X163785289Y-131601413D01*
X163785289Y-131601413D01*
G37*
D14*
X163250000Y-132275000D03*
G04 #@! TD*
D13*
G04 #@! TO.C,R16*
G36*
X177785289Y-125301413D02*
X177813778Y-125305639D01*
X177841715Y-125312637D01*
X177868832Y-125322340D01*
X177894867Y-125334653D01*
X177919570Y-125349460D01*
X177942703Y-125366616D01*
X177964043Y-125385957D01*
X177983384Y-125407297D01*
X178000540Y-125430430D01*
X178015347Y-125455133D01*
X178027660Y-125481168D01*
X178037363Y-125508285D01*
X178044361Y-125536222D01*
X178048587Y-125564711D01*
X178050000Y-125593477D01*
X178050000Y-126356523D01*
X178048587Y-126385289D01*
X178044361Y-126413778D01*
X178037363Y-126441715D01*
X178027660Y-126468832D01*
X178015347Y-126494867D01*
X178000540Y-126519570D01*
X177983384Y-126542703D01*
X177964043Y-126564043D01*
X177942703Y-126583384D01*
X177919570Y-126600540D01*
X177894867Y-126615347D01*
X177868832Y-126627660D01*
X177841715Y-126637363D01*
X177813778Y-126644361D01*
X177785289Y-126648587D01*
X177756523Y-126650000D01*
X176743477Y-126650000D01*
X176714711Y-126648587D01*
X176686222Y-126644361D01*
X176658285Y-126637363D01*
X176631168Y-126627660D01*
X176605133Y-126615347D01*
X176580430Y-126600540D01*
X176557297Y-126583384D01*
X176535957Y-126564043D01*
X176516616Y-126542703D01*
X176499460Y-126519570D01*
X176484653Y-126494867D01*
X176472340Y-126468832D01*
X176462637Y-126441715D01*
X176455639Y-126413778D01*
X176451413Y-126385289D01*
X176450000Y-126356523D01*
X176450000Y-125593477D01*
X176451413Y-125564711D01*
X176455639Y-125536222D01*
X176462637Y-125508285D01*
X176472340Y-125481168D01*
X176484653Y-125455133D01*
X176499460Y-125430430D01*
X176516616Y-125407297D01*
X176535957Y-125385957D01*
X176557297Y-125366616D01*
X176580430Y-125349460D01*
X176605133Y-125334653D01*
X176631168Y-125322340D01*
X176658285Y-125312637D01*
X176686222Y-125305639D01*
X176714711Y-125301413D01*
X176743477Y-125300000D01*
X177756523Y-125300000D01*
X177785289Y-125301413D01*
X177785289Y-125301413D01*
G37*
D14*
X177250000Y-125975000D03*
D13*
G36*
X177785289Y-127351413D02*
X177813778Y-127355639D01*
X177841715Y-127362637D01*
X177868832Y-127372340D01*
X177894867Y-127384653D01*
X177919570Y-127399460D01*
X177942703Y-127416616D01*
X177964043Y-127435957D01*
X177983384Y-127457297D01*
X178000540Y-127480430D01*
X178015347Y-127505133D01*
X178027660Y-127531168D01*
X178037363Y-127558285D01*
X178044361Y-127586222D01*
X178048587Y-127614711D01*
X178050000Y-127643477D01*
X178050000Y-128406523D01*
X178048587Y-128435289D01*
X178044361Y-128463778D01*
X178037363Y-128491715D01*
X178027660Y-128518832D01*
X178015347Y-128544867D01*
X178000540Y-128569570D01*
X177983384Y-128592703D01*
X177964043Y-128614043D01*
X177942703Y-128633384D01*
X177919570Y-128650540D01*
X177894867Y-128665347D01*
X177868832Y-128677660D01*
X177841715Y-128687363D01*
X177813778Y-128694361D01*
X177785289Y-128698587D01*
X177756523Y-128700000D01*
X176743477Y-128700000D01*
X176714711Y-128698587D01*
X176686222Y-128694361D01*
X176658285Y-128687363D01*
X176631168Y-128677660D01*
X176605133Y-128665347D01*
X176580430Y-128650540D01*
X176557297Y-128633384D01*
X176535957Y-128614043D01*
X176516616Y-128592703D01*
X176499460Y-128569570D01*
X176484653Y-128544867D01*
X176472340Y-128518832D01*
X176462637Y-128491715D01*
X176455639Y-128463778D01*
X176451413Y-128435289D01*
X176450000Y-128406523D01*
X176450000Y-127643477D01*
X176451413Y-127614711D01*
X176455639Y-127586222D01*
X176462637Y-127558285D01*
X176472340Y-127531168D01*
X176484653Y-127505133D01*
X176499460Y-127480430D01*
X176516616Y-127457297D01*
X176535957Y-127435957D01*
X176557297Y-127416616D01*
X176580430Y-127399460D01*
X176605133Y-127384653D01*
X176631168Y-127372340D01*
X176658285Y-127362637D01*
X176686222Y-127355639D01*
X176714711Y-127351413D01*
X176743477Y-127350000D01*
X177756523Y-127350000D01*
X177785289Y-127351413D01*
X177785289Y-127351413D01*
G37*
D14*
X177250000Y-128025000D03*
G04 #@! TD*
D13*
G04 #@! TO.C,R17*
G36*
X167285289Y-131601413D02*
X167313778Y-131605639D01*
X167341715Y-131612637D01*
X167368832Y-131622340D01*
X167394867Y-131634653D01*
X167419570Y-131649460D01*
X167442703Y-131666616D01*
X167464043Y-131685957D01*
X167483384Y-131707297D01*
X167500540Y-131730430D01*
X167515347Y-131755133D01*
X167527660Y-131781168D01*
X167537363Y-131808285D01*
X167544361Y-131836222D01*
X167548587Y-131864711D01*
X167550000Y-131893477D01*
X167550000Y-132656523D01*
X167548587Y-132685289D01*
X167544361Y-132713778D01*
X167537363Y-132741715D01*
X167527660Y-132768832D01*
X167515347Y-132794867D01*
X167500540Y-132819570D01*
X167483384Y-132842703D01*
X167464043Y-132864043D01*
X167442703Y-132883384D01*
X167419570Y-132900540D01*
X167394867Y-132915347D01*
X167368832Y-132927660D01*
X167341715Y-132937363D01*
X167313778Y-132944361D01*
X167285289Y-132948587D01*
X167256523Y-132950000D01*
X166243477Y-132950000D01*
X166214711Y-132948587D01*
X166186222Y-132944361D01*
X166158285Y-132937363D01*
X166131168Y-132927660D01*
X166105133Y-132915347D01*
X166080430Y-132900540D01*
X166057297Y-132883384D01*
X166035957Y-132864043D01*
X166016616Y-132842703D01*
X165999460Y-132819570D01*
X165984653Y-132794867D01*
X165972340Y-132768832D01*
X165962637Y-132741715D01*
X165955639Y-132713778D01*
X165951413Y-132685289D01*
X165950000Y-132656523D01*
X165950000Y-131893477D01*
X165951413Y-131864711D01*
X165955639Y-131836222D01*
X165962637Y-131808285D01*
X165972340Y-131781168D01*
X165984653Y-131755133D01*
X165999460Y-131730430D01*
X166016616Y-131707297D01*
X166035957Y-131685957D01*
X166057297Y-131666616D01*
X166080430Y-131649460D01*
X166105133Y-131634653D01*
X166131168Y-131622340D01*
X166158285Y-131612637D01*
X166186222Y-131605639D01*
X166214711Y-131601413D01*
X166243477Y-131600000D01*
X167256523Y-131600000D01*
X167285289Y-131601413D01*
X167285289Y-131601413D01*
G37*
D14*
X166750000Y-132275000D03*
D13*
G36*
X167285289Y-129551413D02*
X167313778Y-129555639D01*
X167341715Y-129562637D01*
X167368832Y-129572340D01*
X167394867Y-129584653D01*
X167419570Y-129599460D01*
X167442703Y-129616616D01*
X167464043Y-129635957D01*
X167483384Y-129657297D01*
X167500540Y-129680430D01*
X167515347Y-129705133D01*
X167527660Y-129731168D01*
X167537363Y-129758285D01*
X167544361Y-129786222D01*
X167548587Y-129814711D01*
X167550000Y-129843477D01*
X167550000Y-130606523D01*
X167548587Y-130635289D01*
X167544361Y-130663778D01*
X167537363Y-130691715D01*
X167527660Y-130718832D01*
X167515347Y-130744867D01*
X167500540Y-130769570D01*
X167483384Y-130792703D01*
X167464043Y-130814043D01*
X167442703Y-130833384D01*
X167419570Y-130850540D01*
X167394867Y-130865347D01*
X167368832Y-130877660D01*
X167341715Y-130887363D01*
X167313778Y-130894361D01*
X167285289Y-130898587D01*
X167256523Y-130900000D01*
X166243477Y-130900000D01*
X166214711Y-130898587D01*
X166186222Y-130894361D01*
X166158285Y-130887363D01*
X166131168Y-130877660D01*
X166105133Y-130865347D01*
X166080430Y-130850540D01*
X166057297Y-130833384D01*
X166035957Y-130814043D01*
X166016616Y-130792703D01*
X165999460Y-130769570D01*
X165984653Y-130744867D01*
X165972340Y-130718832D01*
X165962637Y-130691715D01*
X165955639Y-130663778D01*
X165951413Y-130635289D01*
X165950000Y-130606523D01*
X165950000Y-129843477D01*
X165951413Y-129814711D01*
X165955639Y-129786222D01*
X165962637Y-129758285D01*
X165972340Y-129731168D01*
X165984653Y-129705133D01*
X165999460Y-129680430D01*
X166016616Y-129657297D01*
X166035957Y-129635957D01*
X166057297Y-129616616D01*
X166080430Y-129599460D01*
X166105133Y-129584653D01*
X166131168Y-129572340D01*
X166158285Y-129562637D01*
X166186222Y-129555639D01*
X166214711Y-129551413D01*
X166243477Y-129550000D01*
X167256523Y-129550000D01*
X167285289Y-129551413D01*
X167285289Y-129551413D01*
G37*
D14*
X166750000Y-130225000D03*
G04 #@! TD*
D13*
G04 #@! TO.C,R18*
G36*
X152565289Y-60161413D02*
X152593778Y-60165639D01*
X152621715Y-60172637D01*
X152648832Y-60182340D01*
X152674867Y-60194653D01*
X152699570Y-60209460D01*
X152722703Y-60226616D01*
X152744043Y-60245957D01*
X152763384Y-60267297D01*
X152780540Y-60290430D01*
X152795347Y-60315133D01*
X152807660Y-60341168D01*
X152817363Y-60368285D01*
X152824361Y-60396222D01*
X152828587Y-60424711D01*
X152830000Y-60453477D01*
X152830000Y-61466523D01*
X152828587Y-61495289D01*
X152824361Y-61523778D01*
X152817363Y-61551715D01*
X152807660Y-61578832D01*
X152795347Y-61604867D01*
X152780540Y-61629570D01*
X152763384Y-61652703D01*
X152744043Y-61674043D01*
X152722703Y-61693384D01*
X152699570Y-61710540D01*
X152674867Y-61725347D01*
X152648832Y-61737660D01*
X152621715Y-61747363D01*
X152593778Y-61754361D01*
X152565289Y-61758587D01*
X152536523Y-61760000D01*
X151773477Y-61760000D01*
X151744711Y-61758587D01*
X151716222Y-61754361D01*
X151688285Y-61747363D01*
X151661168Y-61737660D01*
X151635133Y-61725347D01*
X151610430Y-61710540D01*
X151587297Y-61693384D01*
X151565957Y-61674043D01*
X151546616Y-61652703D01*
X151529460Y-61629570D01*
X151514653Y-61604867D01*
X151502340Y-61578832D01*
X151492637Y-61551715D01*
X151485639Y-61523778D01*
X151481413Y-61495289D01*
X151480000Y-61466523D01*
X151480000Y-60453477D01*
X151481413Y-60424711D01*
X151485639Y-60396222D01*
X151492637Y-60368285D01*
X151502340Y-60341168D01*
X151514653Y-60315133D01*
X151529460Y-60290430D01*
X151546616Y-60267297D01*
X151565957Y-60245957D01*
X151587297Y-60226616D01*
X151610430Y-60209460D01*
X151635133Y-60194653D01*
X151661168Y-60182340D01*
X151688285Y-60172637D01*
X151716222Y-60165639D01*
X151744711Y-60161413D01*
X151773477Y-60160000D01*
X152536523Y-60160000D01*
X152565289Y-60161413D01*
X152565289Y-60161413D01*
G37*
D14*
X152155000Y-60960000D03*
D13*
G36*
X150515289Y-60161413D02*
X150543778Y-60165639D01*
X150571715Y-60172637D01*
X150598832Y-60182340D01*
X150624867Y-60194653D01*
X150649570Y-60209460D01*
X150672703Y-60226616D01*
X150694043Y-60245957D01*
X150713384Y-60267297D01*
X150730540Y-60290430D01*
X150745347Y-60315133D01*
X150757660Y-60341168D01*
X150767363Y-60368285D01*
X150774361Y-60396222D01*
X150778587Y-60424711D01*
X150780000Y-60453477D01*
X150780000Y-61466523D01*
X150778587Y-61495289D01*
X150774361Y-61523778D01*
X150767363Y-61551715D01*
X150757660Y-61578832D01*
X150745347Y-61604867D01*
X150730540Y-61629570D01*
X150713384Y-61652703D01*
X150694043Y-61674043D01*
X150672703Y-61693384D01*
X150649570Y-61710540D01*
X150624867Y-61725347D01*
X150598832Y-61737660D01*
X150571715Y-61747363D01*
X150543778Y-61754361D01*
X150515289Y-61758587D01*
X150486523Y-61760000D01*
X149723477Y-61760000D01*
X149694711Y-61758587D01*
X149666222Y-61754361D01*
X149638285Y-61747363D01*
X149611168Y-61737660D01*
X149585133Y-61725347D01*
X149560430Y-61710540D01*
X149537297Y-61693384D01*
X149515957Y-61674043D01*
X149496616Y-61652703D01*
X149479460Y-61629570D01*
X149464653Y-61604867D01*
X149452340Y-61578832D01*
X149442637Y-61551715D01*
X149435639Y-61523778D01*
X149431413Y-61495289D01*
X149430000Y-61466523D01*
X149430000Y-60453477D01*
X149431413Y-60424711D01*
X149435639Y-60396222D01*
X149442637Y-60368285D01*
X149452340Y-60341168D01*
X149464653Y-60315133D01*
X149479460Y-60290430D01*
X149496616Y-60267297D01*
X149515957Y-60245957D01*
X149537297Y-60226616D01*
X149560430Y-60209460D01*
X149585133Y-60194653D01*
X149611168Y-60182340D01*
X149638285Y-60172637D01*
X149666222Y-60165639D01*
X149694711Y-60161413D01*
X149723477Y-60160000D01*
X150486523Y-60160000D01*
X150515289Y-60161413D01*
X150515289Y-60161413D01*
G37*
D14*
X150105000Y-60960000D03*
G04 #@! TD*
D25*
G04 #@! TO.C,RV1*
X107950000Y-57150000D03*
X107950000Y-59690000D03*
X107950000Y-62230000D03*
G04 #@! TD*
D26*
G04 #@! TO.C,SW1*
X236822080Y-122041544D03*
D27*
X229202080Y-122041544D03*
G04 #@! TD*
D28*
G04 #@! TO.C,U1*
X236737093Y-71797369D03*
X235467093Y-71797369D03*
X234197093Y-71797369D03*
X232927093Y-71797369D03*
X231657093Y-71797369D03*
X230387093Y-71797369D03*
X229117093Y-71797369D03*
X227847093Y-71797369D03*
X226577093Y-71797369D03*
X225307093Y-71797369D03*
X224037093Y-71797369D03*
X222767093Y-71797369D03*
X222767093Y-62397369D03*
X224037093Y-62397369D03*
X225307093Y-62397369D03*
X226577093Y-62397369D03*
X227847093Y-62397369D03*
X229117093Y-62397369D03*
X230387093Y-62397369D03*
X231657093Y-62397369D03*
X232927093Y-62397369D03*
X234197093Y-62397369D03*
X235467093Y-62397369D03*
X236737093Y-62397369D03*
G04 #@! TD*
G04 #@! TO.C,U3*
X236115093Y-93211369D03*
X234845093Y-93211369D03*
X233575093Y-93211369D03*
X232305093Y-93211369D03*
X231035093Y-93211369D03*
X229765093Y-93211369D03*
X228495093Y-93211369D03*
X227225093Y-93211369D03*
X225955093Y-93211369D03*
X224685093Y-93211369D03*
X223415093Y-93211369D03*
X222145093Y-93211369D03*
X222145093Y-102611369D03*
X223415093Y-102611369D03*
X224685093Y-102611369D03*
X225955093Y-102611369D03*
X227225093Y-102611369D03*
X228495093Y-102611369D03*
X229765093Y-102611369D03*
X231035093Y-102611369D03*
X232305093Y-102611369D03*
X233575093Y-102611369D03*
X234845093Y-102611369D03*
X236115093Y-102611369D03*
G04 #@! TD*
D29*
G04 #@! TO.C,U6*
X114050000Y-132350000D03*
D30*
X114050000Y-129810000D03*
X114050000Y-127270000D03*
G04 #@! TD*
D31*
G04 #@! TO.C,U4*
X198882000Y-124968000D03*
X198882000Y-127508000D03*
X198882000Y-130048000D03*
X198882000Y-132588000D03*
X198882000Y-135128000D03*
X198882000Y-137668000D03*
X186182000Y-124968000D03*
X186182000Y-127508000D03*
X186182000Y-130048000D03*
X186182000Y-132588000D03*
X186182000Y-135128000D03*
X186182000Y-137668000D03*
G04 #@! TD*
D16*
G04 #@! TO.C,J1*
X244790000Y-58150000D03*
X247330000Y-58150000D03*
X244790000Y-60690000D03*
X247330000Y-60690000D03*
X244790000Y-63230000D03*
X247330000Y-63230000D03*
X244790000Y-65770000D03*
X247330000Y-65770000D03*
X244790000Y-68310000D03*
X247330000Y-68310000D03*
X244790000Y-70850000D03*
X247330000Y-70850000D03*
X244790000Y-73390000D03*
X247330000Y-73390000D03*
X244790000Y-75930000D03*
D32*
X247330000Y-75930000D03*
G04 #@! TD*
G04 #@! TO.C,J2*
X247470000Y-106490000D03*
D16*
X244930000Y-106490000D03*
X247470000Y-103950000D03*
X244930000Y-103950000D03*
X247470000Y-101410000D03*
X244930000Y-101410000D03*
X247470000Y-98870000D03*
X244930000Y-98870000D03*
X247470000Y-96330000D03*
X244930000Y-96330000D03*
X247470000Y-93790000D03*
X244930000Y-93790000D03*
X247470000Y-91250000D03*
X244930000Y-91250000D03*
X247470000Y-88710000D03*
X244930000Y-88710000D03*
G04 #@! TD*
D33*
G04 #@! TO.C,J3*
X248920000Y-126506229D03*
X248920000Y-129006229D03*
X248920000Y-131506229D03*
X248920000Y-134006229D03*
X248920000Y-136506229D03*
D34*
X248920000Y-139006229D03*
G04 #@! TD*
D33*
G04 #@! TO.C,J4*
X243000000Y-126500000D03*
X243000000Y-129000000D03*
X243000000Y-131500000D03*
X243000000Y-134000000D03*
X243000000Y-136500000D03*
D34*
X243000000Y-139000000D03*
G04 #@! TD*
D35*
G04 #@! TO.C,J8*
X114900000Y-56550000D03*
D36*
X117400000Y-56550000D03*
X119900000Y-56550000D03*
X122400000Y-56550000D03*
X124900000Y-56550000D03*
X127400000Y-56550000D03*
X129900000Y-56550000D03*
X132400000Y-56550000D03*
X134900000Y-56550000D03*
X137400000Y-56550000D03*
X139900000Y-56550000D03*
X142400000Y-56550000D03*
X144900000Y-56550000D03*
X147400000Y-56550000D03*
X149900000Y-56550000D03*
X152400000Y-56550000D03*
G04 #@! TD*
G04 #@! TO.C,J5*
X185674000Y-56642000D03*
X183174000Y-56642000D03*
X180674000Y-56642000D03*
X178174000Y-56642000D03*
X175674000Y-56642000D03*
X173174000Y-56642000D03*
X170674000Y-56642000D03*
D35*
X168174000Y-56642000D03*
G04 #@! TD*
G04 #@! TO.C,J6*
X212344000Y-57150000D03*
D36*
X209844000Y-57150000D03*
X207344000Y-57150000D03*
X204844000Y-57150000D03*
X202344000Y-57150000D03*
X199844000Y-57150000D03*
X197344000Y-57150000D03*
X194844000Y-57150000D03*
G04 #@! TD*
D37*
G04 #@! TO.C,J7*
X163830000Y-139700000D03*
D38*
X161330000Y-139700000D03*
G04 #@! TD*
D35*
G04 #@! TO.C,J9*
X179070000Y-139700000D03*
D36*
X176570000Y-139700000D03*
X174070000Y-139700000D03*
X171570000Y-139700000D03*
G04 #@! TD*
D35*
G04 #@! TO.C,J10*
X153670000Y-139700000D03*
D36*
X151170000Y-139700000D03*
X148670000Y-139700000D03*
X146170000Y-139700000D03*
X143670000Y-139700000D03*
X141170000Y-139700000D03*
X138670000Y-139700000D03*
X136170000Y-139700000D03*
G04 #@! TD*
D39*
G04 #@! TO.C,Q3*
X176300000Y-132000000D03*
X178200000Y-132000000D03*
X177250000Y-130000000D03*
G04 #@! TD*
D40*
G04 #@! TO.C,J11*
X96730000Y-138430000D03*
D41*
X96730000Y-133350000D03*
G04 #@! TD*
G04 #@! TO.C,J12*
X96730000Y-120650000D03*
D40*
X96730000Y-125730000D03*
G04 #@! TD*
D27*
G04 #@! TO.C,RN1*
X167894000Y-62230000D03*
X170434000Y-62230000D03*
X172974000Y-62230000D03*
X175514000Y-62230000D03*
X178054000Y-62230000D03*
X180594000Y-62230000D03*
X183134000Y-62230000D03*
X185674000Y-62230000D03*
D26*
X188214000Y-62230000D03*
G04 #@! TD*
G04 #@! TO.C,RN2*
X192278000Y-62230000D03*
D27*
X194818000Y-62230000D03*
X197358000Y-62230000D03*
X199898000Y-62230000D03*
X202438000Y-62230000D03*
X204978000Y-62230000D03*
X207518000Y-62230000D03*
X210058000Y-62230000D03*
X212598000Y-62230000D03*
G04 #@! TD*
M02*
