G04 #@! TF.GenerationSoftware,KiCad,Pcbnew,(5.0.0-rc3)*
G04 #@! TF.CreationDate,2018-09-21T21:08:00-07:00*
G04 #@! TF.ProjectId,PCV MATOME MAIN V5-KICAD 5.0,504356204D41544F4D45204D41494E20,rev?*
G04 #@! TF.SameCoordinates,Original*
G04 #@! TF.FileFunction,Soldermask,Bot*
G04 #@! TF.FilePolarity,Negative*
%FSLAX46Y46*%
G04 Gerber Fmt 4.6, Leading zero omitted, Abs format (unit mm)*
G04 Created by KiCad (PCBNEW (5.0.0-rc3)) date 09/21/18 21:08:00*
%MOMM*%
%LPD*%
G01*
G04 APERTURE LIST*
%ADD10C,1.927200*%
%ADD11O,1.927200X1.927200*%
%ADD12O,1.927200X2.232000*%
%ADD13C,4.264000*%
%ADD14C,1.640000*%
%ADD15R,1.800000X1.800000*%
%ADD16O,1.800000X1.800000*%
%ADD17R,2.200000X2.105000*%
%ADD18O,2.200000X2.105000*%
%ADD19C,1.700000*%
%ADD20R,1.927200X1.927200*%
%ADD21O,2.150000X1.900000*%
%ADD22R,2.150000X1.900000*%
%ADD23R,1.900000X2.150000*%
%ADD24O,1.900000X2.150000*%
%ADD25R,1.900000X2.200000*%
%ADD26O,1.900000X2.200000*%
%ADD27C,3.700120*%
%ADD28R,3.700120X3.700120*%
G04 APERTURE END LIST*
D10*
G04 #@! TO.C,P4*
X197349516Y-76012509D03*
D11*
X199889516Y-76012509D03*
X197349516Y-78552509D03*
X199889516Y-78552509D03*
X197349516Y-81092509D03*
X199889516Y-81092509D03*
X197349516Y-83632509D03*
X199889516Y-83632509D03*
X197349516Y-86172509D03*
X199889516Y-86172509D03*
X197349516Y-88712509D03*
X199889516Y-88712509D03*
X197349516Y-91252509D03*
X199889516Y-91252509D03*
X197349516Y-93792509D03*
X199889516Y-93792509D03*
X197349516Y-96332509D03*
X199889516Y-96332509D03*
X197349516Y-98872509D03*
X199889516Y-98872509D03*
X197349516Y-101412509D03*
X199889516Y-101412509D03*
X197349516Y-103952509D03*
X199889516Y-103952509D03*
X197349516Y-106492509D03*
X199889516Y-106492509D03*
X197349516Y-109032509D03*
X199889516Y-109032509D03*
X197349516Y-111572509D03*
X199889516Y-111572509D03*
X197349516Y-114112509D03*
X199889516Y-114112509D03*
X197349516Y-116652509D03*
X199889516Y-116652509D03*
X197349516Y-119192509D03*
X199889516Y-119192509D03*
G04 #@! TD*
D12*
G04 #@! TO.C,P1*
X131309516Y-70932509D03*
X133849516Y-70932509D03*
X136389516Y-70932509D03*
X138929516Y-70932509D03*
X141469516Y-70932509D03*
X144009516Y-70932509D03*
X146549516Y-70932509D03*
X149089516Y-70932509D03*
G04 #@! TD*
G04 #@! TO.C,P2*
X154169516Y-70932509D03*
X156709516Y-70932509D03*
X159249516Y-70932509D03*
X161789516Y-70932509D03*
X164329516Y-70932509D03*
X166869516Y-70932509D03*
X169409516Y-70932509D03*
X171949516Y-70932509D03*
G04 #@! TD*
G04 #@! TO.C,P3*
X177029516Y-70932509D03*
X179569516Y-70932509D03*
X182109516Y-70932509D03*
X184649516Y-70932509D03*
X187189516Y-70932509D03*
X189729516Y-70932509D03*
X192269516Y-70932509D03*
X194809516Y-70932509D03*
G04 #@! TD*
G04 #@! TO.C,P5*
X122165516Y-119192509D03*
X124705516Y-119192509D03*
X127245516Y-119192509D03*
X129785516Y-119192509D03*
X132325516Y-119192509D03*
X134865516Y-119192509D03*
X137405516Y-119192509D03*
X139945516Y-119192509D03*
X142485516Y-119192509D03*
X145025516Y-119192509D03*
G04 #@! TD*
G04 #@! TO.C,P6*
X149089516Y-119192509D03*
X151629516Y-119192509D03*
X154169516Y-119192509D03*
X156709516Y-119192509D03*
X159249516Y-119192509D03*
X161789516Y-119192509D03*
X164329516Y-119192509D03*
X166869516Y-119192509D03*
G04 #@! TD*
G04 #@! TO.C,P7*
X171949516Y-119192509D03*
X174489516Y-119192509D03*
X177029516Y-119192509D03*
X179569516Y-119192509D03*
X182109516Y-119192509D03*
X184649516Y-119192509D03*
X187189516Y-119192509D03*
X189729516Y-119192509D03*
G04 #@! TD*
D13*
G04 #@! TO.C,P8*
X117339516Y-70932509D03*
G04 #@! TD*
G04 #@! TO.C,P9*
X169409516Y-76012509D03*
G04 #@! TD*
G04 #@! TO.C,P10*
X199889516Y-70932509D03*
G04 #@! TD*
G04 #@! TO.C,P11*
X118609516Y-119192509D03*
G04 #@! TD*
G04 #@! TO.C,P12*
X169409516Y-103952509D03*
G04 #@! TD*
G04 #@! TO.C,P13*
X193539516Y-119192509D03*
G04 #@! TD*
D14*
G04 #@! TO.C,RV1*
X107950000Y-57150000D03*
X107950000Y-59690000D03*
X107950000Y-62230000D03*
G04 #@! TD*
D15*
G04 #@! TO.C,SW1*
X236822080Y-122041544D03*
D16*
X229202080Y-122041544D03*
G04 #@! TD*
D17*
G04 #@! TO.C,U6*
X114050000Y-132350000D03*
D18*
X114050000Y-129810000D03*
X114050000Y-127270000D03*
G04 #@! TD*
D19*
G04 #@! TO.C,U4*
X198882000Y-124968000D03*
X198882000Y-127508000D03*
X198882000Y-130048000D03*
X198882000Y-132588000D03*
X198882000Y-135128000D03*
X198882000Y-137668000D03*
X186182000Y-124968000D03*
X186182000Y-127508000D03*
X186182000Y-130048000D03*
X186182000Y-132588000D03*
X186182000Y-135128000D03*
X186182000Y-137668000D03*
G04 #@! TD*
D11*
G04 #@! TO.C,J1*
X244790000Y-58150000D03*
X247330000Y-58150000D03*
X244790000Y-60690000D03*
X247330000Y-60690000D03*
X244790000Y-63230000D03*
X247330000Y-63230000D03*
X244790000Y-65770000D03*
X247330000Y-65770000D03*
X244790000Y-68310000D03*
X247330000Y-68310000D03*
X244790000Y-70850000D03*
X247330000Y-70850000D03*
X244790000Y-73390000D03*
X247330000Y-73390000D03*
X244790000Y-75930000D03*
D20*
X247330000Y-75930000D03*
G04 #@! TD*
G04 #@! TO.C,J2*
X247470000Y-106490000D03*
D11*
X244930000Y-106490000D03*
X247470000Y-103950000D03*
X244930000Y-103950000D03*
X247470000Y-101410000D03*
X244930000Y-101410000D03*
X247470000Y-98870000D03*
X244930000Y-98870000D03*
X247470000Y-96330000D03*
X244930000Y-96330000D03*
X247470000Y-93790000D03*
X244930000Y-93790000D03*
X247470000Y-91250000D03*
X244930000Y-91250000D03*
X247470000Y-88710000D03*
X244930000Y-88710000D03*
G04 #@! TD*
D21*
G04 #@! TO.C,J3*
X248920000Y-126506229D03*
X248920000Y-129006229D03*
X248920000Y-131506229D03*
X248920000Y-134006229D03*
X248920000Y-136506229D03*
D22*
X248920000Y-139006229D03*
G04 #@! TD*
D21*
G04 #@! TO.C,J4*
X243000000Y-126500000D03*
X243000000Y-129000000D03*
X243000000Y-131500000D03*
X243000000Y-134000000D03*
X243000000Y-136500000D03*
D22*
X243000000Y-139000000D03*
G04 #@! TD*
D23*
G04 #@! TO.C,J8*
X114900000Y-56550000D03*
D24*
X117400000Y-56550000D03*
X119900000Y-56550000D03*
X122400000Y-56550000D03*
X124900000Y-56550000D03*
X127400000Y-56550000D03*
X129900000Y-56550000D03*
X132400000Y-56550000D03*
X134900000Y-56550000D03*
X137400000Y-56550000D03*
X139900000Y-56550000D03*
X142400000Y-56550000D03*
X144900000Y-56550000D03*
X147400000Y-56550000D03*
X149900000Y-56550000D03*
X152400000Y-56550000D03*
G04 #@! TD*
G04 #@! TO.C,J5*
X185674000Y-56642000D03*
X183174000Y-56642000D03*
X180674000Y-56642000D03*
X178174000Y-56642000D03*
X175674000Y-56642000D03*
X173174000Y-56642000D03*
X170674000Y-56642000D03*
D23*
X168174000Y-56642000D03*
G04 #@! TD*
G04 #@! TO.C,J6*
X212344000Y-57150000D03*
D24*
X209844000Y-57150000D03*
X207344000Y-57150000D03*
X204844000Y-57150000D03*
X202344000Y-57150000D03*
X199844000Y-57150000D03*
X197344000Y-57150000D03*
X194844000Y-57150000D03*
G04 #@! TD*
D25*
G04 #@! TO.C,J7*
X163830000Y-139700000D03*
D26*
X161330000Y-139700000D03*
G04 #@! TD*
D23*
G04 #@! TO.C,J9*
X179070000Y-139700000D03*
D24*
X176570000Y-139700000D03*
X174070000Y-139700000D03*
X171570000Y-139700000D03*
G04 #@! TD*
D23*
G04 #@! TO.C,J10*
X153670000Y-139700000D03*
D24*
X151170000Y-139700000D03*
X148670000Y-139700000D03*
X146170000Y-139700000D03*
X143670000Y-139700000D03*
X141170000Y-139700000D03*
X138670000Y-139700000D03*
X136170000Y-139700000D03*
G04 #@! TD*
D27*
G04 #@! TO.C,J11*
X96730000Y-138430000D03*
D28*
X96730000Y-133350000D03*
G04 #@! TD*
G04 #@! TO.C,J12*
X96730000Y-120650000D03*
D27*
X96730000Y-125730000D03*
G04 #@! TD*
D16*
G04 #@! TO.C,RN1*
X167894000Y-62230000D03*
X170434000Y-62230000D03*
X172974000Y-62230000D03*
X175514000Y-62230000D03*
X178054000Y-62230000D03*
X180594000Y-62230000D03*
X183134000Y-62230000D03*
X185674000Y-62230000D03*
D15*
X188214000Y-62230000D03*
G04 #@! TD*
G04 #@! TO.C,RN2*
X192278000Y-62230000D03*
D16*
X194818000Y-62230000D03*
X197358000Y-62230000D03*
X199898000Y-62230000D03*
X202438000Y-62230000D03*
X204978000Y-62230000D03*
X207518000Y-62230000D03*
X210058000Y-62230000D03*
X212598000Y-62230000D03*
G04 #@! TD*
M02*
