M48
;DRILL file {KiCad (5.0.0-rc3)} date 08/17/18 20:40:55
;FORMAT={3:3/ absolute / metric / suppress trailing zeros}
FMAT,2
METRIC,LZ
T1C0.500
T2C0.800
T3C0.900
T4C0.950
T5C1.000
T6C1.016
T7C1.100
T8C1.501
T9C3.048
%
G90
G05
M71
T1
X129Y-1225
X129Y-12375
X129Y-1295
X14975Y-12575
X15425Y-061
X156Y-1285
X15775Y-12425
X1595Y-1285
X1615Y-12425
X16325Y-1285
X165Y-12425
X16675Y-1285
X16875Y-12425
X190754Y-074803
X190754Y-078613
X190754Y-08255
X190754Y-086487
X190754Y-090551
X190754Y-094361
X190754Y-098171
X190754Y-101981
X192516Y-12925
X2015Y-123
X2025Y-10875
X2065Y-0865
X2065Y-09025
X2065Y-09425
X2065Y-098
X2065Y-102
X2065Y-10575
X2065Y-10975
X2065Y-0825
X22075Y-1144
X22125Y-10525
X22225Y-0965
X22235Y-0745
X22515Y-064397
X22515Y-0955
X2272Y-115
X22725Y-124077
X2275Y-131
X2297Y-1098
X2303Y-0791
X23225Y-0954
X233Y-0645
X234Y-10775
X23425Y-07725
X2375Y-127
X23825Y-09325
X23825Y-07175
X2385Y-06225
X240746Y-0646
X24075Y-0575
X24075Y-0686
X24075Y-07425
X240754Y-0666
X240774Y-06335
X241Y-09955
X241Y-0945
X241Y-08625
X241Y-0959
X241Y-0977
X241Y-105
T2
X10795Y-05715
X10795Y-05969
X10795Y-06223
X229202Y-122042
X236822Y-122042
X167894Y-06223
X170434Y-06223
X172974Y-06223
X175514Y-06223
X178054Y-06223
X180594Y-06223
X183134Y-06223
X185674Y-06223
X188214Y-06223
X192278Y-06223
X194818Y-06223
X197358Y-06223
X199898Y-06223
X202438Y-06223
X204978Y-06223
X207518Y-06223
X210058Y-06223
X212598Y-06223
T3
X186182Y-124968
X186182Y-127508
X186182Y-130048
X186182Y-132588
X186182Y-135128
X186182Y-137668
X198882Y-124968
X198882Y-127508
X198882Y-130048
X198882Y-132588
X198882Y-135128
X198882Y-137668
T4
X24892Y-126506
X24892Y-129006
X24892Y-131506
X24892Y-134006
X24892Y-136506
X24892Y-139006
X243Y-1265
X243Y-129
X243Y-1315
X243Y-134
X243Y-1365
X243Y-139
X1149Y-05655
X1174Y-05655
X1199Y-05655
X1224Y-05655
X1249Y-05655
X1274Y-05655
X1299Y-05655
X1324Y-05655
X1349Y-05655
X1374Y-05655
X1399Y-05655
X1424Y-05655
X1449Y-05655
X1474Y-05655
X1499Y-05655
X1524Y-05655
X168174Y-056642
X170674Y-056642
X173174Y-056642
X175674Y-056642
X178174Y-056642
X180674Y-056642
X183174Y-056642
X185674Y-056642
X194844Y-05715
X197344Y-05715
X199844Y-05715
X202344Y-05715
X204844Y-05715
X207344Y-05715
X209844Y-05715
X212344Y-05715
X17157Y-1397
X17407Y-1397
X17657Y-1397
X17907Y-1397
X13617Y-1397
X13867Y-1397
X14117Y-1397
X14367Y-1397
X14617Y-1397
X14867Y-1397
X15117Y-1397
X15367Y-1397
T5
X16133Y-1397
X16383Y-1397
T6
X19735Y-076013
X19735Y-078553
X19735Y-081093
X19735Y-083633
X19735Y-086173
X19735Y-088713
X19735Y-091253
X19735Y-093793
X19735Y-096333
X19735Y-098873
X19735Y-101413
X19735Y-103953
X19735Y-106493
X19735Y-109033
X19735Y-111573
X19735Y-114113
X19735Y-116653
X19735Y-119193
X19989Y-076013
X19989Y-078553
X19989Y-081093
X19989Y-083633
X19989Y-086173
X19989Y-088713
X19989Y-091253
X19989Y-093793
X19989Y-096333
X19989Y-098873
X19989Y-101413
X19989Y-103953
X19989Y-106493
X19989Y-109033
X19989Y-111573
X19989Y-114113
X19989Y-116653
X19989Y-119193
X13131Y-070933
X13385Y-070933
X13639Y-070933
X13893Y-070933
X14147Y-070933
X14401Y-070933
X14655Y-070933
X14909Y-070933
X15417Y-070933
X15671Y-070933
X15925Y-070933
X16179Y-070933
X16433Y-070933
X16687Y-070933
X16941Y-070933
X17195Y-070933
X17703Y-070933
X17957Y-070933
X18211Y-070933
X18465Y-070933
X18719Y-070933
X18973Y-070933
X19227Y-070933
X19481Y-070933
X122166Y-119193
X124706Y-119193
X127246Y-119193
X129786Y-119193
X132326Y-119193
X134866Y-119193
X137406Y-119193
X139946Y-119193
X142486Y-119193
X145026Y-119193
X14909Y-119193
X15163Y-119193
X15417Y-119193
X15671Y-119193
X15925Y-119193
X16179Y-119193
X16433Y-119193
X16687Y-119193
X17195Y-119193
X17449Y-119193
X17703Y-119193
X17957Y-119193
X18211Y-119193
X18465Y-119193
X18719Y-119193
X18973Y-119193
X24479Y-05815
X24479Y-06069
X24479Y-06323
X24479Y-06577
X24479Y-06831
X24479Y-07085
X24479Y-07339
X24479Y-07593
X24733Y-05815
X24733Y-06069
X24733Y-06323
X24733Y-06577
X24733Y-06831
X24733Y-07085
X24733Y-07339
X24733Y-07593
X24493Y-08871
X24493Y-09125
X24493Y-09379
X24493Y-09633
X24493Y-09887
X24493Y-10141
X24493Y-10395
X24493Y-10649
X24747Y-08871
X24747Y-09125
X24747Y-09379
X24747Y-09633
X24747Y-09887
X24747Y-10141
X24747Y-10395
X24747Y-10649
T7
X11405Y-12727
X11405Y-12981
X11405Y-13235
T8
X09673Y-13335
X09673Y-13843
X09673Y-12065
X09673Y-12573
T9
X11734Y-070933
X16941Y-076013
X19989Y-070933
X11861Y-119193
X16941Y-103953
X19354Y-119193
T0
M30
