G04 #@! TF.FileFunction,Soldermask,Bot*
%FSLAX46Y46*%
G04 Gerber Fmt 4.6, Leading zero omitted, Abs format (unit mm)*
G04 Created by KiCad (PCBNEW 4.0.7) date 01/22/18 21:40:53*
%MOMM*%
%LPD*%
G01*
G04 APERTURE LIST*
%ADD10C,0.100000*%
%ADD11R,1.900000X1.900000*%
%ADD12C,1.900000*%
G04 APERTURE END LIST*
D10*
D11*
X82042000Y-59309000D03*
D12*
X84542000Y-59309000D03*
X87042000Y-59309000D03*
X89542000Y-59309000D03*
X92042000Y-59309000D03*
X94542000Y-59309000D03*
D11*
X82042000Y-66929000D03*
D12*
X84542000Y-66929000D03*
X87042000Y-66929000D03*
X89542000Y-66929000D03*
X92042000Y-66929000D03*
X94542000Y-66929000D03*
D11*
X219202000Y-66929000D03*
D12*
X221702000Y-66929000D03*
X224202000Y-66929000D03*
X226702000Y-66929000D03*
X229202000Y-66929000D03*
X231702000Y-66929000D03*
D11*
X193802000Y-66929000D03*
D12*
X196302000Y-66929000D03*
X198802000Y-66929000D03*
X201302000Y-66929000D03*
X203802000Y-66929000D03*
X206302000Y-66929000D03*
X208802000Y-66929000D03*
X211302000Y-66929000D03*
D11*
X173482000Y-66929000D03*
D12*
X175982000Y-66929000D03*
X178482000Y-66929000D03*
X180982000Y-66929000D03*
X183482000Y-66929000D03*
X185982000Y-66929000D03*
D11*
X148122000Y-66929000D03*
D12*
X150622000Y-66929000D03*
X153122000Y-66929000D03*
X155622000Y-66929000D03*
X158122000Y-66929000D03*
X160622000Y-66929000D03*
X163122000Y-66929000D03*
X165622000Y-66929000D03*
D11*
X127762000Y-66929000D03*
D12*
X130262000Y-66929000D03*
X132762000Y-66929000D03*
X135262000Y-66929000D03*
X137762000Y-66929000D03*
X140262000Y-66929000D03*
D11*
X102402000Y-66929000D03*
D12*
X104902000Y-66929000D03*
X107402000Y-66929000D03*
X109902000Y-66929000D03*
X112402000Y-66929000D03*
X114902000Y-66929000D03*
X117402000Y-66929000D03*
X119902000Y-66929000D03*
D11*
X56642000Y-66929000D03*
D12*
X59142000Y-66929000D03*
X61642000Y-66929000D03*
X64142000Y-66929000D03*
X66642000Y-66929000D03*
X69142000Y-66929000D03*
X71642000Y-66929000D03*
X74142000Y-66929000D03*
D11*
X231702000Y-99949000D03*
D12*
X229202000Y-99949000D03*
X226702000Y-99949000D03*
X224202000Y-99949000D03*
X221702000Y-99949000D03*
X219202000Y-99949000D03*
D11*
X211382000Y-99949000D03*
D12*
X208882000Y-99949000D03*
X206382000Y-99949000D03*
X203882000Y-99949000D03*
X201382000Y-99949000D03*
X198882000Y-99949000D03*
D11*
X191062000Y-99949000D03*
D12*
X188562000Y-99949000D03*
X186062000Y-99949000D03*
X183562000Y-99949000D03*
X181062000Y-99949000D03*
X178562000Y-99949000D03*
D11*
X170742000Y-99949000D03*
D12*
X168242000Y-99949000D03*
X165742000Y-99949000D03*
X163242000Y-99949000D03*
X160742000Y-99949000D03*
X158242000Y-99949000D03*
D11*
X56642000Y-87089000D03*
D12*
X56642000Y-84589000D03*
X56642000Y-82089000D03*
X56642000Y-79589000D03*
X56642000Y-77089000D03*
X56642000Y-74589000D03*
X150502000Y-106934000D03*
X148002000Y-106934000D03*
X145502000Y-106934000D03*
X143002000Y-106934000D03*
X135262000Y-106934000D03*
X132762000Y-106934000D03*
X130262000Y-106934000D03*
X127762000Y-106934000D03*
X120022000Y-106934000D03*
X117522000Y-106934000D03*
X115022000Y-106934000D03*
X112522000Y-106934000D03*
X104782000Y-106934000D03*
X102282000Y-106934000D03*
X99782000Y-106934000D03*
X97282000Y-106934000D03*
X150502000Y-99949000D03*
X148002000Y-99949000D03*
X145502000Y-99949000D03*
X143002000Y-99949000D03*
X135302000Y-99949000D03*
X132802000Y-99949000D03*
X130302000Y-99949000D03*
X127802000Y-99949000D03*
X104782000Y-99949000D03*
X102282000Y-99949000D03*
X99782000Y-99949000D03*
X97282000Y-99949000D03*
D11*
X56642000Y-112369000D03*
D12*
X56642000Y-109869000D03*
X56642000Y-107369000D03*
X56642000Y-104869000D03*
X56642000Y-102369000D03*
X56642000Y-99869000D03*
X56642000Y-97369000D03*
X56642000Y-94869000D03*
X211542000Y-115189000D03*
X209042000Y-115189000D03*
X206542000Y-115189000D03*
X204042000Y-115189000D03*
X196342000Y-115189000D03*
X193842000Y-115189000D03*
X191342000Y-115189000D03*
X188842000Y-115189000D03*
X181022000Y-115189000D03*
X178522000Y-115189000D03*
X176022000Y-115189000D03*
X173522000Y-115189000D03*
X165742000Y-115189000D03*
X163242000Y-115189000D03*
X160742000Y-115189000D03*
X158242000Y-115189000D03*
X150502000Y-115189000D03*
X148002000Y-115189000D03*
X145502000Y-115189000D03*
X143002000Y-115189000D03*
X135262000Y-115189000D03*
X132762000Y-115189000D03*
X130262000Y-115189000D03*
X127762000Y-115189000D03*
X120022000Y-115189000D03*
X117522000Y-115189000D03*
X115022000Y-115189000D03*
X112522000Y-115189000D03*
X104782000Y-115189000D03*
X102282000Y-115189000D03*
X99782000Y-115189000D03*
X97282000Y-115189000D03*
D11*
X219202000Y-59309000D03*
D12*
X221702000Y-59309000D03*
X224202000Y-59309000D03*
X226702000Y-59309000D03*
X229202000Y-59309000D03*
X231702000Y-59309000D03*
D11*
X193802000Y-59309000D03*
D12*
X196302000Y-59309000D03*
X198802000Y-59309000D03*
X201302000Y-59309000D03*
X203802000Y-59309000D03*
X206302000Y-59309000D03*
X208802000Y-59309000D03*
X211302000Y-59309000D03*
D11*
X173482000Y-59309000D03*
D12*
X175982000Y-59309000D03*
X178482000Y-59309000D03*
X180982000Y-59309000D03*
X183482000Y-59309000D03*
X185982000Y-59309000D03*
D11*
X148082000Y-59309000D03*
D12*
X150582000Y-59309000D03*
X153082000Y-59309000D03*
X155582000Y-59309000D03*
X158082000Y-59309000D03*
X160582000Y-59309000D03*
X163082000Y-59309000D03*
X165582000Y-59309000D03*
D11*
X127762000Y-59309000D03*
D12*
X130262000Y-59309000D03*
X132762000Y-59309000D03*
X135262000Y-59309000D03*
X137762000Y-59309000D03*
X140262000Y-59309000D03*
D11*
X102402000Y-59309000D03*
D12*
X104902000Y-59309000D03*
X107402000Y-59309000D03*
X109902000Y-59309000D03*
X112402000Y-59309000D03*
X114902000Y-59309000D03*
X117402000Y-59309000D03*
X119902000Y-59309000D03*
D11*
X56642000Y-59309000D03*
D12*
X59142000Y-59309000D03*
X61642000Y-59309000D03*
X64142000Y-59309000D03*
X66642000Y-59309000D03*
X69142000Y-59309000D03*
X71642000Y-59309000D03*
X74142000Y-59309000D03*
X120022000Y-99949000D03*
X117522000Y-99949000D03*
X115022000Y-99949000D03*
X112522000Y-99949000D03*
M02*
