M48
;DRILL file {KiCad 4.0.7} date 01/22/18 21:41:02
;FORMAT={3:3/ absolute / metric / suppress trailing zeros}
FMAT,2
METRIC,LZ
T1C0.400
T2C0.900
T3C3.000
%
G90
G05
M71
T1
X051562Y-107569
X051562Y-110109
X051562Y-112649
X052832Y-059309
X052832Y-061849
X052832Y-064389
X057912Y-054229
X060452Y-054229
X060452Y-118999
X062992Y-054229
X062992Y-118999
X065168Y-086768
X065532Y-118999
X066797Y-083266
X066802Y-084709
X066802Y-099949
X066802Y-105029
X066802Y-110109
X06686Y-094895
X066896Y-078573
X069342Y-075184
X071882Y-072009
X072342Y-091707
X072978Y-102454
X073152Y-097409
X073152Y-107569
X073152Y-112649
X076941Y-063491
X078215Y-075123
X080682Y-094895
X080772Y-099949
X080772Y-105029
X080772Y-110109
X081822Y-061725
X083312Y-075184
X083439Y-091313
X083566Y-089281
X085065Y-078437
X085598Y-091313
X085852Y-072009
X086434Y-078878
X086932Y-107838
X08721Y-112588
X087228Y-097421
X087259Y-102488
X087605Y-079086
X088265Y-091313
X088814Y-079649
X090294Y-078994
X090923Y-083548
X091784Y-080786
X093336Y-082975
X096976Y-073396
X101346Y-084328
X104255Y-079834
X10539Y-089075
X10668Y-072771
X112406Y-091643
X118237Y-075184
X118237Y-089154
X121793Y-090424
X1218Y-0952
X122682Y-062992
X1246Y-0952
X124714Y-090424
X126044Y-063783
X127243Y-071747
X127635Y-090424
X1278Y-0952
X130937Y-090424
X131Y-0952
X1342Y-0952
X134239Y-090424
X137287Y-090424
X1374Y-0952
X13975Y-090424
X14Y-0952
X14275Y-090424
X143Y-0952
X143637Y-059309
X143637Y-062484
X143637Y-065659
X143637Y-069469
X143637Y-072644
X1464Y-0952
X1494Y-0952
X150165Y-080204
X150203Y-084685
X153Y-0952
X153543Y-070739
X153789Y-090391
X1562Y-090391
X1582Y-090391
X159004Y-079439
X163957Y-075184
X163957Y-089154
X164757Y-080289
X168021Y-063627
X17049Y-081509
X170702Y-090455
X170942Y-08301
X173228Y-070739
X173228Y-0762
X173243Y-090434
X173355Y-063246
X176022Y-090424
X177292Y-084074
X177292Y-089154
X177929Y-077978
X180497Y-077133
X189968Y-068243
X189992Y-076708
X191262Y-084074
X191262Y-089154
X1925Y-087
X192532Y-096774
X19257Y-090553
X19257Y-092392
X192619Y-094728
X196893Y-084074
X199517Y-071247
X201444Y-09091
X203962Y-090932
X20574Y-079883
X210444Y-089069
X210947Y-075184
X214122Y-063881
X21827Y-073967
X219529Y-071927
X219529Y-0762
X220491Y-080934
X220495Y-08255
X223012Y-118999
X224202Y-078105
X225552Y-118999
X226695Y-054229
X227965Y-08112
X228092Y-118999
X229202Y-075057
X229362Y-054229
X231902Y-054229
X235712Y-107569
X235712Y-110109
X235712Y-112649
X236982Y-059944
X236982Y-062484
X236982Y-06477
T2
X056642Y-059309
X056642Y-066929
X056642Y-074589
X056642Y-077089
X056642Y-079589
X056642Y-082089
X056642Y-084589
X056642Y-087089
X056642Y-094869
X056642Y-097369
X056642Y-099869
X056642Y-102369
X056642Y-104869
X056642Y-107369
X056642Y-109869
X056642Y-112369
X059142Y-059309
X059142Y-066929
X061642Y-059309
X061642Y-066929
X064142Y-059309
X064142Y-066929
X066642Y-059309
X066642Y-066929
X069142Y-059309
X069142Y-066929
X071642Y-059309
X071642Y-066929
X074142Y-059309
X074142Y-066929
X082042Y-059309
X082042Y-066929
X084542Y-059309
X084542Y-066929
X087042Y-059309
X087042Y-066929
X089542Y-059309
X089542Y-066929
X092042Y-059309
X092042Y-066929
X094542Y-059309
X094542Y-066929
X097282Y-099949
X097282Y-106934
X097282Y-115189
X099782Y-099949
X099782Y-106934
X099782Y-115189
X102282Y-099949
X102282Y-106934
X102282Y-115189
X102402Y-059309
X102402Y-066929
X104782Y-099949
X104782Y-106934
X104782Y-115189
X104902Y-059309
X104902Y-066929
X107402Y-059309
X107402Y-066929
X109902Y-059309
X109902Y-066929
X112402Y-059309
X112402Y-066929
X112522Y-099949
X112522Y-106934
X112522Y-115189
X114902Y-059309
X114902Y-066929
X115022Y-099949
X115022Y-106934
X115022Y-115189
X117402Y-059309
X117402Y-066929
X117522Y-099949
X117522Y-106934
X117522Y-115189
X119902Y-059309
X119902Y-066929
X120022Y-099949
X120022Y-106934
X120022Y-115189
X127762Y-059309
X127762Y-066929
X127762Y-106934
X127762Y-115189
X127802Y-099949
X130262Y-059309
X130262Y-066929
X130262Y-106934
X130262Y-115189
X130302Y-099949
X132762Y-059309
X132762Y-066929
X132762Y-106934
X132762Y-115189
X132802Y-099949
X135262Y-059309
X135262Y-066929
X135262Y-106934
X135262Y-115189
X135302Y-099949
X137762Y-059309
X137762Y-066929
X140262Y-059309
X140262Y-066929
X143002Y-099949
X143002Y-106934
X143002Y-115189
X145502Y-099949
X145502Y-106934
X145502Y-115189
X148002Y-099949
X148002Y-106934
X148002Y-115189
X148082Y-059309
X148122Y-066929
X150502Y-099949
X150502Y-106934
X150502Y-115189
X150582Y-059309
X150622Y-066929
X153082Y-059309
X153122Y-066929
X155582Y-059309
X155622Y-066929
X158082Y-059309
X158122Y-066929
X158242Y-099949
X158242Y-115189
X160582Y-059309
X160622Y-066929
X160742Y-099949
X160742Y-115189
X163082Y-059309
X163122Y-066929
X163242Y-099949
X163242Y-115189
X165582Y-059309
X165622Y-066929
X165742Y-099949
X165742Y-115189
X168242Y-099949
X170742Y-099949
X173482Y-059309
X173482Y-066929
X173522Y-115189
X175982Y-059309
X175982Y-066929
X176022Y-115189
X178482Y-059309
X178482Y-066929
X178522Y-115189
X178562Y-099949
X180982Y-059309
X180982Y-066929
X181022Y-115189
X181062Y-099949
X183482Y-059309
X183482Y-066929
X183562Y-099949
X185982Y-059309
X185982Y-066929
X186062Y-099949
X188562Y-099949
X188842Y-115189
X191062Y-099949
X191342Y-115189
X193802Y-059309
X193802Y-066929
X193842Y-115189
X196302Y-059309
X196302Y-066929
X196342Y-115189
X198802Y-059309
X198802Y-066929
X198882Y-099949
X201302Y-059309
X201302Y-066929
X201382Y-099949
X203802Y-059309
X203802Y-066929
X203882Y-099949
X204042Y-115189
X206302Y-059309
X206302Y-066929
X206382Y-099949
X206542Y-115189
X208802Y-059309
X208802Y-066929
X208882Y-099949
X209042Y-115189
X211302Y-059309
X211302Y-066929
X211382Y-099949
X211542Y-115189
X219202Y-059309
X219202Y-066929
X219202Y-099949
X221702Y-059309
X221702Y-066929
X221702Y-099949
X224202Y-059309
X224202Y-066929
X224202Y-099949
X226702Y-059309
X226702Y-066929
X226702Y-099949
X229202Y-059309
X229202Y-066929
X229202Y-099949
X231702Y-059309
X231702Y-066929
X231702Y-099949
T3
X051485Y-120339
X051562Y-054229
X236905Y-120234
X236982Y-054229
T0
M30
