G04 #@! TF.GenerationSoftware,KiCad,Pcbnew,(5.0.0-rc3)*
G04 #@! TF.CreationDate,2018-08-22T01:59:55-07:00*
G04 #@! TF.ProjectId,JIGU MATOME,4A494755204D41544F4D452E6B696361,rev?*
G04 #@! TF.SameCoordinates,Original*
G04 #@! TF.FileFunction,Legend,Bot*
G04 #@! TF.FilePolarity,Positive*
%FSLAX46Y46*%
G04 Gerber Fmt 4.6, Leading zero omitted, Abs format (unit mm)*
G04 Created by KiCad (PCBNEW (5.0.0-rc3)) date 08/22/18 01:59:55*
%MOMM*%
%LPD*%
G01*
G04 APERTURE LIST*
%ADD10C,0.150000*%
%ADD11C,0.200000*%
%ADD12C,0.120000*%
G04 APERTURE END LIST*
D10*
G04 #@! TO.C,U1*
G36*
X134250000Y-104750000D02*
X135500000Y-105500000D01*
X134250000Y-106250000D01*
X134250000Y-104750000D01*
G37*
X134250000Y-104750000D02*
X135500000Y-105500000D01*
X134250000Y-106250000D01*
X134250000Y-104750000D01*
D11*
X135700000Y-108100000D02*
X135700000Y-89900000D01*
X148800000Y-89900000D02*
X135700000Y-89900000D01*
X148800000Y-108100000D02*
X148800000Y-89900000D01*
X135700000Y-108100000D02*
X148800000Y-108100000D01*
D12*
G04 #@! TO.C,J1*
X126500000Y-98350000D02*
X125250000Y-98350000D01*
X126500000Y-97100000D02*
X126500000Y-98350000D01*
X121000000Y-86200000D02*
X121000000Y-91750000D01*
X123950000Y-86200000D02*
X121000000Y-86200000D01*
X123950000Y-85450000D02*
X123950000Y-86200000D01*
X121000000Y-97300000D02*
X121000000Y-91750000D01*
X123950000Y-97300000D02*
X121000000Y-97300000D01*
X123950000Y-98050000D02*
X123950000Y-97300000D01*
X126200000Y-85450000D02*
X126200000Y-87250000D01*
X125450000Y-85450000D02*
X126200000Y-85450000D01*
X125450000Y-87250000D02*
X125450000Y-85450000D01*
X126200000Y-87250000D02*
X125450000Y-87250000D01*
X126200000Y-96250000D02*
X126200000Y-98050000D01*
X125450000Y-96250000D02*
X126200000Y-96250000D01*
X125450000Y-98050000D02*
X125450000Y-96250000D01*
X126200000Y-98050000D02*
X125450000Y-98050000D01*
X126200000Y-88750000D02*
X126200000Y-94750000D01*
X125450000Y-88750000D02*
X126200000Y-88750000D01*
X125450000Y-94750000D02*
X125450000Y-88750000D01*
X126200000Y-94750000D02*
X125450000Y-94750000D01*
X126210000Y-85440000D02*
X126210000Y-98060000D01*
X120240000Y-85440000D02*
X126210000Y-85440000D01*
X120240000Y-98060000D02*
X120240000Y-85440000D01*
X126210000Y-98060000D02*
X120240000Y-98060000D01*
G04 #@! TO.C,J2*
X126500000Y-112850000D02*
X125250000Y-112850000D01*
X126500000Y-111600000D02*
X126500000Y-112850000D01*
X121000000Y-100700000D02*
X121000000Y-106250000D01*
X123950000Y-100700000D02*
X121000000Y-100700000D01*
X123950000Y-99950000D02*
X123950000Y-100700000D01*
X121000000Y-111800000D02*
X121000000Y-106250000D01*
X123950000Y-111800000D02*
X121000000Y-111800000D01*
X123950000Y-112550000D02*
X123950000Y-111800000D01*
X126200000Y-99950000D02*
X126200000Y-101750000D01*
X125450000Y-99950000D02*
X126200000Y-99950000D01*
X125450000Y-101750000D02*
X125450000Y-99950000D01*
X126200000Y-101750000D02*
X125450000Y-101750000D01*
X126200000Y-110750000D02*
X126200000Y-112550000D01*
X125450000Y-110750000D02*
X126200000Y-110750000D01*
X125450000Y-112550000D02*
X125450000Y-110750000D01*
X126200000Y-112550000D02*
X125450000Y-112550000D01*
X126200000Y-103250000D02*
X126200000Y-109250000D01*
X125450000Y-103250000D02*
X126200000Y-103250000D01*
X125450000Y-109250000D02*
X125450000Y-103250000D01*
X126200000Y-109250000D02*
X125450000Y-109250000D01*
X126210000Y-99940000D02*
X126210000Y-112560000D01*
X120240000Y-99940000D02*
X126210000Y-99940000D01*
X120240000Y-112560000D02*
X120240000Y-99940000D01*
X126210000Y-112560000D02*
X120240000Y-112560000D01*
G04 #@! TO.C,U1*
D10*
X143011904Y-108702380D02*
X143011904Y-109511904D01*
X142964285Y-109607142D01*
X142916666Y-109654761D01*
X142821428Y-109702380D01*
X142630952Y-109702380D01*
X142535714Y-109654761D01*
X142488095Y-109607142D01*
X142440476Y-109511904D01*
X142440476Y-108702380D01*
X141440476Y-109702380D02*
X142011904Y-109702380D01*
X141726190Y-109702380D02*
X141726190Y-108702380D01*
X141821428Y-108845238D01*
X141916666Y-108940476D01*
X142011904Y-108988095D01*
G04 #@! TO.C,J1*
X126752380Y-91416666D02*
X127466666Y-91416666D01*
X127609523Y-91369047D01*
X127704761Y-91273809D01*
X127752380Y-91130952D01*
X127752380Y-91035714D01*
X127752380Y-92416666D02*
X127752380Y-91845238D01*
X127752380Y-92130952D02*
X126752380Y-92130952D01*
X126895238Y-92035714D01*
X126990476Y-91940476D01*
X127038095Y-91845238D01*
G04 #@! TO.C,J2*
X126752380Y-105916666D02*
X127466666Y-105916666D01*
X127609523Y-105869047D01*
X127704761Y-105773809D01*
X127752380Y-105630952D01*
X127752380Y-105535714D01*
X126847619Y-106345238D02*
X126799999Y-106392857D01*
X126752380Y-106488095D01*
X126752380Y-106726190D01*
X126799999Y-106821428D01*
X126847619Y-106869047D01*
X126942857Y-106916666D01*
X127038095Y-106916666D01*
X127180952Y-106869047D01*
X127752380Y-106297619D01*
X127752380Y-106916666D01*
G04 #@! TD*
M02*
