M48
;DRILL file {KiCad (5.0.0-rc3)} date 08/22/18 02:00:13
;FORMAT={3:3/ absolute / metric / suppress leading zeros}
FMAT,2
METRIC,TZ
T1C0.762
T2C0.950
T3C4.500
%
G90
G05
M71
T1
X138440Y-92650
X138440Y-95190
X138440Y-97730
X138440Y-100270
X138440Y-102810
X138440Y-105350
X146060Y-92650
X146060Y-95190
X146060Y-97730
X146060Y-100270
X146060Y-102810
X146060Y-105350
T2
X131250Y-102500
X131250Y-105000
X131250Y-107500
X131250Y-110000
X160750Y-93000
X160750Y-95500
X160750Y-98000
X160750Y-100500
X160750Y-103000
X160750Y-105500
X153500Y-90500
X153500Y-93000
X153500Y-95500
X153500Y-98000
X153500Y-100500
X153500Y-103000
X153500Y-105500
X153500Y-108000
X123750Y-88000
X123750Y-90500
X123750Y-93000
X123750Y-95500
X123750Y-102500
X123750Y-105000
X123750Y-107500
X123750Y-110000
X131250Y-88000
X131250Y-90500
X131250Y-93000
X131250Y-95500
T3
X138750Y-85000
X138750Y-113000
T0
M30
