M48
;DRILL file {KiCad 4.0.7} date 01/22/18 23:52:12
;FORMAT={3:3/ absolute / metric / suppress trailing zeros}
FMAT,2
METRIC,LZ
T1C0.400
T2C0.500
T3C0.800
T4C0.900
T5C3.000
%
G90
G05
M71
T1
X051477Y-126467
X051579Y-124427
X053853Y-056014
X053925Y-059859
X058439Y-130853
X060325Y-13081
X06084Y-054553
X062257Y-047578
X065494Y-047479
X09525Y-12446
X09779Y-12446
X098425Y-09525
X10103Y-092663
X10103Y-09526
X104775Y-09271
X10482Y-095331
X10668Y-09271
X106692Y-095377
X11048Y-09271
X110599Y-095401
X11176Y-09271
X111815Y-095424
X1207Y-126927
X12347Y-126927
X12665Y-126927
X128144Y-102318
X12938Y-126927
X13397Y-11081
X13397Y-11396
X13401Y-11706
X13409Y-1206
X13783Y-11077
X14113Y-1107
X14134Y-11298
X14222Y-1147
X1439Y-11624
X146071Y-118316
X149225Y-118745
X149225Y-121285
X15621Y-118745
X15621Y-121285
X158115Y-118745
X16002Y-118745
X16003Y-12135
X16003Y-12385
X16003Y-12585
X173355Y-093345
X17526Y-09144
X177165Y-089535
X17907Y-08763
X182245Y-084455
X184658Y-048514
X184785Y-05207
X184785Y-05588
X184785Y-05969
X184785Y-062865
X184785Y-066675
X184785Y-06985
X184785Y-074295
X184785Y-078105
X184785Y-081915
X18532Y-09368
X187958Y-05546
X18803Y-09107
X18903Y-062287
X190371Y-053244
X19072Y-08863
X191625Y-057614
X193081Y-055177
X19316Y-08628
X194302Y-053316
X19526Y-072896
X195549Y-053345
X19615Y-08333
X196463Y-061006
X196839Y-067069
X197673Y-053815
X198533Y-055333
X19909Y-08069
X200466Y-074213
X201295Y-118745
X20142Y-07821
X201452Y-053174
X201578Y-072764
X203266Y-053168
X203775Y-055329
X20393Y-07573
X204923Y-11849
X20696Y-07571
X20761Y-06675
X20821Y-06863
X20827Y-05637
X21005Y-05645
X21074Y-07564
X21082Y-09779
X21336Y-09779
X213952Y-087111
X214022Y-092324
X21463Y-11684
X21463Y-118902
X214644Y-121254
X214723Y-06718
X21487Y-07553
X215265Y-07112
X21606Y-053815
X216541Y-089424
X216561Y-092334
X216662Y-067183
X21853Y-0761
X21971Y-055245
X22098Y-10414
X22098Y-10668
X22098Y-10922
X22098Y-11176
X22098Y-1143
X22193Y-060948
X221966Y-087619
X22203Y-07635
X22203Y-0801
X22203Y-08385
X223235Y-06592
X223237Y-055288
X224484Y-055305
X224969Y-070087
X226822Y-0762
X227965Y-07366
X23114Y-0762
X233236Y-06682
X234397Y-069056
X235178Y-057133
X235458Y-0762
X235729Y-128949
X237236Y-070104
X23876Y-06858
X239522Y-067056
X239522Y-0762
X23999Y-098786
X240048Y-104656
X240832Y-128836
X242824Y-048006
X242824Y-051054
X242824Y-054864
X242824Y-058674
X243805Y-123794
X244094Y-061214
X244094Y-063754
X244094Y-066294
X244094Y-06985
X244094Y-072136
X244094Y-074168
X244094Y-0762
X248159Y-116118
X248159Y-121159
T2
X206414Y-106184
X207422Y-099059
X216408Y-06985
X241941Y-069906
T3
X20447Y-12446
X21209Y-12446
T4
X05461Y-11442
X05461Y-11692
X05461Y-11942
X05461Y-12192
X07239Y-04953
X07267Y-12446
X07489Y-04953
X07517Y-12446
X07739Y-04953
X07767Y-12446
X07989Y-04953
X08017Y-12446
X08239Y-04953
X08267Y-12446
X083566Y-10795
X08489Y-04953
X08517Y-12446
X086106Y-10795
X08739Y-04953
X08767Y-12446
X088646Y-10795
X08989Y-04953
X09017Y-12446
X091186Y-10795
X09271Y-05969
X093726Y-10795
X09525Y-05969
X096266Y-10795
X09779Y-04953
X09779Y-05969
X098806Y-10795
X10029Y-04953
X10033Y-05969
X10061Y-12446
X101346Y-10795
X10279Y-04953
X10287Y-05969
X10311Y-12446
X103886Y-10795
X10529Y-04953
X10541Y-05969
X10561Y-12446
X106426Y-10795
X10779Y-04953
X10795Y-05969
X10811Y-12446
X11029Y-04953
X11049Y-05969
X11049Y-10795
X11061Y-12446
X11279Y-04953
X11303Y-10795
X11311Y-12446
X11529Y-04953
X11557Y-05969
X11557Y-10795
X11561Y-12446
X11811Y-05969
X11811Y-10795
X11811Y-12446
X12065Y-05969
X12065Y-10795
X12319Y-05969
X12319Y-10795
X12323Y-04953
X12573Y-04953
X12573Y-05969
X12573Y-10795
X12823Y-04953
X12827Y-05969
X12827Y-10795
X12839Y-12446
X13073Y-04953
X13081Y-05969
X13089Y-12446
X13335Y-05969
X13335Y-10795
X13339Y-12446
X13589Y-10795
X13589Y-12446
X13843Y-05969
X13843Y-10795
X13871Y-04953
X14097Y-05969
X14097Y-10795
X14121Y-04953
X14351Y-05969
X14351Y-10795
X14371Y-04953
X14605Y-05969
X14605Y-10795
X14617Y-12446
X14621Y-04953
X14859Y-05969
X14859Y-10795
X14867Y-12446
X14871Y-04953
X15113Y-05969
X15113Y-10795
X15117Y-12446
X15121Y-04953
X15367Y-05969
X15367Y-12446
X15371Y-04953
X15621Y-04953
X15621Y-05969
X15875Y-06477
X15875Y-06731
X15875Y-06985
X15875Y-07239
X15875Y-07493
X15875Y-07747
X15875Y-08001
X15875Y-08255
X15875Y-08509
X15875Y-08763
X15875Y-09017
X15875Y-09271
X15875Y-09525
X15875Y-09779
X15875Y-10033
X15875Y-10287
X15875Y-10541
X15875Y-10795
X16129Y-06477
X16129Y-06731
X16129Y-06985
X16129Y-07239
X16129Y-07493
X16129Y-07747
X16129Y-08001
X16129Y-08255
X16129Y-08509
X16129Y-08763
X16129Y-09017
X16129Y-09271
X16129Y-09525
X16129Y-09779
X16129Y-10033
X16129Y-10287
X16129Y-10541
X16129Y-10795
X16383Y-1143
X16383Y-11684
X16383Y-11938
X16383Y-12192
X16383Y-12446
X16383Y-127
X16387Y-04953
X16637Y-04953
X16887Y-04953
X17137Y-04953
X17387Y-04953
X17637Y-04953
X17653Y-1143
X17653Y-11684
X17653Y-11938
X17653Y-12192
X17653Y-12446
X17653Y-127
X17887Y-04953
X18137Y-04953
X1905Y-04826
X1905Y-0508
X19304Y-04826
X19304Y-0508
X19558Y-04826
X19558Y-0508
X19812Y-04826
X19812Y-0508
X20066Y-04826
X20066Y-0508
X2032Y-04826
X2032Y-0508
X20574Y-04826
X20574Y-0508
X20828Y-04826
X20828Y-0508
X22098Y-04826
X22098Y-0508
X22352Y-04826
X22352Y-0508
X22606Y-04826
X22606Y-0508
X22733Y-08255
X22733Y-08505
X22733Y-08755
X22733Y-09005
X22733Y-09255
X22733Y-09505
X22733Y-10287
X22733Y-10537
X22733Y-10787
X22733Y-11037
X22733Y-11287
X22733Y-11537
X2286Y-04826
X2286Y-0508
X23114Y-04826
X23114Y-0508
X23368Y-04826
X23368Y-0508
X23622Y-04826
X23622Y-0508
X23749Y-08255
X23749Y-08505
X23749Y-08755
X23749Y-09005
X23749Y-09255
X23749Y-09505
X23749Y-10287
X23749Y-10537
X23749Y-10787
X23749Y-11037
X23749Y-11287
X23749Y-11537
X23876Y-04826
X23876Y-0508
T5
X054603Y-128188
X05461Y-04953
X247617Y-04949
X247632Y-128266
T0
M30
