G04 #@! TF.FileFunction,Copper,L2,Bot,Signal*
%FSLAX46Y46*%
G04 Gerber Fmt 4.6, Leading zero omitted, Abs format (unit mm)*
G04 Created by KiCad (PCBNEW 4.0.7) date 01/22/18 21:40:53*
%MOMM*%
%LPD*%
G01*
G04 APERTURE LIST*
%ADD10C,0.100000*%
%ADD11R,1.500000X1.500000*%
%ADD12C,1.500000*%
%ADD13C,3.500000*%
%ADD14C,0.800000*%
%ADD15C,0.700000*%
%ADD16C,0.300000*%
%ADD17C,0.254000*%
G04 APERTURE END LIST*
D10*
D11*
X82042000Y-59309000D03*
D12*
X84542000Y-59309000D03*
X87042000Y-59309000D03*
X89542000Y-59309000D03*
X92042000Y-59309000D03*
X94542000Y-59309000D03*
D11*
X82042000Y-66929000D03*
D12*
X84542000Y-66929000D03*
X87042000Y-66929000D03*
X89542000Y-66929000D03*
X92042000Y-66929000D03*
X94542000Y-66929000D03*
D11*
X219202000Y-66929000D03*
D12*
X221702000Y-66929000D03*
X224202000Y-66929000D03*
X226702000Y-66929000D03*
X229202000Y-66929000D03*
X231702000Y-66929000D03*
D11*
X193802000Y-66929000D03*
D12*
X196302000Y-66929000D03*
X198802000Y-66929000D03*
X201302000Y-66929000D03*
X203802000Y-66929000D03*
X206302000Y-66929000D03*
X208802000Y-66929000D03*
X211302000Y-66929000D03*
D11*
X173482000Y-66929000D03*
D12*
X175982000Y-66929000D03*
X178482000Y-66929000D03*
X180982000Y-66929000D03*
X183482000Y-66929000D03*
X185982000Y-66929000D03*
D11*
X148122000Y-66929000D03*
D12*
X150622000Y-66929000D03*
X153122000Y-66929000D03*
X155622000Y-66929000D03*
X158122000Y-66929000D03*
X160622000Y-66929000D03*
X163122000Y-66929000D03*
X165622000Y-66929000D03*
D11*
X127762000Y-66929000D03*
D12*
X130262000Y-66929000D03*
X132762000Y-66929000D03*
X135262000Y-66929000D03*
X137762000Y-66929000D03*
X140262000Y-66929000D03*
D11*
X102402000Y-66929000D03*
D12*
X104902000Y-66929000D03*
X107402000Y-66929000D03*
X109902000Y-66929000D03*
X112402000Y-66929000D03*
X114902000Y-66929000D03*
X117402000Y-66929000D03*
X119902000Y-66929000D03*
D11*
X56642000Y-66929000D03*
D12*
X59142000Y-66929000D03*
X61642000Y-66929000D03*
X64142000Y-66929000D03*
X66642000Y-66929000D03*
X69142000Y-66929000D03*
X71642000Y-66929000D03*
X74142000Y-66929000D03*
D11*
X231702000Y-99949000D03*
D12*
X229202000Y-99949000D03*
X226702000Y-99949000D03*
X224202000Y-99949000D03*
X221702000Y-99949000D03*
X219202000Y-99949000D03*
D11*
X211382000Y-99949000D03*
D12*
X208882000Y-99949000D03*
X206382000Y-99949000D03*
X203882000Y-99949000D03*
X201382000Y-99949000D03*
X198882000Y-99949000D03*
D11*
X191062000Y-99949000D03*
D12*
X188562000Y-99949000D03*
X186062000Y-99949000D03*
X183562000Y-99949000D03*
X181062000Y-99949000D03*
X178562000Y-99949000D03*
D11*
X170742000Y-99949000D03*
D12*
X168242000Y-99949000D03*
X165742000Y-99949000D03*
X163242000Y-99949000D03*
X160742000Y-99949000D03*
X158242000Y-99949000D03*
D11*
X56642000Y-87089000D03*
D12*
X56642000Y-84589000D03*
X56642000Y-82089000D03*
X56642000Y-79589000D03*
X56642000Y-77089000D03*
X56642000Y-74589000D03*
X150502000Y-106934000D03*
X148002000Y-106934000D03*
X145502000Y-106934000D03*
X143002000Y-106934000D03*
X135262000Y-106934000D03*
X132762000Y-106934000D03*
X130262000Y-106934000D03*
X127762000Y-106934000D03*
X120022000Y-106934000D03*
X117522000Y-106934000D03*
X115022000Y-106934000D03*
X112522000Y-106934000D03*
X104782000Y-106934000D03*
X102282000Y-106934000D03*
X99782000Y-106934000D03*
X97282000Y-106934000D03*
X150502000Y-99949000D03*
X148002000Y-99949000D03*
X145502000Y-99949000D03*
X143002000Y-99949000D03*
X135302000Y-99949000D03*
X132802000Y-99949000D03*
X130302000Y-99949000D03*
X127802000Y-99949000D03*
X104782000Y-99949000D03*
X102282000Y-99949000D03*
X99782000Y-99949000D03*
X97282000Y-99949000D03*
D11*
X56642000Y-112369000D03*
D12*
X56642000Y-109869000D03*
X56642000Y-107369000D03*
X56642000Y-104869000D03*
X56642000Y-102369000D03*
X56642000Y-99869000D03*
X56642000Y-97369000D03*
X56642000Y-94869000D03*
X211542000Y-115189000D03*
X209042000Y-115189000D03*
X206542000Y-115189000D03*
X204042000Y-115189000D03*
X196342000Y-115189000D03*
X193842000Y-115189000D03*
X191342000Y-115189000D03*
X188842000Y-115189000D03*
X181022000Y-115189000D03*
X178522000Y-115189000D03*
X176022000Y-115189000D03*
X173522000Y-115189000D03*
X165742000Y-115189000D03*
X163242000Y-115189000D03*
X160742000Y-115189000D03*
X158242000Y-115189000D03*
X150502000Y-115189000D03*
X148002000Y-115189000D03*
X145502000Y-115189000D03*
X143002000Y-115189000D03*
X135262000Y-115189000D03*
X132762000Y-115189000D03*
X130262000Y-115189000D03*
X127762000Y-115189000D03*
X120022000Y-115189000D03*
X117522000Y-115189000D03*
X115022000Y-115189000D03*
X112522000Y-115189000D03*
X104782000Y-115189000D03*
X102282000Y-115189000D03*
X99782000Y-115189000D03*
X97282000Y-115189000D03*
D11*
X219202000Y-59309000D03*
D12*
X221702000Y-59309000D03*
X224202000Y-59309000D03*
X226702000Y-59309000D03*
X229202000Y-59309000D03*
X231702000Y-59309000D03*
D11*
X193802000Y-59309000D03*
D12*
X196302000Y-59309000D03*
X198802000Y-59309000D03*
X201302000Y-59309000D03*
X203802000Y-59309000D03*
X206302000Y-59309000D03*
X208802000Y-59309000D03*
X211302000Y-59309000D03*
D11*
X173482000Y-59309000D03*
D12*
X175982000Y-59309000D03*
X178482000Y-59309000D03*
X180982000Y-59309000D03*
X183482000Y-59309000D03*
X185982000Y-59309000D03*
D11*
X148082000Y-59309000D03*
D12*
X150582000Y-59309000D03*
X153082000Y-59309000D03*
X155582000Y-59309000D03*
X158082000Y-59309000D03*
X160582000Y-59309000D03*
X163082000Y-59309000D03*
X165582000Y-59309000D03*
D11*
X127762000Y-59309000D03*
D12*
X130262000Y-59309000D03*
X132762000Y-59309000D03*
X135262000Y-59309000D03*
X137762000Y-59309000D03*
X140262000Y-59309000D03*
D11*
X102402000Y-59309000D03*
D12*
X104902000Y-59309000D03*
X107402000Y-59309000D03*
X109902000Y-59309000D03*
X112402000Y-59309000D03*
X114902000Y-59309000D03*
X117402000Y-59309000D03*
X119902000Y-59309000D03*
D11*
X56642000Y-59309000D03*
D12*
X59142000Y-59309000D03*
X61642000Y-59309000D03*
X64142000Y-59309000D03*
X66642000Y-59309000D03*
X69142000Y-59309000D03*
X71642000Y-59309000D03*
X74142000Y-59309000D03*
X120022000Y-99949000D03*
X117522000Y-99949000D03*
X115022000Y-99949000D03*
X112522000Y-99949000D03*
D13*
X51484867Y-120338819D03*
X236905439Y-120233904D03*
X236982000Y-54229000D03*
X51562000Y-54229000D03*
D14*
X66896384Y-78573497D03*
X153000000Y-95200000D03*
X149400000Y-95200000D03*
X146400000Y-95200000D03*
X143000000Y-95200000D03*
X140000000Y-95200000D03*
X137400000Y-95200000D03*
X134200000Y-95200000D03*
X131000000Y-95200000D03*
X127800000Y-95200000D03*
X124600000Y-95200000D03*
X121800000Y-95200000D03*
X158200000Y-90390696D03*
X156200000Y-90390696D03*
X170701769Y-90455493D03*
X173242799Y-90434140D03*
X192500000Y-87000000D03*
X192619336Y-94728215D03*
X192569631Y-92392072D03*
X192569630Y-90552982D03*
X142750000Y-90424000D03*
X139750000Y-90424000D03*
X66802000Y-84709000D03*
X143637000Y-59309000D03*
X143637000Y-62484000D03*
X143637000Y-65659000D03*
X143637000Y-69469000D03*
X143637000Y-72644000D03*
X226695000Y-54229000D03*
X236982000Y-64770000D03*
X121793000Y-90424000D03*
X124714000Y-90424000D03*
X127635000Y-90424000D03*
X130937000Y-90424000D03*
X134239000Y-90424000D03*
X66796944Y-83265973D03*
X83439000Y-91313000D03*
X88265000Y-91313000D03*
X85598000Y-91313000D03*
X192532000Y-96774000D03*
X203962000Y-90932000D03*
X201443833Y-90909950D03*
X229362000Y-54229000D03*
X231902000Y-54229000D03*
X236982000Y-59944000D03*
X236982000Y-62484000D03*
X235712000Y-107569000D03*
X235712000Y-110109000D03*
X235712000Y-112649000D03*
X228092000Y-118999000D03*
X225552000Y-118999000D03*
X223012000Y-118999000D03*
X51562000Y-107569000D03*
X51562000Y-110109000D03*
X51562000Y-112649000D03*
X60452000Y-118999000D03*
X62992000Y-118999000D03*
X65532000Y-118999000D03*
X62992000Y-54229000D03*
X60452000Y-54229000D03*
X57912000Y-54229000D03*
X52832000Y-59309000D03*
X52832000Y-61849000D03*
X52832000Y-64389000D03*
X153788509Y-90390696D03*
X176022000Y-90424000D03*
X137287000Y-90424000D03*
X80681691Y-94895497D03*
X66859671Y-94895497D03*
X87228129Y-97421043D03*
X73152000Y-97409000D03*
X80772000Y-99949000D03*
X66802000Y-99949000D03*
X72977961Y-102454177D03*
X87258875Y-102488213D03*
X80772000Y-105029000D03*
X66802000Y-105029000D03*
X86932093Y-107837773D03*
X73152000Y-107569000D03*
X80772000Y-110109000D03*
X66802000Y-110109000D03*
X87210104Y-112587821D03*
X73152000Y-112649000D03*
X72341637Y-91707249D03*
X112406078Y-91642973D03*
X101346000Y-84328000D03*
X76940774Y-63491474D03*
X71882000Y-72009000D03*
X90293581Y-78994000D03*
X88813502Y-79649366D03*
X93335793Y-82974847D03*
X85065462Y-78437169D03*
X122682000Y-62992000D03*
X106680000Y-72771000D03*
X168021000Y-63627000D03*
X153543000Y-70739000D03*
X170942000Y-83009901D03*
X170489874Y-81509010D03*
X164757441Y-80289061D03*
X214122000Y-63881000D03*
X199517000Y-71247000D03*
X220494924Y-82550000D03*
X220491210Y-80933599D03*
X227965000Y-81120416D03*
X78214643Y-75123023D03*
X86434412Y-78877825D03*
X81822466Y-61724875D03*
X90923497Y-83547610D03*
X87604797Y-79085601D03*
X85852000Y-72009000D03*
X91783727Y-80786370D03*
X210947000Y-75184000D03*
X163957000Y-75184000D03*
X118237000Y-75184000D03*
X83312000Y-75184000D03*
X210443612Y-89068784D03*
X191262000Y-89154000D03*
X177292000Y-89154000D03*
X105390064Y-89074536D03*
X163957000Y-89154000D03*
X118237000Y-89154000D03*
X83566000Y-89281000D03*
X65168205Y-86767554D03*
X159004000Y-79439051D03*
X189967731Y-68242775D03*
X189992000Y-76708000D03*
X173355000Y-63246000D03*
X180496776Y-77133400D03*
X173228000Y-76200000D03*
X173228000Y-70739000D03*
X177928771Y-77978000D03*
X205740000Y-79883000D03*
X218269844Y-73966692D03*
X229202000Y-75057000D03*
X219529419Y-76200000D03*
X219529419Y-71926800D03*
X224202000Y-78105000D03*
X127243137Y-71746544D03*
X126043662Y-63782807D03*
X96975820Y-73396254D03*
X69342000Y-75184000D03*
X150203461Y-84685309D03*
X104254997Y-79834308D03*
X191262000Y-84074000D03*
X177292000Y-84074000D03*
X150165355Y-80203820D03*
X196893305Y-84074000D03*
D15*
X56642000Y-77442000D02*
X56875838Y-77208162D01*
X56875838Y-77208162D02*
X57233317Y-77208162D01*
X57233317Y-77208162D02*
X58000000Y-77974845D01*
X58000000Y-77974845D02*
X58000000Y-78000000D01*
D16*
X56642000Y-77089000D02*
X56642000Y-77442000D01*
D15*
X60400000Y-76772164D02*
X60474903Y-76697261D01*
X60474903Y-76697261D02*
X63329473Y-76697261D01*
X63329473Y-76697261D02*
X65205709Y-78573497D01*
X65205709Y-78573497D02*
X66330699Y-78573497D01*
X66330699Y-78573497D02*
X66896384Y-78573497D01*
X66796944Y-78672937D02*
X66896384Y-78573497D01*
X66796944Y-83265973D02*
X66796944Y-78672937D01*
X59526883Y-76034288D02*
X59526883Y-76075610D01*
X59526883Y-76075610D02*
X60223437Y-76772164D01*
X60223437Y-76772164D02*
X60400000Y-76772164D01*
X56958836Y-76772164D02*
X60400000Y-76772164D01*
D16*
X59478030Y-75944779D02*
X59572615Y-75944779D01*
D15*
X58120597Y-76747659D02*
X58675150Y-76747659D01*
X58675150Y-76747659D02*
X59478030Y-75944779D01*
X55372000Y-69469000D02*
X54102000Y-69469000D01*
X59478030Y-75944779D02*
X59478030Y-73575030D01*
X59478030Y-73575030D02*
X55372000Y-69469000D01*
X54102000Y-69469000D02*
X52832000Y-68199000D01*
X52832000Y-68199000D02*
X52832000Y-64389000D01*
X56642000Y-77089000D02*
X56958836Y-76772164D01*
X149400000Y-95200000D02*
X153000000Y-95200000D01*
X143000000Y-95200000D02*
X146400000Y-95200000D01*
X137400000Y-95200000D02*
X140000000Y-95200000D01*
X131000000Y-95200000D02*
X134200000Y-95200000D01*
X124600000Y-95200000D02*
X127800000Y-95200000D01*
X121793000Y-90424000D02*
X121793000Y-95193000D01*
X121793000Y-95193000D02*
X121800000Y-95200000D01*
X156200000Y-90390696D02*
X158200000Y-90390696D01*
X158200000Y-90390696D02*
X170636972Y-90390696D01*
X153788509Y-90390696D02*
X156200000Y-90390696D01*
X170636972Y-90390696D02*
X170701769Y-90455493D01*
X170723122Y-90434140D02*
X170701769Y-90455493D01*
X173242799Y-90434140D02*
X170723122Y-90434140D01*
X173252939Y-90424000D02*
X173242799Y-90434140D01*
X176022000Y-90424000D02*
X173252939Y-90424000D01*
X192569631Y-94678510D02*
X192619336Y-94728215D01*
X192569631Y-92392072D02*
X192569631Y-94678510D01*
X192926598Y-90909950D02*
X192569630Y-90552982D01*
X201443833Y-90909950D02*
X192926598Y-90909950D01*
X142750000Y-90424000D02*
X153755205Y-90424000D01*
X139750000Y-90424000D02*
X142750000Y-90424000D01*
X137287000Y-90424000D02*
X139750000Y-90424000D01*
X143637000Y-65659000D02*
X143637000Y-62484000D01*
X143637000Y-72644000D02*
X143637000Y-69469000D01*
X85598000Y-91313000D02*
X88265000Y-91313000D01*
X201443833Y-90909950D02*
X203939950Y-90909950D01*
X203939950Y-90909950D02*
X203962000Y-90932000D01*
X231902000Y-54229000D02*
X229362000Y-54229000D01*
X236982000Y-62484000D02*
X236982000Y-59944000D01*
X235712000Y-110109000D02*
X235712000Y-107569000D01*
X228092000Y-118999000D02*
X229362000Y-118999000D01*
X229362000Y-118999000D02*
X235712000Y-112649000D01*
X223012000Y-118999000D02*
X225552000Y-118999000D01*
X51562000Y-110109000D02*
X51562000Y-107569000D01*
X60452000Y-118999000D02*
X57912000Y-118999000D01*
X57912000Y-118999000D02*
X51562000Y-112649000D01*
X65532000Y-118999000D02*
X62992000Y-118999000D01*
X57912000Y-54229000D02*
X60452000Y-54229000D01*
X52832000Y-61849000D02*
X52832000Y-59309000D01*
X112522000Y-115189000D02*
X112522000Y-112355952D01*
X112522000Y-112355952D02*
X113498952Y-111379000D01*
X113498952Y-111379000D02*
X127127000Y-111379000D01*
X127127000Y-111379000D02*
X129667000Y-111379000D01*
X127762000Y-112119034D02*
X127762000Y-112014000D01*
X127762000Y-112014000D02*
X127127000Y-111379000D01*
X127762000Y-115189000D02*
X127762000Y-112119034D01*
X127762000Y-112119034D02*
X128502034Y-111379000D01*
X128502034Y-111379000D02*
X129667000Y-111379000D01*
X129667000Y-111379000D02*
X142367000Y-111379000D01*
X143002000Y-112132238D02*
X143002000Y-112014000D01*
X142367000Y-111379000D02*
X144907000Y-111379000D01*
X143002000Y-112014000D02*
X142367000Y-111379000D01*
X143002000Y-115189000D02*
X143002000Y-112132238D01*
X143002000Y-112132238D02*
X143755238Y-111379000D01*
X143755238Y-111379000D02*
X144907000Y-111379000D01*
X155067000Y-110744000D02*
X155067000Y-91669187D01*
X155067000Y-111379000D02*
X155067000Y-110744000D01*
X144907000Y-111379000D02*
X154432000Y-111379000D01*
X154432000Y-111379000D02*
X155067000Y-111379000D01*
X155067000Y-110744000D02*
X154432000Y-111379000D01*
X155067000Y-91669187D02*
X154188508Y-90790695D01*
X153755205Y-90424000D02*
X153788509Y-90390696D01*
X154188508Y-90790695D02*
X153788509Y-90390696D01*
X155067000Y-111379000D02*
X156337000Y-112649000D01*
X158400846Y-113284000D02*
X159035846Y-112649000D01*
X156337000Y-112649000D02*
X157607000Y-112649000D01*
X158242000Y-113284000D02*
X157607000Y-112649000D01*
X158242000Y-113442846D02*
X158400846Y-113284000D01*
X158400846Y-113284000D02*
X158242000Y-113284000D01*
X157607000Y-112649000D02*
X159721340Y-112649000D01*
X158242000Y-115189000D02*
X158242000Y-113442846D01*
X159035846Y-112649000D02*
X159721340Y-112649000D01*
X172847000Y-112649000D02*
X174117000Y-112649000D01*
X174117000Y-112649000D02*
X188087000Y-112649000D01*
X173522000Y-113324000D02*
X173522000Y-113244000D01*
X173522000Y-113244000D02*
X174117000Y-112649000D01*
X188087000Y-112649000D02*
X189357000Y-112649000D01*
X189357000Y-112649000D02*
X202692000Y-112649000D01*
X188842000Y-113164000D02*
X189357000Y-112649000D01*
X188842000Y-113404000D02*
X188842000Y-113164000D01*
X203327000Y-112649000D02*
X204042000Y-113364000D01*
X204042000Y-113364000D02*
X204042000Y-115189000D01*
X203327000Y-112649000D02*
X202692000Y-112649000D01*
X188087000Y-112649000D02*
X188842000Y-113404000D01*
X188842000Y-113404000D02*
X188842000Y-115189000D01*
X159721340Y-112649000D02*
X172847000Y-112649000D01*
X172847000Y-112649000D02*
X173522000Y-113324000D01*
X173522000Y-113324000D02*
X173522000Y-115189000D01*
D16*
X99782000Y-115189000D02*
X99782000Y-113722291D01*
X99782000Y-113722291D02*
X99040640Y-112980931D01*
X93567129Y-112980931D02*
X92798431Y-112212233D01*
X99040640Y-112980931D02*
X93567129Y-112980931D01*
X92798431Y-112212233D02*
X92798431Y-96066684D01*
X92798431Y-96066684D02*
X91627244Y-94895497D01*
X91627244Y-94895497D02*
X80681691Y-94895497D01*
X99782000Y-115189000D02*
X99541348Y-115189000D01*
X57346614Y-94888384D02*
X80688804Y-94888384D01*
X80681691Y-94895497D02*
X80688804Y-94888384D01*
X66859671Y-94895497D02*
X80681691Y-94895497D01*
X56642000Y-94869000D02*
X66833174Y-94869000D01*
X66833174Y-94869000D02*
X66859671Y-94895497D01*
X115022000Y-115189000D02*
X115022000Y-116343836D01*
X115022000Y-116343836D02*
X114514214Y-116851622D01*
X114514214Y-116851622D02*
X92594622Y-116851622D01*
X92594622Y-116851622D02*
X91567000Y-115824000D01*
X91567000Y-115824000D02*
X91567000Y-99255385D01*
X91567000Y-99255385D02*
X89732658Y-97421043D01*
X89732658Y-97421043D02*
X87228129Y-97421043D01*
X73152000Y-97409000D02*
X85852000Y-97409000D01*
X85852000Y-97409000D02*
X85864043Y-97421043D01*
X85864043Y-97421043D02*
X87228129Y-97421043D01*
X87228129Y-97421043D02*
X87240172Y-97409000D01*
X73152000Y-97409000D02*
X56682000Y-97409000D01*
X56682000Y-97409000D02*
X56642000Y-97369000D01*
X130262000Y-115189000D02*
X130262000Y-117054000D01*
X130262000Y-117054000D02*
X129466657Y-117849343D01*
X129466657Y-117849343D02*
X92319157Y-117849343D01*
X92319157Y-117849343D02*
X90816342Y-116346528D01*
X90816342Y-116346528D02*
X90816342Y-101577335D01*
X90816342Y-101577335D02*
X89188007Y-99949000D01*
X89188007Y-99949000D02*
X81337685Y-99949000D01*
X81337685Y-99949000D02*
X80772000Y-99949000D01*
X66802000Y-99949000D02*
X80772000Y-99949000D01*
X66802000Y-99949000D02*
X56722000Y-99949000D01*
X56722000Y-99949000D02*
X56642000Y-99869000D01*
X56642000Y-102369000D02*
X56753535Y-102480535D01*
X56753535Y-102480535D02*
X72951603Y-102480535D01*
X72951603Y-102480535D02*
X72977961Y-102454177D01*
X87258875Y-102488213D02*
X73011997Y-102488213D01*
X73011997Y-102488213D02*
X72977961Y-102454177D01*
X87258088Y-102489000D02*
X87258875Y-102488213D01*
X145502000Y-115189000D02*
X145502000Y-117134997D01*
X143989860Y-118647137D02*
X91905603Y-118647137D01*
X90006904Y-116748438D02*
X90006904Y-104013021D01*
X145502000Y-117134997D02*
X143989860Y-118647137D01*
X91905603Y-118647137D02*
X90006904Y-116748438D01*
X90006904Y-104013021D02*
X88519475Y-102525592D01*
X88519475Y-102525592D02*
X87296254Y-102525592D01*
X87296254Y-102525592D02*
X87258875Y-102488213D01*
X56762000Y-102489000D02*
X56642000Y-102369000D01*
X160742000Y-115189000D02*
X160742000Y-117484430D01*
X160742000Y-117484430D02*
X158969353Y-119257077D01*
X158969353Y-119257077D02*
X91288257Y-119257077D01*
X91288257Y-119257077D02*
X89260136Y-117228956D01*
X89260136Y-117228956D02*
X89260136Y-106454490D01*
X89260136Y-106454490D02*
X87834646Y-105029000D01*
X87834646Y-105029000D02*
X81337685Y-105029000D01*
X81337685Y-105029000D02*
X80772000Y-105029000D01*
X66802000Y-105029000D02*
X80772000Y-105029000D01*
X66802000Y-105029000D02*
X56802000Y-105029000D01*
X56802000Y-105029000D02*
X56642000Y-104869000D01*
X176022000Y-115189000D02*
X176022000Y-117998306D01*
X176022000Y-117998306D02*
X174095164Y-119925142D01*
X174095164Y-119925142D02*
X90579313Y-119925142D01*
X90579313Y-119925142D02*
X88660125Y-118005954D01*
X87332092Y-108237772D02*
X86932093Y-107837773D01*
X88660125Y-118005954D02*
X88660125Y-109565805D01*
X88660125Y-109565805D02*
X87332092Y-108237772D01*
X86663320Y-107569000D02*
X86932093Y-107837773D01*
X73152000Y-107569000D02*
X86663320Y-107569000D01*
X73152000Y-107569000D02*
X56842000Y-107569000D01*
X56842000Y-107569000D02*
X56642000Y-107369000D01*
X191342000Y-115189000D02*
X191342000Y-118677948D01*
X191342000Y-118677948D02*
X189494795Y-120525153D01*
X189494795Y-120525153D02*
X89797804Y-120525153D01*
X89797804Y-120525153D02*
X88060114Y-118787463D01*
X88060114Y-118787463D02*
X88060114Y-111218560D01*
X88060114Y-111218560D02*
X86950554Y-110109000D01*
X86950554Y-110109000D02*
X81337685Y-110109000D01*
X81337685Y-110109000D02*
X80772000Y-110109000D01*
X66802000Y-110109000D02*
X80772000Y-110109000D01*
X66802000Y-110109000D02*
X56882000Y-110109000D01*
X56882000Y-110109000D02*
X56642000Y-109869000D01*
X206542000Y-115189000D02*
X206542000Y-120119367D01*
X206542000Y-120119367D02*
X205316765Y-121344602D01*
X89273521Y-121344602D02*
X87210104Y-119281185D01*
X205316765Y-121344602D02*
X89273521Y-121344602D01*
X87210104Y-113153506D02*
X87210104Y-112587821D01*
X87210104Y-119281185D02*
X87210104Y-113153506D01*
X73152000Y-112649000D02*
X87148925Y-112649000D01*
X87148925Y-112649000D02*
X87210104Y-112587821D01*
X73152000Y-112649000D02*
X56922000Y-112649000D01*
X56922000Y-112649000D02*
X56642000Y-112369000D01*
D15*
X71775952Y-91707249D02*
X72341637Y-91707249D01*
X56655249Y-91707249D02*
X71775952Y-91707249D01*
X54737000Y-89789000D02*
X56655249Y-91707249D01*
X54737000Y-76494000D02*
X54737000Y-89789000D01*
X56642000Y-74589000D02*
X54737000Y-76494000D01*
X101346000Y-86995000D02*
X105993973Y-91642973D01*
X101346000Y-84328000D02*
X101346000Y-86995000D01*
X105993973Y-91642973D02*
X111840393Y-91642973D01*
X111840393Y-91642973D02*
X112406078Y-91642973D01*
D16*
X59142000Y-59309000D02*
X59142000Y-61515201D01*
X59142000Y-61515201D02*
X60550277Y-62923478D01*
X60550277Y-62923478D02*
X76513313Y-62923478D01*
X76513313Y-62923478D02*
X76940774Y-63350939D01*
X76940774Y-63350939D02*
X76940774Y-63491474D01*
X71882000Y-72009000D02*
X73508672Y-72009000D01*
X73508672Y-72009000D02*
X74019220Y-71498452D01*
X74019220Y-71498452D02*
X74019220Y-67331780D01*
X74019220Y-67331780D02*
X74422000Y-66929000D01*
X145502000Y-99949000D02*
X145502000Y-97686835D01*
X145502000Y-97686835D02*
X144589165Y-96774000D01*
X144589165Y-96774000D02*
X109982000Y-96774000D01*
X109982000Y-96774000D02*
X92202000Y-78994000D01*
X92202000Y-78994000D02*
X90293581Y-78994000D01*
X130302000Y-99949000D02*
X128501990Y-101749010D01*
X110602778Y-101749010D02*
X88812463Y-79958695D01*
X128501990Y-101749010D02*
X110602778Y-101749010D01*
X88812463Y-79958695D02*
X88812463Y-79650405D01*
X88812463Y-79650405D02*
X88813502Y-79649366D01*
X115022000Y-99949000D02*
X115022000Y-99011974D01*
X115022000Y-99011974D02*
X114352950Y-98342924D01*
X114352950Y-98342924D02*
X108703870Y-98342924D01*
X108703870Y-98342924D02*
X93735792Y-83374846D01*
X93735792Y-83374846D02*
X93335793Y-82974847D01*
X115052772Y-99979772D02*
X115057264Y-99975280D01*
X99782000Y-99949000D02*
X99782000Y-97572653D01*
X99782000Y-97572653D02*
X85065462Y-82856115D01*
X85065462Y-82856115D02*
X85065462Y-79002854D01*
X85065462Y-79002854D02*
X85065462Y-78437169D01*
X85157886Y-78350205D02*
X85070922Y-78437169D01*
X85070922Y-78437169D02*
X85065462Y-78437169D01*
X104902000Y-66929000D02*
X104902000Y-65868340D01*
X104902000Y-65868340D02*
X104902000Y-59309000D01*
X105791000Y-62865000D02*
X104902000Y-61976000D01*
X104902000Y-61976000D02*
X104902000Y-59309000D01*
X121989315Y-62865000D02*
X105791000Y-62865000D01*
X122682000Y-62992000D02*
X122116315Y-62992000D01*
X122116315Y-62992000D02*
X121989315Y-62865000D01*
X119253000Y-68961000D02*
X119902000Y-68312000D01*
X119902000Y-68312000D02*
X119902000Y-66929000D01*
X111125000Y-68961000D02*
X119253000Y-68961000D01*
X107714999Y-72371001D02*
X111125000Y-68961000D01*
X106680000Y-72771000D02*
X107079999Y-72371001D01*
X107079999Y-72371001D02*
X107714999Y-72371001D01*
X150582000Y-59309000D02*
X150582000Y-66889000D01*
X150582000Y-66889000D02*
X150622000Y-66929000D01*
X151130000Y-63627000D02*
X150622000Y-64135000D01*
X150622000Y-64135000D02*
X150622000Y-66929000D01*
X168021000Y-63627000D02*
X151130000Y-63627000D01*
X153543000Y-70739000D02*
X153543000Y-70713391D01*
X153543000Y-70713391D02*
X154152391Y-70104000D01*
X154152391Y-70104000D02*
X163576000Y-70104000D01*
X163576000Y-70104000D02*
X165622000Y-68058000D01*
X165622000Y-68058000D02*
X165622000Y-66929000D01*
X163242000Y-99949000D02*
X163242000Y-96568882D01*
X167735882Y-92075000D02*
X176993912Y-92075000D01*
X171507685Y-83009901D02*
X170942000Y-83009901D01*
X163242000Y-96568882D02*
X167735882Y-92075000D01*
X176993912Y-92075000D02*
X178181000Y-90887912D01*
X178181000Y-90887912D02*
X178181000Y-83704998D01*
X178181000Y-83704998D02*
X177485903Y-83009901D01*
X177485903Y-83009901D02*
X171507685Y-83009901D01*
X165742000Y-99949000D02*
X165742000Y-97596041D01*
X165742000Y-97596041D02*
X169857087Y-93480954D01*
X169857087Y-93480954D02*
X177528974Y-93480954D01*
X177528974Y-93480954D02*
X179246263Y-91763665D01*
X179246263Y-91763665D02*
X179246263Y-83615263D01*
X179246263Y-83615263D02*
X177140010Y-81509010D01*
X177140010Y-81509010D02*
X171055559Y-81509010D01*
X171055559Y-81509010D02*
X170489874Y-81509010D01*
X170742000Y-99949000D02*
X170742000Y-96066310D01*
X170742000Y-96066310D02*
X172014195Y-94794115D01*
X172014195Y-94794115D02*
X178153457Y-94794115D01*
X180116796Y-82961796D02*
X177444061Y-80289061D01*
X178153457Y-94794115D02*
X180116796Y-92830776D01*
X180116796Y-92830776D02*
X180116796Y-82961796D01*
X177444061Y-80289061D02*
X164757441Y-80289061D01*
X196302000Y-59309000D02*
X196302000Y-66929000D01*
X196469000Y-63881000D02*
X196302000Y-64048000D01*
X196302000Y-64048000D02*
X196302000Y-66929000D01*
X214122000Y-63881000D02*
X196469000Y-63881000D01*
X199517000Y-71247000D02*
X201168000Y-69596000D01*
X201168000Y-69596000D02*
X209857744Y-69596000D01*
X209857744Y-69596000D02*
X211291372Y-68162372D01*
X211291372Y-68162372D02*
X211302000Y-68173000D01*
X211302000Y-68173000D02*
X211302000Y-66929000D01*
X203882000Y-99949000D02*
X203882000Y-97997902D01*
X203882000Y-97997902D02*
X210947902Y-90932000D01*
X210947902Y-90932000D02*
X220594609Y-90932000D01*
X221823735Y-83027929D02*
X221345806Y-82550000D01*
X221345806Y-82550000D02*
X220494924Y-82550000D01*
X220594609Y-90932000D02*
X221823735Y-89702874D01*
X221823735Y-89702874D02*
X221823735Y-83027929D01*
X206382000Y-99949000D02*
X206382000Y-98477756D01*
X212791050Y-92068706D02*
X222244689Y-92068706D01*
X206382000Y-98477756D02*
X212791050Y-92068706D01*
X222244689Y-92068706D02*
X223588195Y-90725200D01*
X223588195Y-90725200D02*
X223588195Y-82326144D01*
X223588195Y-82326144D02*
X222195650Y-80933599D01*
X222195650Y-80933599D02*
X220491210Y-80933599D01*
X208882000Y-99949000D02*
X208882000Y-97986900D01*
X208882000Y-97986900D02*
X212634900Y-94234000D01*
X212634900Y-94234000D02*
X222471866Y-94234000D01*
X222471866Y-94234000D02*
X229254924Y-87450942D01*
X229254924Y-87450942D02*
X229254924Y-81536385D01*
X229254924Y-81536385D02*
X228838955Y-81120416D01*
X228838955Y-81120416D02*
X227965000Y-81120416D01*
X102282000Y-106934000D02*
X102282000Y-108016341D01*
X102282000Y-108016341D02*
X101506849Y-108791492D01*
X101506849Y-108791492D02*
X96558869Y-108791492D01*
X96558869Y-108791492D02*
X95420652Y-107653275D01*
X95420652Y-107653275D02*
X95420652Y-94808000D01*
X78214643Y-75688708D02*
X78214643Y-75123023D01*
X95420652Y-94808000D02*
X78214643Y-77601991D01*
X78214643Y-77601991D02*
X78214643Y-75688708D01*
X94542000Y-66929000D02*
X94542000Y-62753244D01*
X94542000Y-62753244D02*
X93513631Y-61724875D01*
X93513631Y-61724875D02*
X82388151Y-61724875D01*
X82388151Y-61724875D02*
X81822466Y-61724875D01*
X101095849Y-105848967D02*
X101081999Y-105835117D01*
X101081999Y-105835117D02*
X101081999Y-97314890D01*
X101081999Y-97314890D02*
X86434412Y-82667303D01*
X86434412Y-82667303D02*
X86434412Y-79443510D01*
X86434412Y-79443510D02*
X86434412Y-78877825D01*
X99982000Y-106934000D02*
X101081999Y-105834001D01*
X90923497Y-83547610D02*
X91050186Y-83547610D01*
X91050186Y-83547610D02*
X111282263Y-103779687D01*
X111282263Y-103779687D02*
X113771313Y-103779687D01*
X113771313Y-103779687D02*
X115022000Y-105030374D01*
X115022000Y-105030374D02*
X115022000Y-106934000D01*
X111273865Y-108455180D02*
X110393486Y-108455180D01*
X110393486Y-108455180D02*
X103581999Y-101643693D01*
X103581999Y-101643693D02*
X103581999Y-98196922D01*
X103581999Y-98196922D02*
X87604797Y-82219720D01*
X87604797Y-82219720D02*
X87604797Y-79651286D01*
X87604797Y-79651286D02*
X87604797Y-79085601D01*
X85852000Y-72009000D02*
X88373693Y-72009000D01*
X88373693Y-72009000D02*
X89542000Y-70840693D01*
X89542000Y-70840693D02*
X89542000Y-66929000D01*
X130462000Y-106934000D02*
X128919188Y-108476812D01*
X128919188Y-108476812D02*
X111230600Y-108476812D01*
X145702000Y-107329813D02*
X145370884Y-106998697D01*
X145370884Y-106998697D02*
X145370884Y-104117101D01*
X145370884Y-104117101D02*
X144286858Y-103033075D01*
X136449048Y-97586258D02*
X109390558Y-97586258D01*
X144286858Y-103033075D02*
X141895865Y-103033075D01*
X109390558Y-97586258D02*
X92590670Y-80786370D01*
X141895865Y-103033075D02*
X136449048Y-97586258D01*
X92590670Y-80786370D02*
X91783727Y-80786370D01*
X163957000Y-75184000D02*
X210947000Y-75184000D01*
X118237000Y-75184000D02*
X163957000Y-75184000D01*
X98552000Y-75184000D02*
X118237000Y-75184000D01*
X83312000Y-75184000D02*
X98552000Y-75184000D01*
X210358396Y-89154000D02*
X210443612Y-89068784D01*
X191262000Y-89154000D02*
X210358396Y-89154000D01*
X56642000Y-82089000D02*
X62267923Y-82089000D01*
X62267923Y-82089000D02*
X63183450Y-83004527D01*
X63183450Y-83004527D02*
X63183450Y-87993866D01*
X63183450Y-87993866D02*
X64445779Y-89256195D01*
X64445779Y-89256195D02*
X83521845Y-89256195D01*
X83521845Y-89256195D02*
X83566000Y-89300350D01*
X83566000Y-89300350D02*
X83566000Y-89281000D01*
X163957000Y-89154000D02*
X177292000Y-89154000D01*
X118237000Y-89154000D02*
X163957000Y-89154000D01*
X118237000Y-89154000D02*
X105469528Y-89154000D01*
X105469528Y-89154000D02*
X105390064Y-89074536D01*
X56642000Y-79589000D02*
X61988984Y-79589000D01*
X61988984Y-79589000D02*
X64768206Y-82368222D01*
X64768206Y-82368222D02*
X64768206Y-86367555D01*
X64768206Y-86367555D02*
X65168205Y-86767554D01*
X159569685Y-79439051D02*
X159004000Y-79439051D01*
X181062000Y-99949000D02*
X181062000Y-82346752D01*
X181062000Y-82346752D02*
X178154299Y-79439051D01*
X178154299Y-79439051D02*
X159569685Y-79439051D01*
X180763340Y-101557660D02*
X181062000Y-101259000D01*
X181062000Y-101259000D02*
X181062000Y-99949000D01*
X161290000Y-101557660D02*
X180763340Y-101557660D01*
X160742000Y-99949000D02*
X160742000Y-101009660D01*
X160742000Y-101009660D02*
X161290000Y-101557660D01*
X185982000Y-66929000D02*
X189495048Y-66929000D01*
X189495048Y-66929000D02*
X189905952Y-67339904D01*
X189905952Y-67339904D02*
X189905952Y-68180996D01*
X189905952Y-68180996D02*
X189967731Y-68242775D01*
X191062000Y-99949000D02*
X191062000Y-99668201D01*
X191062000Y-99668201D02*
X189992000Y-98598201D01*
X189992000Y-98598201D02*
X189992000Y-76708000D01*
X173355000Y-63246000D02*
X183896000Y-63246000D01*
X183896000Y-63246000D02*
X185982000Y-65332000D01*
X185982000Y-65332000D02*
X185982000Y-66929000D01*
X188562000Y-99949000D02*
X188562000Y-85198624D01*
X180896775Y-77533399D02*
X180496776Y-77133400D01*
X188562000Y-85198624D02*
X180896775Y-77533399D01*
X173228000Y-70739000D02*
X179710474Y-70739000D01*
X179710474Y-70739000D02*
X180982000Y-69467474D01*
X180982000Y-69467474D02*
X180982000Y-66929000D01*
X186062000Y-99949000D02*
X186240948Y-99770052D01*
X186240948Y-99770052D02*
X186240948Y-84555485D01*
X186240948Y-84555485D02*
X177885463Y-76200000D01*
X177885463Y-76200000D02*
X173228000Y-76200000D01*
X183562000Y-99949000D02*
X183562000Y-83611229D01*
X183562000Y-83611229D02*
X177928771Y-77978000D01*
X221702000Y-99949000D02*
X221702000Y-101767000D01*
X221702000Y-101767000D02*
X220726000Y-102743000D01*
X220726000Y-102743000D02*
X202184000Y-102743000D01*
X202184000Y-102743000D02*
X201377778Y-101936778D01*
X201377778Y-101936778D02*
X201377778Y-101013882D01*
X201377778Y-101013882D02*
X201382000Y-101009660D01*
X201382000Y-101009660D02*
X201382000Y-99949000D01*
X205740000Y-79883000D02*
X230597711Y-79883000D01*
X230597711Y-79883000D02*
X231111761Y-80397050D01*
X231111761Y-80397050D02*
X231111761Y-87901858D01*
X231111761Y-87901858D02*
X221702000Y-97311619D01*
X221702000Y-97311619D02*
X221702000Y-99949000D01*
X231702000Y-66929000D02*
X231702000Y-71988645D01*
X231702000Y-71988645D02*
X229723953Y-73966692D01*
X229723953Y-73966692D02*
X218835529Y-73966692D01*
X218835529Y-73966692D02*
X218269844Y-73966692D01*
X231702000Y-99949000D02*
X231702000Y-95792616D01*
X231702000Y-95792616D02*
X236220000Y-91274616D01*
X236220000Y-91274616D02*
X236220000Y-68325362D01*
X236220000Y-68325362D02*
X234823638Y-66929000D01*
X234823638Y-66929000D02*
X231702000Y-66929000D01*
X229202000Y-99949000D02*
X229202000Y-96273331D01*
X229202000Y-96273331D02*
X235331000Y-90144331D01*
X235331000Y-90144331D02*
X235331000Y-77583084D01*
X235331000Y-77583084D02*
X232804916Y-75057000D01*
X232804916Y-75057000D02*
X229202000Y-75057000D01*
X226702000Y-99949000D02*
X226702000Y-96725199D01*
X234442000Y-78869303D02*
X231772697Y-76200000D01*
X226702000Y-96725199D02*
X234442000Y-88985199D01*
X234442000Y-88985199D02*
X234442000Y-78869303D01*
X231772697Y-76200000D02*
X219529419Y-76200000D01*
X226702000Y-66929000D02*
X226702000Y-70173245D01*
X226702000Y-70173245D02*
X224948445Y-71926800D01*
X224948445Y-71926800D02*
X220095104Y-71926800D01*
X220095104Y-71926800D02*
X219529419Y-71926800D01*
X224202000Y-99949000D02*
X224951999Y-99199001D01*
X224951999Y-99199001D02*
X224951999Y-96398221D01*
X224951999Y-96398221D02*
X232898471Y-88451749D01*
X232898471Y-88451749D02*
X232898471Y-79555185D01*
X231448286Y-78105000D02*
X224202000Y-78105000D01*
X232898471Y-79555185D02*
X231448286Y-78105000D01*
X135262000Y-66929000D02*
X135262000Y-70051824D01*
X135262000Y-70051824D02*
X133567280Y-71746544D01*
X133567280Y-71746544D02*
X127808822Y-71746544D01*
X127808822Y-71746544D02*
X127243137Y-71746544D01*
X140262000Y-66929000D02*
X140262000Y-64784671D01*
X140262000Y-64784671D02*
X139260136Y-63782807D01*
X139260136Y-63782807D02*
X126609347Y-63782807D01*
X126609347Y-63782807D02*
X126043662Y-63782807D01*
X69342000Y-75184000D02*
X69342000Y-74117101D01*
X69342000Y-74117101D02*
X70062847Y-73396254D01*
X70062847Y-73396254D02*
X96410135Y-73396254D01*
X96410135Y-73396254D02*
X96975820Y-73396254D01*
X104254997Y-79834308D02*
X104254997Y-82881405D01*
X149803462Y-84285310D02*
X150203461Y-84685309D01*
X104254997Y-82881405D02*
X105658902Y-84285310D01*
X105658902Y-84285310D02*
X149803462Y-84285310D01*
X196893305Y-84074000D02*
X191262000Y-84074000D01*
X177292000Y-84074000D02*
X151888016Y-84074000D01*
X151888016Y-84074000D02*
X150176740Y-82362724D01*
X150176740Y-82362724D02*
X150176740Y-80215205D01*
X150176740Y-80215205D02*
X150165355Y-80203820D01*
X196893305Y-84074000D02*
X196916029Y-84096724D01*
D17*
G36*
X234105500Y-53654219D02*
X234104501Y-54798760D01*
X234541576Y-55856561D01*
X235350182Y-56666580D01*
X236407219Y-57105500D01*
X237551760Y-57106499D01*
X238125000Y-56869641D01*
X238125000Y-117625140D01*
X237480220Y-117357404D01*
X236335679Y-117356405D01*
X235277878Y-117793480D01*
X234467859Y-118602086D01*
X234028939Y-119659123D01*
X234027940Y-120803664D01*
X234279300Y-121412000D01*
X213327000Y-121412000D01*
X213327000Y-115784772D01*
X213418674Y-115563996D01*
X213419325Y-114817280D01*
X213134171Y-114127154D01*
X212606624Y-113598684D01*
X211916996Y-113312326D01*
X211170280Y-113311675D01*
X210480154Y-113596829D01*
X210292135Y-113784520D01*
X210106624Y-113598684D01*
X209416996Y-113312326D01*
X208670280Y-113311675D01*
X207980154Y-113596829D01*
X207792135Y-113784520D01*
X207606624Y-113598684D01*
X206916996Y-113312326D01*
X206170280Y-113311675D01*
X205480154Y-113596829D01*
X204961308Y-114114768D01*
X204948966Y-114102426D01*
X204833911Y-114217481D01*
X204765923Y-113976540D01*
X204246829Y-113791799D01*
X203696552Y-113819770D01*
X203318077Y-113976540D01*
X203250088Y-114217483D01*
X204042000Y-115009395D01*
X204056143Y-114995253D01*
X204235748Y-115174858D01*
X204221605Y-115189000D01*
X204235748Y-115203143D01*
X204056143Y-115382748D01*
X204042000Y-115368605D01*
X203250088Y-116160517D01*
X203281828Y-116273000D01*
X198123946Y-116273000D01*
X198126880Y-116205517D01*
X198118315Y-116153841D01*
X198091035Y-116111447D01*
X198049410Y-116083006D01*
X198006750Y-116074367D01*
X198218674Y-115563996D01*
X198219179Y-114984171D01*
X202644799Y-114984171D01*
X202672770Y-115534448D01*
X202829540Y-115912923D01*
X203070483Y-115980912D01*
X203862395Y-115189000D01*
X203070483Y-114397088D01*
X202829540Y-114465077D01*
X202644799Y-114984171D01*
X198219179Y-114984171D01*
X198219325Y-114817280D01*
X197934171Y-114127154D01*
X197406624Y-113598684D01*
X196716996Y-113312326D01*
X195970280Y-113311675D01*
X195280154Y-113596829D01*
X195092135Y-113784520D01*
X194906624Y-113598684D01*
X194216996Y-113312326D01*
X193470280Y-113311675D01*
X192780154Y-113596829D01*
X192592135Y-113784520D01*
X192406624Y-113598684D01*
X191716996Y-113312326D01*
X190970280Y-113311675D01*
X190280154Y-113596829D01*
X189761308Y-114114768D01*
X189748966Y-114102426D01*
X189633911Y-114217481D01*
X189565923Y-113976540D01*
X189046829Y-113791799D01*
X188496552Y-113819770D01*
X188118077Y-113976540D01*
X188050088Y-114217483D01*
X188842000Y-115009395D01*
X188856143Y-114995253D01*
X189035748Y-115174858D01*
X189021605Y-115189000D01*
X189035748Y-115203143D01*
X188856143Y-115382748D01*
X188842000Y-115368605D01*
X188827858Y-115382748D01*
X188648253Y-115203143D01*
X188662395Y-115189000D01*
X187870483Y-114397088D01*
X187629540Y-114465077D01*
X187444799Y-114984171D01*
X187472770Y-115534448D01*
X187629540Y-115912923D01*
X187870481Y-115980911D01*
X187778392Y-116073000D01*
X182687317Y-116073000D01*
X182898674Y-115563996D01*
X182899325Y-114817280D01*
X182614171Y-114127154D01*
X182086624Y-113598684D01*
X181396996Y-113312326D01*
X180650280Y-113311675D01*
X179960154Y-113596829D01*
X179772135Y-113784520D01*
X179586624Y-113598684D01*
X178896996Y-113312326D01*
X178150280Y-113311675D01*
X177460154Y-113596829D01*
X177272135Y-113784520D01*
X177086624Y-113598684D01*
X176396996Y-113312326D01*
X175650280Y-113311675D01*
X174960154Y-113596829D01*
X174441308Y-114114768D01*
X174428966Y-114102426D01*
X174313911Y-114217481D01*
X174245923Y-113976540D01*
X173726829Y-113791799D01*
X173176552Y-113819770D01*
X172798077Y-113976540D01*
X172730088Y-114217483D01*
X173522000Y-115009395D01*
X173536143Y-114995253D01*
X173715748Y-115174858D01*
X173701605Y-115189000D01*
X173715748Y-115203143D01*
X173536143Y-115382748D01*
X173522000Y-115368605D01*
X172730088Y-116160517D01*
X172761828Y-116273000D01*
X167312906Y-116273000D01*
X167332316Y-116253624D01*
X167618674Y-115563996D01*
X167619179Y-114984171D01*
X172124799Y-114984171D01*
X172152770Y-115534448D01*
X172309540Y-115912923D01*
X172550483Y-115980912D01*
X173342395Y-115189000D01*
X172550483Y-114397088D01*
X172309540Y-114465077D01*
X172124799Y-114984171D01*
X167619179Y-114984171D01*
X167619325Y-114817280D01*
X167334171Y-114127154D01*
X166806624Y-113598684D01*
X166116996Y-113312326D01*
X165370280Y-113311675D01*
X164680154Y-113596829D01*
X164492135Y-113784520D01*
X164306624Y-113598684D01*
X163616996Y-113312326D01*
X162870280Y-113311675D01*
X162180154Y-113596829D01*
X161992135Y-113784520D01*
X161806624Y-113598684D01*
X161116996Y-113312326D01*
X160370280Y-113311675D01*
X159680154Y-113596829D01*
X159161308Y-114114768D01*
X159148966Y-114102426D01*
X159033911Y-114217481D01*
X158965923Y-113976540D01*
X158446829Y-113791799D01*
X157896552Y-113819770D01*
X157518077Y-113976540D01*
X157450088Y-114217483D01*
X158242000Y-115009395D01*
X158256143Y-114995253D01*
X158435748Y-115174858D01*
X158421605Y-115189000D01*
X158435748Y-115203143D01*
X158256143Y-115382748D01*
X158242000Y-115368605D01*
X157450088Y-116160517D01*
X157481828Y-116273000D01*
X152072906Y-116273000D01*
X152092316Y-116253624D01*
X152378674Y-115563996D01*
X152379179Y-114984171D01*
X156844799Y-114984171D01*
X156872770Y-115534448D01*
X157029540Y-115912923D01*
X157270483Y-115980912D01*
X158062395Y-115189000D01*
X157270483Y-114397088D01*
X157029540Y-114465077D01*
X156844799Y-114984171D01*
X152379179Y-114984171D01*
X152379325Y-114817280D01*
X152094171Y-114127154D01*
X151566624Y-113598684D01*
X150876996Y-113312326D01*
X150130280Y-113311675D01*
X149440154Y-113596829D01*
X149252135Y-113784520D01*
X149066624Y-113598684D01*
X148376996Y-113312326D01*
X147630280Y-113311675D01*
X146940154Y-113596829D01*
X146752135Y-113784520D01*
X146566624Y-113598684D01*
X145876996Y-113312326D01*
X145130280Y-113311675D01*
X144440154Y-113596829D01*
X143921308Y-114114768D01*
X143908966Y-114102426D01*
X143793911Y-114217481D01*
X143725923Y-113976540D01*
X143206829Y-113791799D01*
X142656552Y-113819770D01*
X142278077Y-113976540D01*
X142210088Y-114217483D01*
X143002000Y-115009395D01*
X143016143Y-114995253D01*
X143195748Y-115174858D01*
X143181605Y-115189000D01*
X143195748Y-115203143D01*
X143016143Y-115382748D01*
X143002000Y-115368605D01*
X142210088Y-116160517D01*
X142241828Y-116273000D01*
X137127000Y-116273000D01*
X137127000Y-115592110D01*
X137138674Y-115563996D01*
X137139179Y-114984171D01*
X141604799Y-114984171D01*
X141632770Y-115534448D01*
X141789540Y-115912923D01*
X142030483Y-115980912D01*
X142822395Y-115189000D01*
X142030483Y-114397088D01*
X141789540Y-114465077D01*
X141604799Y-114984171D01*
X137139179Y-114984171D01*
X137139325Y-114817280D01*
X137124311Y-114780944D01*
X137122043Y-114764866D01*
X137100858Y-114724184D01*
X136854171Y-114127154D01*
X136326624Y-113598684D01*
X135636996Y-113312326D01*
X134890280Y-113311675D01*
X134200154Y-113596829D01*
X134012135Y-113784520D01*
X133826624Y-113598684D01*
X133136996Y-113312326D01*
X132390280Y-113311675D01*
X131700154Y-113596829D01*
X131512135Y-113784520D01*
X131326624Y-113598684D01*
X130636996Y-113312326D01*
X129890280Y-113311675D01*
X129200154Y-113596829D01*
X128681308Y-114114768D01*
X128668966Y-114102426D01*
X128553911Y-114217481D01*
X128485923Y-113976540D01*
X127966829Y-113791799D01*
X127416552Y-113819770D01*
X127038077Y-113976540D01*
X126970088Y-114217483D01*
X127762000Y-115009395D01*
X127776143Y-114995253D01*
X127955748Y-115174858D01*
X127941605Y-115189000D01*
X127955748Y-115203143D01*
X127776143Y-115382748D01*
X127762000Y-115368605D01*
X126970088Y-116160517D01*
X127001828Y-116273000D01*
X121592906Y-116273000D01*
X121612316Y-116253624D01*
X121898674Y-115563996D01*
X121899179Y-114984171D01*
X126364799Y-114984171D01*
X126392770Y-115534448D01*
X126549540Y-115912923D01*
X126790483Y-115980912D01*
X127582395Y-115189000D01*
X126790483Y-114397088D01*
X126549540Y-114465077D01*
X126364799Y-114984171D01*
X121899179Y-114984171D01*
X121899325Y-114817280D01*
X121614171Y-114127154D01*
X121086624Y-113598684D01*
X120396996Y-113312326D01*
X119650280Y-113311675D01*
X118960154Y-113596829D01*
X118772135Y-113784520D01*
X118586624Y-113598684D01*
X117896996Y-113312326D01*
X117150280Y-113311675D01*
X116460154Y-113596829D01*
X116272135Y-113784520D01*
X116086624Y-113598684D01*
X115396996Y-113312326D01*
X114650280Y-113311675D01*
X113960154Y-113596829D01*
X113441308Y-114114768D01*
X113428966Y-114102426D01*
X113313911Y-114217481D01*
X113245923Y-113976540D01*
X112726829Y-113791799D01*
X112176552Y-113819770D01*
X111798077Y-113976540D01*
X111730088Y-114217483D01*
X112522000Y-115009395D01*
X112536143Y-114995253D01*
X112715748Y-115174858D01*
X112701605Y-115189000D01*
X112715748Y-115203143D01*
X112536143Y-115382748D01*
X112522000Y-115368605D01*
X112507858Y-115382748D01*
X112328253Y-115203143D01*
X112342395Y-115189000D01*
X111550483Y-114397088D01*
X111309540Y-114465077D01*
X111124799Y-114984171D01*
X111152770Y-115534448D01*
X111169411Y-115574622D01*
X107127000Y-115574622D01*
X107127000Y-112000000D01*
X107118315Y-111953841D01*
X107091035Y-111911447D01*
X107049410Y-111883006D01*
X107000000Y-111873000D01*
X99636877Y-111873000D01*
X99529327Y-111801137D01*
X99040640Y-111703931D01*
X94096079Y-111703931D01*
X94075431Y-111683283D01*
X94075431Y-96066684D01*
X94044172Y-95909534D01*
X93978226Y-95577998D01*
X93701407Y-95163709D01*
X92530219Y-93992522D01*
X92495974Y-93969640D01*
X92115931Y-93715703D01*
X91627244Y-93618497D01*
X81564541Y-93618497D01*
X81547797Y-93601724D01*
X80986763Y-93368762D01*
X80379284Y-93368232D01*
X79817845Y-93600214D01*
X79806655Y-93611384D01*
X74127000Y-93611384D01*
X74127000Y-90533195D01*
X82658389Y-90533195D01*
X82699894Y-90574773D01*
X83260928Y-90807735D01*
X83868407Y-90808265D01*
X84429846Y-90576283D01*
X84859773Y-90147106D01*
X85092735Y-89586072D01*
X85093265Y-88978593D01*
X84861283Y-88417154D01*
X84432106Y-87987227D01*
X83871072Y-87754265D01*
X83263593Y-87753735D01*
X82717938Y-87979195D01*
X66115839Y-87979195D01*
X66461978Y-87633660D01*
X66694940Y-87072626D01*
X66695470Y-86465147D01*
X66463488Y-85903708D01*
X66045206Y-85484695D01*
X66045206Y-82368222D01*
X65948000Y-81879535D01*
X65891551Y-81795053D01*
X65671181Y-81465246D01*
X62891959Y-78686025D01*
X62853212Y-78660135D01*
X62477671Y-78409206D01*
X61988984Y-78312000D01*
X58019393Y-78312000D01*
X57716232Y-78008308D01*
X57728574Y-77995966D01*
X57613519Y-77880911D01*
X57854460Y-77812923D01*
X58039201Y-77293829D01*
X58011230Y-76743552D01*
X57854460Y-76365077D01*
X57613519Y-76297089D01*
X57728574Y-76182034D01*
X57715789Y-76169249D01*
X58232316Y-75653624D01*
X58518674Y-74963996D01*
X58519325Y-74217280D01*
X58234171Y-73527154D01*
X57706624Y-72998684D01*
X57016996Y-72712326D01*
X56270280Y-72711675D01*
X55580154Y-72996829D01*
X55051684Y-73524376D01*
X54765326Y-74214004D01*
X54765184Y-74377022D01*
X53692603Y-75449603D01*
X53372430Y-75928776D01*
X53268606Y-76450735D01*
X53260000Y-76494000D01*
X53260000Y-89789000D01*
X53372430Y-90354224D01*
X53692603Y-90833397D01*
X54673121Y-91813915D01*
X54765660Y-101993200D01*
X54765326Y-101994004D01*
X54764675Y-102740720D01*
X54772631Y-102759974D01*
X54787900Y-104439639D01*
X54765326Y-104494004D01*
X54764675Y-105240720D01*
X54795869Y-105316216D01*
X54810141Y-106886078D01*
X54765326Y-106994004D01*
X54764675Y-107740720D01*
X54819108Y-107872457D01*
X54832381Y-109332517D01*
X54765326Y-109494004D01*
X54764675Y-110240720D01*
X54842346Y-110428699D01*
X54848898Y-111149339D01*
X54833452Y-111171944D01*
X54742921Y-111619000D01*
X54742921Y-113119000D01*
X54821506Y-113536641D01*
X54871304Y-113614029D01*
X54873005Y-113801154D01*
X54881685Y-113846159D01*
X54908965Y-113888553D01*
X54950590Y-113916994D01*
X55000000Y-113927000D01*
X55078255Y-113927000D01*
X55444944Y-114177548D01*
X55892000Y-114268079D01*
X57392000Y-114268079D01*
X57809641Y-114189494D01*
X58193219Y-113942669D01*
X58204504Y-113926153D01*
X58205315Y-113926000D01*
X72269150Y-113926000D01*
X72285894Y-113942773D01*
X72846928Y-114175735D01*
X73454407Y-114176265D01*
X74015846Y-113944283D01*
X74034161Y-113926000D01*
X85933104Y-113926000D01*
X85933104Y-119281185D01*
X86030310Y-119769872D01*
X86227150Y-120064463D01*
X86307129Y-120184160D01*
X87534968Y-121412000D01*
X54154413Y-121412000D01*
X54361367Y-120913600D01*
X54362366Y-119769059D01*
X53925291Y-118711258D01*
X53116685Y-117901239D01*
X52059648Y-117462319D01*
X50915107Y-117461320D01*
X50419000Y-117666308D01*
X50419000Y-69465491D01*
X52705048Y-69465491D01*
X52713685Y-69515159D01*
X52740965Y-69557553D01*
X52782590Y-69585994D01*
X52832000Y-69596000D01*
X67873000Y-69596000D01*
X67873000Y-74739887D01*
X67815265Y-74878928D01*
X67814735Y-75486407D01*
X67873000Y-75627419D01*
X67873000Y-76600000D01*
X67881685Y-76646159D01*
X67908965Y-76688553D01*
X67950590Y-76716994D01*
X68000000Y-76727000D01*
X76937643Y-76727000D01*
X76937643Y-77601991D01*
X77034849Y-78090678D01*
X77280440Y-78458230D01*
X77311668Y-78504966D01*
X94143652Y-95336951D01*
X94143652Y-107653275D01*
X94240858Y-108141962D01*
X94486511Y-108509607D01*
X94517677Y-108556250D01*
X95655894Y-109694467D01*
X96070182Y-109971286D01*
X96558869Y-110068492D01*
X101506849Y-110068492D01*
X101995536Y-109971286D01*
X102409824Y-109694467D01*
X102477291Y-109627000D01*
X109892865Y-109627000D01*
X109904799Y-109634974D01*
X110393486Y-109732180D01*
X111121849Y-109732180D01*
X111230600Y-109753812D01*
X128919188Y-109753812D01*
X129407875Y-109656606D01*
X129822163Y-109379787D01*
X129824950Y-109377000D01*
X152750000Y-109377000D01*
X152796159Y-109368315D01*
X152838553Y-109341035D01*
X152866994Y-109299410D01*
X152877000Y-109250000D01*
X152877000Y-97250000D01*
X152871026Y-97211507D01*
X152846515Y-97167454D01*
X152806796Y-97136408D01*
X149806796Y-95636408D01*
X149750000Y-95623000D01*
X145120945Y-95623000D01*
X145077852Y-95594206D01*
X144589165Y-95497000D01*
X120127000Y-95497000D01*
X120127000Y-90431000D01*
X163074150Y-90431000D01*
X163090894Y-90447773D01*
X163651928Y-90680735D01*
X164259407Y-90681265D01*
X164820846Y-90449283D01*
X164839161Y-90431000D01*
X176409150Y-90431000D01*
X176425894Y-90447773D01*
X176700968Y-90561994D01*
X176464962Y-90798000D01*
X167735882Y-90798000D01*
X167247195Y-90895206D01*
X166900675Y-91126744D01*
X166832907Y-91172025D01*
X162339025Y-95665907D01*
X162062206Y-96080195D01*
X161965000Y-96568882D01*
X161965000Y-98517337D01*
X161806624Y-98358684D01*
X161116996Y-98072326D01*
X160370280Y-98071675D01*
X159680154Y-98356829D01*
X159492135Y-98544520D01*
X159306624Y-98358684D01*
X158616996Y-98072326D01*
X157870280Y-98071675D01*
X157180154Y-98356829D01*
X156651684Y-98884376D01*
X156365326Y-99574004D01*
X156364675Y-100320720D01*
X156649829Y-101010846D01*
X157177376Y-101539316D01*
X157867004Y-101825674D01*
X158613720Y-101826325D01*
X159303846Y-101541171D01*
X159491865Y-101353480D01*
X159543724Y-101405430D01*
X159562206Y-101498347D01*
X159795890Y-101848079D01*
X159839025Y-101912635D01*
X160387025Y-102460635D01*
X160801313Y-102737454D01*
X161290000Y-102834660D01*
X180763340Y-102834660D01*
X181252027Y-102737454D01*
X181666315Y-102460635D01*
X181964975Y-102161975D01*
X181986274Y-102130099D01*
X182241794Y-101747687D01*
X182318821Y-101360448D01*
X182497376Y-101539316D01*
X183187004Y-101825674D01*
X183933720Y-101826325D01*
X184623846Y-101541171D01*
X184811865Y-101353480D01*
X184997376Y-101539316D01*
X185687004Y-101825674D01*
X186433720Y-101826325D01*
X187123846Y-101541171D01*
X187311865Y-101353480D01*
X187497376Y-101539316D01*
X188187004Y-101825674D01*
X188933720Y-101826325D01*
X189576748Y-101560632D01*
X189864944Y-101757548D01*
X190312000Y-101848079D01*
X191812000Y-101848079D01*
X192229641Y-101769494D01*
X192613219Y-101522669D01*
X192870548Y-101146056D01*
X192961079Y-100699000D01*
X192961079Y-99199000D01*
X192882494Y-98781359D01*
X192635669Y-98397781D01*
X192259056Y-98140452D01*
X191812000Y-98049921D01*
X191269000Y-98049921D01*
X191269000Y-90681007D01*
X191564407Y-90681265D01*
X192125846Y-90449283D01*
X192144161Y-90431000D01*
X205373000Y-90431000D01*
X205373000Y-94700952D01*
X202979025Y-97094927D01*
X202702206Y-97509215D01*
X202605000Y-97997902D01*
X202605000Y-98517337D01*
X202446624Y-98358684D01*
X201756996Y-98072326D01*
X201010280Y-98071675D01*
X200320154Y-98356829D01*
X200132135Y-98544520D01*
X199946624Y-98358684D01*
X199256996Y-98072326D01*
X198510280Y-98071675D01*
X197820154Y-98356829D01*
X197291684Y-98884376D01*
X197005326Y-99574004D01*
X197004675Y-100320720D01*
X197289829Y-101010846D01*
X197817376Y-101539316D01*
X198507004Y-101825674D01*
X199253720Y-101826325D01*
X199943846Y-101541171D01*
X200100778Y-101384513D01*
X200100778Y-101936778D01*
X200197984Y-102425465D01*
X200406449Y-102737454D01*
X200474803Y-102839753D01*
X201281025Y-103645975D01*
X201695313Y-103922794D01*
X202184000Y-104020000D01*
X220726000Y-104020000D01*
X221214687Y-103922794D01*
X221628975Y-103645975D01*
X222604975Y-102669976D01*
X222881794Y-102255687D01*
X222894129Y-102193676D01*
X222979000Y-101767000D01*
X222979000Y-101380663D01*
X223137376Y-101539316D01*
X223827004Y-101825674D01*
X224573720Y-101826325D01*
X225263846Y-101541171D01*
X225451865Y-101353480D01*
X225637376Y-101539316D01*
X226327004Y-101825674D01*
X227073720Y-101826325D01*
X227763846Y-101541171D01*
X227951865Y-101353480D01*
X228137376Y-101539316D01*
X228827004Y-101825674D01*
X229573720Y-101826325D01*
X230216748Y-101560632D01*
X230504944Y-101757548D01*
X230952000Y-101848079D01*
X232452000Y-101848079D01*
X232869641Y-101769494D01*
X233253219Y-101522669D01*
X233510548Y-101146056D01*
X233601079Y-100699000D01*
X233601079Y-99199000D01*
X233522494Y-98781359D01*
X233275669Y-98397781D01*
X232979000Y-98195075D01*
X232979000Y-96321566D01*
X237122975Y-92177591D01*
X237235186Y-92009656D01*
X237399794Y-91763303D01*
X237497000Y-91274616D01*
X237497000Y-68325362D01*
X237399794Y-67836675D01*
X237122975Y-67422387D01*
X235726613Y-66026025D01*
X235634482Y-65964465D01*
X235312325Y-65749206D01*
X234823638Y-65652000D01*
X233637670Y-65652000D01*
X233552223Y-64882975D01*
X233544315Y-64850841D01*
X233517035Y-64808447D01*
X233475410Y-64780006D01*
X233426000Y-64770000D01*
X216662000Y-64770000D01*
X216615841Y-64778685D01*
X216573447Y-64805965D01*
X216545006Y-64847590D01*
X216535000Y-64897000D01*
X216535000Y-78606000D01*
X206622850Y-78606000D01*
X206606106Y-78589227D01*
X206045072Y-78356265D01*
X205437593Y-78355735D01*
X204876154Y-78587717D01*
X204446227Y-79016894D01*
X204213265Y-79577928D01*
X204213008Y-79873000D01*
X201250000Y-79873000D01*
X201203841Y-79881685D01*
X201161447Y-79908965D01*
X201133006Y-79950590D01*
X201123000Y-80000000D01*
X201123000Y-87877000D01*
X192144850Y-87877000D01*
X192128106Y-87860227D01*
X191567072Y-87627265D01*
X191269000Y-87627005D01*
X191269000Y-85601007D01*
X191564407Y-85601265D01*
X192125846Y-85369283D01*
X192144161Y-85351000D01*
X196010455Y-85351000D01*
X196027199Y-85367773D01*
X196588233Y-85600735D01*
X197195712Y-85601265D01*
X197757151Y-85369283D01*
X198187078Y-84940106D01*
X198420040Y-84379072D01*
X198420570Y-83771593D01*
X198188588Y-83210154D01*
X197759411Y-82780227D01*
X197377000Y-82621436D01*
X197377000Y-76461000D01*
X210064150Y-76461000D01*
X210080894Y-76477773D01*
X210641928Y-76710735D01*
X211249407Y-76711265D01*
X211810846Y-76479283D01*
X212240773Y-76050106D01*
X212473735Y-75489072D01*
X212474265Y-74881593D01*
X212242283Y-74320154D01*
X211813106Y-73890227D01*
X211252072Y-73657265D01*
X210644593Y-73656735D01*
X210083154Y-73888717D01*
X210064839Y-73907000D01*
X164839850Y-73907000D01*
X164823106Y-73890227D01*
X164262072Y-73657265D01*
X163654593Y-73656735D01*
X163093154Y-73888717D01*
X163074839Y-73907000D01*
X141995278Y-73907000D01*
X142011618Y-71880886D01*
X145669005Y-71880886D01*
X145677685Y-71928159D01*
X145704965Y-71970553D01*
X145746590Y-71998994D01*
X145796000Y-72009000D01*
X152653162Y-72009000D01*
X152676894Y-72032773D01*
X153237928Y-72265735D01*
X153845407Y-72266265D01*
X154406846Y-72034283D01*
X154432173Y-72009000D01*
X169672000Y-72009000D01*
X169717120Y-72000715D01*
X169759751Y-71973808D01*
X169788556Y-71932434D01*
X169798995Y-71883114D01*
X169879092Y-62751947D01*
X171308015Y-62751947D01*
X171450015Y-72010947D01*
X171458685Y-72055159D01*
X171485965Y-72097553D01*
X171527590Y-72125994D01*
X171577000Y-72136000D01*
X172610492Y-72136000D01*
X172922928Y-72265735D01*
X173530407Y-72266265D01*
X173845672Y-72136000D01*
X181102000Y-72136000D01*
X181149789Y-72126666D01*
X181191803Y-72098803D01*
X183059606Y-70231000D01*
X196278500Y-70231000D01*
X198145400Y-72720200D01*
X198197590Y-72760994D01*
X198247000Y-72771000D01*
X199205341Y-72771000D01*
X199211928Y-72773735D01*
X199819407Y-72774265D01*
X199827309Y-72771000D01*
X200787000Y-72771000D01*
X200856937Y-72750008D01*
X200892670Y-72714447D01*
X202120301Y-70873000D01*
X209857744Y-70873000D01*
X209892935Y-70866000D01*
X212217000Y-70866000D01*
X212267951Y-70855332D01*
X212309196Y-70826344D01*
X212335914Y-70783593D01*
X214207783Y-65791942D01*
X215491631Y-65876724D01*
X215546159Y-65868315D01*
X215588553Y-65841035D01*
X215616994Y-65799410D01*
X215627000Y-65750000D01*
X215627000Y-64238416D01*
X215648735Y-64186072D01*
X215649265Y-63578593D01*
X215627000Y-63524708D01*
X215627000Y-62750000D01*
X215618315Y-62703841D01*
X215591035Y-62661447D01*
X215549410Y-62633006D01*
X215519752Y-62627000D01*
X233750000Y-62627000D01*
X233796159Y-62618315D01*
X233838553Y-62591035D01*
X233866994Y-62549410D01*
X233877000Y-62500000D01*
X233877000Y-57250000D01*
X233868315Y-57203841D01*
X233841035Y-57161447D01*
X233799410Y-57133006D01*
X233750000Y-57123000D01*
X192000000Y-57123000D01*
X191953841Y-57131685D01*
X191911447Y-57158965D01*
X191883006Y-57200590D01*
X191873000Y-57250000D01*
X191873000Y-62500000D01*
X191881685Y-62546159D01*
X191908965Y-62588553D01*
X191950590Y-62616994D01*
X191980248Y-62623000D01*
X185078950Y-62623000D01*
X184798975Y-62343025D01*
X184782051Y-62331717D01*
X184384687Y-62066206D01*
X183896000Y-61969000D01*
X174237850Y-61969000D01*
X174221106Y-61952227D01*
X173660072Y-61719265D01*
X173052593Y-61718735D01*
X172491154Y-61950717D01*
X172061227Y-62379894D01*
X171960280Y-62623000D01*
X171435000Y-62623000D01*
X171387032Y-62632407D01*
X171345061Y-62660334D01*
X171317262Y-62702390D01*
X171308015Y-62751947D01*
X169879092Y-62751947D01*
X169915872Y-58559000D01*
X171582921Y-58559000D01*
X171582921Y-60059000D01*
X171661506Y-60476641D01*
X171908331Y-60860219D01*
X172284944Y-61117548D01*
X172732000Y-61208079D01*
X174232000Y-61208079D01*
X174649641Y-61129494D01*
X174972061Y-60922023D01*
X175607004Y-61185674D01*
X176353720Y-61186325D01*
X177043846Y-60901171D01*
X177231865Y-60713480D01*
X177417376Y-60899316D01*
X178107004Y-61185674D01*
X178853720Y-61186325D01*
X179543846Y-60901171D01*
X179731865Y-60713480D01*
X179917376Y-60899316D01*
X180607004Y-61185674D01*
X181353720Y-61186325D01*
X182043846Y-60901171D01*
X182231865Y-60713480D01*
X182417376Y-60899316D01*
X183107004Y-61185674D01*
X183853720Y-61186325D01*
X184543846Y-60901171D01*
X184731865Y-60713480D01*
X184917376Y-60899316D01*
X185607004Y-61185674D01*
X186353720Y-61186325D01*
X187043846Y-60901171D01*
X187572316Y-60373624D01*
X187858674Y-59683996D01*
X187859325Y-58937280D01*
X187574171Y-58247154D01*
X187046624Y-57718684D01*
X186356996Y-57432326D01*
X185610280Y-57431675D01*
X184920154Y-57716829D01*
X184732135Y-57904520D01*
X184546624Y-57718684D01*
X183856996Y-57432326D01*
X183110280Y-57431675D01*
X182420154Y-57716829D01*
X182232135Y-57904520D01*
X182046624Y-57718684D01*
X181356996Y-57432326D01*
X180610280Y-57431675D01*
X179920154Y-57716829D01*
X179732135Y-57904520D01*
X179546624Y-57718684D01*
X178856996Y-57432326D01*
X178110280Y-57431675D01*
X177420154Y-57716829D01*
X177232135Y-57904520D01*
X177046624Y-57718684D01*
X176356996Y-57432326D01*
X175610280Y-57431675D01*
X174967252Y-57697368D01*
X174679056Y-57500452D01*
X174232000Y-57409921D01*
X172732000Y-57409921D01*
X172314359Y-57488506D01*
X171930781Y-57735331D01*
X171673452Y-58111944D01*
X171582921Y-58559000D01*
X169915872Y-58559000D01*
X169925995Y-57405114D01*
X169917315Y-57357841D01*
X169890035Y-57315447D01*
X169848410Y-57287006D01*
X169799000Y-57277000D01*
X145923000Y-57277000D01*
X145877880Y-57285285D01*
X145835249Y-57312192D01*
X145806444Y-57353566D01*
X145796005Y-57402886D01*
X145669005Y-71880886D01*
X142011618Y-71880886D01*
X142017731Y-71122904D01*
X142046159Y-71118315D01*
X142088553Y-71091035D01*
X142116994Y-71049410D01*
X142127000Y-71000000D01*
X142127000Y-67332110D01*
X142138674Y-67303996D01*
X142139325Y-66557280D01*
X142127000Y-66527451D01*
X142127000Y-59712110D01*
X142138674Y-59683996D01*
X142139325Y-58937280D01*
X142127000Y-58907451D01*
X142127000Y-56750000D01*
X142118315Y-56703841D01*
X142091035Y-56661447D01*
X142049410Y-56633006D01*
X142000000Y-56623000D01*
X94750000Y-56623000D01*
X94697224Y-56634485D01*
X94686881Y-56642000D01*
X54102000Y-56642000D01*
X54055841Y-56650685D01*
X54013447Y-56677965D01*
X53985006Y-56719590D01*
X53975000Y-56769000D01*
X53975000Y-69342000D01*
X52832000Y-69342000D01*
X52789127Y-69349455D01*
X52745995Y-69375554D01*
X52716416Y-69416377D01*
X52705048Y-69465491D01*
X50419000Y-69465491D01*
X50419000Y-56869555D01*
X50987219Y-57105500D01*
X52131760Y-57106499D01*
X53189561Y-56669424D01*
X53999580Y-55860818D01*
X54438500Y-54803781D01*
X54439499Y-53659240D01*
X54202641Y-53086000D01*
X234341445Y-53086000D01*
X234105500Y-53654219D01*
X234105500Y-53654219D01*
G37*
X234105500Y-53654219D02*
X234104501Y-54798760D01*
X234541576Y-55856561D01*
X235350182Y-56666580D01*
X236407219Y-57105500D01*
X237551760Y-57106499D01*
X238125000Y-56869641D01*
X238125000Y-117625140D01*
X237480220Y-117357404D01*
X236335679Y-117356405D01*
X235277878Y-117793480D01*
X234467859Y-118602086D01*
X234028939Y-119659123D01*
X234027940Y-120803664D01*
X234279300Y-121412000D01*
X213327000Y-121412000D01*
X213327000Y-115784772D01*
X213418674Y-115563996D01*
X213419325Y-114817280D01*
X213134171Y-114127154D01*
X212606624Y-113598684D01*
X211916996Y-113312326D01*
X211170280Y-113311675D01*
X210480154Y-113596829D01*
X210292135Y-113784520D01*
X210106624Y-113598684D01*
X209416996Y-113312326D01*
X208670280Y-113311675D01*
X207980154Y-113596829D01*
X207792135Y-113784520D01*
X207606624Y-113598684D01*
X206916996Y-113312326D01*
X206170280Y-113311675D01*
X205480154Y-113596829D01*
X204961308Y-114114768D01*
X204948966Y-114102426D01*
X204833911Y-114217481D01*
X204765923Y-113976540D01*
X204246829Y-113791799D01*
X203696552Y-113819770D01*
X203318077Y-113976540D01*
X203250088Y-114217483D01*
X204042000Y-115009395D01*
X204056143Y-114995253D01*
X204235748Y-115174858D01*
X204221605Y-115189000D01*
X204235748Y-115203143D01*
X204056143Y-115382748D01*
X204042000Y-115368605D01*
X203250088Y-116160517D01*
X203281828Y-116273000D01*
X198123946Y-116273000D01*
X198126880Y-116205517D01*
X198118315Y-116153841D01*
X198091035Y-116111447D01*
X198049410Y-116083006D01*
X198006750Y-116074367D01*
X198218674Y-115563996D01*
X198219179Y-114984171D01*
X202644799Y-114984171D01*
X202672770Y-115534448D01*
X202829540Y-115912923D01*
X203070483Y-115980912D01*
X203862395Y-115189000D01*
X203070483Y-114397088D01*
X202829540Y-114465077D01*
X202644799Y-114984171D01*
X198219179Y-114984171D01*
X198219325Y-114817280D01*
X197934171Y-114127154D01*
X197406624Y-113598684D01*
X196716996Y-113312326D01*
X195970280Y-113311675D01*
X195280154Y-113596829D01*
X195092135Y-113784520D01*
X194906624Y-113598684D01*
X194216996Y-113312326D01*
X193470280Y-113311675D01*
X192780154Y-113596829D01*
X192592135Y-113784520D01*
X192406624Y-113598684D01*
X191716996Y-113312326D01*
X190970280Y-113311675D01*
X190280154Y-113596829D01*
X189761308Y-114114768D01*
X189748966Y-114102426D01*
X189633911Y-114217481D01*
X189565923Y-113976540D01*
X189046829Y-113791799D01*
X188496552Y-113819770D01*
X188118077Y-113976540D01*
X188050088Y-114217483D01*
X188842000Y-115009395D01*
X188856143Y-114995253D01*
X189035748Y-115174858D01*
X189021605Y-115189000D01*
X189035748Y-115203143D01*
X188856143Y-115382748D01*
X188842000Y-115368605D01*
X188827858Y-115382748D01*
X188648253Y-115203143D01*
X188662395Y-115189000D01*
X187870483Y-114397088D01*
X187629540Y-114465077D01*
X187444799Y-114984171D01*
X187472770Y-115534448D01*
X187629540Y-115912923D01*
X187870481Y-115980911D01*
X187778392Y-116073000D01*
X182687317Y-116073000D01*
X182898674Y-115563996D01*
X182899325Y-114817280D01*
X182614171Y-114127154D01*
X182086624Y-113598684D01*
X181396996Y-113312326D01*
X180650280Y-113311675D01*
X179960154Y-113596829D01*
X179772135Y-113784520D01*
X179586624Y-113598684D01*
X178896996Y-113312326D01*
X178150280Y-113311675D01*
X177460154Y-113596829D01*
X177272135Y-113784520D01*
X177086624Y-113598684D01*
X176396996Y-113312326D01*
X175650280Y-113311675D01*
X174960154Y-113596829D01*
X174441308Y-114114768D01*
X174428966Y-114102426D01*
X174313911Y-114217481D01*
X174245923Y-113976540D01*
X173726829Y-113791799D01*
X173176552Y-113819770D01*
X172798077Y-113976540D01*
X172730088Y-114217483D01*
X173522000Y-115009395D01*
X173536143Y-114995253D01*
X173715748Y-115174858D01*
X173701605Y-115189000D01*
X173715748Y-115203143D01*
X173536143Y-115382748D01*
X173522000Y-115368605D01*
X172730088Y-116160517D01*
X172761828Y-116273000D01*
X167312906Y-116273000D01*
X167332316Y-116253624D01*
X167618674Y-115563996D01*
X167619179Y-114984171D01*
X172124799Y-114984171D01*
X172152770Y-115534448D01*
X172309540Y-115912923D01*
X172550483Y-115980912D01*
X173342395Y-115189000D01*
X172550483Y-114397088D01*
X172309540Y-114465077D01*
X172124799Y-114984171D01*
X167619179Y-114984171D01*
X167619325Y-114817280D01*
X167334171Y-114127154D01*
X166806624Y-113598684D01*
X166116996Y-113312326D01*
X165370280Y-113311675D01*
X164680154Y-113596829D01*
X164492135Y-113784520D01*
X164306624Y-113598684D01*
X163616996Y-113312326D01*
X162870280Y-113311675D01*
X162180154Y-113596829D01*
X161992135Y-113784520D01*
X161806624Y-113598684D01*
X161116996Y-113312326D01*
X160370280Y-113311675D01*
X159680154Y-113596829D01*
X159161308Y-114114768D01*
X159148966Y-114102426D01*
X159033911Y-114217481D01*
X158965923Y-113976540D01*
X158446829Y-113791799D01*
X157896552Y-113819770D01*
X157518077Y-113976540D01*
X157450088Y-114217483D01*
X158242000Y-115009395D01*
X158256143Y-114995253D01*
X158435748Y-115174858D01*
X158421605Y-115189000D01*
X158435748Y-115203143D01*
X158256143Y-115382748D01*
X158242000Y-115368605D01*
X157450088Y-116160517D01*
X157481828Y-116273000D01*
X152072906Y-116273000D01*
X152092316Y-116253624D01*
X152378674Y-115563996D01*
X152379179Y-114984171D01*
X156844799Y-114984171D01*
X156872770Y-115534448D01*
X157029540Y-115912923D01*
X157270483Y-115980912D01*
X158062395Y-115189000D01*
X157270483Y-114397088D01*
X157029540Y-114465077D01*
X156844799Y-114984171D01*
X152379179Y-114984171D01*
X152379325Y-114817280D01*
X152094171Y-114127154D01*
X151566624Y-113598684D01*
X150876996Y-113312326D01*
X150130280Y-113311675D01*
X149440154Y-113596829D01*
X149252135Y-113784520D01*
X149066624Y-113598684D01*
X148376996Y-113312326D01*
X147630280Y-113311675D01*
X146940154Y-113596829D01*
X146752135Y-113784520D01*
X146566624Y-113598684D01*
X145876996Y-113312326D01*
X145130280Y-113311675D01*
X144440154Y-113596829D01*
X143921308Y-114114768D01*
X143908966Y-114102426D01*
X143793911Y-114217481D01*
X143725923Y-113976540D01*
X143206829Y-113791799D01*
X142656552Y-113819770D01*
X142278077Y-113976540D01*
X142210088Y-114217483D01*
X143002000Y-115009395D01*
X143016143Y-114995253D01*
X143195748Y-115174858D01*
X143181605Y-115189000D01*
X143195748Y-115203143D01*
X143016143Y-115382748D01*
X143002000Y-115368605D01*
X142210088Y-116160517D01*
X142241828Y-116273000D01*
X137127000Y-116273000D01*
X137127000Y-115592110D01*
X137138674Y-115563996D01*
X137139179Y-114984171D01*
X141604799Y-114984171D01*
X141632770Y-115534448D01*
X141789540Y-115912923D01*
X142030483Y-115980912D01*
X142822395Y-115189000D01*
X142030483Y-114397088D01*
X141789540Y-114465077D01*
X141604799Y-114984171D01*
X137139179Y-114984171D01*
X137139325Y-114817280D01*
X137124311Y-114780944D01*
X137122043Y-114764866D01*
X137100858Y-114724184D01*
X136854171Y-114127154D01*
X136326624Y-113598684D01*
X135636996Y-113312326D01*
X134890280Y-113311675D01*
X134200154Y-113596829D01*
X134012135Y-113784520D01*
X133826624Y-113598684D01*
X133136996Y-113312326D01*
X132390280Y-113311675D01*
X131700154Y-113596829D01*
X131512135Y-113784520D01*
X131326624Y-113598684D01*
X130636996Y-113312326D01*
X129890280Y-113311675D01*
X129200154Y-113596829D01*
X128681308Y-114114768D01*
X128668966Y-114102426D01*
X128553911Y-114217481D01*
X128485923Y-113976540D01*
X127966829Y-113791799D01*
X127416552Y-113819770D01*
X127038077Y-113976540D01*
X126970088Y-114217483D01*
X127762000Y-115009395D01*
X127776143Y-114995253D01*
X127955748Y-115174858D01*
X127941605Y-115189000D01*
X127955748Y-115203143D01*
X127776143Y-115382748D01*
X127762000Y-115368605D01*
X126970088Y-116160517D01*
X127001828Y-116273000D01*
X121592906Y-116273000D01*
X121612316Y-116253624D01*
X121898674Y-115563996D01*
X121899179Y-114984171D01*
X126364799Y-114984171D01*
X126392770Y-115534448D01*
X126549540Y-115912923D01*
X126790483Y-115980912D01*
X127582395Y-115189000D01*
X126790483Y-114397088D01*
X126549540Y-114465077D01*
X126364799Y-114984171D01*
X121899179Y-114984171D01*
X121899325Y-114817280D01*
X121614171Y-114127154D01*
X121086624Y-113598684D01*
X120396996Y-113312326D01*
X119650280Y-113311675D01*
X118960154Y-113596829D01*
X118772135Y-113784520D01*
X118586624Y-113598684D01*
X117896996Y-113312326D01*
X117150280Y-113311675D01*
X116460154Y-113596829D01*
X116272135Y-113784520D01*
X116086624Y-113598684D01*
X115396996Y-113312326D01*
X114650280Y-113311675D01*
X113960154Y-113596829D01*
X113441308Y-114114768D01*
X113428966Y-114102426D01*
X113313911Y-114217481D01*
X113245923Y-113976540D01*
X112726829Y-113791799D01*
X112176552Y-113819770D01*
X111798077Y-113976540D01*
X111730088Y-114217483D01*
X112522000Y-115009395D01*
X112536143Y-114995253D01*
X112715748Y-115174858D01*
X112701605Y-115189000D01*
X112715748Y-115203143D01*
X112536143Y-115382748D01*
X112522000Y-115368605D01*
X112507858Y-115382748D01*
X112328253Y-115203143D01*
X112342395Y-115189000D01*
X111550483Y-114397088D01*
X111309540Y-114465077D01*
X111124799Y-114984171D01*
X111152770Y-115534448D01*
X111169411Y-115574622D01*
X107127000Y-115574622D01*
X107127000Y-112000000D01*
X107118315Y-111953841D01*
X107091035Y-111911447D01*
X107049410Y-111883006D01*
X107000000Y-111873000D01*
X99636877Y-111873000D01*
X99529327Y-111801137D01*
X99040640Y-111703931D01*
X94096079Y-111703931D01*
X94075431Y-111683283D01*
X94075431Y-96066684D01*
X94044172Y-95909534D01*
X93978226Y-95577998D01*
X93701407Y-95163709D01*
X92530219Y-93992522D01*
X92495974Y-93969640D01*
X92115931Y-93715703D01*
X91627244Y-93618497D01*
X81564541Y-93618497D01*
X81547797Y-93601724D01*
X80986763Y-93368762D01*
X80379284Y-93368232D01*
X79817845Y-93600214D01*
X79806655Y-93611384D01*
X74127000Y-93611384D01*
X74127000Y-90533195D01*
X82658389Y-90533195D01*
X82699894Y-90574773D01*
X83260928Y-90807735D01*
X83868407Y-90808265D01*
X84429846Y-90576283D01*
X84859773Y-90147106D01*
X85092735Y-89586072D01*
X85093265Y-88978593D01*
X84861283Y-88417154D01*
X84432106Y-87987227D01*
X83871072Y-87754265D01*
X83263593Y-87753735D01*
X82717938Y-87979195D01*
X66115839Y-87979195D01*
X66461978Y-87633660D01*
X66694940Y-87072626D01*
X66695470Y-86465147D01*
X66463488Y-85903708D01*
X66045206Y-85484695D01*
X66045206Y-82368222D01*
X65948000Y-81879535D01*
X65891551Y-81795053D01*
X65671181Y-81465246D01*
X62891959Y-78686025D01*
X62853212Y-78660135D01*
X62477671Y-78409206D01*
X61988984Y-78312000D01*
X58019393Y-78312000D01*
X57716232Y-78008308D01*
X57728574Y-77995966D01*
X57613519Y-77880911D01*
X57854460Y-77812923D01*
X58039201Y-77293829D01*
X58011230Y-76743552D01*
X57854460Y-76365077D01*
X57613519Y-76297089D01*
X57728574Y-76182034D01*
X57715789Y-76169249D01*
X58232316Y-75653624D01*
X58518674Y-74963996D01*
X58519325Y-74217280D01*
X58234171Y-73527154D01*
X57706624Y-72998684D01*
X57016996Y-72712326D01*
X56270280Y-72711675D01*
X55580154Y-72996829D01*
X55051684Y-73524376D01*
X54765326Y-74214004D01*
X54765184Y-74377022D01*
X53692603Y-75449603D01*
X53372430Y-75928776D01*
X53268606Y-76450735D01*
X53260000Y-76494000D01*
X53260000Y-89789000D01*
X53372430Y-90354224D01*
X53692603Y-90833397D01*
X54673121Y-91813915D01*
X54765660Y-101993200D01*
X54765326Y-101994004D01*
X54764675Y-102740720D01*
X54772631Y-102759974D01*
X54787900Y-104439639D01*
X54765326Y-104494004D01*
X54764675Y-105240720D01*
X54795869Y-105316216D01*
X54810141Y-106886078D01*
X54765326Y-106994004D01*
X54764675Y-107740720D01*
X54819108Y-107872457D01*
X54832381Y-109332517D01*
X54765326Y-109494004D01*
X54764675Y-110240720D01*
X54842346Y-110428699D01*
X54848898Y-111149339D01*
X54833452Y-111171944D01*
X54742921Y-111619000D01*
X54742921Y-113119000D01*
X54821506Y-113536641D01*
X54871304Y-113614029D01*
X54873005Y-113801154D01*
X54881685Y-113846159D01*
X54908965Y-113888553D01*
X54950590Y-113916994D01*
X55000000Y-113927000D01*
X55078255Y-113927000D01*
X55444944Y-114177548D01*
X55892000Y-114268079D01*
X57392000Y-114268079D01*
X57809641Y-114189494D01*
X58193219Y-113942669D01*
X58204504Y-113926153D01*
X58205315Y-113926000D01*
X72269150Y-113926000D01*
X72285894Y-113942773D01*
X72846928Y-114175735D01*
X73454407Y-114176265D01*
X74015846Y-113944283D01*
X74034161Y-113926000D01*
X85933104Y-113926000D01*
X85933104Y-119281185D01*
X86030310Y-119769872D01*
X86227150Y-120064463D01*
X86307129Y-120184160D01*
X87534968Y-121412000D01*
X54154413Y-121412000D01*
X54361367Y-120913600D01*
X54362366Y-119769059D01*
X53925291Y-118711258D01*
X53116685Y-117901239D01*
X52059648Y-117462319D01*
X50915107Y-117461320D01*
X50419000Y-117666308D01*
X50419000Y-69465491D01*
X52705048Y-69465491D01*
X52713685Y-69515159D01*
X52740965Y-69557553D01*
X52782590Y-69585994D01*
X52832000Y-69596000D01*
X67873000Y-69596000D01*
X67873000Y-74739887D01*
X67815265Y-74878928D01*
X67814735Y-75486407D01*
X67873000Y-75627419D01*
X67873000Y-76600000D01*
X67881685Y-76646159D01*
X67908965Y-76688553D01*
X67950590Y-76716994D01*
X68000000Y-76727000D01*
X76937643Y-76727000D01*
X76937643Y-77601991D01*
X77034849Y-78090678D01*
X77280440Y-78458230D01*
X77311668Y-78504966D01*
X94143652Y-95336951D01*
X94143652Y-107653275D01*
X94240858Y-108141962D01*
X94486511Y-108509607D01*
X94517677Y-108556250D01*
X95655894Y-109694467D01*
X96070182Y-109971286D01*
X96558869Y-110068492D01*
X101506849Y-110068492D01*
X101995536Y-109971286D01*
X102409824Y-109694467D01*
X102477291Y-109627000D01*
X109892865Y-109627000D01*
X109904799Y-109634974D01*
X110393486Y-109732180D01*
X111121849Y-109732180D01*
X111230600Y-109753812D01*
X128919188Y-109753812D01*
X129407875Y-109656606D01*
X129822163Y-109379787D01*
X129824950Y-109377000D01*
X152750000Y-109377000D01*
X152796159Y-109368315D01*
X152838553Y-109341035D01*
X152866994Y-109299410D01*
X152877000Y-109250000D01*
X152877000Y-97250000D01*
X152871026Y-97211507D01*
X152846515Y-97167454D01*
X152806796Y-97136408D01*
X149806796Y-95636408D01*
X149750000Y-95623000D01*
X145120945Y-95623000D01*
X145077852Y-95594206D01*
X144589165Y-95497000D01*
X120127000Y-95497000D01*
X120127000Y-90431000D01*
X163074150Y-90431000D01*
X163090894Y-90447773D01*
X163651928Y-90680735D01*
X164259407Y-90681265D01*
X164820846Y-90449283D01*
X164839161Y-90431000D01*
X176409150Y-90431000D01*
X176425894Y-90447773D01*
X176700968Y-90561994D01*
X176464962Y-90798000D01*
X167735882Y-90798000D01*
X167247195Y-90895206D01*
X166900675Y-91126744D01*
X166832907Y-91172025D01*
X162339025Y-95665907D01*
X162062206Y-96080195D01*
X161965000Y-96568882D01*
X161965000Y-98517337D01*
X161806624Y-98358684D01*
X161116996Y-98072326D01*
X160370280Y-98071675D01*
X159680154Y-98356829D01*
X159492135Y-98544520D01*
X159306624Y-98358684D01*
X158616996Y-98072326D01*
X157870280Y-98071675D01*
X157180154Y-98356829D01*
X156651684Y-98884376D01*
X156365326Y-99574004D01*
X156364675Y-100320720D01*
X156649829Y-101010846D01*
X157177376Y-101539316D01*
X157867004Y-101825674D01*
X158613720Y-101826325D01*
X159303846Y-101541171D01*
X159491865Y-101353480D01*
X159543724Y-101405430D01*
X159562206Y-101498347D01*
X159795890Y-101848079D01*
X159839025Y-101912635D01*
X160387025Y-102460635D01*
X160801313Y-102737454D01*
X161290000Y-102834660D01*
X180763340Y-102834660D01*
X181252027Y-102737454D01*
X181666315Y-102460635D01*
X181964975Y-102161975D01*
X181986274Y-102130099D01*
X182241794Y-101747687D01*
X182318821Y-101360448D01*
X182497376Y-101539316D01*
X183187004Y-101825674D01*
X183933720Y-101826325D01*
X184623846Y-101541171D01*
X184811865Y-101353480D01*
X184997376Y-101539316D01*
X185687004Y-101825674D01*
X186433720Y-101826325D01*
X187123846Y-101541171D01*
X187311865Y-101353480D01*
X187497376Y-101539316D01*
X188187004Y-101825674D01*
X188933720Y-101826325D01*
X189576748Y-101560632D01*
X189864944Y-101757548D01*
X190312000Y-101848079D01*
X191812000Y-101848079D01*
X192229641Y-101769494D01*
X192613219Y-101522669D01*
X192870548Y-101146056D01*
X192961079Y-100699000D01*
X192961079Y-99199000D01*
X192882494Y-98781359D01*
X192635669Y-98397781D01*
X192259056Y-98140452D01*
X191812000Y-98049921D01*
X191269000Y-98049921D01*
X191269000Y-90681007D01*
X191564407Y-90681265D01*
X192125846Y-90449283D01*
X192144161Y-90431000D01*
X205373000Y-90431000D01*
X205373000Y-94700952D01*
X202979025Y-97094927D01*
X202702206Y-97509215D01*
X202605000Y-97997902D01*
X202605000Y-98517337D01*
X202446624Y-98358684D01*
X201756996Y-98072326D01*
X201010280Y-98071675D01*
X200320154Y-98356829D01*
X200132135Y-98544520D01*
X199946624Y-98358684D01*
X199256996Y-98072326D01*
X198510280Y-98071675D01*
X197820154Y-98356829D01*
X197291684Y-98884376D01*
X197005326Y-99574004D01*
X197004675Y-100320720D01*
X197289829Y-101010846D01*
X197817376Y-101539316D01*
X198507004Y-101825674D01*
X199253720Y-101826325D01*
X199943846Y-101541171D01*
X200100778Y-101384513D01*
X200100778Y-101936778D01*
X200197984Y-102425465D01*
X200406449Y-102737454D01*
X200474803Y-102839753D01*
X201281025Y-103645975D01*
X201695313Y-103922794D01*
X202184000Y-104020000D01*
X220726000Y-104020000D01*
X221214687Y-103922794D01*
X221628975Y-103645975D01*
X222604975Y-102669976D01*
X222881794Y-102255687D01*
X222894129Y-102193676D01*
X222979000Y-101767000D01*
X222979000Y-101380663D01*
X223137376Y-101539316D01*
X223827004Y-101825674D01*
X224573720Y-101826325D01*
X225263846Y-101541171D01*
X225451865Y-101353480D01*
X225637376Y-101539316D01*
X226327004Y-101825674D01*
X227073720Y-101826325D01*
X227763846Y-101541171D01*
X227951865Y-101353480D01*
X228137376Y-101539316D01*
X228827004Y-101825674D01*
X229573720Y-101826325D01*
X230216748Y-101560632D01*
X230504944Y-101757548D01*
X230952000Y-101848079D01*
X232452000Y-101848079D01*
X232869641Y-101769494D01*
X233253219Y-101522669D01*
X233510548Y-101146056D01*
X233601079Y-100699000D01*
X233601079Y-99199000D01*
X233522494Y-98781359D01*
X233275669Y-98397781D01*
X232979000Y-98195075D01*
X232979000Y-96321566D01*
X237122975Y-92177591D01*
X237235186Y-92009656D01*
X237399794Y-91763303D01*
X237497000Y-91274616D01*
X237497000Y-68325362D01*
X237399794Y-67836675D01*
X237122975Y-67422387D01*
X235726613Y-66026025D01*
X235634482Y-65964465D01*
X235312325Y-65749206D01*
X234823638Y-65652000D01*
X233637670Y-65652000D01*
X233552223Y-64882975D01*
X233544315Y-64850841D01*
X233517035Y-64808447D01*
X233475410Y-64780006D01*
X233426000Y-64770000D01*
X216662000Y-64770000D01*
X216615841Y-64778685D01*
X216573447Y-64805965D01*
X216545006Y-64847590D01*
X216535000Y-64897000D01*
X216535000Y-78606000D01*
X206622850Y-78606000D01*
X206606106Y-78589227D01*
X206045072Y-78356265D01*
X205437593Y-78355735D01*
X204876154Y-78587717D01*
X204446227Y-79016894D01*
X204213265Y-79577928D01*
X204213008Y-79873000D01*
X201250000Y-79873000D01*
X201203841Y-79881685D01*
X201161447Y-79908965D01*
X201133006Y-79950590D01*
X201123000Y-80000000D01*
X201123000Y-87877000D01*
X192144850Y-87877000D01*
X192128106Y-87860227D01*
X191567072Y-87627265D01*
X191269000Y-87627005D01*
X191269000Y-85601007D01*
X191564407Y-85601265D01*
X192125846Y-85369283D01*
X192144161Y-85351000D01*
X196010455Y-85351000D01*
X196027199Y-85367773D01*
X196588233Y-85600735D01*
X197195712Y-85601265D01*
X197757151Y-85369283D01*
X198187078Y-84940106D01*
X198420040Y-84379072D01*
X198420570Y-83771593D01*
X198188588Y-83210154D01*
X197759411Y-82780227D01*
X197377000Y-82621436D01*
X197377000Y-76461000D01*
X210064150Y-76461000D01*
X210080894Y-76477773D01*
X210641928Y-76710735D01*
X211249407Y-76711265D01*
X211810846Y-76479283D01*
X212240773Y-76050106D01*
X212473735Y-75489072D01*
X212474265Y-74881593D01*
X212242283Y-74320154D01*
X211813106Y-73890227D01*
X211252072Y-73657265D01*
X210644593Y-73656735D01*
X210083154Y-73888717D01*
X210064839Y-73907000D01*
X164839850Y-73907000D01*
X164823106Y-73890227D01*
X164262072Y-73657265D01*
X163654593Y-73656735D01*
X163093154Y-73888717D01*
X163074839Y-73907000D01*
X141995278Y-73907000D01*
X142011618Y-71880886D01*
X145669005Y-71880886D01*
X145677685Y-71928159D01*
X145704965Y-71970553D01*
X145746590Y-71998994D01*
X145796000Y-72009000D01*
X152653162Y-72009000D01*
X152676894Y-72032773D01*
X153237928Y-72265735D01*
X153845407Y-72266265D01*
X154406846Y-72034283D01*
X154432173Y-72009000D01*
X169672000Y-72009000D01*
X169717120Y-72000715D01*
X169759751Y-71973808D01*
X169788556Y-71932434D01*
X169798995Y-71883114D01*
X169879092Y-62751947D01*
X171308015Y-62751947D01*
X171450015Y-72010947D01*
X171458685Y-72055159D01*
X171485965Y-72097553D01*
X171527590Y-72125994D01*
X171577000Y-72136000D01*
X172610492Y-72136000D01*
X172922928Y-72265735D01*
X173530407Y-72266265D01*
X173845672Y-72136000D01*
X181102000Y-72136000D01*
X181149789Y-72126666D01*
X181191803Y-72098803D01*
X183059606Y-70231000D01*
X196278500Y-70231000D01*
X198145400Y-72720200D01*
X198197590Y-72760994D01*
X198247000Y-72771000D01*
X199205341Y-72771000D01*
X199211928Y-72773735D01*
X199819407Y-72774265D01*
X199827309Y-72771000D01*
X200787000Y-72771000D01*
X200856937Y-72750008D01*
X200892670Y-72714447D01*
X202120301Y-70873000D01*
X209857744Y-70873000D01*
X209892935Y-70866000D01*
X212217000Y-70866000D01*
X212267951Y-70855332D01*
X212309196Y-70826344D01*
X212335914Y-70783593D01*
X214207783Y-65791942D01*
X215491631Y-65876724D01*
X215546159Y-65868315D01*
X215588553Y-65841035D01*
X215616994Y-65799410D01*
X215627000Y-65750000D01*
X215627000Y-64238416D01*
X215648735Y-64186072D01*
X215649265Y-63578593D01*
X215627000Y-63524708D01*
X215627000Y-62750000D01*
X215618315Y-62703841D01*
X215591035Y-62661447D01*
X215549410Y-62633006D01*
X215519752Y-62627000D01*
X233750000Y-62627000D01*
X233796159Y-62618315D01*
X233838553Y-62591035D01*
X233866994Y-62549410D01*
X233877000Y-62500000D01*
X233877000Y-57250000D01*
X233868315Y-57203841D01*
X233841035Y-57161447D01*
X233799410Y-57133006D01*
X233750000Y-57123000D01*
X192000000Y-57123000D01*
X191953841Y-57131685D01*
X191911447Y-57158965D01*
X191883006Y-57200590D01*
X191873000Y-57250000D01*
X191873000Y-62500000D01*
X191881685Y-62546159D01*
X191908965Y-62588553D01*
X191950590Y-62616994D01*
X191980248Y-62623000D01*
X185078950Y-62623000D01*
X184798975Y-62343025D01*
X184782051Y-62331717D01*
X184384687Y-62066206D01*
X183896000Y-61969000D01*
X174237850Y-61969000D01*
X174221106Y-61952227D01*
X173660072Y-61719265D01*
X173052593Y-61718735D01*
X172491154Y-61950717D01*
X172061227Y-62379894D01*
X171960280Y-62623000D01*
X171435000Y-62623000D01*
X171387032Y-62632407D01*
X171345061Y-62660334D01*
X171317262Y-62702390D01*
X171308015Y-62751947D01*
X169879092Y-62751947D01*
X169915872Y-58559000D01*
X171582921Y-58559000D01*
X171582921Y-60059000D01*
X171661506Y-60476641D01*
X171908331Y-60860219D01*
X172284944Y-61117548D01*
X172732000Y-61208079D01*
X174232000Y-61208079D01*
X174649641Y-61129494D01*
X174972061Y-60922023D01*
X175607004Y-61185674D01*
X176353720Y-61186325D01*
X177043846Y-60901171D01*
X177231865Y-60713480D01*
X177417376Y-60899316D01*
X178107004Y-61185674D01*
X178853720Y-61186325D01*
X179543846Y-60901171D01*
X179731865Y-60713480D01*
X179917376Y-60899316D01*
X180607004Y-61185674D01*
X181353720Y-61186325D01*
X182043846Y-60901171D01*
X182231865Y-60713480D01*
X182417376Y-60899316D01*
X183107004Y-61185674D01*
X183853720Y-61186325D01*
X184543846Y-60901171D01*
X184731865Y-60713480D01*
X184917376Y-60899316D01*
X185607004Y-61185674D01*
X186353720Y-61186325D01*
X187043846Y-60901171D01*
X187572316Y-60373624D01*
X187858674Y-59683996D01*
X187859325Y-58937280D01*
X187574171Y-58247154D01*
X187046624Y-57718684D01*
X186356996Y-57432326D01*
X185610280Y-57431675D01*
X184920154Y-57716829D01*
X184732135Y-57904520D01*
X184546624Y-57718684D01*
X183856996Y-57432326D01*
X183110280Y-57431675D01*
X182420154Y-57716829D01*
X182232135Y-57904520D01*
X182046624Y-57718684D01*
X181356996Y-57432326D01*
X180610280Y-57431675D01*
X179920154Y-57716829D01*
X179732135Y-57904520D01*
X179546624Y-57718684D01*
X178856996Y-57432326D01*
X178110280Y-57431675D01*
X177420154Y-57716829D01*
X177232135Y-57904520D01*
X177046624Y-57718684D01*
X176356996Y-57432326D01*
X175610280Y-57431675D01*
X174967252Y-57697368D01*
X174679056Y-57500452D01*
X174232000Y-57409921D01*
X172732000Y-57409921D01*
X172314359Y-57488506D01*
X171930781Y-57735331D01*
X171673452Y-58111944D01*
X171582921Y-58559000D01*
X169915872Y-58559000D01*
X169925995Y-57405114D01*
X169917315Y-57357841D01*
X169890035Y-57315447D01*
X169848410Y-57287006D01*
X169799000Y-57277000D01*
X145923000Y-57277000D01*
X145877880Y-57285285D01*
X145835249Y-57312192D01*
X145806444Y-57353566D01*
X145796005Y-57402886D01*
X145669005Y-71880886D01*
X142011618Y-71880886D01*
X142017731Y-71122904D01*
X142046159Y-71118315D01*
X142088553Y-71091035D01*
X142116994Y-71049410D01*
X142127000Y-71000000D01*
X142127000Y-67332110D01*
X142138674Y-67303996D01*
X142139325Y-66557280D01*
X142127000Y-66527451D01*
X142127000Y-59712110D01*
X142138674Y-59683996D01*
X142139325Y-58937280D01*
X142127000Y-58907451D01*
X142127000Y-56750000D01*
X142118315Y-56703841D01*
X142091035Y-56661447D01*
X142049410Y-56633006D01*
X142000000Y-56623000D01*
X94750000Y-56623000D01*
X94697224Y-56634485D01*
X94686881Y-56642000D01*
X54102000Y-56642000D01*
X54055841Y-56650685D01*
X54013447Y-56677965D01*
X53985006Y-56719590D01*
X53975000Y-56769000D01*
X53975000Y-69342000D01*
X52832000Y-69342000D01*
X52789127Y-69349455D01*
X52745995Y-69375554D01*
X52716416Y-69416377D01*
X52705048Y-69465491D01*
X50419000Y-69465491D01*
X50419000Y-56869555D01*
X50987219Y-57105500D01*
X52131760Y-57106499D01*
X53189561Y-56669424D01*
X53999580Y-55860818D01*
X54438500Y-54803781D01*
X54439499Y-53659240D01*
X54202641Y-53086000D01*
X234341445Y-53086000D01*
X234105500Y-53654219D01*
G36*
X97475748Y-115174858D02*
X97461605Y-115189000D01*
X97475748Y-115203143D01*
X97296143Y-115382748D01*
X97282000Y-115368605D01*
X97267858Y-115382748D01*
X97088253Y-115203143D01*
X97102395Y-115189000D01*
X97088253Y-115174858D01*
X97267858Y-114995253D01*
X97282000Y-115009395D01*
X97296143Y-114995253D01*
X97475748Y-115174858D01*
X97475748Y-115174858D01*
G37*
X97475748Y-115174858D02*
X97461605Y-115189000D01*
X97475748Y-115203143D01*
X97296143Y-115382748D01*
X97282000Y-115368605D01*
X97267858Y-115382748D01*
X97088253Y-115203143D01*
X97102395Y-115189000D01*
X97088253Y-115174858D01*
X97267858Y-114995253D01*
X97282000Y-115009395D01*
X97296143Y-114995253D01*
X97475748Y-115174858D01*
G36*
X56835748Y-77074858D02*
X56821605Y-77089000D01*
X56835748Y-77103143D01*
X56656143Y-77282748D01*
X56642000Y-77268605D01*
X56627858Y-77282748D01*
X56448253Y-77103143D01*
X56462395Y-77089000D01*
X56448253Y-77074858D01*
X56627858Y-76895253D01*
X56642000Y-76909395D01*
X56656143Y-76895253D01*
X56835748Y-77074858D01*
X56835748Y-77074858D01*
G37*
X56835748Y-77074858D02*
X56821605Y-77089000D01*
X56835748Y-77103143D01*
X56656143Y-77282748D01*
X56642000Y-77268605D01*
X56627858Y-77282748D01*
X56448253Y-77103143D01*
X56462395Y-77089000D01*
X56448253Y-77074858D01*
X56627858Y-76895253D01*
X56642000Y-76909395D01*
X56656143Y-76895253D01*
X56835748Y-77074858D01*
M02*
