G04 #@! TF.FileFunction,Copper,L2,Bot,Signal*
%FSLAX46Y46*%
G04 Gerber Fmt 4.6, Leading zero omitted, Abs format (unit mm)*
G04 Created by KiCad (PCBNEW 4.0.7) date 01/24/18 00:47:36*
%MOMM*%
%LPD*%
G01*
G04 APERTURE LIST*
%ADD10C,0.100000*%
%ADD11R,1.800000X1.800000*%
%ADD12C,1.800000*%
%ADD13R,1.500000X1.500000*%
%ADD14C,1.500000*%
%ADD15C,3.500000*%
%ADD16C,0.300000*%
G04 APERTURE END LIST*
D10*
D11*
X109460000Y-112000000D03*
D12*
X112000000Y-112000000D03*
D11*
X123460000Y-112000000D03*
D12*
X126000000Y-112000000D03*
D11*
X137460000Y-112000000D03*
D12*
X140000000Y-112000000D03*
D11*
X151460000Y-112000000D03*
D12*
X154000000Y-112000000D03*
D13*
X137040000Y-104140000D03*
D14*
X134540000Y-104140000D03*
X132040000Y-104140000D03*
X129540000Y-104140000D03*
X127040000Y-104140000D03*
X124540000Y-104140000D03*
D15*
X152346043Y-104341753D03*
X110629586Y-104208125D03*
D16*
X140000000Y-112000000D02*
X140000000Y-111053366D01*
X140000000Y-111053366D02*
X134540000Y-105593366D01*
X134540000Y-105593366D02*
X134540000Y-104060000D01*
G36*
X155385000Y-111051928D02*
X154935870Y-110602014D01*
X154329645Y-110350287D01*
X153673235Y-110349715D01*
X153066571Y-110600383D01*
X152983261Y-110683547D01*
X152908138Y-110566802D01*
X152657508Y-110395554D01*
X152360000Y-110335307D01*
X150560000Y-110335307D01*
X150282067Y-110387604D01*
X150026802Y-110551862D01*
X149855554Y-110802492D01*
X149795307Y-111100000D01*
X149795307Y-112900000D01*
X149847604Y-113177933D01*
X150011862Y-113433198D01*
X150262492Y-113604446D01*
X150560000Y-113664693D01*
X152360000Y-113664693D01*
X152637933Y-113612396D01*
X152893198Y-113448138D01*
X152982998Y-113316712D01*
X153064130Y-113397986D01*
X153670355Y-113649713D01*
X154326765Y-113650285D01*
X154933429Y-113399617D01*
X155385000Y-112948833D01*
X155385000Y-116015000D01*
X107505000Y-116015000D01*
X107505000Y-111100000D01*
X107795307Y-111100000D01*
X107795307Y-112900000D01*
X107847604Y-113177933D01*
X108011862Y-113433198D01*
X108262492Y-113604446D01*
X108560000Y-113664693D01*
X110360000Y-113664693D01*
X110637933Y-113612396D01*
X110893198Y-113448138D01*
X110982998Y-113316712D01*
X111064130Y-113397986D01*
X111670355Y-113649713D01*
X112326765Y-113650285D01*
X112933429Y-113399617D01*
X113397986Y-112935870D01*
X113649713Y-112329645D01*
X113650285Y-111673235D01*
X113413430Y-111100000D01*
X121795307Y-111100000D01*
X121795307Y-112900000D01*
X121847604Y-113177933D01*
X122011862Y-113433198D01*
X122262492Y-113604446D01*
X122560000Y-113664693D01*
X124360000Y-113664693D01*
X124637933Y-113612396D01*
X124893198Y-113448138D01*
X124982998Y-113316712D01*
X125064130Y-113397986D01*
X125670355Y-113649713D01*
X126326765Y-113650285D01*
X126933429Y-113399617D01*
X127397986Y-112935870D01*
X127649713Y-112329645D01*
X127650285Y-111673235D01*
X127399617Y-111066571D01*
X126935870Y-110602014D01*
X126329645Y-110350287D01*
X125673235Y-110349715D01*
X125066571Y-110600383D01*
X124983261Y-110683547D01*
X124908138Y-110566802D01*
X124657508Y-110395554D01*
X124360000Y-110335307D01*
X122560000Y-110335307D01*
X122282067Y-110387604D01*
X122026802Y-110551862D01*
X121855554Y-110802492D01*
X121795307Y-111100000D01*
X113413430Y-111100000D01*
X113399617Y-111066571D01*
X112935870Y-110602014D01*
X112329645Y-110350287D01*
X111673235Y-110349715D01*
X111066571Y-110600383D01*
X110983261Y-110683547D01*
X110908138Y-110566802D01*
X110657508Y-110395554D01*
X110360000Y-110335307D01*
X108560000Y-110335307D01*
X108282067Y-110387604D01*
X108026802Y-110551862D01*
X107855554Y-110802492D01*
X107795307Y-111100000D01*
X107505000Y-111100000D01*
X107505000Y-104703224D01*
X108129153Y-104703224D01*
X108508953Y-105622411D01*
X109211601Y-106326286D01*
X110130124Y-106707690D01*
X111124685Y-106708558D01*
X112043872Y-106328758D01*
X112747747Y-105626110D01*
X113129151Y-104707587D01*
X113129387Y-104437059D01*
X123039740Y-104437059D01*
X123040000Y-104437688D01*
X123040000Y-107315000D01*
X123050258Y-107369519D01*
X123082479Y-107419591D01*
X123131642Y-107453182D01*
X123190000Y-107465000D01*
X132017868Y-107465000D01*
X135783934Y-111231066D01*
X135795307Y-111238722D01*
X135795307Y-112900000D01*
X135847604Y-113177933D01*
X136011862Y-113433198D01*
X136262492Y-113604446D01*
X136560000Y-113664693D01*
X138360000Y-113664693D01*
X138637933Y-113612396D01*
X138893198Y-113448138D01*
X138982998Y-113316712D01*
X139064130Y-113397986D01*
X139670355Y-113649713D01*
X140326765Y-113650285D01*
X140933429Y-113399617D01*
X141397986Y-112935870D01*
X141649713Y-112329645D01*
X141650285Y-111673235D01*
X141399617Y-111066571D01*
X140935870Y-110602014D01*
X140692521Y-110500966D01*
X140636396Y-110416970D01*
X138580000Y-108360574D01*
X138580000Y-104836852D01*
X149845610Y-104836852D01*
X150225410Y-105756039D01*
X150928058Y-106459914D01*
X151846581Y-106841318D01*
X152841142Y-106842186D01*
X153760329Y-106462386D01*
X154464204Y-105759738D01*
X154845608Y-104841215D01*
X154846476Y-103846654D01*
X154466676Y-102927467D01*
X153764028Y-102223592D01*
X152845505Y-101842188D01*
X151850944Y-101841320D01*
X150931757Y-102221120D01*
X150227882Y-102923768D01*
X149846478Y-103842291D01*
X149845610Y-104836852D01*
X138580000Y-104836852D01*
X138580000Y-102870000D01*
X138569742Y-102815481D01*
X138537521Y-102765409D01*
X138488358Y-102731818D01*
X138430000Y-102720000D01*
X138137921Y-102720000D01*
X138087508Y-102685554D01*
X137790000Y-102625307D01*
X136290000Y-102625307D01*
X136012067Y-102677604D01*
X135946182Y-102720000D01*
X135031710Y-102720000D01*
X134839677Y-102640261D01*
X134242941Y-102639740D01*
X134048697Y-102720000D01*
X132531710Y-102720000D01*
X132339677Y-102640261D01*
X131742941Y-102639740D01*
X131548697Y-102720000D01*
X130031710Y-102720000D01*
X129839677Y-102640261D01*
X129242941Y-102639740D01*
X129048697Y-102720000D01*
X127531710Y-102720000D01*
X127339677Y-102640261D01*
X126742941Y-102639740D01*
X126548697Y-102720000D01*
X125031710Y-102720000D01*
X124839677Y-102640261D01*
X124242941Y-102639740D01*
X124048697Y-102720000D01*
X123190000Y-102720000D01*
X123135481Y-102730258D01*
X123085409Y-102762479D01*
X123051818Y-102811642D01*
X123040000Y-102870000D01*
X123040000Y-104139264D01*
X123039740Y-104437059D01*
X113129387Y-104437059D01*
X113130019Y-103713026D01*
X112750219Y-102793839D01*
X112047571Y-102089964D01*
X111129048Y-101708560D01*
X110134487Y-101707692D01*
X109215300Y-102087492D01*
X108511425Y-102790140D01*
X108130021Y-103708663D01*
X108129153Y-104703224D01*
X107505000Y-104703224D01*
X107505000Y-101155000D01*
X155385000Y-101155000D01*
X155385000Y-111051928D01*
X155385000Y-111051928D01*
G37*
X155385000Y-111051928D02*
X154935870Y-110602014D01*
X154329645Y-110350287D01*
X153673235Y-110349715D01*
X153066571Y-110600383D01*
X152983261Y-110683547D01*
X152908138Y-110566802D01*
X152657508Y-110395554D01*
X152360000Y-110335307D01*
X150560000Y-110335307D01*
X150282067Y-110387604D01*
X150026802Y-110551862D01*
X149855554Y-110802492D01*
X149795307Y-111100000D01*
X149795307Y-112900000D01*
X149847604Y-113177933D01*
X150011862Y-113433198D01*
X150262492Y-113604446D01*
X150560000Y-113664693D01*
X152360000Y-113664693D01*
X152637933Y-113612396D01*
X152893198Y-113448138D01*
X152982998Y-113316712D01*
X153064130Y-113397986D01*
X153670355Y-113649713D01*
X154326765Y-113650285D01*
X154933429Y-113399617D01*
X155385000Y-112948833D01*
X155385000Y-116015000D01*
X107505000Y-116015000D01*
X107505000Y-111100000D01*
X107795307Y-111100000D01*
X107795307Y-112900000D01*
X107847604Y-113177933D01*
X108011862Y-113433198D01*
X108262492Y-113604446D01*
X108560000Y-113664693D01*
X110360000Y-113664693D01*
X110637933Y-113612396D01*
X110893198Y-113448138D01*
X110982998Y-113316712D01*
X111064130Y-113397986D01*
X111670355Y-113649713D01*
X112326765Y-113650285D01*
X112933429Y-113399617D01*
X113397986Y-112935870D01*
X113649713Y-112329645D01*
X113650285Y-111673235D01*
X113413430Y-111100000D01*
X121795307Y-111100000D01*
X121795307Y-112900000D01*
X121847604Y-113177933D01*
X122011862Y-113433198D01*
X122262492Y-113604446D01*
X122560000Y-113664693D01*
X124360000Y-113664693D01*
X124637933Y-113612396D01*
X124893198Y-113448138D01*
X124982998Y-113316712D01*
X125064130Y-113397986D01*
X125670355Y-113649713D01*
X126326765Y-113650285D01*
X126933429Y-113399617D01*
X127397986Y-112935870D01*
X127649713Y-112329645D01*
X127650285Y-111673235D01*
X127399617Y-111066571D01*
X126935870Y-110602014D01*
X126329645Y-110350287D01*
X125673235Y-110349715D01*
X125066571Y-110600383D01*
X124983261Y-110683547D01*
X124908138Y-110566802D01*
X124657508Y-110395554D01*
X124360000Y-110335307D01*
X122560000Y-110335307D01*
X122282067Y-110387604D01*
X122026802Y-110551862D01*
X121855554Y-110802492D01*
X121795307Y-111100000D01*
X113413430Y-111100000D01*
X113399617Y-111066571D01*
X112935870Y-110602014D01*
X112329645Y-110350287D01*
X111673235Y-110349715D01*
X111066571Y-110600383D01*
X110983261Y-110683547D01*
X110908138Y-110566802D01*
X110657508Y-110395554D01*
X110360000Y-110335307D01*
X108560000Y-110335307D01*
X108282067Y-110387604D01*
X108026802Y-110551862D01*
X107855554Y-110802492D01*
X107795307Y-111100000D01*
X107505000Y-111100000D01*
X107505000Y-104703224D01*
X108129153Y-104703224D01*
X108508953Y-105622411D01*
X109211601Y-106326286D01*
X110130124Y-106707690D01*
X111124685Y-106708558D01*
X112043872Y-106328758D01*
X112747747Y-105626110D01*
X113129151Y-104707587D01*
X113129387Y-104437059D01*
X123039740Y-104437059D01*
X123040000Y-104437688D01*
X123040000Y-107315000D01*
X123050258Y-107369519D01*
X123082479Y-107419591D01*
X123131642Y-107453182D01*
X123190000Y-107465000D01*
X132017868Y-107465000D01*
X135783934Y-111231066D01*
X135795307Y-111238722D01*
X135795307Y-112900000D01*
X135847604Y-113177933D01*
X136011862Y-113433198D01*
X136262492Y-113604446D01*
X136560000Y-113664693D01*
X138360000Y-113664693D01*
X138637933Y-113612396D01*
X138893198Y-113448138D01*
X138982998Y-113316712D01*
X139064130Y-113397986D01*
X139670355Y-113649713D01*
X140326765Y-113650285D01*
X140933429Y-113399617D01*
X141397986Y-112935870D01*
X141649713Y-112329645D01*
X141650285Y-111673235D01*
X141399617Y-111066571D01*
X140935870Y-110602014D01*
X140692521Y-110500966D01*
X140636396Y-110416970D01*
X138580000Y-108360574D01*
X138580000Y-104836852D01*
X149845610Y-104836852D01*
X150225410Y-105756039D01*
X150928058Y-106459914D01*
X151846581Y-106841318D01*
X152841142Y-106842186D01*
X153760329Y-106462386D01*
X154464204Y-105759738D01*
X154845608Y-104841215D01*
X154846476Y-103846654D01*
X154466676Y-102927467D01*
X153764028Y-102223592D01*
X152845505Y-101842188D01*
X151850944Y-101841320D01*
X150931757Y-102221120D01*
X150227882Y-102923768D01*
X149846478Y-103842291D01*
X149845610Y-104836852D01*
X138580000Y-104836852D01*
X138580000Y-102870000D01*
X138569742Y-102815481D01*
X138537521Y-102765409D01*
X138488358Y-102731818D01*
X138430000Y-102720000D01*
X138137921Y-102720000D01*
X138087508Y-102685554D01*
X137790000Y-102625307D01*
X136290000Y-102625307D01*
X136012067Y-102677604D01*
X135946182Y-102720000D01*
X135031710Y-102720000D01*
X134839677Y-102640261D01*
X134242941Y-102639740D01*
X134048697Y-102720000D01*
X132531710Y-102720000D01*
X132339677Y-102640261D01*
X131742941Y-102639740D01*
X131548697Y-102720000D01*
X130031710Y-102720000D01*
X129839677Y-102640261D01*
X129242941Y-102639740D01*
X129048697Y-102720000D01*
X127531710Y-102720000D01*
X127339677Y-102640261D01*
X126742941Y-102639740D01*
X126548697Y-102720000D01*
X125031710Y-102720000D01*
X124839677Y-102640261D01*
X124242941Y-102639740D01*
X124048697Y-102720000D01*
X123190000Y-102720000D01*
X123135481Y-102730258D01*
X123085409Y-102762479D01*
X123051818Y-102811642D01*
X123040000Y-102870000D01*
X123040000Y-104139264D01*
X123039740Y-104437059D01*
X113129387Y-104437059D01*
X113130019Y-103713026D01*
X112750219Y-102793839D01*
X112047571Y-102089964D01*
X111129048Y-101708560D01*
X110134487Y-101707692D01*
X109215300Y-102087492D01*
X108511425Y-102790140D01*
X108130021Y-103708663D01*
X108129153Y-104703224D01*
X107505000Y-104703224D01*
X107505000Y-101155000D01*
X155385000Y-101155000D01*
X155385000Y-111051928D01*
M02*
