G04 #@! TF.FileFunction,Legend,Top*
%FSLAX46Y46*%
G04 Gerber Fmt 4.6, Leading zero omitted, Abs format (unit mm)*
G04 Created by KiCad (PCBNEW 4.0.7) date 01/24/18 00:47:36*
%MOMM*%
%LPD*%
G01*
G04 APERTURE LIST*
%ADD10C,0.100000*%
%ADD11C,0.120000*%
%ADD12C,0.150000*%
G04 APERTURE END LIST*
D10*
D11*
X113720000Y-112000462D02*
G75*
G03X108170000Y-110455170I-2990000J462D01*
G01*
X113720000Y-111999538D02*
G75*
G02X108170000Y-113544830I-2990000J-462D01*
G01*
X113230000Y-112000000D02*
G75*
G03X113230000Y-112000000I-2500000J0D01*
G01*
X108170000Y-110455000D02*
X108170000Y-113545000D01*
X127720000Y-112000462D02*
G75*
G03X122170000Y-110455170I-2990000J462D01*
G01*
X127720000Y-111999538D02*
G75*
G02X122170000Y-113544830I-2990000J-462D01*
G01*
X127230000Y-112000000D02*
G75*
G03X127230000Y-112000000I-2500000J0D01*
G01*
X122170000Y-110455000D02*
X122170000Y-113545000D01*
X141720000Y-112000462D02*
G75*
G03X136170000Y-110455170I-2990000J462D01*
G01*
X141720000Y-111999538D02*
G75*
G02X136170000Y-113544830I-2990000J-462D01*
G01*
X141230000Y-112000000D02*
G75*
G03X141230000Y-112000000I-2500000J0D01*
G01*
X136170000Y-110455000D02*
X136170000Y-113545000D01*
X155720000Y-112000462D02*
G75*
G03X150170000Y-110455170I-2990000J462D01*
G01*
X155720000Y-111999538D02*
G75*
G02X150170000Y-113544830I-2990000J-462D01*
G01*
X155230000Y-112000000D02*
G75*
G03X155230000Y-112000000I-2500000J0D01*
G01*
X150170000Y-110455000D02*
X150170000Y-113545000D01*
D12*
X109991905Y-108492381D02*
X109991905Y-107492381D01*
X110230000Y-107492381D01*
X110372858Y-107540000D01*
X110468096Y-107635238D01*
X110515715Y-107730476D01*
X110563334Y-107920952D01*
X110563334Y-108063810D01*
X110515715Y-108254286D01*
X110468096Y-108349524D01*
X110372858Y-108444762D01*
X110230000Y-108492381D01*
X109991905Y-108492381D01*
X111515715Y-108492381D02*
X110944286Y-108492381D01*
X111230000Y-108492381D02*
X111230000Y-107492381D01*
X111134762Y-107635238D01*
X111039524Y-107730476D01*
X110944286Y-107778095D01*
X123991905Y-108492381D02*
X123991905Y-107492381D01*
X124230000Y-107492381D01*
X124372858Y-107540000D01*
X124468096Y-107635238D01*
X124515715Y-107730476D01*
X124563334Y-107920952D01*
X124563334Y-108063810D01*
X124515715Y-108254286D01*
X124468096Y-108349524D01*
X124372858Y-108444762D01*
X124230000Y-108492381D01*
X123991905Y-108492381D01*
X124944286Y-107587619D02*
X124991905Y-107540000D01*
X125087143Y-107492381D01*
X125325239Y-107492381D01*
X125420477Y-107540000D01*
X125468096Y-107587619D01*
X125515715Y-107682857D01*
X125515715Y-107778095D01*
X125468096Y-107920952D01*
X124896667Y-108492381D01*
X125515715Y-108492381D01*
X137991905Y-108492381D02*
X137991905Y-107492381D01*
X138230000Y-107492381D01*
X138372858Y-107540000D01*
X138468096Y-107635238D01*
X138515715Y-107730476D01*
X138563334Y-107920952D01*
X138563334Y-108063810D01*
X138515715Y-108254286D01*
X138468096Y-108349524D01*
X138372858Y-108444762D01*
X138230000Y-108492381D01*
X137991905Y-108492381D01*
X138896667Y-107492381D02*
X139515715Y-107492381D01*
X139182381Y-107873333D01*
X139325239Y-107873333D01*
X139420477Y-107920952D01*
X139468096Y-107968571D01*
X139515715Y-108063810D01*
X139515715Y-108301905D01*
X139468096Y-108397143D01*
X139420477Y-108444762D01*
X139325239Y-108492381D01*
X139039524Y-108492381D01*
X138944286Y-108444762D01*
X138896667Y-108397143D01*
X151991905Y-108492381D02*
X151991905Y-107492381D01*
X152230000Y-107492381D01*
X152372858Y-107540000D01*
X152468096Y-107635238D01*
X152515715Y-107730476D01*
X152563334Y-107920952D01*
X152563334Y-108063810D01*
X152515715Y-108254286D01*
X152468096Y-108349524D01*
X152372858Y-108444762D01*
X152230000Y-108492381D01*
X151991905Y-108492381D01*
X153420477Y-107825714D02*
X153420477Y-108492381D01*
X153182381Y-107444762D02*
X152944286Y-108159048D01*
X153563334Y-108159048D01*
M02*
