G04 #@! TF.FileFunction,Soldermask,Bot*
%FSLAX46Y46*%
G04 Gerber Fmt 4.6, Leading zero omitted, Abs format (unit mm)*
G04 Created by KiCad (PCBNEW 4.0.7) date 01/22/18 23:51:58*
%MOMM*%
%LPD*%
G01*
G04 APERTURE LIST*
%ADD10C,0.100000*%
%ADD11R,1.900000X1.900000*%
%ADD12C,1.900000*%
%ADD13O,1.900000X1.900000*%
%ADD14C,3.600000*%
%ADD15R,2.000000X2.000000*%
%ADD16O,2.000000X2.000000*%
G04 APERTURE END LIST*
D10*
D11*
X156210000Y-49530000D03*
D12*
X153710000Y-49530000D03*
X151210000Y-49530000D03*
X148710000Y-49530000D03*
X146210000Y-49530000D03*
X143710000Y-49530000D03*
X141210000Y-49530000D03*
X138710000Y-49530000D03*
D11*
X181370000Y-49530000D03*
D12*
X178870000Y-49530000D03*
X176370000Y-49530000D03*
X173870000Y-49530000D03*
X171370000Y-49530000D03*
X168870000Y-49530000D03*
X166370000Y-49530000D03*
X163870000Y-49530000D03*
X54610000Y-121920000D03*
X54610000Y-119420000D03*
X54610000Y-116920000D03*
X54610000Y-114420000D03*
D11*
X118110000Y-124460000D03*
D12*
X115610000Y-124460000D03*
X113110000Y-124460000D03*
X110610000Y-124460000D03*
X108110000Y-124460000D03*
X105610000Y-124460000D03*
X103110000Y-124460000D03*
X100610000Y-124460000D03*
D11*
X90170000Y-124460000D03*
D12*
X87670000Y-124460000D03*
X85170000Y-124460000D03*
X82670000Y-124460000D03*
X80170000Y-124460000D03*
X77670000Y-124460000D03*
X75170000Y-124460000D03*
X72670000Y-124460000D03*
X123230000Y-49530000D03*
X125730000Y-49530000D03*
X128230000Y-49530000D03*
X130730000Y-49530000D03*
D11*
X97790000Y-49530000D03*
D12*
X100290000Y-49530000D03*
X102790000Y-49530000D03*
X105290000Y-49530000D03*
X107790000Y-49530000D03*
X110290000Y-49530000D03*
X112790000Y-49530000D03*
X115290000Y-49530000D03*
D11*
X72390000Y-49530000D03*
D12*
X74890000Y-49530000D03*
X77390000Y-49530000D03*
X79890000Y-49530000D03*
X82390000Y-49530000D03*
X84890000Y-49530000D03*
X87390000Y-49530000D03*
X89890000Y-49530000D03*
X153670000Y-124460000D03*
X151170000Y-124460000D03*
X148670000Y-124460000D03*
X146170000Y-124460000D03*
X135890000Y-124460000D03*
X133390000Y-124460000D03*
X130890000Y-124460000D03*
X128390000Y-124460000D03*
D11*
X227330000Y-102870000D03*
D12*
X227330000Y-105370000D03*
X227330000Y-107870000D03*
X227330000Y-110370000D03*
X227330000Y-112870000D03*
X227330000Y-115370000D03*
D11*
X237490000Y-102870000D03*
D12*
X237490000Y-105370000D03*
X237490000Y-107870000D03*
X237490000Y-110370000D03*
X237490000Y-112870000D03*
X237490000Y-115370000D03*
D11*
X227330000Y-82550000D03*
D12*
X227330000Y-85050000D03*
X227330000Y-87550000D03*
X227330000Y-90050000D03*
X227330000Y-92550000D03*
X227330000Y-95050000D03*
D11*
X237490000Y-82550000D03*
D12*
X237490000Y-85050000D03*
X237490000Y-87550000D03*
X237490000Y-90050000D03*
X237490000Y-92550000D03*
X237490000Y-95050000D03*
X238760000Y-48260000D03*
X238760000Y-50800000D03*
X236220000Y-48260000D03*
X236220000Y-50800000D03*
X233680000Y-48260000D03*
X233680000Y-50800000D03*
X231140000Y-48260000D03*
X231140000Y-50800000D03*
X228600000Y-48260000D03*
X228600000Y-50800000D03*
X226060000Y-48260000D03*
X226060000Y-50800000D03*
X223520000Y-48260000D03*
X223520000Y-50800000D03*
X220980000Y-48260000D03*
X220980000Y-50800000D03*
X208280000Y-48260000D03*
X208280000Y-50800000D03*
X205740000Y-48260000D03*
X205740000Y-50800000D03*
X203200000Y-48260000D03*
X203200000Y-50800000D03*
X200660000Y-48260000D03*
X200660000Y-50800000D03*
X198120000Y-48260000D03*
X198120000Y-50800000D03*
X195580000Y-48260000D03*
X195580000Y-50800000D03*
X193040000Y-48260000D03*
X193040000Y-50800000D03*
X190500000Y-48260000D03*
X190500000Y-50800000D03*
X115570000Y-59690000D03*
X110490000Y-59690000D03*
X107950000Y-59690000D03*
X105410000Y-59690000D03*
X102870000Y-59690000D03*
X100330000Y-59690000D03*
X97790000Y-59690000D03*
X95250000Y-59690000D03*
D13*
X151130000Y-107950000D03*
D12*
X148590000Y-107950000D03*
D13*
X146050000Y-107950000D03*
X143510000Y-107950000D03*
X140970000Y-107950000D03*
D12*
X138430000Y-107950000D03*
X135890000Y-107950000D03*
X133350000Y-107950000D03*
X128270000Y-107950000D03*
X125730000Y-107950000D03*
X123190000Y-107950000D03*
X120650000Y-107950000D03*
X118110000Y-107950000D03*
X115570000Y-107950000D03*
X113030000Y-107950000D03*
X110490000Y-107950000D03*
X91186000Y-107950000D03*
X106426000Y-107950000D03*
X103886000Y-107950000D03*
X101346000Y-107950000D03*
D14*
X154940000Y-107950000D03*
X80010000Y-107950000D03*
X161290000Y-59690000D03*
X78740000Y-59690000D03*
D12*
X83566000Y-107950000D03*
X86106000Y-107950000D03*
X88646000Y-107950000D03*
X93726000Y-107950000D03*
X96266000Y-107950000D03*
X98806000Y-107950000D03*
X92710000Y-59690000D03*
X118110000Y-59690000D03*
X120650000Y-59690000D03*
X123190000Y-59690000D03*
X125730000Y-59690000D03*
X128270000Y-59690000D03*
X130810000Y-59690000D03*
X133350000Y-59690000D03*
X138430000Y-59690000D03*
X140970000Y-59690000D03*
X143510000Y-59690000D03*
X146050000Y-59690000D03*
X148590000Y-59690000D03*
X151130000Y-59690000D03*
X153670000Y-59690000D03*
X156210000Y-59690000D03*
D13*
X158750000Y-107950000D03*
X161290000Y-107950000D03*
X158750000Y-105410000D03*
X161290000Y-105410000D03*
X158750000Y-102870000D03*
X161290000Y-102870000D03*
X158750000Y-100330000D03*
X161290000Y-100330000D03*
X158750000Y-97790000D03*
X161290000Y-97790000D03*
X158750000Y-95250000D03*
X161290000Y-95250000D03*
X158750000Y-92710000D03*
X161290000Y-92710000D03*
D12*
X158750000Y-90170000D03*
X161290000Y-90170000D03*
X158750000Y-87630000D03*
X161290000Y-87630000D03*
X158750000Y-85090000D03*
X161290000Y-85090000D03*
D13*
X158750000Y-82550000D03*
X161290000Y-82550000D03*
D12*
X158750000Y-80010000D03*
D13*
X161290000Y-80010000D03*
X158750000Y-77470000D03*
X161290000Y-77470000D03*
D12*
X158750000Y-74930000D03*
X161290000Y-74930000D03*
X158750000Y-72390000D03*
X161290000Y-72390000D03*
X158750000Y-69850000D03*
X161290000Y-69850000D03*
X158750000Y-67310000D03*
X161290000Y-67310000D03*
X158750000Y-64770000D03*
X161290000Y-64770000D03*
D15*
X212090000Y-124460000D03*
D16*
X204470000Y-124460000D03*
D12*
X163830000Y-127000000D03*
X163830000Y-124460000D03*
X163830000Y-121920000D03*
X163830000Y-119380000D03*
X163830000Y-116840000D03*
X163830000Y-114300000D03*
X176530000Y-127000000D03*
X176530000Y-124460000D03*
X176530000Y-121920000D03*
X176530000Y-119380000D03*
X176530000Y-116840000D03*
X176530000Y-114300000D03*
M02*
