G04 #@! TF.FileFunction,Copper,L2,Bot,Signal*
%FSLAX46Y46*%
G04 Gerber Fmt 4.6, Leading zero omitted, Abs format (unit mm)*
G04 Created by KiCad (PCBNEW 4.0.7) date 01/22/18 23:51:58*
%MOMM*%
%LPD*%
G01*
G04 APERTURE LIST*
%ADD10C,0.100000*%
%ADD11R,1.500000X1.500000*%
%ADD12C,1.500000*%
%ADD13O,1.500000X1.500000*%
%ADD14R,1.600000X1.600000*%
%ADD15O,1.600000X1.600000*%
%ADD16C,3.500000*%
%ADD17C,0.800000*%
%ADD18C,1.000000*%
%ADD19C,0.300000*%
%ADD20C,0.500000*%
%ADD21C,0.700000*%
G04 APERTURE END LIST*
D10*
D11*
X156210000Y-49530000D03*
D12*
X153710000Y-49530000D03*
X151210000Y-49530000D03*
X148710000Y-49530000D03*
X146210000Y-49530000D03*
X143710000Y-49530000D03*
X141210000Y-49530000D03*
X138710000Y-49530000D03*
D11*
X181370000Y-49530000D03*
D12*
X178870000Y-49530000D03*
X176370000Y-49530000D03*
X173870000Y-49530000D03*
X171370000Y-49530000D03*
X168870000Y-49530000D03*
X166370000Y-49530000D03*
X163870000Y-49530000D03*
X54610000Y-121920000D03*
X54610000Y-119420000D03*
X54610000Y-116920000D03*
X54610000Y-114420000D03*
D11*
X118110000Y-124460000D03*
D12*
X115610000Y-124460000D03*
X113110000Y-124460000D03*
X110610000Y-124460000D03*
X108110000Y-124460000D03*
X105610000Y-124460000D03*
X103110000Y-124460000D03*
X100610000Y-124460000D03*
D11*
X90170000Y-124460000D03*
D12*
X87670000Y-124460000D03*
X85170000Y-124460000D03*
X82670000Y-124460000D03*
X80170000Y-124460000D03*
X77670000Y-124460000D03*
X75170000Y-124460000D03*
X72670000Y-124460000D03*
X123230000Y-49530000D03*
X125730000Y-49530000D03*
X128230000Y-49530000D03*
X130730000Y-49530000D03*
D11*
X97790000Y-49530000D03*
D12*
X100290000Y-49530000D03*
X102790000Y-49530000D03*
X105290000Y-49530000D03*
X107790000Y-49530000D03*
X110290000Y-49530000D03*
X112790000Y-49530000D03*
X115290000Y-49530000D03*
D11*
X72390000Y-49530000D03*
D12*
X74890000Y-49530000D03*
X77390000Y-49530000D03*
X79890000Y-49530000D03*
X82390000Y-49530000D03*
X84890000Y-49530000D03*
X87390000Y-49530000D03*
X89890000Y-49530000D03*
X153670000Y-124460000D03*
X151170000Y-124460000D03*
X148670000Y-124460000D03*
X146170000Y-124460000D03*
X135890000Y-124460000D03*
X133390000Y-124460000D03*
X130890000Y-124460000D03*
X128390000Y-124460000D03*
D11*
X227330000Y-102870000D03*
D12*
X227330000Y-105370000D03*
X227330000Y-107870000D03*
X227330000Y-110370000D03*
X227330000Y-112870000D03*
X227330000Y-115370000D03*
D11*
X237490000Y-102870000D03*
D12*
X237490000Y-105370000D03*
X237490000Y-107870000D03*
X237490000Y-110370000D03*
X237490000Y-112870000D03*
X237490000Y-115370000D03*
D11*
X227330000Y-82550000D03*
D12*
X227330000Y-85050000D03*
X227330000Y-87550000D03*
X227330000Y-90050000D03*
X227330000Y-92550000D03*
X227330000Y-95050000D03*
D11*
X237490000Y-82550000D03*
D12*
X237490000Y-85050000D03*
X237490000Y-87550000D03*
X237490000Y-90050000D03*
X237490000Y-92550000D03*
X237490000Y-95050000D03*
X238760000Y-48260000D03*
X238760000Y-50800000D03*
X236220000Y-48260000D03*
X236220000Y-50800000D03*
X233680000Y-48260000D03*
X233680000Y-50800000D03*
X231140000Y-48260000D03*
X231140000Y-50800000D03*
X228600000Y-48260000D03*
X228600000Y-50800000D03*
X226060000Y-48260000D03*
X226060000Y-50800000D03*
X223520000Y-48260000D03*
X223520000Y-50800000D03*
X220980000Y-48260000D03*
X220980000Y-50800000D03*
X208280000Y-48260000D03*
X208280000Y-50800000D03*
X205740000Y-48260000D03*
X205740000Y-50800000D03*
X203200000Y-48260000D03*
X203200000Y-50800000D03*
X200660000Y-48260000D03*
X200660000Y-50800000D03*
X198120000Y-48260000D03*
X198120000Y-50800000D03*
X195580000Y-48260000D03*
X195580000Y-50800000D03*
X193040000Y-48260000D03*
X193040000Y-50800000D03*
X190500000Y-48260000D03*
X190500000Y-50800000D03*
X115570000Y-59690000D03*
X110490000Y-59690000D03*
X107950000Y-59690000D03*
X105410000Y-59690000D03*
X102870000Y-59690000D03*
X100330000Y-59690000D03*
X97790000Y-59690000D03*
X95250000Y-59690000D03*
D13*
X151130000Y-107950000D03*
D12*
X148590000Y-107950000D03*
D13*
X146050000Y-107950000D03*
X143510000Y-107950000D03*
X140970000Y-107950000D03*
D12*
X138430000Y-107950000D03*
X135890000Y-107950000D03*
X133350000Y-107950000D03*
X128270000Y-107950000D03*
X125730000Y-107950000D03*
X123190000Y-107950000D03*
X120650000Y-107950000D03*
X118110000Y-107950000D03*
X115570000Y-107950000D03*
X113030000Y-107950000D03*
X110490000Y-107950000D03*
X91186000Y-107950000D03*
X106426000Y-107950000D03*
X103886000Y-107950000D03*
X101346000Y-107950000D03*
X83566000Y-107950000D03*
X86106000Y-107950000D03*
X88646000Y-107950000D03*
X93726000Y-107950000D03*
X96266000Y-107950000D03*
X98806000Y-107950000D03*
X92710000Y-59690000D03*
X118110000Y-59690000D03*
X120650000Y-59690000D03*
X123190000Y-59690000D03*
X125730000Y-59690000D03*
X128270000Y-59690000D03*
X130810000Y-59690000D03*
X133350000Y-59690000D03*
X138430000Y-59690000D03*
X140970000Y-59690000D03*
X143510000Y-59690000D03*
X146050000Y-59690000D03*
X148590000Y-59690000D03*
X151130000Y-59690000D03*
X153670000Y-59690000D03*
X156210000Y-59690000D03*
D13*
X158750000Y-107950000D03*
X161290000Y-107950000D03*
X158750000Y-105410000D03*
X161290000Y-105410000D03*
X158750000Y-102870000D03*
X161290000Y-102870000D03*
X158750000Y-100330000D03*
X161290000Y-100330000D03*
X158750000Y-97790000D03*
X161290000Y-97790000D03*
X158750000Y-95250000D03*
X161290000Y-95250000D03*
X158750000Y-92710000D03*
X161290000Y-92710000D03*
D12*
X158750000Y-90170000D03*
X161290000Y-90170000D03*
X158750000Y-87630000D03*
X161290000Y-87630000D03*
X158750000Y-85090000D03*
X161290000Y-85090000D03*
D13*
X158750000Y-82550000D03*
X161290000Y-82550000D03*
D12*
X158750000Y-80010000D03*
D13*
X161290000Y-80010000D03*
X158750000Y-77470000D03*
X161290000Y-77470000D03*
D12*
X158750000Y-74930000D03*
X161290000Y-74930000D03*
X158750000Y-72390000D03*
X161290000Y-72390000D03*
X158750000Y-69850000D03*
X161290000Y-69850000D03*
X158750000Y-67310000D03*
X161290000Y-67310000D03*
X158750000Y-64770000D03*
X161290000Y-64770000D03*
D14*
X212090000Y-124460000D03*
D15*
X204470000Y-124460000D03*
D12*
X163830000Y-127000000D03*
X163830000Y-124460000D03*
X163830000Y-121920000D03*
X163830000Y-119380000D03*
X163830000Y-116840000D03*
X163830000Y-114300000D03*
X176530000Y-127000000D03*
X176530000Y-124460000D03*
X176530000Y-121920000D03*
X176530000Y-119380000D03*
X176530000Y-116840000D03*
X176530000Y-114300000D03*
D16*
X54602856Y-128188224D03*
X54610000Y-49530000D03*
X247632427Y-128266279D03*
X247617032Y-49489805D03*
D17*
X240048107Y-104656016D03*
X239990305Y-98785770D03*
X216561212Y-92334368D03*
X216540602Y-89424226D03*
X213952082Y-87110645D03*
X214022056Y-92323643D03*
X210050000Y-56450000D03*
X208210000Y-68630000D03*
X208270000Y-56370000D03*
X207610000Y-66750000D03*
X203265955Y-53167975D03*
X201451876Y-53174023D03*
X194301697Y-53316309D03*
X189030205Y-62287016D03*
X197673498Y-53814692D03*
X195548841Y-53345322D03*
X198532973Y-55333310D03*
X193081119Y-55177387D03*
X187958384Y-55460343D03*
X190371449Y-53243950D03*
X234396592Y-69055908D03*
X233236458Y-66819903D03*
X235177628Y-57132875D03*
X223236723Y-55288042D03*
X224484038Y-55304678D03*
X223234644Y-65920417D03*
X216059580Y-53815421D03*
X101030130Y-92663417D03*
X101030130Y-95260319D03*
X106691845Y-95377297D03*
X106680000Y-92710000D03*
X111815463Y-95424088D03*
X111760000Y-92710000D03*
X191624658Y-57614363D03*
X200466058Y-74213457D03*
X195260175Y-72896356D03*
X201578226Y-72764308D03*
X227965000Y-73660000D03*
X215265000Y-71120000D03*
X104820204Y-95330506D03*
X104775000Y-92710000D03*
X110598896Y-95400692D03*
X110480000Y-92710000D03*
X201295000Y-118745000D03*
X204922544Y-118490166D03*
X203775275Y-55329162D03*
X219710000Y-55245000D03*
D18*
X207422350Y-99058617D03*
X241940721Y-69905972D03*
X206413568Y-106183574D03*
X216408000Y-69850000D03*
D17*
X160030000Y-125850000D03*
X160030000Y-123850000D03*
X160030000Y-121350000D03*
X58438974Y-130852766D03*
X51579241Y-124426549D03*
X51477238Y-126466618D03*
X248158558Y-116118100D03*
X248158558Y-121158830D03*
X243805200Y-123793758D03*
X235728574Y-128949050D03*
X240832275Y-128835889D03*
X244094000Y-76200000D03*
X244094000Y-74168000D03*
X244094000Y-72136000D03*
X244094000Y-69850000D03*
X244094000Y-66294000D03*
X244094000Y-63754000D03*
X244094000Y-61214000D03*
X184658000Y-48514000D03*
X239522000Y-76200000D03*
X235458000Y-76200000D03*
X231140000Y-76200000D03*
X226822000Y-76200000D03*
X242824000Y-48006000D03*
X242824000Y-51054000D03*
X242824000Y-54864000D03*
X242824000Y-58674000D03*
X237236000Y-70104000D03*
X238760000Y-68580000D03*
X196838500Y-67069354D03*
X214722981Y-67179544D03*
X216662000Y-67183000D03*
X221966310Y-87618545D03*
X218530000Y-76100000D03*
X222030000Y-76350000D03*
X222030000Y-80100000D03*
X222030000Y-83850000D03*
X120700000Y-126927436D03*
X123470000Y-126927436D03*
X126650000Y-126927436D03*
X129380000Y-126927436D03*
X128144229Y-102317528D03*
X134090000Y-120600000D03*
X134010000Y-117060000D03*
X133970000Y-113960000D03*
X133970000Y-110810000D03*
X137830000Y-110770000D03*
X146071051Y-118315550D03*
X141130000Y-110700000D03*
X141340000Y-112980000D03*
X142220000Y-114700000D03*
X143900000Y-116240000D03*
X213360000Y-97790000D03*
X210820000Y-97790000D03*
X95250000Y-124460000D03*
X97790000Y-124460000D03*
X214644114Y-121254436D03*
X214630000Y-118902185D03*
X214630000Y-116840000D03*
X220980000Y-114300000D03*
X220980000Y-111760000D03*
X220980000Y-109220000D03*
X220980000Y-106680000D03*
X220980000Y-104140000D03*
X224968898Y-70087138D03*
X214870000Y-75530000D03*
X210740000Y-75640000D03*
X206960000Y-75710000D03*
X203930000Y-75730000D03*
X201420000Y-78210000D03*
X199090000Y-80690000D03*
X196150000Y-83330000D03*
X193160000Y-86280000D03*
X190720000Y-88630000D03*
X188030000Y-91070000D03*
X185320000Y-93680000D03*
X156210000Y-121285000D03*
X149225000Y-121285000D03*
X149225000Y-118745000D03*
X60839520Y-54553177D03*
X53853361Y-56013560D03*
X53925003Y-59859251D03*
X62256613Y-47578311D03*
X65493752Y-47479467D03*
X196463438Y-61005719D03*
X221930206Y-60948382D03*
X173355000Y-93345000D03*
X175260000Y-91440000D03*
X177165000Y-89535000D03*
X179070000Y-87630000D03*
X182245000Y-84455000D03*
X184785000Y-81915000D03*
X184785000Y-78105000D03*
X184785000Y-74295000D03*
X184785000Y-69850000D03*
X184785000Y-66675000D03*
X184785000Y-62865000D03*
X184785000Y-59690000D03*
X184785000Y-55880000D03*
X184785000Y-52070000D03*
X60325000Y-130810000D03*
X160020000Y-118745000D03*
X158115000Y-118745000D03*
X156210000Y-118745000D03*
X239522000Y-67056000D03*
X98425000Y-95250000D03*
D19*
X161290000Y-102870000D02*
X201475810Y-102870000D01*
X214232982Y-94358918D02*
X219626511Y-99752447D01*
X201475810Y-102870000D02*
X209986892Y-94358918D01*
X223614557Y-101059027D02*
X223614557Y-104154557D01*
X222307977Y-99752447D02*
X223614557Y-101059027D01*
X226580001Y-107120001D02*
X227330000Y-107870000D01*
X223614557Y-104154557D02*
X226580001Y-107120001D01*
X209986892Y-94358918D02*
X214232982Y-94358918D01*
X219626511Y-99752447D02*
X222307977Y-99752447D01*
X237490000Y-107870000D02*
X238727436Y-107870000D01*
X238727436Y-107870000D02*
X239051448Y-107545988D01*
X239051448Y-107545988D02*
X239051448Y-87851765D01*
X239051448Y-87851765D02*
X238749683Y-87550000D01*
X238749683Y-87550000D02*
X237490000Y-87550000D01*
X237490000Y-87550000D02*
X227330000Y-87550000D01*
X236740001Y-90799999D02*
X237490000Y-90050000D01*
X216853400Y-90274237D02*
X217929162Y-91349999D01*
X201930000Y-100330000D02*
X211985763Y-90274237D01*
X211985763Y-90274237D02*
X216853400Y-90274237D01*
X217929162Y-91349999D02*
X236190001Y-91349999D01*
X161290000Y-100330000D02*
X201930000Y-100330000D01*
X236190001Y-91349999D02*
X236740001Y-90799999D01*
X158750000Y-100330000D02*
X160054009Y-101634009D01*
X218280620Y-92550000D02*
X226269340Y-92550000D01*
X216934536Y-91203916D02*
X218280620Y-92550000D01*
X201863258Y-101634009D02*
X212293351Y-91203916D01*
X160054009Y-101634009D02*
X201863258Y-101634009D01*
X212293351Y-91203916D02*
X216934536Y-91203916D01*
X226269340Y-92550000D02*
X227330000Y-92550000D01*
X239990305Y-104598214D02*
X240048107Y-104656016D01*
X239990305Y-98785770D02*
X239990305Y-104598214D01*
X161290000Y-97790000D02*
X201434230Y-97790000D01*
X201434230Y-97790000D02*
X210650005Y-88574225D01*
X210650005Y-88574225D02*
X217701451Y-88574225D01*
X217701451Y-88574225D02*
X219225057Y-90097831D01*
X219225057Y-90097831D02*
X227282169Y-90097831D01*
X227282169Y-90097831D02*
X227330000Y-90050000D01*
X237490000Y-110370000D02*
X233603032Y-110370000D01*
X231931971Y-108698939D02*
X231931971Y-100908429D01*
X233603032Y-110370000D02*
X231931971Y-108698939D01*
X231931971Y-100908429D02*
X228213532Y-97189990D01*
X228213532Y-97189990D02*
X221416834Y-97189990D01*
X221416834Y-97189990D02*
X216961211Y-92734367D01*
X216961211Y-92734367D02*
X216561212Y-92334368D01*
X158750000Y-97790000D02*
X159950001Y-98990001D01*
X159950001Y-98990001D02*
X201755840Y-98990001D01*
X201755840Y-98990001D02*
X211281100Y-89464741D01*
X211281100Y-89464741D02*
X216500087Y-89464741D01*
X216500087Y-89464741D02*
X216540602Y-89424226D01*
X227330000Y-110370000D02*
X228927087Y-110370000D01*
X228927087Y-110370000D02*
X230378000Y-108919087D01*
X230378000Y-108919087D02*
X230378000Y-101174898D01*
X230378000Y-101174898D02*
X227615610Y-98412508D01*
X227615610Y-98412508D02*
X220110921Y-98412508D01*
X220110921Y-98412508D02*
X214422055Y-92723642D01*
X214422055Y-92723642D02*
X214022056Y-92323643D01*
X213386397Y-87110645D02*
X213952082Y-87110645D01*
X210558647Y-87110645D02*
X213386397Y-87110645D01*
X201219291Y-96450001D02*
X210558647Y-87110645D01*
X159950001Y-96450001D02*
X201219291Y-96450001D01*
X158750000Y-95250000D02*
X159950001Y-96450001D01*
X153670000Y-124460000D02*
X153670000Y-112033981D01*
X153670000Y-112033981D02*
X151130000Y-109493981D01*
X151130000Y-109493981D02*
X151130000Y-107950000D01*
X151170000Y-124460000D02*
X151170000Y-112271947D01*
X151170000Y-112271947D02*
X148590000Y-109691947D01*
X148590000Y-109691947D02*
X148590000Y-107950000D01*
X104705020Y-57715020D02*
X97790000Y-50800000D01*
X97790000Y-50800000D02*
X97790000Y-49530000D01*
X128270000Y-58420000D02*
X127565020Y-57715020D01*
X127565020Y-57715020D02*
X104705020Y-57715020D01*
X128270000Y-59690000D02*
X128270000Y-58420000D01*
X130810000Y-59690000D02*
X130810000Y-57785000D01*
X130810000Y-57785000D02*
X130140010Y-57115010D01*
X130140010Y-57115010D02*
X106079990Y-57115010D01*
X106079990Y-57115010D02*
X100290000Y-51325020D01*
X100290000Y-51325020D02*
X100290000Y-49530000D01*
X133350000Y-59690000D02*
X133350000Y-57150000D01*
X108371458Y-56515000D02*
X102790000Y-50933542D01*
X133350000Y-57150000D02*
X132715000Y-56515000D01*
X132715000Y-56515000D02*
X108371458Y-56515000D01*
X102790000Y-50933542D02*
X102790000Y-50767436D01*
X102790000Y-50767436D02*
X102790000Y-49530000D01*
X138430000Y-59690000D02*
X138430000Y-57150000D01*
X138430000Y-57150000D02*
X137160000Y-55880000D01*
X137160000Y-55880000D02*
X109488338Y-55880000D01*
X109488338Y-55880000D02*
X105290000Y-51681662D01*
X105290000Y-51681662D02*
X105290000Y-49530000D01*
X140970000Y-59690000D02*
X140970000Y-56515000D01*
X111415001Y-55245000D02*
X107790000Y-51619999D01*
X140970000Y-56515000D02*
X139700000Y-55245000D01*
X139700000Y-55245000D02*
X111415001Y-55245000D01*
X107790000Y-51619999D02*
X107790000Y-49530000D01*
X143510000Y-59690000D02*
X143510000Y-55880000D01*
X143510000Y-55880000D02*
X141605000Y-53975000D01*
X141605000Y-53975000D02*
X112395000Y-53975000D01*
X112395000Y-53975000D02*
X110290000Y-51870000D01*
X110290000Y-51870000D02*
X110290000Y-49530000D01*
X114300000Y-53340000D02*
X112790000Y-51830000D01*
X112790000Y-51830000D02*
X112790000Y-49530000D01*
X144145000Y-53340000D02*
X114300000Y-53340000D01*
X146050000Y-55245000D02*
X144145000Y-53340000D01*
X146050000Y-59690000D02*
X146050000Y-55245000D01*
X148590000Y-59690000D02*
X148590000Y-54610000D01*
X148590000Y-54610000D02*
X146050000Y-52070000D01*
X146050000Y-52070000D02*
X116205000Y-52070000D01*
X116205000Y-52070000D02*
X115290000Y-51155000D01*
X115290000Y-51155000D02*
X115290000Y-49530000D01*
X208210000Y-68630000D02*
X208950934Y-68630000D01*
X208950934Y-68630000D02*
X210020000Y-67560934D01*
X210020000Y-67560934D02*
X210020000Y-56480000D01*
X210020000Y-56480000D02*
X210050000Y-56450000D01*
X207610000Y-66750000D02*
X208270000Y-66090000D01*
X208270000Y-66090000D02*
X208270000Y-56370000D01*
X203259907Y-53174023D02*
X203265955Y-53167975D01*
X201451876Y-53174023D02*
X203259907Y-53174023D01*
X189030205Y-62287016D02*
X189030205Y-56492296D01*
X189030205Y-56492296D02*
X192206192Y-53316309D01*
X192206192Y-53316309D02*
X194301697Y-53316309D01*
X197273499Y-53414693D02*
X197673498Y-53814692D01*
X197204128Y-53345322D02*
X197273499Y-53414693D01*
X195548841Y-53345322D02*
X197204128Y-53345322D01*
X198377050Y-55177387D02*
X198532973Y-55333310D01*
X193081119Y-55177387D02*
X198377050Y-55177387D01*
X188155056Y-55460343D02*
X187958384Y-55460343D01*
X190371449Y-53243950D02*
X188155056Y-55460343D01*
X238791274Y-50877170D02*
X238810296Y-50896192D01*
X238810296Y-50896192D02*
X238810296Y-58249704D01*
X238810296Y-58249704D02*
X234396592Y-62663408D01*
X234396592Y-62663408D02*
X234396592Y-69055908D01*
X233236458Y-66254218D02*
X233236458Y-66819903D01*
X237542189Y-58117367D02*
X233236458Y-62423098D01*
X237542189Y-49662664D02*
X237542189Y-58117367D01*
X236202206Y-48322681D02*
X237542189Y-49662664D01*
X233236458Y-62423098D02*
X233236458Y-66254218D01*
X233695324Y-50793329D02*
X233695324Y-52401526D01*
X233695324Y-52401526D02*
X235177628Y-53883830D01*
X235177628Y-53883830D02*
X235177628Y-56567190D01*
X235177628Y-56567190D02*
X235177628Y-57132875D01*
X223236723Y-55288042D02*
X223236723Y-54641635D01*
X223236723Y-54641635D02*
X224859999Y-53018359D01*
X224859999Y-53018359D02*
X224859999Y-49460001D01*
X224859999Y-49460001D02*
X226060000Y-48260000D01*
X224484038Y-55304678D02*
X226060000Y-53728716D01*
X226060000Y-53728716D02*
X226060000Y-50800000D01*
X224484038Y-55089899D02*
X224484038Y-55304678D01*
X223234644Y-65920417D02*
X223234644Y-56992240D01*
X223234644Y-56992240D02*
X221690597Y-55448193D01*
X221690597Y-55448193D02*
X221690597Y-52629403D01*
X221690597Y-52629403D02*
X223520000Y-50800000D01*
X220980000Y-50800000D02*
X217462088Y-50800000D01*
X217462088Y-50800000D02*
X216059036Y-52203052D01*
X216059036Y-52203052D02*
X216059036Y-53814877D01*
X216059036Y-53814877D02*
X216059580Y-53815421D01*
X90170000Y-124460000D02*
X90170000Y-121625355D01*
X90170000Y-121625355D02*
X98808919Y-112986436D01*
X98808919Y-112986436D02*
X110533564Y-112986436D01*
X110533564Y-112986436D02*
X113030000Y-110490000D01*
X113030000Y-110490000D02*
X113030000Y-107950000D01*
X101030130Y-95260319D02*
X101030130Y-92663417D01*
X106680000Y-95365452D02*
X106691845Y-95377297D01*
X106680000Y-92710000D02*
X106680000Y-95365452D01*
X111760000Y-95368625D02*
X111815463Y-95424088D01*
X111760000Y-92710000D02*
X111760000Y-95368625D01*
X200466058Y-74213457D02*
X194321715Y-74213457D01*
X191624658Y-58180048D02*
X191624658Y-57614363D01*
X194321715Y-74213457D02*
X191624658Y-71516400D01*
X191624658Y-71516400D02*
X191624658Y-58180048D01*
X195392223Y-72764308D02*
X195260175Y-72896356D01*
X201578226Y-72764308D02*
X195392223Y-72764308D01*
X215265000Y-71120000D02*
X215265000Y-72439385D01*
X215265000Y-72439385D02*
X216485615Y-73660000D01*
X216485615Y-73660000D02*
X227965000Y-73660000D01*
X87670000Y-124460000D02*
X87670000Y-121532355D01*
X87670000Y-121532355D02*
X97442355Y-111760000D01*
X97442355Y-111760000D02*
X109220000Y-111760000D01*
X109220000Y-111760000D02*
X110490000Y-110490000D01*
X110490000Y-110490000D02*
X110490000Y-107950000D01*
X104775000Y-95285302D02*
X104820204Y-95330506D01*
X104775000Y-92710000D02*
X104775000Y-95285302D01*
X110480000Y-95281796D02*
X110598896Y-95400692D01*
X110480000Y-92710000D02*
X110480000Y-95281796D01*
D20*
X204667710Y-118745000D02*
X204922544Y-118490166D01*
X201295000Y-118745000D02*
X204667710Y-118745000D01*
D19*
X215132645Y-55329162D02*
X204340960Y-55329162D01*
X219710000Y-55245000D02*
X219310001Y-55644999D01*
X219310001Y-55644999D02*
X215448482Y-55644999D01*
X204340960Y-55329162D02*
X203775275Y-55329162D01*
X215448482Y-55644999D02*
X215132645Y-55329162D01*
D21*
X206922351Y-99558616D02*
X207422350Y-99058617D01*
X206413568Y-100067399D02*
X206922351Y-99558616D01*
X206413568Y-106183574D02*
X206413568Y-100067399D01*
X241440722Y-70405971D02*
X241940721Y-69905972D01*
X216408000Y-69850000D02*
X218947427Y-72389427D01*
X218947427Y-72389427D02*
X239457266Y-72389427D01*
X239457266Y-72389427D02*
X241440722Y-70405971D01*
X227330000Y-82550000D02*
X228580000Y-82550000D01*
X228580000Y-82550000D02*
X237490000Y-82550000D01*
X163830000Y-127000000D02*
X163830000Y-127553468D01*
X163830000Y-127553468D02*
X163237049Y-128146419D01*
X163237049Y-128146419D02*
X148713581Y-128146419D01*
X148713581Y-128146419D02*
X147955000Y-128905000D01*
X147955000Y-128905000D02*
X147910822Y-128949178D01*
X147910822Y-128949178D02*
X136618120Y-128949178D01*
X136618120Y-128949178D02*
X135890000Y-128221058D01*
X135890000Y-128221058D02*
X135890000Y-124460000D01*
X148670000Y-128190000D02*
X147955000Y-128905000D01*
X148670000Y-124460000D02*
X148670000Y-128190000D01*
D20*
X160030000Y-121350000D02*
X160030000Y-123850000D01*
D21*
X146170000Y-124460000D02*
X146170000Y-121138376D01*
X146170000Y-121138376D02*
X144411624Y-119380000D01*
X130906341Y-124443659D02*
X130890000Y-124460000D01*
X144411624Y-119380000D02*
X131273031Y-119380000D01*
X131273031Y-119380000D02*
X130906341Y-119746690D01*
X130906341Y-119746690D02*
X130906341Y-124443659D01*
D20*
X51477238Y-126466618D02*
X51477238Y-130317248D01*
X57159265Y-131566790D02*
X57873289Y-130852766D01*
X51477238Y-130317248D02*
X52726780Y-131566790D01*
X52726780Y-131566790D02*
X57159265Y-131566790D01*
X57873289Y-130852766D02*
X58438974Y-130852766D01*
D21*
X51477238Y-124528552D02*
X51579241Y-124426549D01*
X51477238Y-126466618D02*
X51477238Y-124528552D01*
X247592873Y-121158830D02*
X248158558Y-121158830D01*
X246440128Y-121158830D02*
X247592873Y-121158830D01*
X243805200Y-123793758D02*
X246440128Y-121158830D01*
X235841735Y-128835889D02*
X235728574Y-128949050D01*
X240832275Y-128835889D02*
X235841735Y-128835889D01*
D20*
X244094000Y-72136000D02*
X244094000Y-74168000D01*
X244094000Y-66294000D02*
X244094000Y-69850000D01*
X244094000Y-61214000D02*
X244094000Y-63754000D01*
X184785000Y-52070000D02*
X184785000Y-48641000D01*
X184785000Y-48641000D02*
X184658000Y-48514000D01*
X231140000Y-76200000D02*
X235458000Y-76200000D01*
X222030000Y-76350000D02*
X226672000Y-76350000D01*
X226672000Y-76350000D02*
X226822000Y-76200000D01*
X242824000Y-54864000D02*
X242824000Y-51054000D01*
X239522000Y-61976000D02*
X242824000Y-58674000D01*
X239522000Y-67056000D02*
X239522000Y-61976000D01*
X239522000Y-67056000D02*
X239522000Y-67818000D01*
X239522000Y-67818000D02*
X238760000Y-68580000D01*
D21*
X196463438Y-66694292D02*
X196838500Y-67069354D01*
X197238499Y-67469353D02*
X196838500Y-67069354D01*
X199932847Y-70163701D02*
X197238499Y-67469353D01*
X211738824Y-70163701D02*
X199932847Y-70163701D01*
X214722981Y-67179544D02*
X211738824Y-70163701D01*
X196463438Y-61005719D02*
X196463438Y-66694292D01*
X214726437Y-67183000D02*
X214722981Y-67179544D01*
X216662000Y-67183000D02*
X214726437Y-67183000D01*
X216662000Y-67183000D02*
X217170000Y-67183000D01*
X217170000Y-67183000D02*
X217170000Y-63030752D01*
X217170000Y-63030752D02*
X219252370Y-60948382D01*
X219252370Y-60948382D02*
X221632302Y-60948382D01*
X221632302Y-60948382D02*
X221930206Y-60948382D01*
D20*
X225203412Y-69075720D02*
X225203412Y-68884466D01*
D21*
X225203412Y-68884466D02*
X224336473Y-68017527D01*
X55880000Y-114420000D02*
X84716000Y-114420000D01*
X84716000Y-114420000D02*
X88942387Y-110193613D01*
X88942387Y-110193613D02*
X91179271Y-110193613D01*
X91179271Y-110193613D02*
X91179271Y-107956729D01*
X91179271Y-107956729D02*
X91186000Y-107950000D01*
X221566311Y-87218546D02*
X221966310Y-87618545D01*
X214870000Y-80522235D02*
X221566311Y-87218546D01*
X214870000Y-75530000D02*
X214870000Y-80522235D01*
X222030000Y-76350000D02*
X218780000Y-76350000D01*
X218780000Y-76350000D02*
X218530000Y-76100000D01*
X222030000Y-83850000D02*
X222030000Y-80100000D01*
X127744230Y-102717527D02*
X128144229Y-102317528D01*
X125686757Y-104775000D02*
X127744230Y-102717527D01*
X99060000Y-104775000D02*
X125686757Y-104775000D01*
X133970000Y-113960000D02*
X133970000Y-117020000D01*
X133970000Y-117020000D02*
X134010000Y-117060000D01*
X137830000Y-110770000D02*
X134010000Y-110770000D01*
X134010000Y-110770000D02*
X133970000Y-110810000D01*
X145975550Y-118315550D02*
X146071051Y-118315550D01*
X143900000Y-116240000D02*
X145975550Y-118315550D01*
X142220000Y-114700000D02*
X142220000Y-113860000D01*
X142220000Y-113860000D02*
X141340000Y-112980000D01*
X210820000Y-97790000D02*
X213360000Y-97790000D01*
X97790000Y-124460000D02*
X95250000Y-124460000D01*
X214630000Y-116840000D02*
X214630000Y-118902185D01*
X220980000Y-109220000D02*
X220980000Y-111760000D01*
X220980000Y-104140000D02*
X220980000Y-106680000D01*
X225203412Y-69075720D02*
X226937357Y-70809665D01*
X226937357Y-70809665D02*
X237134640Y-70809665D01*
X237134640Y-70809665D02*
X239522000Y-68422305D01*
X239522000Y-68422305D02*
X239522000Y-67056000D01*
X224968898Y-69521453D02*
X224968898Y-70087138D01*
X224968898Y-68909102D02*
X224968898Y-69521453D01*
X217170000Y-67183000D02*
X218004527Y-68017527D01*
X218004527Y-68017527D02*
X224336473Y-68017527D01*
X206960000Y-75710000D02*
X210670000Y-75710000D01*
X210670000Y-75710000D02*
X210740000Y-75640000D01*
X201420000Y-78210000D02*
X201450000Y-78210000D01*
X201450000Y-78210000D02*
X203930000Y-75730000D01*
X196150000Y-83330000D02*
X196450000Y-83330000D01*
X196450000Y-83330000D02*
X199090000Y-80690000D01*
X190720000Y-88630000D02*
X190810000Y-88630000D01*
X190810000Y-88630000D02*
X193160000Y-86280000D01*
X185320000Y-93680000D02*
X185420000Y-93680000D01*
X185420000Y-93680000D02*
X188030000Y-91070000D01*
X149225000Y-118745000D02*
X149225000Y-121285000D01*
X54610000Y-119420000D02*
X57386001Y-119420000D01*
X57386001Y-119420000D02*
X57877499Y-118928502D01*
X57877499Y-118928502D02*
X57877499Y-114531782D01*
X57877499Y-114531782D02*
X57765717Y-114420000D01*
X57765717Y-114420000D02*
X55880000Y-114420000D01*
X54610000Y-119420000D02*
X58460000Y-119420000D01*
X58460000Y-119420000D02*
X64770000Y-125730000D01*
X64770000Y-125730000D02*
X64770000Y-126365000D01*
X64770000Y-126365000D02*
X60325000Y-130810000D01*
X60439521Y-54953176D02*
X60839520Y-54553177D01*
X59379137Y-56013560D02*
X60439521Y-54953176D01*
X53853361Y-56013560D02*
X59379137Y-56013560D01*
X62355457Y-47479467D02*
X62256613Y-47578311D01*
X65493752Y-47479467D02*
X62355457Y-47479467D01*
X105410000Y-59690000D02*
X105410000Y-66915554D01*
X107950000Y-59690000D02*
X105410000Y-59690000D01*
X175260000Y-91440000D02*
X173355000Y-93345000D01*
X179070000Y-87630000D02*
X177165000Y-89535000D01*
X184785000Y-81915000D02*
X182245000Y-84455000D01*
X184785000Y-74295000D02*
X184785000Y-78105000D01*
X184785000Y-66675000D02*
X184785000Y-69850000D01*
X184785000Y-59690000D02*
X184785000Y-62865000D01*
X156210000Y-118745000D02*
X158115000Y-118745000D01*
X92583000Y-104775000D02*
X97790000Y-104775000D01*
X92267781Y-104775000D02*
X92583000Y-104775000D01*
X91186000Y-81139554D02*
X91186000Y-103759000D01*
X91186000Y-103759000D02*
X91186000Y-104140000D01*
X92583000Y-104775000D02*
X92202000Y-104775000D01*
X92202000Y-104775000D02*
X91186000Y-103759000D01*
X92267781Y-104775000D02*
X91821000Y-104775000D01*
X91821000Y-104775000D02*
X91186000Y-104140000D01*
X176530000Y-124460000D02*
X163830000Y-124460000D01*
X97790000Y-104775000D02*
X98425000Y-104775000D01*
X98425000Y-104775000D02*
X99060000Y-104775000D01*
X98425000Y-104140000D02*
X98425000Y-104775000D01*
X98425000Y-104140000D02*
X99060000Y-104775000D01*
X98425000Y-104140000D02*
X97790000Y-104775000D01*
X98425000Y-95250000D02*
X98425000Y-104140000D01*
X91632781Y-105410000D02*
X92267781Y-104775000D01*
X91186000Y-105856781D02*
X91632781Y-105410000D01*
X91632781Y-105410000D02*
X91632781Y-104967781D01*
X91186000Y-104140000D02*
X91186000Y-104775000D01*
X91186000Y-104775000D02*
X91186000Y-107950000D01*
X92267781Y-104775000D02*
X91186000Y-104775000D01*
X91186000Y-107950000D02*
X91186000Y-105856781D01*
X105410000Y-66915554D02*
X91186000Y-81139554D01*
X54610000Y-114420000D02*
X55880000Y-114420000D01*
D19*
G36*
X251505000Y-132125000D02*
X50755000Y-132125000D01*
X50755000Y-128762539D01*
X51702354Y-128762539D01*
X52142922Y-129828796D01*
X52957993Y-130645291D01*
X54023480Y-131087719D01*
X55177171Y-131088726D01*
X56243428Y-130648158D01*
X57059923Y-129833087D01*
X57502351Y-128767600D01*
X57503358Y-127613909D01*
X57062790Y-126547652D01*
X56247719Y-125731157D01*
X55182232Y-125288729D01*
X54028541Y-125287722D01*
X52962284Y-125728290D01*
X52145789Y-126543361D01*
X51703361Y-127608848D01*
X51702354Y-128762539D01*
X50755000Y-128762539D01*
X50755000Y-114935000D01*
X51285000Y-114935000D01*
X51285000Y-123825000D01*
X51295258Y-123879519D01*
X51327479Y-123929591D01*
X51376642Y-123963182D01*
X51435000Y-123975000D01*
X57150000Y-123975000D01*
X57204519Y-123964742D01*
X57254591Y-123932521D01*
X57288182Y-123883358D01*
X57300000Y-123825000D01*
X57300000Y-121920000D01*
X70335000Y-121920000D01*
X70335000Y-126365000D01*
X70345258Y-126419519D01*
X70377479Y-126469591D01*
X70426642Y-126503182D01*
X70485000Y-126515000D01*
X92075000Y-126515000D01*
X92129519Y-126504742D01*
X92179591Y-126472521D01*
X92213182Y-126423358D01*
X92225000Y-126365000D01*
X92225000Y-124274474D01*
X99194680Y-124274474D01*
X99231417Y-124830216D01*
X99373412Y-125173023D01*
X99615806Y-125242062D01*
X100397868Y-124460000D01*
X99615806Y-123677938D01*
X99373412Y-123746977D01*
X99194680Y-124274474D01*
X92225000Y-124274474D01*
X92225000Y-123465806D01*
X99827938Y-123465806D01*
X100610000Y-124247868D01*
X100624143Y-124233726D01*
X100836275Y-124445858D01*
X100822132Y-124460000D01*
X100836275Y-124474143D01*
X100624143Y-124686275D01*
X100610000Y-124672132D01*
X99827938Y-125454194D01*
X99896977Y-125696588D01*
X100424474Y-125875320D01*
X100980216Y-125838583D01*
X101323023Y-125696588D01*
X101392061Y-125454196D01*
X101511198Y-125573333D01*
X101523974Y-125560557D01*
X102032331Y-126069802D01*
X102730409Y-126359669D01*
X103486275Y-126360329D01*
X104184857Y-126071681D01*
X104696450Y-125560981D01*
X104708802Y-125573333D01*
X104827939Y-125454196D01*
X104896977Y-125696588D01*
X105424474Y-125875320D01*
X105980216Y-125838583D01*
X106323023Y-125696588D01*
X106392061Y-125454196D01*
X106511198Y-125573333D01*
X106523974Y-125560557D01*
X107032331Y-126069802D01*
X107730409Y-126359669D01*
X108486275Y-126360329D01*
X109184857Y-126071681D01*
X109696450Y-125560981D01*
X109708802Y-125573333D01*
X109827939Y-125454196D01*
X109896977Y-125696588D01*
X110424474Y-125875320D01*
X110980216Y-125838583D01*
X111323023Y-125696588D01*
X111392061Y-125454196D01*
X111511198Y-125573333D01*
X111523974Y-125560557D01*
X112032331Y-126069802D01*
X112730409Y-126359669D01*
X113486275Y-126360329D01*
X114184857Y-126071681D01*
X114696450Y-125560981D01*
X114708802Y-125573333D01*
X114827939Y-125454196D01*
X114896977Y-125696588D01*
X115424474Y-125875320D01*
X115980216Y-125838583D01*
X116310009Y-125701978D01*
X116519522Y-126027570D01*
X116903821Y-126290150D01*
X117360000Y-126382529D01*
X118860000Y-126382529D01*
X119286164Y-126302341D01*
X119677570Y-126050478D01*
X119940150Y-125666179D01*
X120032529Y-125210000D01*
X120032529Y-123710000D01*
X119952341Y-123283836D01*
X119700478Y-122892430D01*
X119316179Y-122629850D01*
X118860000Y-122537471D01*
X117360000Y-122537471D01*
X116933836Y-122617659D01*
X116542430Y-122869522D01*
X116304838Y-123217250D01*
X115795526Y-123044680D01*
X115239784Y-123081417D01*
X114896977Y-123223412D01*
X114827939Y-123465804D01*
X114708802Y-123346667D01*
X114696026Y-123359443D01*
X114187669Y-122850198D01*
X113489591Y-122560331D01*
X112733725Y-122559671D01*
X112035143Y-122848319D01*
X111523550Y-123359019D01*
X111511198Y-123346667D01*
X111392061Y-123465804D01*
X111323023Y-123223412D01*
X110795526Y-123044680D01*
X110239784Y-123081417D01*
X109896977Y-123223412D01*
X109827939Y-123465804D01*
X109708802Y-123346667D01*
X109696026Y-123359443D01*
X109187669Y-122850198D01*
X108489591Y-122560331D01*
X107733725Y-122559671D01*
X107035143Y-122848319D01*
X106523550Y-123359019D01*
X106511198Y-123346667D01*
X106392061Y-123465804D01*
X106323023Y-123223412D01*
X105795526Y-123044680D01*
X105239784Y-123081417D01*
X104896977Y-123223412D01*
X104827939Y-123465804D01*
X104708802Y-123346667D01*
X104696026Y-123359443D01*
X104187669Y-122850198D01*
X103489591Y-122560331D01*
X102733725Y-122559671D01*
X102035143Y-122848319D01*
X101523550Y-123359019D01*
X101511198Y-123346667D01*
X101392061Y-123465804D01*
X101323023Y-123223412D01*
X100795526Y-123044680D01*
X100239784Y-123081417D01*
X99896977Y-123223412D01*
X99827938Y-123465806D01*
X92225000Y-123465806D01*
X92225000Y-121920000D01*
X92214742Y-121865481D01*
X92182521Y-121815409D01*
X92133358Y-121781818D01*
X92075000Y-121770000D01*
X91863833Y-121770000D01*
X99347397Y-114286436D01*
X110533564Y-114286436D01*
X111031053Y-114187479D01*
X111452803Y-113905675D01*
X113949239Y-111409239D01*
X114231043Y-110987488D01*
X114330001Y-110490000D01*
X114330000Y-110489995D01*
X114330000Y-109975043D01*
X147341858Y-109952656D01*
X147388957Y-110189436D01*
X147670761Y-110611186D01*
X149870000Y-112810425D01*
X149870000Y-122405000D01*
X147320000Y-122405000D01*
X147265481Y-122415258D01*
X147215409Y-122447479D01*
X147181818Y-122496642D01*
X147170000Y-122555000D01*
X147170000Y-123272721D01*
X147083550Y-123359019D01*
X147071198Y-123346667D01*
X146952061Y-123465804D01*
X146883023Y-123223412D01*
X146355526Y-123044680D01*
X145799784Y-123081417D01*
X145456977Y-123223412D01*
X145387938Y-123465806D01*
X146170000Y-124247868D01*
X146184143Y-124233726D01*
X146396275Y-124445858D01*
X146382132Y-124460000D01*
X146396275Y-124474143D01*
X146184143Y-124686275D01*
X146170000Y-124672132D01*
X145387938Y-125454194D01*
X145456977Y-125696588D01*
X145984474Y-125875320D01*
X146540216Y-125838583D01*
X146883023Y-125696588D01*
X146952061Y-125454196D01*
X147071198Y-125573333D01*
X147083974Y-125560557D01*
X147170000Y-125646733D01*
X147170000Y-127449178D01*
X137390000Y-127449178D01*
X137390000Y-125647279D01*
X137499802Y-125537669D01*
X137789669Y-124839591D01*
X137790162Y-124274474D01*
X144754680Y-124274474D01*
X144791417Y-124830216D01*
X144933412Y-125173023D01*
X145175806Y-125242062D01*
X145957868Y-124460000D01*
X145175806Y-123677938D01*
X144933412Y-123746977D01*
X144754680Y-124274474D01*
X137790162Y-124274474D01*
X137790329Y-124083725D01*
X137501681Y-123385143D01*
X136967669Y-122850198D01*
X136269591Y-122560331D01*
X135513725Y-122559671D01*
X134815143Y-122848319D01*
X134640163Y-123022994D01*
X134467669Y-122850198D01*
X133769591Y-122560331D01*
X133013725Y-122559671D01*
X132315143Y-122848319D01*
X131803550Y-123359019D01*
X131791198Y-123346667D01*
X131672061Y-123465804D01*
X131603023Y-123223412D01*
X131075526Y-123044680D01*
X130519784Y-123081417D01*
X130176977Y-123223412D01*
X130107939Y-123465804D01*
X129988802Y-123346667D01*
X129976026Y-123359443D01*
X129467669Y-122850198D01*
X128769591Y-122560331D01*
X128013725Y-122559671D01*
X127315143Y-122848319D01*
X126780198Y-123382331D01*
X126490331Y-124080409D01*
X126489671Y-124836275D01*
X126778319Y-125534857D01*
X127312331Y-126069802D01*
X128010409Y-126359669D01*
X128766275Y-126360329D01*
X129464857Y-126071681D01*
X129976450Y-125560981D01*
X129988802Y-125573333D01*
X130107939Y-125454196D01*
X130176977Y-125696588D01*
X130704474Y-125875320D01*
X131260216Y-125838583D01*
X131603023Y-125696588D01*
X131672061Y-125454196D01*
X131791198Y-125573333D01*
X131803974Y-125560557D01*
X132312331Y-126069802D01*
X133010409Y-126359669D01*
X133766275Y-126360329D01*
X134390000Y-126102611D01*
X134390000Y-128221058D01*
X134504181Y-128795083D01*
X134829340Y-129281718D01*
X135557460Y-130009838D01*
X136044095Y-130334997D01*
X136618120Y-130449178D01*
X147910822Y-130449178D01*
X148484847Y-130334997D01*
X148971482Y-130009838D01*
X149334901Y-129646419D01*
X163237049Y-129646419D01*
X163811074Y-129532238D01*
X164297709Y-129207079D01*
X164884833Y-128619955D01*
X164904857Y-128611681D01*
X165439802Y-128077669D01*
X165729669Y-127379591D01*
X165730329Y-126623725D01*
X165680000Y-126501919D01*
X165680000Y-122419207D01*
X165729669Y-122299591D01*
X165730329Y-121543725D01*
X165680000Y-121421919D01*
X165680000Y-119879207D01*
X165729669Y-119759591D01*
X165730329Y-119003725D01*
X165680000Y-118881919D01*
X165680000Y-117339207D01*
X165729669Y-117219591D01*
X165730329Y-116463725D01*
X165680000Y-116341919D01*
X165680000Y-114799207D01*
X165729669Y-114679591D01*
X165730329Y-113923725D01*
X165680000Y-113801919D01*
X165680000Y-112350000D01*
X174380000Y-112350000D01*
X174380000Y-128850000D01*
X174390258Y-128904519D01*
X174422479Y-128954591D01*
X174471642Y-128988182D01*
X174530000Y-129000000D01*
X178530000Y-129000000D01*
X178584519Y-128989742D01*
X178634591Y-128957521D01*
X178668182Y-128908358D01*
X178680000Y-128850000D01*
X178680000Y-128840594D01*
X244731925Y-128840594D01*
X245172493Y-129906851D01*
X245987564Y-130723346D01*
X247053051Y-131165774D01*
X248206742Y-131166781D01*
X249272999Y-130726213D01*
X250089494Y-129911142D01*
X250531922Y-128845655D01*
X250532929Y-127691964D01*
X250092361Y-126625707D01*
X249277290Y-125809212D01*
X248211803Y-125366784D01*
X247058112Y-125365777D01*
X245991855Y-125806345D01*
X245175360Y-126621416D01*
X244732932Y-127686903D01*
X244731925Y-128840594D01*
X178680000Y-128840594D01*
X178680000Y-124460000D01*
X202481797Y-124460000D01*
X202630232Y-125206233D01*
X203052939Y-125838858D01*
X203685564Y-126261565D01*
X204431797Y-126410000D01*
X204508203Y-126410000D01*
X205254436Y-126261565D01*
X205887061Y-125838858D01*
X206309768Y-125206233D01*
X206396042Y-124772500D01*
X210640000Y-124772500D01*
X210640000Y-125389293D01*
X210738957Y-125628195D01*
X210921805Y-125811043D01*
X211160707Y-125910000D01*
X211777500Y-125910000D01*
X211940000Y-125747500D01*
X211940000Y-124610000D01*
X212240000Y-124610000D01*
X212240000Y-125747500D01*
X212402500Y-125910000D01*
X213019293Y-125910000D01*
X213258195Y-125811043D01*
X213441043Y-125628195D01*
X213540000Y-125389293D01*
X213540000Y-124772500D01*
X213377500Y-124610000D01*
X212240000Y-124610000D01*
X211940000Y-124610000D01*
X210802500Y-124610000D01*
X210640000Y-124772500D01*
X206396042Y-124772500D01*
X206458203Y-124460000D01*
X206309768Y-123713767D01*
X206187452Y-123530707D01*
X210640000Y-123530707D01*
X210640000Y-124147500D01*
X210802500Y-124310000D01*
X211940000Y-124310000D01*
X211940000Y-123172500D01*
X212240000Y-123172500D01*
X212240000Y-124310000D01*
X213377500Y-124310000D01*
X213540000Y-124147500D01*
X213540000Y-123530707D01*
X213441043Y-123291805D01*
X213258195Y-123108957D01*
X213019293Y-123010000D01*
X212402500Y-123010000D01*
X212240000Y-123172500D01*
X211940000Y-123172500D01*
X211777500Y-123010000D01*
X211160707Y-123010000D01*
X210921805Y-123108957D01*
X210738957Y-123291805D01*
X210640000Y-123530707D01*
X206187452Y-123530707D01*
X205887061Y-123081142D01*
X205254436Y-122658435D01*
X204508203Y-122510000D01*
X204431797Y-122510000D01*
X203685564Y-122658435D01*
X203052939Y-123081142D01*
X202630232Y-123713767D01*
X202481797Y-124460000D01*
X178680000Y-124460000D01*
X178680000Y-119051961D01*
X199744732Y-119051961D01*
X199980208Y-119621857D01*
X200415849Y-120058260D01*
X200985333Y-120294730D01*
X201601961Y-120295268D01*
X201965638Y-120145000D01*
X204667710Y-120145000D01*
X205193555Y-120040403D01*
X205229505Y-120040434D01*
X205799401Y-119804958D01*
X206235804Y-119369317D01*
X206472274Y-118799833D01*
X206472812Y-118183205D01*
X206237336Y-117613309D01*
X205801695Y-117176906D01*
X205232211Y-116940436D01*
X204615583Y-116939898D01*
X204045687Y-117175374D01*
X203875764Y-117345000D01*
X201965258Y-117345000D01*
X201604667Y-117195270D01*
X200988039Y-117194732D01*
X200418143Y-117430208D01*
X199981740Y-117865849D01*
X199745270Y-118435333D01*
X199744732Y-119051961D01*
X178680000Y-119051961D01*
X178680000Y-112350000D01*
X178669742Y-112295481D01*
X178637521Y-112245409D01*
X178588358Y-112211818D01*
X178530000Y-112200000D01*
X174530000Y-112200000D01*
X174475481Y-112210258D01*
X174425409Y-112242479D01*
X174391818Y-112291642D01*
X174380000Y-112350000D01*
X165680000Y-112350000D01*
X165669742Y-112295481D01*
X165637521Y-112245409D01*
X165588358Y-112211818D01*
X165530000Y-112200000D01*
X162030000Y-112200000D01*
X161975481Y-112210258D01*
X161925409Y-112242479D01*
X161891818Y-112291642D01*
X161880000Y-112350000D01*
X161880000Y-126646419D01*
X156360000Y-126646419D01*
X156360000Y-122555000D01*
X156349742Y-122500481D01*
X156317521Y-122450409D01*
X156268358Y-122416818D01*
X156210000Y-122405000D01*
X154970000Y-122405000D01*
X154970000Y-112500000D01*
X157530000Y-112500000D01*
X157584519Y-112489742D01*
X157634591Y-112457521D01*
X157668182Y-112408358D01*
X157680000Y-112350000D01*
X157680000Y-109945645D01*
X164528602Y-109941000D01*
X164583019Y-109930742D01*
X164633091Y-109898521D01*
X164666682Y-109849358D01*
X164678500Y-109791000D01*
X164678500Y-105857407D01*
X164680000Y-105850000D01*
X164680000Y-104170000D01*
X201475810Y-104170000D01*
X201813039Y-104102921D01*
X201822479Y-104117591D01*
X201871642Y-104151182D01*
X201930000Y-104163000D01*
X204913568Y-104163000D01*
X204913568Y-105493381D01*
X204763855Y-105853929D01*
X204763283Y-106510339D01*
X205013951Y-107117003D01*
X205477698Y-107581560D01*
X206083923Y-107833287D01*
X206740333Y-107833859D01*
X207346997Y-107583191D01*
X207811554Y-107119444D01*
X208063281Y-106513219D01*
X208063853Y-105856809D01*
X207913568Y-105493091D01*
X207913568Y-100688719D01*
X207994970Y-100607317D01*
X208355779Y-100458234D01*
X208820336Y-99994487D01*
X209072063Y-99388262D01*
X209072635Y-98731852D01*
X208821967Y-98125188D01*
X208440866Y-97743422D01*
X210525370Y-95658918D01*
X213694504Y-95658918D01*
X218707272Y-100671686D01*
X219129023Y-100953490D01*
X219626511Y-101052447D01*
X221769499Y-101052447D01*
X222314557Y-101597505D01*
X222314557Y-104154557D01*
X222413514Y-104652046D01*
X222695318Y-105073796D01*
X224014924Y-106393402D01*
X224005003Y-107949043D01*
X224005000Y-107950000D01*
X224005000Y-118110000D01*
X224015258Y-118164519D01*
X224047479Y-118214591D01*
X224096642Y-118248182D01*
X224155000Y-118260000D01*
X241300000Y-118260000D01*
X241354519Y-118249742D01*
X241404591Y-118217521D01*
X241438182Y-118168358D01*
X241450000Y-118110000D01*
X241450000Y-105321715D01*
X241597837Y-104965683D01*
X241598375Y-104349055D01*
X241450000Y-103989960D01*
X241450000Y-99312266D01*
X241540035Y-99095437D01*
X241540573Y-98478809D01*
X241450000Y-98259605D01*
X241450000Y-80010000D01*
X241439451Y-79954743D01*
X241406967Y-79904842D01*
X241357627Y-79871511D01*
X241299207Y-79860002D01*
X224279207Y-79950002D01*
X224225481Y-79960258D01*
X224175409Y-79992479D01*
X224141818Y-80041642D01*
X224130000Y-80100000D01*
X224130000Y-88349513D01*
X224127141Y-88797831D01*
X219763535Y-88797831D01*
X218620690Y-87654986D01*
X218198940Y-87373182D01*
X217701451Y-87274225D01*
X215501939Y-87274225D01*
X215502350Y-86803684D01*
X215266874Y-86233788D01*
X214831233Y-85797385D01*
X214261749Y-85560915D01*
X213645121Y-85560377D01*
X213075225Y-85795853D01*
X213060407Y-85810645D01*
X210558647Y-85810645D01*
X210061159Y-85909602D01*
X209639408Y-86191406D01*
X200680813Y-95150001D01*
X164680000Y-95150001D01*
X164680000Y-55767304D01*
X186408116Y-55767304D01*
X186643592Y-56337200D01*
X187079233Y-56773603D01*
X187556000Y-56971574D01*
X187556000Y-61795464D01*
X187480475Y-61977349D01*
X187479937Y-62593977D01*
X187556000Y-62778064D01*
X187556000Y-64262000D01*
X187566258Y-64316519D01*
X187598479Y-64366591D01*
X187647642Y-64400182D01*
X187706000Y-64412000D01*
X190324658Y-64412000D01*
X190324658Y-71516400D01*
X190423615Y-72013889D01*
X190705419Y-72435639D01*
X193402476Y-75132696D01*
X193824227Y-75414500D01*
X194321715Y-75513458D01*
X194321720Y-75513457D01*
X199573670Y-75513457D01*
X199586907Y-75526717D01*
X200156391Y-75763187D01*
X200773019Y-75763725D01*
X201342915Y-75528249D01*
X201779318Y-75092608D01*
X202015788Y-74523124D01*
X202016017Y-74260518D01*
X202455083Y-74079100D01*
X202891486Y-73643459D01*
X203127956Y-73073975D01*
X203128494Y-72457347D01*
X202893018Y-71887451D01*
X202457377Y-71451048D01*
X202399369Y-71426961D01*
X213714732Y-71426961D01*
X213950208Y-71996857D01*
X213965000Y-72011675D01*
X213965000Y-72439385D01*
X214063957Y-72936874D01*
X214345761Y-73358624D01*
X215566376Y-74579239D01*
X215988126Y-74861043D01*
X216485615Y-74960000D01*
X227072612Y-74960000D01*
X227085849Y-74973260D01*
X227655333Y-75209730D01*
X228271961Y-75210268D01*
X228591433Y-75078265D01*
X228600000Y-75080000D01*
X231140000Y-75080000D01*
X231194519Y-75069742D01*
X231244591Y-75037521D01*
X231278182Y-74988358D01*
X231290000Y-74930000D01*
X231290000Y-73889427D01*
X239457266Y-73889427D01*
X240031291Y-73775246D01*
X240517926Y-73450087D01*
X242513341Y-71454672D01*
X242874150Y-71305589D01*
X243338707Y-70841842D01*
X243590434Y-70235617D01*
X243591006Y-69579207D01*
X243340338Y-68972543D01*
X242876591Y-68507986D01*
X242270366Y-68256259D01*
X241613956Y-68255687D01*
X241007292Y-68506355D01*
X240542735Y-68970102D01*
X240391814Y-69333559D01*
X238835946Y-70889427D01*
X231290000Y-70889427D01*
X231290000Y-70485000D01*
X231279742Y-70430481D01*
X231247521Y-70380409D01*
X231198358Y-70346818D01*
X231140000Y-70335000D01*
X219014320Y-70335000D01*
X217956700Y-69277380D01*
X217807617Y-68916571D01*
X217343870Y-68452014D01*
X216737645Y-68200287D01*
X216081235Y-68199715D01*
X215474571Y-68450383D01*
X215010014Y-68914130D01*
X214758287Y-69520355D01*
X214758172Y-69652315D01*
X214388143Y-69805208D01*
X213951740Y-70240849D01*
X213715270Y-70810333D01*
X213714732Y-71426961D01*
X202399369Y-71426961D01*
X201887893Y-71214578D01*
X201271265Y-71214040D01*
X200701369Y-71449516D01*
X200686551Y-71464308D01*
X195853252Y-71464308D01*
X195569842Y-71346626D01*
X194953214Y-71346088D01*
X194383318Y-71581564D01*
X193955435Y-72008699D01*
X192924658Y-70977922D01*
X192924658Y-58506751D01*
X192937918Y-58493514D01*
X193174388Y-57924030D01*
X193174926Y-57307402D01*
X193171868Y-57300000D01*
X206970000Y-57300000D01*
X206970000Y-65337341D01*
X206733143Y-65435208D01*
X206296740Y-65870849D01*
X206060270Y-66440333D01*
X206059732Y-67056961D01*
X206295208Y-67626857D01*
X206730849Y-68063260D01*
X206761697Y-68076069D01*
X206660270Y-68320333D01*
X206659732Y-68936961D01*
X206895208Y-69506857D01*
X207330849Y-69943260D01*
X207900333Y-70179730D01*
X208516961Y-70180268D01*
X209086857Y-69944792D01*
X209139186Y-69892554D01*
X209448423Y-69831043D01*
X209870173Y-69549239D01*
X210939239Y-68480173D01*
X211221043Y-68058422D01*
X211320001Y-67560934D01*
X211320000Y-67560929D01*
X211320000Y-57372335D01*
X211363260Y-57329151D01*
X211375365Y-57300000D01*
X221703926Y-57300000D01*
X221934644Y-57530718D01*
X221934644Y-65028029D01*
X221921384Y-65041266D01*
X221684914Y-65610750D01*
X221684376Y-66227378D01*
X221919852Y-66797274D01*
X222355493Y-67233677D01*
X222924977Y-67470147D01*
X223541605Y-67470685D01*
X224111501Y-67235209D01*
X224547904Y-66799568D01*
X224784374Y-66230084D01*
X224784912Y-65613456D01*
X224549436Y-65043560D01*
X224534644Y-65028742D01*
X224534644Y-57300000D01*
X231880000Y-57300000D01*
X231880000Y-66044785D01*
X231686728Y-66510236D01*
X231686190Y-67126864D01*
X231880000Y-67595920D01*
X231880000Y-70350000D01*
X231890258Y-70404519D01*
X231922479Y-70454591D01*
X231971642Y-70488182D01*
X232030000Y-70500000D01*
X233832520Y-70500000D01*
X234086925Y-70605638D01*
X234703553Y-70606176D01*
X235273449Y-70370700D01*
X235709852Y-69935059D01*
X235946322Y-69365575D01*
X235946860Y-68748947D01*
X235711384Y-68179051D01*
X235696592Y-68164233D01*
X235696592Y-63201886D01*
X239729535Y-59168943D01*
X240011339Y-58747193D01*
X240110296Y-58249704D01*
X240110296Y-57300000D01*
X240792000Y-57300000D01*
X240846519Y-57289742D01*
X240896591Y-57257521D01*
X240930182Y-57208358D01*
X240942000Y-57150000D01*
X240942000Y-50064120D01*
X244716530Y-50064120D01*
X245157098Y-51130377D01*
X245972169Y-51946872D01*
X247037656Y-52389300D01*
X248191347Y-52390307D01*
X249257604Y-51949739D01*
X250074099Y-51134668D01*
X250516527Y-50069181D01*
X250517534Y-48915490D01*
X250076966Y-47849233D01*
X249261895Y-47032738D01*
X248196408Y-46590310D01*
X247042717Y-46589303D01*
X245976460Y-47029871D01*
X245159965Y-47844942D01*
X244717537Y-48910429D01*
X244716530Y-50064120D01*
X240942000Y-50064120D01*
X240942000Y-46228000D01*
X240931742Y-46173481D01*
X240899521Y-46123409D01*
X240850358Y-46089818D01*
X240792000Y-46078000D01*
X188214000Y-46078000D01*
X188159481Y-46088258D01*
X188109409Y-46120479D01*
X188075818Y-46169642D01*
X188064000Y-46228000D01*
X188064000Y-53712921D01*
X187866658Y-53910263D01*
X187651423Y-53910075D01*
X187081527Y-54145551D01*
X186645124Y-54581192D01*
X186408654Y-55150676D01*
X186408116Y-55767304D01*
X164680000Y-55767304D01*
X164680000Y-51500000D01*
X183530000Y-51500000D01*
X183584519Y-51489742D01*
X183634591Y-51457521D01*
X183668182Y-51408358D01*
X183680000Y-51350000D01*
X183680000Y-47350000D01*
X183669742Y-47295481D01*
X183637521Y-47245409D01*
X183588358Y-47211818D01*
X183530000Y-47200000D01*
X70530000Y-47200000D01*
X70475481Y-47210258D01*
X70425409Y-47242479D01*
X70391818Y-47291642D01*
X70380000Y-47350000D01*
X70380000Y-51350000D01*
X70390258Y-51404519D01*
X70422479Y-51454591D01*
X70471642Y-51488182D01*
X70530000Y-51500000D01*
X90880000Y-51500000D01*
X90880000Y-59142627D01*
X90810331Y-59310409D01*
X90809671Y-60066275D01*
X90880000Y-60236484D01*
X90880000Y-61350000D01*
X90889849Y-61403458D01*
X90921690Y-61453773D01*
X90970596Y-61487736D01*
X91028864Y-61499996D01*
X92134626Y-61508373D01*
X92330409Y-61589669D01*
X93086275Y-61590329D01*
X93263919Y-61516928D01*
X94721828Y-61527973D01*
X94870409Y-61589669D01*
X95626275Y-61590329D01*
X95758187Y-61535824D01*
X97309031Y-61547573D01*
X97410409Y-61589669D01*
X98166275Y-61590329D01*
X98252455Y-61554720D01*
X99896233Y-61567173D01*
X99950409Y-61589669D01*
X100706275Y-61590329D01*
X100746723Y-61573616D01*
X102483435Y-61586773D01*
X102490409Y-61589669D01*
X102914591Y-61590039D01*
X156880000Y-61998868D01*
X156880000Y-64318958D01*
X156850331Y-64390409D01*
X156849671Y-65146275D01*
X156880000Y-65219677D01*
X156880000Y-66858958D01*
X156850331Y-66930409D01*
X156849671Y-67686275D01*
X156880000Y-67759677D01*
X156880000Y-69398958D01*
X156850331Y-69470409D01*
X156849671Y-70226275D01*
X156880000Y-70299677D01*
X156880000Y-71938958D01*
X156850331Y-72010409D01*
X156849671Y-72766275D01*
X156880000Y-72839677D01*
X156880000Y-74478958D01*
X156850331Y-74550409D01*
X156849671Y-75306275D01*
X156880000Y-75379677D01*
X156880000Y-77132047D01*
X156812777Y-77470000D01*
X156880000Y-77807953D01*
X156880000Y-79558958D01*
X156850331Y-79630409D01*
X156849671Y-80386275D01*
X156880000Y-80459677D01*
X156880000Y-82212047D01*
X156812777Y-82550000D01*
X156880000Y-82887953D01*
X156880000Y-84638958D01*
X156850331Y-84710409D01*
X156849671Y-85466275D01*
X156880000Y-85539677D01*
X156880000Y-87178958D01*
X156850331Y-87250409D01*
X156849671Y-88006275D01*
X156880000Y-88079677D01*
X156880000Y-89718958D01*
X156850331Y-89790409D01*
X156849671Y-90546275D01*
X156880000Y-90619677D01*
X156880000Y-92372047D01*
X156812777Y-92710000D01*
X156880000Y-93047953D01*
X156880000Y-94912047D01*
X156812777Y-95250000D01*
X156880000Y-95587953D01*
X156880000Y-97452047D01*
X156812777Y-97790000D01*
X156880000Y-98127953D01*
X156880000Y-99992046D01*
X156812777Y-100330000D01*
X156880000Y-100667953D01*
X156880000Y-102532047D01*
X156812777Y-102870000D01*
X156880000Y-103207953D01*
X156880000Y-105072047D01*
X156812777Y-105410000D01*
X156859760Y-105646201D01*
X156526142Y-105646427D01*
X156499784Y-105620023D01*
X155489409Y-105200478D01*
X154395391Y-105199523D01*
X153384285Y-105617304D01*
X153352955Y-105648579D01*
X81646834Y-105697208D01*
X81569784Y-105620023D01*
X80559409Y-105200478D01*
X79465391Y-105199523D01*
X78454285Y-105617304D01*
X78372017Y-105699429D01*
X77529898Y-105700000D01*
X77475481Y-105710258D01*
X77425409Y-105742479D01*
X77391818Y-105791642D01*
X77380000Y-105850000D01*
X77380000Y-107112751D01*
X77260478Y-107400591D01*
X77259523Y-108494609D01*
X77380000Y-108786185D01*
X77380000Y-109676090D01*
X77365409Y-109685479D01*
X77331818Y-109734642D01*
X77320000Y-109793000D01*
X77320000Y-121770000D01*
X70485000Y-121770000D01*
X70430481Y-121780258D01*
X70380409Y-121812479D01*
X70346818Y-121861642D01*
X70335000Y-121920000D01*
X57300000Y-121920000D01*
X57300000Y-114935000D01*
X57289742Y-114880481D01*
X57257521Y-114830409D01*
X57208358Y-114796818D01*
X57150000Y-114785000D01*
X55964509Y-114785000D01*
X56025320Y-114605526D01*
X55988583Y-114049784D01*
X55846588Y-113706977D01*
X55604194Y-113637938D01*
X54822132Y-114420000D01*
X54836275Y-114434143D01*
X54624143Y-114646275D01*
X54610000Y-114632132D01*
X54595858Y-114646275D01*
X54383726Y-114434143D01*
X54397868Y-114420000D01*
X53615806Y-113637938D01*
X53373412Y-113706977D01*
X53194680Y-114234474D01*
X53231072Y-114785000D01*
X51435000Y-114785000D01*
X51380481Y-114795258D01*
X51330409Y-114827479D01*
X51296818Y-114876642D01*
X51285000Y-114935000D01*
X50755000Y-114935000D01*
X50755000Y-113425806D01*
X53827938Y-113425806D01*
X54610000Y-114207868D01*
X55392062Y-113425806D01*
X55323023Y-113183412D01*
X54795526Y-113004680D01*
X54239784Y-113041417D01*
X53896977Y-113183412D01*
X53827938Y-113425806D01*
X50755000Y-113425806D01*
X50755000Y-92970378D01*
X99479862Y-92970378D01*
X99715338Y-93540274D01*
X99730130Y-93555092D01*
X99730130Y-94367931D01*
X99716870Y-94381168D01*
X99480400Y-94950652D01*
X99479862Y-95567280D01*
X99715338Y-96137176D01*
X100150979Y-96573579D01*
X100720463Y-96810049D01*
X101337091Y-96810587D01*
X101906987Y-96575111D01*
X102343390Y-96139470D01*
X102579860Y-95569986D01*
X102580398Y-94953358D01*
X102344922Y-94383462D01*
X102330130Y-94368644D01*
X102330130Y-93555805D01*
X102343390Y-93542568D01*
X102561640Y-93016961D01*
X103224732Y-93016961D01*
X103460208Y-93586857D01*
X103475000Y-93601675D01*
X103475000Y-94528285D01*
X103270474Y-95020839D01*
X103269936Y-95637467D01*
X103505412Y-96207363D01*
X103941053Y-96643766D01*
X104510537Y-96880236D01*
X105127165Y-96880774D01*
X105697061Y-96645298D01*
X105732349Y-96610072D01*
X105812694Y-96690557D01*
X106382178Y-96927027D01*
X106998806Y-96927565D01*
X107568702Y-96692089D01*
X108005105Y-96256448D01*
X108241575Y-95686964D01*
X108242113Y-95070336D01*
X108006637Y-94500440D01*
X107980000Y-94473756D01*
X107980000Y-93602388D01*
X107993260Y-93589151D01*
X108229730Y-93019667D01*
X108229732Y-93016961D01*
X108929732Y-93016961D01*
X109165208Y-93586857D01*
X109180000Y-93601675D01*
X109180000Y-94775941D01*
X109049166Y-95091025D01*
X109048628Y-95707653D01*
X109284104Y-96277549D01*
X109719745Y-96713952D01*
X110289229Y-96950422D01*
X110905857Y-96950960D01*
X111178975Y-96838110D01*
X111505796Y-96973818D01*
X112122424Y-96974356D01*
X112692320Y-96738880D01*
X113128723Y-96303239D01*
X113365193Y-95733755D01*
X113365731Y-95117127D01*
X113130255Y-94547231D01*
X113060000Y-94476853D01*
X113060000Y-93602388D01*
X113073260Y-93589151D01*
X113309730Y-93019667D01*
X113310268Y-92403039D01*
X113074792Y-91833143D01*
X112639151Y-91396740D01*
X112069667Y-91160270D01*
X111453039Y-91159732D01*
X111119885Y-91297388D01*
X110789667Y-91160270D01*
X110173039Y-91159732D01*
X109603143Y-91395208D01*
X109166740Y-91830849D01*
X108930270Y-92400333D01*
X108929732Y-93016961D01*
X108229732Y-93016961D01*
X108230268Y-92403039D01*
X107994792Y-91833143D01*
X107559151Y-91396740D01*
X106989667Y-91160270D01*
X106373039Y-91159732D01*
X105803143Y-91395208D01*
X105727751Y-91470469D01*
X105654151Y-91396740D01*
X105084667Y-91160270D01*
X104468039Y-91159732D01*
X103898143Y-91395208D01*
X103461740Y-91830849D01*
X103225270Y-92400333D01*
X103224732Y-93016961D01*
X102561640Y-93016961D01*
X102579860Y-92973084D01*
X102580398Y-92356456D01*
X102344922Y-91786560D01*
X101909281Y-91350157D01*
X101339797Y-91113687D01*
X100723169Y-91113149D01*
X100153273Y-91348625D01*
X99716870Y-91784266D01*
X99480400Y-92353750D01*
X99479862Y-92970378D01*
X50755000Y-92970378D01*
X50755000Y-60234609D01*
X75989523Y-60234609D01*
X76407304Y-61245715D01*
X77180216Y-62019977D01*
X78190591Y-62439522D01*
X79284609Y-62440477D01*
X80295715Y-62022696D01*
X81069977Y-61249784D01*
X81489522Y-60239409D01*
X81490477Y-59145391D01*
X81072696Y-58134285D01*
X80299784Y-57360023D01*
X79289409Y-56940478D01*
X78195391Y-56939523D01*
X77184285Y-57357304D01*
X76410023Y-58130216D01*
X75990478Y-59140591D01*
X75989523Y-60234609D01*
X50755000Y-60234609D01*
X50755000Y-50104315D01*
X51709498Y-50104315D01*
X52150066Y-51170572D01*
X52965137Y-51987067D01*
X54030624Y-52429495D01*
X55184315Y-52430502D01*
X56250572Y-51989934D01*
X57067067Y-51174863D01*
X57509495Y-50109376D01*
X57510502Y-48955685D01*
X57069934Y-47889428D01*
X56254863Y-47072933D01*
X55189376Y-46630505D01*
X54035685Y-46629498D01*
X52969428Y-47070066D01*
X52152933Y-47885137D01*
X51710505Y-48950624D01*
X51709498Y-50104315D01*
X50755000Y-50104315D01*
X50755000Y-45675000D01*
X251505000Y-45675000D01*
X251505000Y-132125000D01*
X251505000Y-132125000D01*
G37*
X251505000Y-132125000D02*
X50755000Y-132125000D01*
X50755000Y-128762539D01*
X51702354Y-128762539D01*
X52142922Y-129828796D01*
X52957993Y-130645291D01*
X54023480Y-131087719D01*
X55177171Y-131088726D01*
X56243428Y-130648158D01*
X57059923Y-129833087D01*
X57502351Y-128767600D01*
X57503358Y-127613909D01*
X57062790Y-126547652D01*
X56247719Y-125731157D01*
X55182232Y-125288729D01*
X54028541Y-125287722D01*
X52962284Y-125728290D01*
X52145789Y-126543361D01*
X51703361Y-127608848D01*
X51702354Y-128762539D01*
X50755000Y-128762539D01*
X50755000Y-114935000D01*
X51285000Y-114935000D01*
X51285000Y-123825000D01*
X51295258Y-123879519D01*
X51327479Y-123929591D01*
X51376642Y-123963182D01*
X51435000Y-123975000D01*
X57150000Y-123975000D01*
X57204519Y-123964742D01*
X57254591Y-123932521D01*
X57288182Y-123883358D01*
X57300000Y-123825000D01*
X57300000Y-121920000D01*
X70335000Y-121920000D01*
X70335000Y-126365000D01*
X70345258Y-126419519D01*
X70377479Y-126469591D01*
X70426642Y-126503182D01*
X70485000Y-126515000D01*
X92075000Y-126515000D01*
X92129519Y-126504742D01*
X92179591Y-126472521D01*
X92213182Y-126423358D01*
X92225000Y-126365000D01*
X92225000Y-124274474D01*
X99194680Y-124274474D01*
X99231417Y-124830216D01*
X99373412Y-125173023D01*
X99615806Y-125242062D01*
X100397868Y-124460000D01*
X99615806Y-123677938D01*
X99373412Y-123746977D01*
X99194680Y-124274474D01*
X92225000Y-124274474D01*
X92225000Y-123465806D01*
X99827938Y-123465806D01*
X100610000Y-124247868D01*
X100624143Y-124233726D01*
X100836275Y-124445858D01*
X100822132Y-124460000D01*
X100836275Y-124474143D01*
X100624143Y-124686275D01*
X100610000Y-124672132D01*
X99827938Y-125454194D01*
X99896977Y-125696588D01*
X100424474Y-125875320D01*
X100980216Y-125838583D01*
X101323023Y-125696588D01*
X101392061Y-125454196D01*
X101511198Y-125573333D01*
X101523974Y-125560557D01*
X102032331Y-126069802D01*
X102730409Y-126359669D01*
X103486275Y-126360329D01*
X104184857Y-126071681D01*
X104696450Y-125560981D01*
X104708802Y-125573333D01*
X104827939Y-125454196D01*
X104896977Y-125696588D01*
X105424474Y-125875320D01*
X105980216Y-125838583D01*
X106323023Y-125696588D01*
X106392061Y-125454196D01*
X106511198Y-125573333D01*
X106523974Y-125560557D01*
X107032331Y-126069802D01*
X107730409Y-126359669D01*
X108486275Y-126360329D01*
X109184857Y-126071681D01*
X109696450Y-125560981D01*
X109708802Y-125573333D01*
X109827939Y-125454196D01*
X109896977Y-125696588D01*
X110424474Y-125875320D01*
X110980216Y-125838583D01*
X111323023Y-125696588D01*
X111392061Y-125454196D01*
X111511198Y-125573333D01*
X111523974Y-125560557D01*
X112032331Y-126069802D01*
X112730409Y-126359669D01*
X113486275Y-126360329D01*
X114184857Y-126071681D01*
X114696450Y-125560981D01*
X114708802Y-125573333D01*
X114827939Y-125454196D01*
X114896977Y-125696588D01*
X115424474Y-125875320D01*
X115980216Y-125838583D01*
X116310009Y-125701978D01*
X116519522Y-126027570D01*
X116903821Y-126290150D01*
X117360000Y-126382529D01*
X118860000Y-126382529D01*
X119286164Y-126302341D01*
X119677570Y-126050478D01*
X119940150Y-125666179D01*
X120032529Y-125210000D01*
X120032529Y-123710000D01*
X119952341Y-123283836D01*
X119700478Y-122892430D01*
X119316179Y-122629850D01*
X118860000Y-122537471D01*
X117360000Y-122537471D01*
X116933836Y-122617659D01*
X116542430Y-122869522D01*
X116304838Y-123217250D01*
X115795526Y-123044680D01*
X115239784Y-123081417D01*
X114896977Y-123223412D01*
X114827939Y-123465804D01*
X114708802Y-123346667D01*
X114696026Y-123359443D01*
X114187669Y-122850198D01*
X113489591Y-122560331D01*
X112733725Y-122559671D01*
X112035143Y-122848319D01*
X111523550Y-123359019D01*
X111511198Y-123346667D01*
X111392061Y-123465804D01*
X111323023Y-123223412D01*
X110795526Y-123044680D01*
X110239784Y-123081417D01*
X109896977Y-123223412D01*
X109827939Y-123465804D01*
X109708802Y-123346667D01*
X109696026Y-123359443D01*
X109187669Y-122850198D01*
X108489591Y-122560331D01*
X107733725Y-122559671D01*
X107035143Y-122848319D01*
X106523550Y-123359019D01*
X106511198Y-123346667D01*
X106392061Y-123465804D01*
X106323023Y-123223412D01*
X105795526Y-123044680D01*
X105239784Y-123081417D01*
X104896977Y-123223412D01*
X104827939Y-123465804D01*
X104708802Y-123346667D01*
X104696026Y-123359443D01*
X104187669Y-122850198D01*
X103489591Y-122560331D01*
X102733725Y-122559671D01*
X102035143Y-122848319D01*
X101523550Y-123359019D01*
X101511198Y-123346667D01*
X101392061Y-123465804D01*
X101323023Y-123223412D01*
X100795526Y-123044680D01*
X100239784Y-123081417D01*
X99896977Y-123223412D01*
X99827938Y-123465806D01*
X92225000Y-123465806D01*
X92225000Y-121920000D01*
X92214742Y-121865481D01*
X92182521Y-121815409D01*
X92133358Y-121781818D01*
X92075000Y-121770000D01*
X91863833Y-121770000D01*
X99347397Y-114286436D01*
X110533564Y-114286436D01*
X111031053Y-114187479D01*
X111452803Y-113905675D01*
X113949239Y-111409239D01*
X114231043Y-110987488D01*
X114330001Y-110490000D01*
X114330000Y-110489995D01*
X114330000Y-109975043D01*
X147341858Y-109952656D01*
X147388957Y-110189436D01*
X147670761Y-110611186D01*
X149870000Y-112810425D01*
X149870000Y-122405000D01*
X147320000Y-122405000D01*
X147265481Y-122415258D01*
X147215409Y-122447479D01*
X147181818Y-122496642D01*
X147170000Y-122555000D01*
X147170000Y-123272721D01*
X147083550Y-123359019D01*
X147071198Y-123346667D01*
X146952061Y-123465804D01*
X146883023Y-123223412D01*
X146355526Y-123044680D01*
X145799784Y-123081417D01*
X145456977Y-123223412D01*
X145387938Y-123465806D01*
X146170000Y-124247868D01*
X146184143Y-124233726D01*
X146396275Y-124445858D01*
X146382132Y-124460000D01*
X146396275Y-124474143D01*
X146184143Y-124686275D01*
X146170000Y-124672132D01*
X145387938Y-125454194D01*
X145456977Y-125696588D01*
X145984474Y-125875320D01*
X146540216Y-125838583D01*
X146883023Y-125696588D01*
X146952061Y-125454196D01*
X147071198Y-125573333D01*
X147083974Y-125560557D01*
X147170000Y-125646733D01*
X147170000Y-127449178D01*
X137390000Y-127449178D01*
X137390000Y-125647279D01*
X137499802Y-125537669D01*
X137789669Y-124839591D01*
X137790162Y-124274474D01*
X144754680Y-124274474D01*
X144791417Y-124830216D01*
X144933412Y-125173023D01*
X145175806Y-125242062D01*
X145957868Y-124460000D01*
X145175806Y-123677938D01*
X144933412Y-123746977D01*
X144754680Y-124274474D01*
X137790162Y-124274474D01*
X137790329Y-124083725D01*
X137501681Y-123385143D01*
X136967669Y-122850198D01*
X136269591Y-122560331D01*
X135513725Y-122559671D01*
X134815143Y-122848319D01*
X134640163Y-123022994D01*
X134467669Y-122850198D01*
X133769591Y-122560331D01*
X133013725Y-122559671D01*
X132315143Y-122848319D01*
X131803550Y-123359019D01*
X131791198Y-123346667D01*
X131672061Y-123465804D01*
X131603023Y-123223412D01*
X131075526Y-123044680D01*
X130519784Y-123081417D01*
X130176977Y-123223412D01*
X130107939Y-123465804D01*
X129988802Y-123346667D01*
X129976026Y-123359443D01*
X129467669Y-122850198D01*
X128769591Y-122560331D01*
X128013725Y-122559671D01*
X127315143Y-122848319D01*
X126780198Y-123382331D01*
X126490331Y-124080409D01*
X126489671Y-124836275D01*
X126778319Y-125534857D01*
X127312331Y-126069802D01*
X128010409Y-126359669D01*
X128766275Y-126360329D01*
X129464857Y-126071681D01*
X129976450Y-125560981D01*
X129988802Y-125573333D01*
X130107939Y-125454196D01*
X130176977Y-125696588D01*
X130704474Y-125875320D01*
X131260216Y-125838583D01*
X131603023Y-125696588D01*
X131672061Y-125454196D01*
X131791198Y-125573333D01*
X131803974Y-125560557D01*
X132312331Y-126069802D01*
X133010409Y-126359669D01*
X133766275Y-126360329D01*
X134390000Y-126102611D01*
X134390000Y-128221058D01*
X134504181Y-128795083D01*
X134829340Y-129281718D01*
X135557460Y-130009838D01*
X136044095Y-130334997D01*
X136618120Y-130449178D01*
X147910822Y-130449178D01*
X148484847Y-130334997D01*
X148971482Y-130009838D01*
X149334901Y-129646419D01*
X163237049Y-129646419D01*
X163811074Y-129532238D01*
X164297709Y-129207079D01*
X164884833Y-128619955D01*
X164904857Y-128611681D01*
X165439802Y-128077669D01*
X165729669Y-127379591D01*
X165730329Y-126623725D01*
X165680000Y-126501919D01*
X165680000Y-122419207D01*
X165729669Y-122299591D01*
X165730329Y-121543725D01*
X165680000Y-121421919D01*
X165680000Y-119879207D01*
X165729669Y-119759591D01*
X165730329Y-119003725D01*
X165680000Y-118881919D01*
X165680000Y-117339207D01*
X165729669Y-117219591D01*
X165730329Y-116463725D01*
X165680000Y-116341919D01*
X165680000Y-114799207D01*
X165729669Y-114679591D01*
X165730329Y-113923725D01*
X165680000Y-113801919D01*
X165680000Y-112350000D01*
X174380000Y-112350000D01*
X174380000Y-128850000D01*
X174390258Y-128904519D01*
X174422479Y-128954591D01*
X174471642Y-128988182D01*
X174530000Y-129000000D01*
X178530000Y-129000000D01*
X178584519Y-128989742D01*
X178634591Y-128957521D01*
X178668182Y-128908358D01*
X178680000Y-128850000D01*
X178680000Y-128840594D01*
X244731925Y-128840594D01*
X245172493Y-129906851D01*
X245987564Y-130723346D01*
X247053051Y-131165774D01*
X248206742Y-131166781D01*
X249272999Y-130726213D01*
X250089494Y-129911142D01*
X250531922Y-128845655D01*
X250532929Y-127691964D01*
X250092361Y-126625707D01*
X249277290Y-125809212D01*
X248211803Y-125366784D01*
X247058112Y-125365777D01*
X245991855Y-125806345D01*
X245175360Y-126621416D01*
X244732932Y-127686903D01*
X244731925Y-128840594D01*
X178680000Y-128840594D01*
X178680000Y-124460000D01*
X202481797Y-124460000D01*
X202630232Y-125206233D01*
X203052939Y-125838858D01*
X203685564Y-126261565D01*
X204431797Y-126410000D01*
X204508203Y-126410000D01*
X205254436Y-126261565D01*
X205887061Y-125838858D01*
X206309768Y-125206233D01*
X206396042Y-124772500D01*
X210640000Y-124772500D01*
X210640000Y-125389293D01*
X210738957Y-125628195D01*
X210921805Y-125811043D01*
X211160707Y-125910000D01*
X211777500Y-125910000D01*
X211940000Y-125747500D01*
X211940000Y-124610000D01*
X212240000Y-124610000D01*
X212240000Y-125747500D01*
X212402500Y-125910000D01*
X213019293Y-125910000D01*
X213258195Y-125811043D01*
X213441043Y-125628195D01*
X213540000Y-125389293D01*
X213540000Y-124772500D01*
X213377500Y-124610000D01*
X212240000Y-124610000D01*
X211940000Y-124610000D01*
X210802500Y-124610000D01*
X210640000Y-124772500D01*
X206396042Y-124772500D01*
X206458203Y-124460000D01*
X206309768Y-123713767D01*
X206187452Y-123530707D01*
X210640000Y-123530707D01*
X210640000Y-124147500D01*
X210802500Y-124310000D01*
X211940000Y-124310000D01*
X211940000Y-123172500D01*
X212240000Y-123172500D01*
X212240000Y-124310000D01*
X213377500Y-124310000D01*
X213540000Y-124147500D01*
X213540000Y-123530707D01*
X213441043Y-123291805D01*
X213258195Y-123108957D01*
X213019293Y-123010000D01*
X212402500Y-123010000D01*
X212240000Y-123172500D01*
X211940000Y-123172500D01*
X211777500Y-123010000D01*
X211160707Y-123010000D01*
X210921805Y-123108957D01*
X210738957Y-123291805D01*
X210640000Y-123530707D01*
X206187452Y-123530707D01*
X205887061Y-123081142D01*
X205254436Y-122658435D01*
X204508203Y-122510000D01*
X204431797Y-122510000D01*
X203685564Y-122658435D01*
X203052939Y-123081142D01*
X202630232Y-123713767D01*
X202481797Y-124460000D01*
X178680000Y-124460000D01*
X178680000Y-119051961D01*
X199744732Y-119051961D01*
X199980208Y-119621857D01*
X200415849Y-120058260D01*
X200985333Y-120294730D01*
X201601961Y-120295268D01*
X201965638Y-120145000D01*
X204667710Y-120145000D01*
X205193555Y-120040403D01*
X205229505Y-120040434D01*
X205799401Y-119804958D01*
X206235804Y-119369317D01*
X206472274Y-118799833D01*
X206472812Y-118183205D01*
X206237336Y-117613309D01*
X205801695Y-117176906D01*
X205232211Y-116940436D01*
X204615583Y-116939898D01*
X204045687Y-117175374D01*
X203875764Y-117345000D01*
X201965258Y-117345000D01*
X201604667Y-117195270D01*
X200988039Y-117194732D01*
X200418143Y-117430208D01*
X199981740Y-117865849D01*
X199745270Y-118435333D01*
X199744732Y-119051961D01*
X178680000Y-119051961D01*
X178680000Y-112350000D01*
X178669742Y-112295481D01*
X178637521Y-112245409D01*
X178588358Y-112211818D01*
X178530000Y-112200000D01*
X174530000Y-112200000D01*
X174475481Y-112210258D01*
X174425409Y-112242479D01*
X174391818Y-112291642D01*
X174380000Y-112350000D01*
X165680000Y-112350000D01*
X165669742Y-112295481D01*
X165637521Y-112245409D01*
X165588358Y-112211818D01*
X165530000Y-112200000D01*
X162030000Y-112200000D01*
X161975481Y-112210258D01*
X161925409Y-112242479D01*
X161891818Y-112291642D01*
X161880000Y-112350000D01*
X161880000Y-126646419D01*
X156360000Y-126646419D01*
X156360000Y-122555000D01*
X156349742Y-122500481D01*
X156317521Y-122450409D01*
X156268358Y-122416818D01*
X156210000Y-122405000D01*
X154970000Y-122405000D01*
X154970000Y-112500000D01*
X157530000Y-112500000D01*
X157584519Y-112489742D01*
X157634591Y-112457521D01*
X157668182Y-112408358D01*
X157680000Y-112350000D01*
X157680000Y-109945645D01*
X164528602Y-109941000D01*
X164583019Y-109930742D01*
X164633091Y-109898521D01*
X164666682Y-109849358D01*
X164678500Y-109791000D01*
X164678500Y-105857407D01*
X164680000Y-105850000D01*
X164680000Y-104170000D01*
X201475810Y-104170000D01*
X201813039Y-104102921D01*
X201822479Y-104117591D01*
X201871642Y-104151182D01*
X201930000Y-104163000D01*
X204913568Y-104163000D01*
X204913568Y-105493381D01*
X204763855Y-105853929D01*
X204763283Y-106510339D01*
X205013951Y-107117003D01*
X205477698Y-107581560D01*
X206083923Y-107833287D01*
X206740333Y-107833859D01*
X207346997Y-107583191D01*
X207811554Y-107119444D01*
X208063281Y-106513219D01*
X208063853Y-105856809D01*
X207913568Y-105493091D01*
X207913568Y-100688719D01*
X207994970Y-100607317D01*
X208355779Y-100458234D01*
X208820336Y-99994487D01*
X209072063Y-99388262D01*
X209072635Y-98731852D01*
X208821967Y-98125188D01*
X208440866Y-97743422D01*
X210525370Y-95658918D01*
X213694504Y-95658918D01*
X218707272Y-100671686D01*
X219129023Y-100953490D01*
X219626511Y-101052447D01*
X221769499Y-101052447D01*
X222314557Y-101597505D01*
X222314557Y-104154557D01*
X222413514Y-104652046D01*
X222695318Y-105073796D01*
X224014924Y-106393402D01*
X224005003Y-107949043D01*
X224005000Y-107950000D01*
X224005000Y-118110000D01*
X224015258Y-118164519D01*
X224047479Y-118214591D01*
X224096642Y-118248182D01*
X224155000Y-118260000D01*
X241300000Y-118260000D01*
X241354519Y-118249742D01*
X241404591Y-118217521D01*
X241438182Y-118168358D01*
X241450000Y-118110000D01*
X241450000Y-105321715D01*
X241597837Y-104965683D01*
X241598375Y-104349055D01*
X241450000Y-103989960D01*
X241450000Y-99312266D01*
X241540035Y-99095437D01*
X241540573Y-98478809D01*
X241450000Y-98259605D01*
X241450000Y-80010000D01*
X241439451Y-79954743D01*
X241406967Y-79904842D01*
X241357627Y-79871511D01*
X241299207Y-79860002D01*
X224279207Y-79950002D01*
X224225481Y-79960258D01*
X224175409Y-79992479D01*
X224141818Y-80041642D01*
X224130000Y-80100000D01*
X224130000Y-88349513D01*
X224127141Y-88797831D01*
X219763535Y-88797831D01*
X218620690Y-87654986D01*
X218198940Y-87373182D01*
X217701451Y-87274225D01*
X215501939Y-87274225D01*
X215502350Y-86803684D01*
X215266874Y-86233788D01*
X214831233Y-85797385D01*
X214261749Y-85560915D01*
X213645121Y-85560377D01*
X213075225Y-85795853D01*
X213060407Y-85810645D01*
X210558647Y-85810645D01*
X210061159Y-85909602D01*
X209639408Y-86191406D01*
X200680813Y-95150001D01*
X164680000Y-95150001D01*
X164680000Y-55767304D01*
X186408116Y-55767304D01*
X186643592Y-56337200D01*
X187079233Y-56773603D01*
X187556000Y-56971574D01*
X187556000Y-61795464D01*
X187480475Y-61977349D01*
X187479937Y-62593977D01*
X187556000Y-62778064D01*
X187556000Y-64262000D01*
X187566258Y-64316519D01*
X187598479Y-64366591D01*
X187647642Y-64400182D01*
X187706000Y-64412000D01*
X190324658Y-64412000D01*
X190324658Y-71516400D01*
X190423615Y-72013889D01*
X190705419Y-72435639D01*
X193402476Y-75132696D01*
X193824227Y-75414500D01*
X194321715Y-75513458D01*
X194321720Y-75513457D01*
X199573670Y-75513457D01*
X199586907Y-75526717D01*
X200156391Y-75763187D01*
X200773019Y-75763725D01*
X201342915Y-75528249D01*
X201779318Y-75092608D01*
X202015788Y-74523124D01*
X202016017Y-74260518D01*
X202455083Y-74079100D01*
X202891486Y-73643459D01*
X203127956Y-73073975D01*
X203128494Y-72457347D01*
X202893018Y-71887451D01*
X202457377Y-71451048D01*
X202399369Y-71426961D01*
X213714732Y-71426961D01*
X213950208Y-71996857D01*
X213965000Y-72011675D01*
X213965000Y-72439385D01*
X214063957Y-72936874D01*
X214345761Y-73358624D01*
X215566376Y-74579239D01*
X215988126Y-74861043D01*
X216485615Y-74960000D01*
X227072612Y-74960000D01*
X227085849Y-74973260D01*
X227655333Y-75209730D01*
X228271961Y-75210268D01*
X228591433Y-75078265D01*
X228600000Y-75080000D01*
X231140000Y-75080000D01*
X231194519Y-75069742D01*
X231244591Y-75037521D01*
X231278182Y-74988358D01*
X231290000Y-74930000D01*
X231290000Y-73889427D01*
X239457266Y-73889427D01*
X240031291Y-73775246D01*
X240517926Y-73450087D01*
X242513341Y-71454672D01*
X242874150Y-71305589D01*
X243338707Y-70841842D01*
X243590434Y-70235617D01*
X243591006Y-69579207D01*
X243340338Y-68972543D01*
X242876591Y-68507986D01*
X242270366Y-68256259D01*
X241613956Y-68255687D01*
X241007292Y-68506355D01*
X240542735Y-68970102D01*
X240391814Y-69333559D01*
X238835946Y-70889427D01*
X231290000Y-70889427D01*
X231290000Y-70485000D01*
X231279742Y-70430481D01*
X231247521Y-70380409D01*
X231198358Y-70346818D01*
X231140000Y-70335000D01*
X219014320Y-70335000D01*
X217956700Y-69277380D01*
X217807617Y-68916571D01*
X217343870Y-68452014D01*
X216737645Y-68200287D01*
X216081235Y-68199715D01*
X215474571Y-68450383D01*
X215010014Y-68914130D01*
X214758287Y-69520355D01*
X214758172Y-69652315D01*
X214388143Y-69805208D01*
X213951740Y-70240849D01*
X213715270Y-70810333D01*
X213714732Y-71426961D01*
X202399369Y-71426961D01*
X201887893Y-71214578D01*
X201271265Y-71214040D01*
X200701369Y-71449516D01*
X200686551Y-71464308D01*
X195853252Y-71464308D01*
X195569842Y-71346626D01*
X194953214Y-71346088D01*
X194383318Y-71581564D01*
X193955435Y-72008699D01*
X192924658Y-70977922D01*
X192924658Y-58506751D01*
X192937918Y-58493514D01*
X193174388Y-57924030D01*
X193174926Y-57307402D01*
X193171868Y-57300000D01*
X206970000Y-57300000D01*
X206970000Y-65337341D01*
X206733143Y-65435208D01*
X206296740Y-65870849D01*
X206060270Y-66440333D01*
X206059732Y-67056961D01*
X206295208Y-67626857D01*
X206730849Y-68063260D01*
X206761697Y-68076069D01*
X206660270Y-68320333D01*
X206659732Y-68936961D01*
X206895208Y-69506857D01*
X207330849Y-69943260D01*
X207900333Y-70179730D01*
X208516961Y-70180268D01*
X209086857Y-69944792D01*
X209139186Y-69892554D01*
X209448423Y-69831043D01*
X209870173Y-69549239D01*
X210939239Y-68480173D01*
X211221043Y-68058422D01*
X211320001Y-67560934D01*
X211320000Y-67560929D01*
X211320000Y-57372335D01*
X211363260Y-57329151D01*
X211375365Y-57300000D01*
X221703926Y-57300000D01*
X221934644Y-57530718D01*
X221934644Y-65028029D01*
X221921384Y-65041266D01*
X221684914Y-65610750D01*
X221684376Y-66227378D01*
X221919852Y-66797274D01*
X222355493Y-67233677D01*
X222924977Y-67470147D01*
X223541605Y-67470685D01*
X224111501Y-67235209D01*
X224547904Y-66799568D01*
X224784374Y-66230084D01*
X224784912Y-65613456D01*
X224549436Y-65043560D01*
X224534644Y-65028742D01*
X224534644Y-57300000D01*
X231880000Y-57300000D01*
X231880000Y-66044785D01*
X231686728Y-66510236D01*
X231686190Y-67126864D01*
X231880000Y-67595920D01*
X231880000Y-70350000D01*
X231890258Y-70404519D01*
X231922479Y-70454591D01*
X231971642Y-70488182D01*
X232030000Y-70500000D01*
X233832520Y-70500000D01*
X234086925Y-70605638D01*
X234703553Y-70606176D01*
X235273449Y-70370700D01*
X235709852Y-69935059D01*
X235946322Y-69365575D01*
X235946860Y-68748947D01*
X235711384Y-68179051D01*
X235696592Y-68164233D01*
X235696592Y-63201886D01*
X239729535Y-59168943D01*
X240011339Y-58747193D01*
X240110296Y-58249704D01*
X240110296Y-57300000D01*
X240792000Y-57300000D01*
X240846519Y-57289742D01*
X240896591Y-57257521D01*
X240930182Y-57208358D01*
X240942000Y-57150000D01*
X240942000Y-50064120D01*
X244716530Y-50064120D01*
X245157098Y-51130377D01*
X245972169Y-51946872D01*
X247037656Y-52389300D01*
X248191347Y-52390307D01*
X249257604Y-51949739D01*
X250074099Y-51134668D01*
X250516527Y-50069181D01*
X250517534Y-48915490D01*
X250076966Y-47849233D01*
X249261895Y-47032738D01*
X248196408Y-46590310D01*
X247042717Y-46589303D01*
X245976460Y-47029871D01*
X245159965Y-47844942D01*
X244717537Y-48910429D01*
X244716530Y-50064120D01*
X240942000Y-50064120D01*
X240942000Y-46228000D01*
X240931742Y-46173481D01*
X240899521Y-46123409D01*
X240850358Y-46089818D01*
X240792000Y-46078000D01*
X188214000Y-46078000D01*
X188159481Y-46088258D01*
X188109409Y-46120479D01*
X188075818Y-46169642D01*
X188064000Y-46228000D01*
X188064000Y-53712921D01*
X187866658Y-53910263D01*
X187651423Y-53910075D01*
X187081527Y-54145551D01*
X186645124Y-54581192D01*
X186408654Y-55150676D01*
X186408116Y-55767304D01*
X164680000Y-55767304D01*
X164680000Y-51500000D01*
X183530000Y-51500000D01*
X183584519Y-51489742D01*
X183634591Y-51457521D01*
X183668182Y-51408358D01*
X183680000Y-51350000D01*
X183680000Y-47350000D01*
X183669742Y-47295481D01*
X183637521Y-47245409D01*
X183588358Y-47211818D01*
X183530000Y-47200000D01*
X70530000Y-47200000D01*
X70475481Y-47210258D01*
X70425409Y-47242479D01*
X70391818Y-47291642D01*
X70380000Y-47350000D01*
X70380000Y-51350000D01*
X70390258Y-51404519D01*
X70422479Y-51454591D01*
X70471642Y-51488182D01*
X70530000Y-51500000D01*
X90880000Y-51500000D01*
X90880000Y-59142627D01*
X90810331Y-59310409D01*
X90809671Y-60066275D01*
X90880000Y-60236484D01*
X90880000Y-61350000D01*
X90889849Y-61403458D01*
X90921690Y-61453773D01*
X90970596Y-61487736D01*
X91028864Y-61499996D01*
X92134626Y-61508373D01*
X92330409Y-61589669D01*
X93086275Y-61590329D01*
X93263919Y-61516928D01*
X94721828Y-61527973D01*
X94870409Y-61589669D01*
X95626275Y-61590329D01*
X95758187Y-61535824D01*
X97309031Y-61547573D01*
X97410409Y-61589669D01*
X98166275Y-61590329D01*
X98252455Y-61554720D01*
X99896233Y-61567173D01*
X99950409Y-61589669D01*
X100706275Y-61590329D01*
X100746723Y-61573616D01*
X102483435Y-61586773D01*
X102490409Y-61589669D01*
X102914591Y-61590039D01*
X156880000Y-61998868D01*
X156880000Y-64318958D01*
X156850331Y-64390409D01*
X156849671Y-65146275D01*
X156880000Y-65219677D01*
X156880000Y-66858958D01*
X156850331Y-66930409D01*
X156849671Y-67686275D01*
X156880000Y-67759677D01*
X156880000Y-69398958D01*
X156850331Y-69470409D01*
X156849671Y-70226275D01*
X156880000Y-70299677D01*
X156880000Y-71938958D01*
X156850331Y-72010409D01*
X156849671Y-72766275D01*
X156880000Y-72839677D01*
X156880000Y-74478958D01*
X156850331Y-74550409D01*
X156849671Y-75306275D01*
X156880000Y-75379677D01*
X156880000Y-77132047D01*
X156812777Y-77470000D01*
X156880000Y-77807953D01*
X156880000Y-79558958D01*
X156850331Y-79630409D01*
X156849671Y-80386275D01*
X156880000Y-80459677D01*
X156880000Y-82212047D01*
X156812777Y-82550000D01*
X156880000Y-82887953D01*
X156880000Y-84638958D01*
X156850331Y-84710409D01*
X156849671Y-85466275D01*
X156880000Y-85539677D01*
X156880000Y-87178958D01*
X156850331Y-87250409D01*
X156849671Y-88006275D01*
X156880000Y-88079677D01*
X156880000Y-89718958D01*
X156850331Y-89790409D01*
X156849671Y-90546275D01*
X156880000Y-90619677D01*
X156880000Y-92372047D01*
X156812777Y-92710000D01*
X156880000Y-93047953D01*
X156880000Y-94912047D01*
X156812777Y-95250000D01*
X156880000Y-95587953D01*
X156880000Y-97452047D01*
X156812777Y-97790000D01*
X156880000Y-98127953D01*
X156880000Y-99992046D01*
X156812777Y-100330000D01*
X156880000Y-100667953D01*
X156880000Y-102532047D01*
X156812777Y-102870000D01*
X156880000Y-103207953D01*
X156880000Y-105072047D01*
X156812777Y-105410000D01*
X156859760Y-105646201D01*
X156526142Y-105646427D01*
X156499784Y-105620023D01*
X155489409Y-105200478D01*
X154395391Y-105199523D01*
X153384285Y-105617304D01*
X153352955Y-105648579D01*
X81646834Y-105697208D01*
X81569784Y-105620023D01*
X80559409Y-105200478D01*
X79465391Y-105199523D01*
X78454285Y-105617304D01*
X78372017Y-105699429D01*
X77529898Y-105700000D01*
X77475481Y-105710258D01*
X77425409Y-105742479D01*
X77391818Y-105791642D01*
X77380000Y-105850000D01*
X77380000Y-107112751D01*
X77260478Y-107400591D01*
X77259523Y-108494609D01*
X77380000Y-108786185D01*
X77380000Y-109676090D01*
X77365409Y-109685479D01*
X77331818Y-109734642D01*
X77320000Y-109793000D01*
X77320000Y-121770000D01*
X70485000Y-121770000D01*
X70430481Y-121780258D01*
X70380409Y-121812479D01*
X70346818Y-121861642D01*
X70335000Y-121920000D01*
X57300000Y-121920000D01*
X57300000Y-114935000D01*
X57289742Y-114880481D01*
X57257521Y-114830409D01*
X57208358Y-114796818D01*
X57150000Y-114785000D01*
X55964509Y-114785000D01*
X56025320Y-114605526D01*
X55988583Y-114049784D01*
X55846588Y-113706977D01*
X55604194Y-113637938D01*
X54822132Y-114420000D01*
X54836275Y-114434143D01*
X54624143Y-114646275D01*
X54610000Y-114632132D01*
X54595858Y-114646275D01*
X54383726Y-114434143D01*
X54397868Y-114420000D01*
X53615806Y-113637938D01*
X53373412Y-113706977D01*
X53194680Y-114234474D01*
X53231072Y-114785000D01*
X51435000Y-114785000D01*
X51380481Y-114795258D01*
X51330409Y-114827479D01*
X51296818Y-114876642D01*
X51285000Y-114935000D01*
X50755000Y-114935000D01*
X50755000Y-113425806D01*
X53827938Y-113425806D01*
X54610000Y-114207868D01*
X55392062Y-113425806D01*
X55323023Y-113183412D01*
X54795526Y-113004680D01*
X54239784Y-113041417D01*
X53896977Y-113183412D01*
X53827938Y-113425806D01*
X50755000Y-113425806D01*
X50755000Y-92970378D01*
X99479862Y-92970378D01*
X99715338Y-93540274D01*
X99730130Y-93555092D01*
X99730130Y-94367931D01*
X99716870Y-94381168D01*
X99480400Y-94950652D01*
X99479862Y-95567280D01*
X99715338Y-96137176D01*
X100150979Y-96573579D01*
X100720463Y-96810049D01*
X101337091Y-96810587D01*
X101906987Y-96575111D01*
X102343390Y-96139470D01*
X102579860Y-95569986D01*
X102580398Y-94953358D01*
X102344922Y-94383462D01*
X102330130Y-94368644D01*
X102330130Y-93555805D01*
X102343390Y-93542568D01*
X102561640Y-93016961D01*
X103224732Y-93016961D01*
X103460208Y-93586857D01*
X103475000Y-93601675D01*
X103475000Y-94528285D01*
X103270474Y-95020839D01*
X103269936Y-95637467D01*
X103505412Y-96207363D01*
X103941053Y-96643766D01*
X104510537Y-96880236D01*
X105127165Y-96880774D01*
X105697061Y-96645298D01*
X105732349Y-96610072D01*
X105812694Y-96690557D01*
X106382178Y-96927027D01*
X106998806Y-96927565D01*
X107568702Y-96692089D01*
X108005105Y-96256448D01*
X108241575Y-95686964D01*
X108242113Y-95070336D01*
X108006637Y-94500440D01*
X107980000Y-94473756D01*
X107980000Y-93602388D01*
X107993260Y-93589151D01*
X108229730Y-93019667D01*
X108229732Y-93016961D01*
X108929732Y-93016961D01*
X109165208Y-93586857D01*
X109180000Y-93601675D01*
X109180000Y-94775941D01*
X109049166Y-95091025D01*
X109048628Y-95707653D01*
X109284104Y-96277549D01*
X109719745Y-96713952D01*
X110289229Y-96950422D01*
X110905857Y-96950960D01*
X111178975Y-96838110D01*
X111505796Y-96973818D01*
X112122424Y-96974356D01*
X112692320Y-96738880D01*
X113128723Y-96303239D01*
X113365193Y-95733755D01*
X113365731Y-95117127D01*
X113130255Y-94547231D01*
X113060000Y-94476853D01*
X113060000Y-93602388D01*
X113073260Y-93589151D01*
X113309730Y-93019667D01*
X113310268Y-92403039D01*
X113074792Y-91833143D01*
X112639151Y-91396740D01*
X112069667Y-91160270D01*
X111453039Y-91159732D01*
X111119885Y-91297388D01*
X110789667Y-91160270D01*
X110173039Y-91159732D01*
X109603143Y-91395208D01*
X109166740Y-91830849D01*
X108930270Y-92400333D01*
X108929732Y-93016961D01*
X108229732Y-93016961D01*
X108230268Y-92403039D01*
X107994792Y-91833143D01*
X107559151Y-91396740D01*
X106989667Y-91160270D01*
X106373039Y-91159732D01*
X105803143Y-91395208D01*
X105727751Y-91470469D01*
X105654151Y-91396740D01*
X105084667Y-91160270D01*
X104468039Y-91159732D01*
X103898143Y-91395208D01*
X103461740Y-91830849D01*
X103225270Y-92400333D01*
X103224732Y-93016961D01*
X102561640Y-93016961D01*
X102579860Y-92973084D01*
X102580398Y-92356456D01*
X102344922Y-91786560D01*
X101909281Y-91350157D01*
X101339797Y-91113687D01*
X100723169Y-91113149D01*
X100153273Y-91348625D01*
X99716870Y-91784266D01*
X99480400Y-92353750D01*
X99479862Y-92970378D01*
X50755000Y-92970378D01*
X50755000Y-60234609D01*
X75989523Y-60234609D01*
X76407304Y-61245715D01*
X77180216Y-62019977D01*
X78190591Y-62439522D01*
X79284609Y-62440477D01*
X80295715Y-62022696D01*
X81069977Y-61249784D01*
X81489522Y-60239409D01*
X81490477Y-59145391D01*
X81072696Y-58134285D01*
X80299784Y-57360023D01*
X79289409Y-56940478D01*
X78195391Y-56939523D01*
X77184285Y-57357304D01*
X76410023Y-58130216D01*
X75990478Y-59140591D01*
X75989523Y-60234609D01*
X50755000Y-60234609D01*
X50755000Y-50104315D01*
X51709498Y-50104315D01*
X52150066Y-51170572D01*
X52965137Y-51987067D01*
X54030624Y-52429495D01*
X55184315Y-52430502D01*
X56250572Y-51989934D01*
X57067067Y-51174863D01*
X57509495Y-50109376D01*
X57510502Y-48955685D01*
X57069934Y-47889428D01*
X56254863Y-47072933D01*
X55189376Y-46630505D01*
X54035685Y-46629498D01*
X52969428Y-47070066D01*
X52152933Y-47885137D01*
X51710505Y-48950624D01*
X51709498Y-50104315D01*
X50755000Y-50104315D01*
X50755000Y-45675000D01*
X251505000Y-45675000D01*
X251505000Y-132125000D01*
G36*
X131116275Y-124445858D02*
X131102132Y-124460000D01*
X131116275Y-124474143D01*
X130904143Y-124686275D01*
X130890000Y-124672132D01*
X130875858Y-124686275D01*
X130663726Y-124474143D01*
X130677868Y-124460000D01*
X130663726Y-124445858D01*
X130875858Y-124233726D01*
X130890000Y-124247868D01*
X130904143Y-124233726D01*
X131116275Y-124445858D01*
X131116275Y-124445858D01*
G37*
X131116275Y-124445858D02*
X131102132Y-124460000D01*
X131116275Y-124474143D01*
X130904143Y-124686275D01*
X130890000Y-124672132D01*
X130875858Y-124686275D01*
X130663726Y-124474143D01*
X130677868Y-124460000D01*
X130663726Y-124445858D01*
X130875858Y-124233726D01*
X130890000Y-124247868D01*
X130904143Y-124233726D01*
X131116275Y-124445858D01*
G36*
X105836275Y-124445858D02*
X105822132Y-124460000D01*
X105836275Y-124474143D01*
X105624143Y-124686275D01*
X105610000Y-124672132D01*
X105595858Y-124686275D01*
X105383726Y-124474143D01*
X105397868Y-124460000D01*
X105383726Y-124445858D01*
X105595858Y-124233726D01*
X105610000Y-124247868D01*
X105624143Y-124233726D01*
X105836275Y-124445858D01*
X105836275Y-124445858D01*
G37*
X105836275Y-124445858D02*
X105822132Y-124460000D01*
X105836275Y-124474143D01*
X105624143Y-124686275D01*
X105610000Y-124672132D01*
X105595858Y-124686275D01*
X105383726Y-124474143D01*
X105397868Y-124460000D01*
X105383726Y-124445858D01*
X105595858Y-124233726D01*
X105610000Y-124247868D01*
X105624143Y-124233726D01*
X105836275Y-124445858D01*
G36*
X110836275Y-124445858D02*
X110822132Y-124460000D01*
X110836275Y-124474143D01*
X110624143Y-124686275D01*
X110610000Y-124672132D01*
X110595858Y-124686275D01*
X110383726Y-124474143D01*
X110397868Y-124460000D01*
X110383726Y-124445858D01*
X110595858Y-124233726D01*
X110610000Y-124247868D01*
X110624143Y-124233726D01*
X110836275Y-124445858D01*
X110836275Y-124445858D01*
G37*
X110836275Y-124445858D02*
X110822132Y-124460000D01*
X110836275Y-124474143D01*
X110624143Y-124686275D01*
X110610000Y-124672132D01*
X110595858Y-124686275D01*
X110383726Y-124474143D01*
X110397868Y-124460000D01*
X110383726Y-124445858D01*
X110595858Y-124233726D01*
X110610000Y-124247868D01*
X110624143Y-124233726D01*
X110836275Y-124445858D01*
G36*
X115836275Y-124445858D02*
X115822132Y-124460000D01*
X115836275Y-124474143D01*
X115624143Y-124686275D01*
X115610000Y-124672132D01*
X115595858Y-124686275D01*
X115383726Y-124474143D01*
X115397868Y-124460000D01*
X115383726Y-124445858D01*
X115595858Y-124233726D01*
X115610000Y-124247868D01*
X115624143Y-124233726D01*
X115836275Y-124445858D01*
X115836275Y-124445858D01*
G37*
X115836275Y-124445858D02*
X115822132Y-124460000D01*
X115836275Y-124474143D01*
X115624143Y-124686275D01*
X115610000Y-124672132D01*
X115595858Y-124686275D01*
X115383726Y-124474143D01*
X115397868Y-124460000D01*
X115383726Y-124445858D01*
X115595858Y-124233726D01*
X115610000Y-124247868D01*
X115624143Y-124233726D01*
X115836275Y-124445858D01*
M02*
