G04 #@! TF.FileFunction,Copper,L1,Top,Signal*
%FSLAX46Y46*%
G04 Gerber Fmt 4.6, Leading zero omitted, Abs format (unit mm)*
G04 Created by KiCad (PCBNEW 4.0.7) date 01/22/18 23:51:58*
%MOMM*%
%LPD*%
G01*
G04 APERTURE LIST*
%ADD10C,0.100000*%
%ADD11R,1.500000X1.500000*%
%ADD12C,1.500000*%
%ADD13O,1.500000X1.500000*%
%ADD14R,2.500000X1.100000*%
%ADD15R,1.100000X2.500000*%
%ADD16R,3.800000X2.000000*%
%ADD17R,1.500000X2.000000*%
%ADD18R,2.000000X2.500000*%
%ADD19R,1.250000X1.500000*%
%ADD20R,2.000000X0.600000*%
%ADD21R,0.900000X1.200000*%
%ADD22R,1.200000X0.900000*%
%ADD23R,0.750000X1.200000*%
%ADD24R,1.200000X0.750000*%
%ADD25R,1.600000X1.600000*%
%ADD26O,1.600000X1.600000*%
%ADD27R,2.000000X0.650000*%
%ADD28R,1.800000X3.500000*%
%ADD29R,3.500000X1.800000*%
%ADD30C,3.500000*%
%ADD31C,0.800000*%
%ADD32C,1.000000*%
%ADD33C,0.300000*%
%ADD34C,0.500000*%
%ADD35C,0.700000*%
%ADD36C,2.000000*%
G04 APERTURE END LIST*
D10*
D11*
X156210000Y-49530000D03*
D12*
X153710000Y-49530000D03*
X151210000Y-49530000D03*
X148710000Y-49530000D03*
X146210000Y-49530000D03*
X143710000Y-49530000D03*
X141210000Y-49530000D03*
X138710000Y-49530000D03*
D11*
X181370000Y-49530000D03*
D12*
X178870000Y-49530000D03*
X176370000Y-49530000D03*
X173870000Y-49530000D03*
X171370000Y-49530000D03*
X168870000Y-49530000D03*
X166370000Y-49530000D03*
X163870000Y-49530000D03*
X54610000Y-121920000D03*
X54610000Y-119420000D03*
X54610000Y-116920000D03*
X54610000Y-114420000D03*
D11*
X118110000Y-124460000D03*
D12*
X115610000Y-124460000D03*
X113110000Y-124460000D03*
X110610000Y-124460000D03*
X108110000Y-124460000D03*
X105610000Y-124460000D03*
X103110000Y-124460000D03*
X100610000Y-124460000D03*
D11*
X90170000Y-124460000D03*
D12*
X87670000Y-124460000D03*
X85170000Y-124460000D03*
X82670000Y-124460000D03*
X80170000Y-124460000D03*
X77670000Y-124460000D03*
X75170000Y-124460000D03*
X72670000Y-124460000D03*
X123230000Y-49530000D03*
X125730000Y-49530000D03*
X128230000Y-49530000D03*
X130730000Y-49530000D03*
D11*
X97790000Y-49530000D03*
D12*
X100290000Y-49530000D03*
X102790000Y-49530000D03*
X105290000Y-49530000D03*
X107790000Y-49530000D03*
X110290000Y-49530000D03*
X112790000Y-49530000D03*
X115290000Y-49530000D03*
D11*
X72390000Y-49530000D03*
D12*
X74890000Y-49530000D03*
X77390000Y-49530000D03*
X79890000Y-49530000D03*
X82390000Y-49530000D03*
X84890000Y-49530000D03*
X87390000Y-49530000D03*
X89890000Y-49530000D03*
X153670000Y-124460000D03*
X151170000Y-124460000D03*
X148670000Y-124460000D03*
X146170000Y-124460000D03*
X135890000Y-124460000D03*
X133390000Y-124460000D03*
X130890000Y-124460000D03*
X128390000Y-124460000D03*
D11*
X227330000Y-102870000D03*
D12*
X227330000Y-105370000D03*
X227330000Y-107870000D03*
X227330000Y-110370000D03*
X227330000Y-112870000D03*
X227330000Y-115370000D03*
D11*
X237490000Y-102870000D03*
D12*
X237490000Y-105370000D03*
X237490000Y-107870000D03*
X237490000Y-110370000D03*
X237490000Y-112870000D03*
X237490000Y-115370000D03*
D11*
X227330000Y-82550000D03*
D12*
X227330000Y-85050000D03*
X227330000Y-87550000D03*
X227330000Y-90050000D03*
X227330000Y-92550000D03*
X227330000Y-95050000D03*
D11*
X237490000Y-82550000D03*
D12*
X237490000Y-85050000D03*
X237490000Y-87550000D03*
X237490000Y-90050000D03*
X237490000Y-92550000D03*
X237490000Y-95050000D03*
X238760000Y-48260000D03*
X238760000Y-50800000D03*
X236220000Y-48260000D03*
X236220000Y-50800000D03*
X233680000Y-48260000D03*
X233680000Y-50800000D03*
X231140000Y-48260000D03*
X231140000Y-50800000D03*
X228600000Y-48260000D03*
X228600000Y-50800000D03*
X226060000Y-48260000D03*
X226060000Y-50800000D03*
X223520000Y-48260000D03*
X223520000Y-50800000D03*
X220980000Y-48260000D03*
X220980000Y-50800000D03*
X208280000Y-48260000D03*
X208280000Y-50800000D03*
X205740000Y-48260000D03*
X205740000Y-50800000D03*
X203200000Y-48260000D03*
X203200000Y-50800000D03*
X200660000Y-48260000D03*
X200660000Y-50800000D03*
X198120000Y-48260000D03*
X198120000Y-50800000D03*
X195580000Y-48260000D03*
X195580000Y-50800000D03*
X193040000Y-48260000D03*
X193040000Y-50800000D03*
X190500000Y-48260000D03*
X190500000Y-50800000D03*
X115570000Y-59690000D03*
X110490000Y-59690000D03*
X107950000Y-59690000D03*
X105410000Y-59690000D03*
X102870000Y-59690000D03*
X100330000Y-59690000D03*
X97790000Y-59690000D03*
X95250000Y-59690000D03*
D13*
X151130000Y-107950000D03*
D12*
X148590000Y-107950000D03*
D13*
X146050000Y-107950000D03*
X143510000Y-107950000D03*
X140970000Y-107950000D03*
D12*
X138430000Y-107950000D03*
X135890000Y-107950000D03*
X133350000Y-107950000D03*
X128270000Y-107950000D03*
X125730000Y-107950000D03*
X123190000Y-107950000D03*
X120650000Y-107950000D03*
X118110000Y-107950000D03*
X115570000Y-107950000D03*
X113030000Y-107950000D03*
X110490000Y-107950000D03*
X91186000Y-107950000D03*
X106426000Y-107950000D03*
X103886000Y-107950000D03*
X101346000Y-107950000D03*
X83566000Y-107950000D03*
X86106000Y-107950000D03*
X88646000Y-107950000D03*
X93726000Y-107950000D03*
X96266000Y-107950000D03*
X98806000Y-107950000D03*
X92710000Y-59690000D03*
X118110000Y-59690000D03*
X120650000Y-59690000D03*
X123190000Y-59690000D03*
X125730000Y-59690000D03*
X128270000Y-59690000D03*
X130810000Y-59690000D03*
X133350000Y-59690000D03*
X138430000Y-59690000D03*
X140970000Y-59690000D03*
X143510000Y-59690000D03*
X146050000Y-59690000D03*
X148590000Y-59690000D03*
X151130000Y-59690000D03*
X153670000Y-59690000D03*
X156210000Y-59690000D03*
D13*
X158750000Y-107950000D03*
X161290000Y-107950000D03*
X158750000Y-105410000D03*
X161290000Y-105410000D03*
X158750000Y-102870000D03*
X161290000Y-102870000D03*
X158750000Y-100330000D03*
X161290000Y-100330000D03*
X158750000Y-97790000D03*
X161290000Y-97790000D03*
X158750000Y-95250000D03*
X161290000Y-95250000D03*
X158750000Y-92710000D03*
X161290000Y-92710000D03*
D12*
X158750000Y-90170000D03*
X161290000Y-90170000D03*
X158750000Y-87630000D03*
X161290000Y-87630000D03*
X158750000Y-85090000D03*
X161290000Y-85090000D03*
D13*
X158750000Y-82550000D03*
X161290000Y-82550000D03*
D12*
X158750000Y-80010000D03*
D13*
X161290000Y-80010000D03*
X158750000Y-77470000D03*
X161290000Y-77470000D03*
D12*
X158750000Y-74930000D03*
X161290000Y-74930000D03*
X158750000Y-72390000D03*
X161290000Y-72390000D03*
X158750000Y-69850000D03*
X161290000Y-69850000D03*
X158750000Y-67310000D03*
X161290000Y-67310000D03*
X158750000Y-64770000D03*
X161290000Y-64770000D03*
D14*
X197550000Y-116840000D03*
X197550000Y-114840000D03*
X197550000Y-112840000D03*
X197550000Y-110840000D03*
X197550000Y-108840000D03*
X197550000Y-106840000D03*
X197550000Y-104840000D03*
X197550000Y-102840000D03*
X182150000Y-102840000D03*
X182150000Y-104840000D03*
X182150000Y-106840000D03*
X182150000Y-108840000D03*
X182150000Y-110840000D03*
X182150000Y-112840000D03*
X182150000Y-114840000D03*
X182150000Y-116840000D03*
D15*
X194860000Y-101140000D03*
X192860000Y-101140000D03*
X190860000Y-101140000D03*
X188860000Y-101140000D03*
X186860000Y-101140000D03*
X184860000Y-101140000D03*
D16*
X212090000Y-113665000D03*
D17*
X212090000Y-107365000D03*
X209790000Y-107365000D03*
X214390000Y-107365000D03*
D18*
X210630000Y-102870000D03*
X214630000Y-102870000D03*
D19*
X219030000Y-99600000D03*
X219030000Y-102100000D03*
D20*
X219965000Y-57150000D03*
X219965000Y-58420000D03*
X219965000Y-59690000D03*
X219965000Y-60960000D03*
X219965000Y-62230000D03*
X219965000Y-63500000D03*
X219965000Y-64770000D03*
X219965000Y-66040000D03*
X219965000Y-67310000D03*
X219965000Y-68580000D03*
X219965000Y-69850000D03*
X219965000Y-71120000D03*
X229365000Y-71120000D03*
X229365000Y-69850000D03*
X229365000Y-68580000D03*
X229365000Y-67310000D03*
X229365000Y-66040000D03*
X229365000Y-64770000D03*
X229365000Y-63500000D03*
X229365000Y-62230000D03*
X229365000Y-60960000D03*
X229365000Y-59690000D03*
X229365000Y-58420000D03*
X229365000Y-57150000D03*
X194435000Y-57150000D03*
X194435000Y-58420000D03*
X194435000Y-59690000D03*
X194435000Y-60960000D03*
X194435000Y-62230000D03*
X194435000Y-63500000D03*
X194435000Y-64770000D03*
X194435000Y-66040000D03*
X194435000Y-67310000D03*
X194435000Y-68580000D03*
X194435000Y-69850000D03*
X194435000Y-71120000D03*
X203835000Y-71120000D03*
X203835000Y-69850000D03*
X203835000Y-68580000D03*
X203835000Y-67310000D03*
X203835000Y-66040000D03*
X203835000Y-64770000D03*
X203835000Y-63500000D03*
X203835000Y-62230000D03*
X203835000Y-60960000D03*
X203835000Y-59690000D03*
X203835000Y-58420000D03*
X203835000Y-57150000D03*
D21*
X96520000Y-88560000D03*
X96520000Y-86360000D03*
X102870000Y-88560000D03*
X102870000Y-86360000D03*
X108585000Y-88560000D03*
X108585000Y-86360000D03*
X113665000Y-88730000D03*
X113665000Y-86530000D03*
X113665000Y-80815000D03*
X113665000Y-83015000D03*
X108585000Y-80985000D03*
X108585000Y-83185000D03*
X102870000Y-80985000D03*
X102870000Y-83185000D03*
X96520000Y-80985000D03*
X96520000Y-83185000D03*
D22*
X176530000Y-109220000D03*
X174330000Y-109220000D03*
X176530000Y-106680000D03*
X174330000Y-106680000D03*
D21*
X236982000Y-63500000D03*
X236982000Y-65700000D03*
D22*
X176530000Y-103505000D03*
X174330000Y-103505000D03*
X204935000Y-113030000D03*
X202735000Y-113030000D03*
X204935000Y-116840000D03*
X202735000Y-116840000D03*
D21*
X211328000Y-63500000D03*
X211328000Y-65700000D03*
X123190000Y-99400000D03*
X123190000Y-101600000D03*
D23*
X113665000Y-93975000D03*
X113665000Y-92075000D03*
X108585000Y-93980000D03*
X108585000Y-92080000D03*
X102870000Y-93980000D03*
X102870000Y-92080000D03*
X96520000Y-93980000D03*
X96520000Y-92080000D03*
X239522000Y-63500000D03*
X239522000Y-65400000D03*
X214503000Y-63500000D03*
X214503000Y-65400000D03*
D24*
X209545000Y-119380000D03*
X207645000Y-119380000D03*
D23*
X201930000Y-99700000D03*
X201930000Y-101600000D03*
D25*
X212090000Y-124460000D03*
D26*
X204470000Y-124460000D03*
D27*
X128270000Y-97795000D03*
X128270000Y-99695000D03*
X131690000Y-98745000D03*
D28*
X110490000Y-68620000D03*
X110490000Y-73620000D03*
D29*
X69175000Y-117475000D03*
X64175000Y-117475000D03*
D12*
X163830000Y-127000000D03*
X163830000Y-124460000D03*
X163830000Y-121920000D03*
X163830000Y-119380000D03*
X163830000Y-116840000D03*
X163830000Y-114300000D03*
X176530000Y-127000000D03*
X176530000Y-124460000D03*
X176530000Y-121920000D03*
X176530000Y-119380000D03*
X176530000Y-116840000D03*
X176530000Y-114300000D03*
D30*
X54602856Y-128188224D03*
X54610000Y-49530000D03*
X247632427Y-128266279D03*
X247617032Y-49489805D03*
D31*
X240048107Y-104656016D03*
X239990305Y-98785770D03*
X216561212Y-92334368D03*
X216540602Y-89424226D03*
X213952082Y-87110645D03*
X214022056Y-92323643D03*
X210050000Y-56450000D03*
X208210000Y-68630000D03*
X208270000Y-56370000D03*
X207610000Y-66750000D03*
X203265955Y-53167975D03*
X201451876Y-53174023D03*
X194301697Y-53316309D03*
X189030205Y-62287016D03*
X197673498Y-53814692D03*
X195548841Y-53345322D03*
X198532973Y-55333310D03*
X193081119Y-55177387D03*
X187958384Y-55460343D03*
X190371449Y-53243950D03*
X234396592Y-69055908D03*
X233236458Y-66819903D03*
X235177628Y-57132875D03*
X223236723Y-55288042D03*
X224484038Y-55304678D03*
X223234644Y-65920417D03*
X216059580Y-53815421D03*
X101030130Y-92663417D03*
X101030130Y-95260319D03*
X106691845Y-95377297D03*
X106680000Y-92710000D03*
X111815463Y-95424088D03*
X111760000Y-92710000D03*
X191624658Y-57614363D03*
X200466058Y-74213457D03*
X195260175Y-72896356D03*
X201578226Y-72764308D03*
X227965000Y-73660000D03*
X215265000Y-71120000D03*
X104820204Y-95330506D03*
X104775000Y-92710000D03*
X110598896Y-95400692D03*
X110480000Y-92710000D03*
X201295000Y-118745000D03*
X204922544Y-118490166D03*
X203775275Y-55329162D03*
X219710000Y-55245000D03*
D32*
X207422350Y-99058617D03*
X241940721Y-69905972D03*
X206413568Y-106183574D03*
X216408000Y-69850000D03*
D31*
X160030000Y-125850000D03*
X160030000Y-123850000D03*
X160030000Y-121350000D03*
X58438974Y-130852766D03*
X51579241Y-124426549D03*
X51477238Y-126466618D03*
X248158558Y-116118100D03*
X248158558Y-121158830D03*
X243805200Y-123793758D03*
X235728574Y-128949050D03*
X240832275Y-128835889D03*
X244094000Y-76200000D03*
X244094000Y-74168000D03*
X244094000Y-72136000D03*
X244094000Y-69850000D03*
X244094000Y-66294000D03*
X244094000Y-63754000D03*
X244094000Y-61214000D03*
X184658000Y-48514000D03*
X239522000Y-76200000D03*
X235458000Y-76200000D03*
X231140000Y-76200000D03*
X226822000Y-76200000D03*
X242824000Y-48006000D03*
X242824000Y-51054000D03*
X242824000Y-54864000D03*
X242824000Y-58674000D03*
X237236000Y-70104000D03*
X238760000Y-68580000D03*
X196838500Y-67069354D03*
X214722981Y-67179544D03*
X216662000Y-67183000D03*
X221966310Y-87618545D03*
X218530000Y-76100000D03*
X222030000Y-76350000D03*
X222030000Y-80100000D03*
X222030000Y-83850000D03*
X120700000Y-126927436D03*
X123470000Y-126927436D03*
X126650000Y-126927436D03*
X129380000Y-126927436D03*
X128144229Y-102317528D03*
X134090000Y-120600000D03*
X134010000Y-117060000D03*
X133970000Y-113960000D03*
X133970000Y-110810000D03*
X137830000Y-110770000D03*
X146071051Y-118315550D03*
X141130000Y-110700000D03*
X141340000Y-112980000D03*
X142220000Y-114700000D03*
X143900000Y-116240000D03*
X213360000Y-97790000D03*
X210820000Y-97790000D03*
X95250000Y-124460000D03*
X97790000Y-124460000D03*
X214644114Y-121254436D03*
X214630000Y-118902185D03*
X214630000Y-116840000D03*
X220980000Y-114300000D03*
X220980000Y-111760000D03*
X220980000Y-109220000D03*
X220980000Y-106680000D03*
X220980000Y-104140000D03*
X224968898Y-70087138D03*
X214870000Y-75530000D03*
X210740000Y-75640000D03*
X206960000Y-75710000D03*
X203930000Y-75730000D03*
X201420000Y-78210000D03*
X199090000Y-80690000D03*
X196150000Y-83330000D03*
X193160000Y-86280000D03*
X190720000Y-88630000D03*
X188030000Y-91070000D03*
X185320000Y-93680000D03*
X156210000Y-121285000D03*
X149225000Y-121285000D03*
X149225000Y-118745000D03*
X60839520Y-54553177D03*
X53853361Y-56013560D03*
X53925003Y-59859251D03*
X62256613Y-47578311D03*
X65493752Y-47479467D03*
X196463438Y-61005719D03*
X221930206Y-60948382D03*
X173355000Y-93345000D03*
X175260000Y-91440000D03*
X177165000Y-89535000D03*
X179070000Y-87630000D03*
X182245000Y-84455000D03*
X184785000Y-81915000D03*
X184785000Y-78105000D03*
X184785000Y-74295000D03*
X184785000Y-69850000D03*
X184785000Y-66675000D03*
X184785000Y-62865000D03*
X184785000Y-59690000D03*
X184785000Y-55880000D03*
X184785000Y-52070000D03*
X60325000Y-130810000D03*
X160020000Y-118745000D03*
X158115000Y-118745000D03*
X156210000Y-118745000D03*
X239522000Y-67056000D03*
X98425000Y-95250000D03*
D33*
X227330000Y-107870000D02*
X237490000Y-107870000D01*
X237490000Y-92550000D02*
X238894923Y-92550000D01*
X238894923Y-92550000D02*
X239990305Y-93645382D01*
X239990305Y-93645382D02*
X239990305Y-98220085D01*
X239990305Y-98220085D02*
X239990305Y-98785770D01*
X237490000Y-112870000D02*
X238961558Y-112870000D01*
X238961558Y-112870000D02*
X240048107Y-111783451D01*
X240048107Y-111783451D02*
X240048107Y-105221701D01*
X240048107Y-105221701D02*
X240048107Y-104656016D01*
X227330000Y-112870000D02*
X228567436Y-112870000D01*
X227330000Y-112870000D02*
X227335804Y-112864196D01*
X228561632Y-112864196D02*
X228567436Y-112870000D01*
X228567436Y-112870000D02*
X237490000Y-112870000D01*
X227330000Y-92550000D02*
X237490000Y-92550000D01*
X216540602Y-92313758D02*
X216561212Y-92334368D01*
X216540602Y-89424226D02*
X216540602Y-92313758D01*
X214022056Y-92323643D02*
X214022056Y-87180619D01*
X214022056Y-87180619D02*
X213952082Y-87110645D01*
X161290000Y-95250000D02*
X166630836Y-95250000D01*
X166630836Y-95250000D02*
X181370000Y-80510836D01*
X181370000Y-80510836D02*
X181370000Y-58353548D01*
X181370000Y-58353548D02*
X181370000Y-49530000D01*
X158750000Y-92710000D02*
X160020000Y-93980000D01*
X160020000Y-93980000D02*
X167052294Y-93980000D01*
X167052294Y-93980000D02*
X180769989Y-80262305D01*
X180769989Y-80262305D02*
X180769989Y-59466314D01*
X180769989Y-59466314D02*
X178928658Y-57624983D01*
X178928658Y-57624983D02*
X178928658Y-49588658D01*
X178928658Y-49588658D02*
X178870000Y-49530000D01*
X180096397Y-60507188D02*
X176370000Y-56780791D01*
X176370000Y-56780791D02*
X176370000Y-50767436D01*
X167473752Y-92710000D02*
X180096397Y-80087355D01*
X161290000Y-92710000D02*
X167473752Y-92710000D01*
X180096397Y-80087355D02*
X180096397Y-60507188D01*
X176370000Y-50767436D02*
X176370000Y-49530000D01*
X173870000Y-50767436D02*
X173870000Y-49530000D01*
X179288035Y-60941444D02*
X173870000Y-55523409D01*
X167895210Y-91440000D02*
X179288035Y-80047175D01*
X160020000Y-91440000D02*
X167895210Y-91440000D01*
X173870000Y-55523409D02*
X173870000Y-50767436D01*
X179288035Y-80047175D02*
X179288035Y-60941444D01*
X158750000Y-90170000D02*
X160020000Y-91440000D01*
X171370000Y-50767436D02*
X171370000Y-49530000D01*
X178688024Y-61395775D02*
X171370000Y-54077751D01*
X161290000Y-90170000D02*
X168316668Y-90170000D01*
X168316668Y-90170000D02*
X178688024Y-79798644D01*
X178688024Y-79798644D02*
X178688024Y-61395775D01*
X171370000Y-54077751D02*
X171370000Y-50767436D01*
X160020000Y-88900000D02*
X168738126Y-88900000D01*
X178088013Y-79550113D02*
X178088013Y-61858043D01*
X158750000Y-87630000D02*
X160020000Y-88900000D01*
X178088013Y-61858043D02*
X168870000Y-52640030D01*
X168870000Y-52640030D02*
X168870000Y-50767436D01*
X168738126Y-88900000D02*
X178088013Y-79550113D01*
X168870000Y-50767436D02*
X168870000Y-49530000D01*
X177488002Y-79301582D02*
X177488002Y-62219225D01*
X166370000Y-51101223D02*
X166370000Y-50767436D01*
X161290000Y-87630000D02*
X169159584Y-87630000D01*
X169159584Y-87630000D02*
X177488002Y-79301582D01*
X177488002Y-62219225D02*
X166370000Y-51101223D01*
X166370000Y-50767436D02*
X166370000Y-49530000D01*
X159967151Y-86307151D02*
X169633891Y-86307151D01*
X176887991Y-79053051D02*
X176887991Y-62547991D01*
X158750000Y-85090000D02*
X159967151Y-86307151D01*
X169633891Y-86307151D02*
X176887991Y-79053051D01*
X164744999Y-50404999D02*
X163870000Y-49530000D01*
X176887991Y-62547991D02*
X164744999Y-50404999D01*
X161290000Y-74930000D02*
X160020434Y-73660434D01*
X160020434Y-73660434D02*
X124266747Y-73660434D01*
X124266747Y-73660434D02*
X112723481Y-62117170D01*
X112723481Y-62117170D02*
X112723481Y-58181040D01*
X112723481Y-58181040D02*
X110704721Y-56162280D01*
X110704721Y-56162280D02*
X77096693Y-56162280D01*
X77096693Y-56162280D02*
X72390000Y-51455587D01*
X72390000Y-51455587D02*
X72390000Y-49530000D01*
X158750000Y-72390000D02*
X123844855Y-72390000D01*
X123844855Y-72390000D02*
X113323492Y-61868638D01*
X113323492Y-61868638D02*
X113323492Y-57544520D01*
X113323492Y-57544520D02*
X111341241Y-55562269D01*
X111341241Y-55562269D02*
X79331027Y-55562269D01*
X79331027Y-55562269D02*
X74890000Y-51121242D01*
X74890000Y-51121242D02*
X74890000Y-50767436D01*
X74890000Y-50767436D02*
X74890000Y-49530000D01*
X77390000Y-49530000D02*
X77390000Y-51678264D01*
X77390000Y-51678264D02*
X80673994Y-54962258D01*
X80673994Y-54962258D02*
X112291508Y-54962258D01*
X112291508Y-54962258D02*
X113923503Y-56594253D01*
X113923503Y-56594253D02*
X113923503Y-61620106D01*
X113923503Y-61620106D02*
X123353398Y-71050001D01*
X123353398Y-71050001D02*
X159950001Y-71050001D01*
X159950001Y-71050001D02*
X160540001Y-71640001D01*
X160540001Y-71640001D02*
X161290000Y-72390000D01*
X115570000Y-59690000D02*
X115570000Y-56192168D01*
X115570000Y-56192168D02*
X113740079Y-54362247D01*
X113740079Y-54362247D02*
X81869541Y-54362247D01*
X81869541Y-54362247D02*
X79897796Y-52390502D01*
X79897796Y-52390502D02*
X79897796Y-49523005D01*
X79897796Y-49523005D02*
X79890801Y-49530000D01*
X79890801Y-49530000D02*
X79890000Y-49530000D01*
X118110000Y-59690000D02*
X118110000Y-55534655D01*
X118110000Y-55534655D02*
X116337581Y-53762236D01*
X116337581Y-53762236D02*
X83783619Y-53762236D01*
X83783619Y-53762236D02*
X82375610Y-52354227D01*
X82375610Y-52354227D02*
X82375610Y-49544390D01*
X82375610Y-49544390D02*
X82390000Y-49530000D01*
X120650000Y-59690000D02*
X120650000Y-55479946D01*
X120650000Y-55479946D02*
X118332279Y-53162225D01*
X118332279Y-53162225D02*
X86521746Y-53162225D01*
X86521746Y-53162225D02*
X84890000Y-51530479D01*
X84890000Y-51530479D02*
X84890000Y-49530000D01*
X87390000Y-49530000D02*
X87390000Y-51731692D01*
X87390000Y-51731692D02*
X88185288Y-52526980D01*
X88185288Y-52526980D02*
X120457362Y-52526980D01*
X120457362Y-52526980D02*
X123190000Y-55259618D01*
X123190000Y-55259618D02*
X123190000Y-58629340D01*
X123190000Y-58629340D02*
X123190000Y-59690000D01*
X125730000Y-59690000D02*
X125730000Y-55204909D01*
X125730000Y-55204909D02*
X122452060Y-51926969D01*
X122452060Y-51926969D02*
X90683367Y-51926969D01*
X90683367Y-51926969D02*
X89890000Y-51133602D01*
X89890000Y-51133602D02*
X89890000Y-49530000D01*
X170002500Y-85090000D02*
X176287980Y-78804520D01*
X161290000Y-85090000D02*
X170002500Y-85090000D01*
X176287980Y-62796522D02*
X164940394Y-51448936D01*
X176287980Y-78804520D02*
X176287980Y-62796522D01*
X157385000Y-49530000D02*
X156210000Y-49530000D01*
X159303936Y-51448936D02*
X157385000Y-49530000D01*
X164940394Y-51448936D02*
X159303936Y-51448936D01*
X170493957Y-83750001D02*
X175687969Y-78555989D01*
X175687969Y-78555989D02*
X175687969Y-63045053D01*
X154584999Y-50404999D02*
X153710000Y-49530000D01*
X158750000Y-82550000D02*
X159950001Y-83750001D01*
X156253291Y-52073291D02*
X154584999Y-50404999D01*
X159950001Y-83750001D02*
X170493957Y-83750001D01*
X164716207Y-52073291D02*
X156253291Y-52073291D01*
X175687969Y-63045053D02*
X164716207Y-52073291D01*
X161290000Y-82550000D02*
X170845416Y-82550000D01*
X164467676Y-52673302D02*
X154353302Y-52673302D01*
X154353302Y-52673302D02*
X152084999Y-50404999D01*
X175087958Y-63293584D02*
X164467676Y-52673302D01*
X175087958Y-78307458D02*
X175087958Y-63293584D01*
X152084999Y-50404999D02*
X151210000Y-49530000D01*
X170845416Y-82550000D02*
X175087958Y-78307458D01*
X152453313Y-53273313D02*
X149584999Y-50404999D01*
X158750000Y-80010000D02*
X159950001Y-81210001D01*
X149584999Y-50404999D02*
X148710000Y-49530000D01*
X171336873Y-81210001D02*
X174487947Y-78058927D01*
X159950001Y-81210001D02*
X171336873Y-81210001D01*
X164219145Y-53273313D02*
X152453313Y-53273313D01*
X174487947Y-78058927D02*
X174487947Y-63542115D01*
X174487947Y-63542115D02*
X164219145Y-53273313D01*
X173887936Y-63790646D02*
X163970614Y-53873324D01*
X171688332Y-80010000D02*
X173887936Y-77810396D01*
X147084999Y-50404999D02*
X146210000Y-49530000D01*
X150553324Y-53873324D02*
X147084999Y-50404999D01*
X173887936Y-77810396D02*
X173887936Y-63790646D01*
X163970614Y-53873324D02*
X150553324Y-53873324D01*
X161290000Y-80010000D02*
X171688332Y-80010000D01*
X144584999Y-50404999D02*
X143710000Y-49530000D01*
X163722083Y-54473335D02*
X148653335Y-54473335D01*
X173287925Y-64039177D02*
X163722083Y-54473335D01*
X171227797Y-78740000D02*
X173287925Y-76679872D01*
X160020000Y-78740000D02*
X171227797Y-78740000D01*
X158750000Y-77470000D02*
X160020000Y-78740000D01*
X148653335Y-54473335D02*
X144584999Y-50404999D01*
X173287925Y-76679872D02*
X173287925Y-64039177D01*
X141210000Y-49530000D02*
X141210128Y-49530000D01*
X141210128Y-49530000D02*
X146753474Y-55073346D01*
X170972411Y-77470000D02*
X162350660Y-77470000D01*
X146753474Y-55073346D02*
X163473552Y-55073346D01*
X162350660Y-77470000D02*
X161290000Y-77470000D01*
X163473552Y-55073346D02*
X172687914Y-64287708D01*
X172687914Y-75754497D02*
X170972411Y-77470000D01*
X172687914Y-64287708D02*
X172687914Y-75754497D01*
X158750000Y-74930000D02*
X160089999Y-76269999D01*
X139584999Y-50404999D02*
X138710000Y-49530000D01*
X160089999Y-76269999D02*
X170970592Y-76269999D01*
X144874966Y-55673357D02*
X139606608Y-50404999D01*
X170970592Y-76269999D02*
X172087903Y-75152688D01*
X172087903Y-64620551D02*
X163140709Y-55673357D01*
X172087903Y-75152688D02*
X172087903Y-64620551D01*
X163140709Y-55673357D02*
X144874966Y-55673357D01*
X139606608Y-50404999D02*
X139584999Y-50404999D01*
X203835000Y-59690000D02*
X205172099Y-59690000D01*
X205172099Y-59690000D02*
X205735010Y-59127089D01*
X205735010Y-59127089D02*
X205735010Y-54481142D01*
X205735010Y-54481142D02*
X204494628Y-53240760D01*
X204494628Y-53240760D02*
X204494628Y-47381977D01*
X204494628Y-47381977D02*
X205155708Y-46720897D01*
X205155708Y-46720897D02*
X207790897Y-46720897D01*
X207790897Y-46720897D02*
X208280000Y-47210000D01*
X208280000Y-47210000D02*
X208280000Y-48260000D01*
X210050000Y-56450000D02*
X210050000Y-53737585D01*
X210050000Y-53737585D02*
X208280000Y-51967585D01*
X208280000Y-51967585D02*
X208280000Y-50800000D01*
X203835000Y-69850000D02*
X206990000Y-69850000D01*
X206990000Y-69850000D02*
X208210000Y-68630000D01*
X208270000Y-56370000D02*
X208270000Y-53306738D01*
X206489999Y-49009999D02*
X205740000Y-48260000D01*
X208270000Y-53306738D02*
X206940001Y-51976739D01*
X206940001Y-51976739D02*
X206940001Y-49460001D01*
X206940001Y-49460001D02*
X206489999Y-49009999D01*
X203835000Y-67310000D02*
X207050000Y-67310000D01*
X207050000Y-67310000D02*
X207610000Y-66750000D01*
X203835000Y-62230000D02*
X205562900Y-62230000D01*
X205562900Y-62230000D02*
X206657124Y-61135776D01*
X206657124Y-61135776D02*
X206657124Y-53593342D01*
X206657124Y-53593342D02*
X205740000Y-52676218D01*
X205740000Y-52676218D02*
X205740000Y-50800000D01*
X203835000Y-62230000D02*
X204535000Y-62230000D01*
X203835000Y-58420000D02*
X202596423Y-58420000D01*
X202596423Y-58420000D02*
X202271107Y-58094684D01*
X202415945Y-53467958D02*
X202415945Y-52273656D01*
X201962040Y-51819751D02*
X201962040Y-49498665D01*
X202271107Y-58094684D02*
X202271107Y-53612796D01*
X201962040Y-49498665D02*
X203200000Y-48260705D01*
X202271107Y-53612796D02*
X202415945Y-53467958D01*
X202415945Y-52273656D02*
X201962040Y-51819751D01*
X203200000Y-48260705D02*
X203200000Y-48260000D01*
X203835000Y-60960000D02*
X202113530Y-60960000D01*
X202113530Y-60960000D02*
X201210621Y-60057091D01*
X201210621Y-60057091D02*
X201210621Y-53415278D01*
X201210621Y-53415278D02*
X201451876Y-53174023D01*
X203200000Y-53102020D02*
X203265955Y-53167975D01*
X203200000Y-50800000D02*
X203200000Y-53102020D01*
X203835000Y-68580000D02*
X201448598Y-68580000D01*
X199982986Y-67114388D02*
X199982986Y-52758293D01*
X201448598Y-68580000D02*
X199982986Y-67114388D01*
X199459999Y-52235306D02*
X199459999Y-49460001D01*
X199982986Y-52758293D02*
X199459999Y-52235306D01*
X199459999Y-49460001D02*
X199910001Y-49009999D01*
X199910001Y-49009999D02*
X200660000Y-48260000D01*
X203835000Y-66040000D02*
X201487001Y-66040000D01*
X201487001Y-66040000D02*
X200601866Y-65154865D01*
X200601866Y-65154865D02*
X200601866Y-50858134D01*
X200601866Y-50858134D02*
X200660000Y-50800000D01*
X194435000Y-58420000D02*
X195135000Y-58420000D01*
X197370001Y-49009999D02*
X198120000Y-48260000D01*
X195135000Y-58420000D02*
X196816690Y-56738310D01*
X196816690Y-56738310D02*
X196816690Y-49563310D01*
X196816690Y-49563310D02*
X197370001Y-49009999D01*
X194435000Y-69850000D02*
X197701651Y-69850000D01*
X197701651Y-69850000D02*
X199382975Y-68168676D01*
X199382975Y-68168676D02*
X199382975Y-53557428D01*
X199382975Y-53557428D02*
X198120000Y-52294453D01*
X198120000Y-52294453D02*
X198120000Y-50800000D01*
X194301697Y-52750624D02*
X194301697Y-53316309D01*
X194301697Y-49538303D02*
X194301697Y-52750624D01*
X195580000Y-48260000D02*
X194301697Y-49538303D01*
X189430204Y-62687015D02*
X189030205Y-62287016D01*
X190243189Y-63500000D02*
X189430204Y-62687015D01*
X194435000Y-63500000D02*
X190243189Y-63500000D01*
X197673498Y-54380377D02*
X197673498Y-53814692D01*
X197682963Y-54389842D02*
X197673498Y-54380377D01*
X195135000Y-64770000D02*
X197682963Y-62222037D01*
X197682963Y-62222037D02*
X197682963Y-54389842D01*
X194435000Y-64770000D02*
X195135000Y-64770000D01*
X195580000Y-53314163D02*
X195548841Y-53345322D01*
X195580000Y-50800000D02*
X195580000Y-53314163D01*
X194435000Y-59690000D02*
X191861309Y-59690000D01*
X191861309Y-59690000D02*
X190355348Y-58184039D01*
X190355348Y-58184039D02*
X190355348Y-55762505D01*
X190355348Y-55762505D02*
X191839999Y-54277854D01*
X191839999Y-54277854D02*
X191839999Y-49460001D01*
X191839999Y-49460001D02*
X192290001Y-49009999D01*
X192290001Y-49009999D02*
X193040000Y-48260000D01*
X194435000Y-68580000D02*
X197614051Y-68580000D01*
X197614051Y-68580000D02*
X198532973Y-67661078D01*
X198532973Y-67661078D02*
X198532973Y-55898995D01*
X198532973Y-55898995D02*
X198532973Y-55333310D01*
X193040000Y-55136268D02*
X193081119Y-55177387D01*
X193040000Y-50800000D02*
X193040000Y-55136268D01*
X194435000Y-62230000D02*
X191208235Y-62230000D01*
X191208235Y-62230000D02*
X188976000Y-59997765D01*
X188976000Y-59997765D02*
X188976000Y-48820852D01*
X188976000Y-48820852D02*
X189536852Y-48260000D01*
X189536852Y-48260000D02*
X190500000Y-48260000D01*
X194435000Y-66040000D02*
X190301926Y-66040000D01*
X190301926Y-66040000D02*
X187958384Y-63696458D01*
X187958384Y-63696458D02*
X187958384Y-56026028D01*
X187958384Y-56026028D02*
X187958384Y-55460343D01*
X190500000Y-53115399D02*
X190371449Y-53243950D01*
X190500000Y-50800000D02*
X190500000Y-53115399D01*
X229365000Y-59690000D02*
X231641807Y-59690000D01*
X231641807Y-59690000D02*
X233080010Y-58251797D01*
X235019999Y-47360664D02*
X235743815Y-46636848D01*
X233080010Y-58251797D02*
X233080010Y-55723207D01*
X238349968Y-46636848D02*
X238780381Y-47067261D01*
X233080010Y-55723207D02*
X235019999Y-53783218D01*
X235019999Y-53783218D02*
X235019999Y-47360664D01*
X235743815Y-46636848D02*
X238349968Y-46636848D01*
X238780381Y-47067261D02*
X238780381Y-48239619D01*
X238780381Y-48239619D02*
X238760000Y-48260000D01*
X233996593Y-69455907D02*
X234396592Y-69055908D01*
X233602500Y-69850000D02*
X233996593Y-69455907D01*
X229365000Y-69850000D02*
X233602500Y-69850000D01*
X232836459Y-67219902D02*
X233236458Y-66819903D01*
X232746361Y-67310000D02*
X232836459Y-67219902D01*
X229365000Y-67310000D02*
X232746361Y-67310000D01*
X229365000Y-62230000D02*
X232156212Y-62230000D01*
X232156212Y-62230000D02*
X236265035Y-58121177D01*
X236265035Y-58121177D02*
X236265035Y-50752705D01*
X229365000Y-58420000D02*
X231477568Y-58420000D01*
X232930001Y-49009999D02*
X233680000Y-48260000D01*
X231477568Y-58420000D02*
X232479999Y-57417569D01*
X232479999Y-49460001D02*
X232930001Y-49009999D01*
X232479999Y-57417569D02*
X232479999Y-49460001D01*
X234777629Y-57532874D02*
X235177628Y-57132875D01*
X231350503Y-60960000D02*
X234777629Y-57532874D01*
X229365000Y-60960000D02*
X231350503Y-60960000D01*
X229365000Y-68580000D02*
X227657107Y-68580000D01*
X229882700Y-49517300D02*
X230390001Y-49009999D01*
X227657107Y-68580000D02*
X226632474Y-67555367D01*
X230390001Y-49009999D02*
X231140000Y-48260000D01*
X226632474Y-67555367D02*
X226632474Y-55922127D01*
X226632474Y-55922127D02*
X229882700Y-52671901D01*
X229882700Y-52671901D02*
X229882700Y-49517300D01*
X229365000Y-66040000D02*
X228197474Y-66040000D01*
X227395929Y-56336759D02*
X231140000Y-52592688D01*
X228197474Y-66040000D02*
X227395929Y-65238455D01*
X227395929Y-65238455D02*
X227395929Y-56336759D01*
X231140000Y-52592688D02*
X231140000Y-51860660D01*
X231140000Y-51860660D02*
X231140000Y-50800000D01*
X219965000Y-58420000D02*
X221548120Y-58420000D01*
X221548120Y-58420000D02*
X222386722Y-57581398D01*
X222386722Y-57581398D02*
X222386722Y-54295478D01*
X222386722Y-54295478D02*
X224859999Y-51822201D01*
X224859999Y-51822201D02*
X224859999Y-50223999D01*
X224859999Y-50223999D02*
X225623997Y-49460001D01*
X225623997Y-49460001D02*
X227399999Y-49460001D01*
X227399999Y-49460001D02*
X228600000Y-48260000D01*
X219965000Y-69850000D02*
X221683624Y-69850000D01*
X225920557Y-55654493D02*
X228600000Y-52975050D01*
X221683624Y-69850000D02*
X225920557Y-65613067D01*
X225920557Y-65613067D02*
X225920557Y-55654493D01*
X228600000Y-52975050D02*
X228600000Y-50800000D01*
X219965000Y-63500000D02*
X222192272Y-63500000D01*
X222192272Y-63500000D02*
X223236723Y-62455549D01*
X223236723Y-62455549D02*
X223236723Y-55853727D01*
X223236723Y-55853727D02*
X223236723Y-55288042D01*
X219965000Y-64770000D02*
X223362016Y-64770000D01*
X223362016Y-64770000D02*
X224484038Y-63647978D01*
X224484038Y-63647978D02*
X224484038Y-55870363D01*
X224484038Y-55870363D02*
X224484038Y-55304678D01*
X219965000Y-59690000D02*
X218433489Y-59690000D01*
X218433489Y-59690000D02*
X217792300Y-59048811D01*
X221221300Y-53314600D02*
X222313500Y-52222400D01*
X222313500Y-49466500D02*
X223520000Y-48260000D01*
X217792300Y-59048811D02*
X217792300Y-54737000D01*
X217792300Y-54737000D02*
X219214700Y-53314600D01*
X219214700Y-53314600D02*
X221221300Y-53314600D01*
X222313500Y-52222400D02*
X222313500Y-49466500D01*
X219965000Y-68580000D02*
X221998872Y-68580000D01*
X221998872Y-68580000D02*
X223234644Y-67344228D01*
X223234644Y-67344228D02*
X223234644Y-66486102D01*
X223234644Y-66486102D02*
X223234644Y-65920417D01*
X219965000Y-62230000D02*
X218665000Y-62230000D01*
X218665000Y-62230000D02*
X217155863Y-60720863D01*
X217155863Y-60720863D02*
X217155863Y-54355595D01*
X217155863Y-54355595D02*
X217078532Y-54278264D01*
X217078532Y-54278264D02*
X217078532Y-49814195D01*
X217078532Y-49814195D02*
X218629547Y-48263180D01*
X218629547Y-48263180D02*
X220976820Y-48263180D01*
X220976820Y-48263180D02*
X220980000Y-48260000D01*
X219965000Y-66040000D02*
X218662825Y-66040000D01*
X218662825Y-66040000D02*
X217254751Y-64631926D01*
X215996465Y-61305884D02*
X215996465Y-53934050D01*
X217254751Y-64631926D02*
X217254751Y-62564170D01*
X217254751Y-62564170D02*
X215996465Y-61305884D01*
X215996465Y-53934050D02*
X215968708Y-53906293D01*
X215968708Y-53906293D02*
X216059580Y-53815421D01*
X123190000Y-101600000D02*
X123190000Y-107950000D01*
X113030000Y-107950000D02*
X113030000Y-106316068D01*
X113030000Y-106316068D02*
X101955085Y-95241153D01*
X101955085Y-95241153D02*
X101049296Y-95241153D01*
X101049296Y-95241153D02*
X101030130Y-95260319D01*
X96520000Y-86360000D02*
X99519983Y-86360000D01*
X99519983Y-86360000D02*
X101030130Y-87870147D01*
X101030130Y-87870147D02*
X101030130Y-92097732D01*
X101030130Y-92097732D02*
X101030130Y-92663417D01*
X96520000Y-83185000D02*
X96520000Y-86360000D01*
X107091844Y-95777296D02*
X106691845Y-95377297D01*
X115570000Y-104255452D02*
X107091844Y-95777296D01*
X115570000Y-107950000D02*
X115570000Y-104255452D01*
X106680000Y-87630000D02*
X106680000Y-92710000D01*
X105410000Y-86360000D02*
X106680000Y-87630000D01*
X102870000Y-86360000D02*
X105410000Y-86360000D01*
X102870000Y-83185000D02*
X102870000Y-86360000D01*
X118110000Y-107950000D02*
X118110000Y-102956894D01*
X118110000Y-102956894D02*
X111819103Y-96665997D01*
X111819103Y-96665997D02*
X111819103Y-95427728D01*
X111819103Y-95427728D02*
X111815463Y-95424088D01*
X108585000Y-86360000D02*
X110511393Y-86360000D01*
X110511393Y-86360000D02*
X111760000Y-87608607D01*
X111760000Y-87608607D02*
X111760000Y-92710000D01*
X108585000Y-83185000D02*
X108585000Y-86360000D01*
X113665000Y-86530000D02*
X115024110Y-86530000D01*
X115024110Y-86530000D02*
X120666582Y-92172472D01*
X120666582Y-92172472D02*
X120666582Y-107933418D01*
X120666582Y-107933418D02*
X120650000Y-107950000D01*
X113665000Y-83015000D02*
X113665000Y-86530000D01*
X192024657Y-57214364D02*
X191624658Y-57614363D01*
X192089021Y-57150000D02*
X192024657Y-57214364D01*
X194435000Y-57150000D02*
X192089021Y-57150000D01*
X200066059Y-74613456D02*
X200466058Y-74213457D01*
X168069514Y-106610001D02*
X200066059Y-74613456D01*
X159950001Y-106610001D02*
X168069514Y-106610001D01*
X158750000Y-105410000D02*
X159950001Y-106610001D01*
X194860176Y-72496357D02*
X195260175Y-72896356D01*
X194435000Y-72071181D02*
X194860176Y-72496357D01*
X194435000Y-71120000D02*
X194435000Y-72071181D01*
X219965000Y-71120000D02*
X218569708Y-71120000D01*
X218569708Y-71120000D02*
X216925400Y-72764308D01*
X216925400Y-72764308D02*
X202143911Y-72764308D01*
X202143911Y-72764308D02*
X201578226Y-72764308D01*
X201012541Y-72764308D02*
X201578226Y-72764308D01*
X167839552Y-105410000D02*
X200485244Y-72764308D01*
X200485244Y-72764308D02*
X201012541Y-72764308D01*
X161290000Y-105410000D02*
X167839552Y-105410000D01*
X227965000Y-73660000D02*
X228692816Y-73660000D01*
X228692816Y-73660000D02*
X229365000Y-72987816D01*
X229365000Y-72987816D02*
X229365000Y-71120000D01*
X203835000Y-71120000D02*
X215265000Y-71120000D01*
X158750000Y-102870000D02*
X160020000Y-104140000D01*
X160020000Y-104140000D02*
X167640000Y-104140000D01*
X167640000Y-104140000D02*
X200660000Y-71120000D01*
X200660000Y-71120000D02*
X203835000Y-71120000D01*
X158750000Y-102870000D02*
X158750000Y-103276600D01*
X163830000Y-114300000D02*
X148192277Y-114300000D01*
X148192277Y-114300000D02*
X146050000Y-112157723D01*
X146050000Y-112157723D02*
X146050000Y-107950000D01*
X143510000Y-107950000D02*
X143510000Y-112683350D01*
X143510000Y-112683350D02*
X147666650Y-116840000D01*
X147666650Y-116840000D02*
X163830000Y-116840000D01*
D34*
X110490000Y-68620000D02*
X110490000Y-59690000D01*
D33*
X110490000Y-59690000D02*
X110490000Y-64135000D01*
X85170000Y-124460000D02*
X88314493Y-121315507D01*
X88314493Y-121315507D02*
X94569655Y-121315507D01*
X106426000Y-109459162D02*
X106426000Y-107950000D01*
X94569655Y-121315507D02*
X106426000Y-109459162D01*
X82670000Y-124460000D02*
X87166293Y-119963707D01*
X93309530Y-119963707D02*
X103908408Y-109364829D01*
X87166293Y-119963707D02*
X93309530Y-119963707D01*
X103908408Y-109364829D02*
X103908408Y-107972408D01*
X103908408Y-107972408D02*
X103886000Y-107950000D01*
X80170000Y-124460000D02*
X85942994Y-118687006D01*
X101296483Y-109521544D02*
X101296483Y-107999517D01*
X85942994Y-118687006D02*
X92131021Y-118687006D01*
X92131021Y-118687006D02*
X101296483Y-109521544D01*
X101296483Y-107999517D02*
X101346000Y-107950000D01*
X72670000Y-124460000D02*
X72670000Y-123222564D01*
X72670000Y-123222564D02*
X80910492Y-114982072D01*
X80910492Y-114982072D02*
X88052417Y-114982072D01*
X88052417Y-114982072D02*
X93726000Y-109308489D01*
X93726000Y-109308489D02*
X93726000Y-107950000D01*
X75170000Y-124460000D02*
X75170000Y-124220000D01*
X83131228Y-116258772D02*
X89439881Y-116258772D01*
X75170000Y-124220000D02*
X83131228Y-116258772D01*
X89439881Y-116258772D02*
X96266000Y-109432653D01*
X96266000Y-109432653D02*
X96266000Y-107950000D01*
X77670000Y-124460000D02*
X84643355Y-117486645D01*
X84643355Y-117486645D02*
X90614980Y-117486645D01*
X90614980Y-117486645D02*
X98806000Y-109295625D01*
X98806000Y-109295625D02*
X98806000Y-107950000D01*
X158750000Y-69850000D02*
X140970000Y-69850000D01*
X140970000Y-69850000D02*
X134859092Y-63739092D01*
X134859092Y-63739092D02*
X134859092Y-55484092D01*
X134859092Y-55484092D02*
X133985000Y-54610000D01*
X133985000Y-54610000D02*
X127135000Y-54610000D01*
X127135000Y-54610000D02*
X123230000Y-50705000D01*
X123230000Y-50705000D02*
X123230000Y-49530000D01*
X161290000Y-69850000D02*
X159950001Y-68510001D01*
X134390202Y-53340000D02*
X127635000Y-53340000D01*
X159950001Y-68510001D02*
X140900001Y-68510001D01*
X140900001Y-68510001D02*
X135552089Y-63162089D01*
X135552089Y-63162089D02*
X135552089Y-54501887D01*
X135552089Y-54501887D02*
X134390202Y-53340000D01*
X127635000Y-53340000D02*
X125730000Y-51435000D01*
X125730000Y-51435000D02*
X125730000Y-49530000D01*
X158750000Y-67310000D02*
X141637882Y-67310000D01*
X141637882Y-67310000D02*
X136317736Y-61989854D01*
X136317736Y-61989854D02*
X136317736Y-53686721D01*
X136317736Y-53686721D02*
X134701015Y-52070000D01*
X134701015Y-52070000D02*
X128905000Y-52070000D01*
X128905000Y-52070000D02*
X128230000Y-51395000D01*
X128230000Y-51395000D02*
X128230000Y-49530000D01*
X161290000Y-67310000D02*
X159950001Y-65970001D01*
X159950001Y-65970001D02*
X141535001Y-65970001D01*
X141535001Y-65970001D02*
X137160000Y-61595000D01*
X137160000Y-61595000D02*
X137160000Y-52621621D01*
X137160000Y-52621621D02*
X135338379Y-50800000D01*
X135338379Y-50800000D02*
X132000000Y-50800000D01*
X132000000Y-50800000D02*
X130730000Y-49530000D01*
X202735000Y-120396000D02*
X202735000Y-123776775D01*
X202735000Y-123776775D02*
X203418225Y-124460000D01*
X203418225Y-124460000D02*
X204470000Y-124460000D01*
X202735000Y-120015000D02*
X202735000Y-120396000D01*
X203073000Y-120055000D02*
X203073000Y-120058000D01*
X203073000Y-120058000D02*
X202735000Y-120396000D01*
X202735000Y-119634000D02*
X202735000Y-120015000D01*
X202735000Y-119380000D02*
X202735000Y-119634000D01*
X202735000Y-119717000D02*
X203073000Y-120055000D01*
X202735000Y-120055000D02*
X203073000Y-120055000D01*
X203073000Y-120055000D02*
X206745000Y-120055000D01*
X202735000Y-119634000D02*
X202735000Y-119717000D01*
X202735000Y-118745000D02*
X202735000Y-120055000D01*
X206745000Y-120055000D02*
X207420000Y-119380000D01*
X207420000Y-119380000D02*
X207645000Y-119380000D01*
X202735000Y-120015000D02*
X202735000Y-119845000D01*
X202735000Y-118745000D02*
X202735000Y-119380000D01*
X202735000Y-116840000D02*
X202735000Y-118745000D01*
X202735000Y-116840000D02*
X196850000Y-116840000D01*
X96520000Y-92080000D02*
X94620000Y-92080000D01*
X94262479Y-95835126D02*
X94974602Y-96547249D01*
X94620000Y-92080000D02*
X94262479Y-92437521D01*
X94262479Y-92437521D02*
X94262479Y-95835126D01*
X94974602Y-96547249D02*
X101661673Y-96547249D01*
X101661673Y-96547249D02*
X111760000Y-106645576D01*
X111760000Y-111714904D02*
X103110000Y-120364904D01*
X111760000Y-106645576D02*
X111760000Y-111714904D01*
X103110000Y-120364904D02*
X103110000Y-124460000D01*
X96520000Y-92080000D02*
X96520000Y-88560000D01*
X108110000Y-124460000D02*
X108110000Y-117617974D01*
X108110000Y-117617974D02*
X114369999Y-111357975D01*
X114369999Y-111357975D02*
X114369999Y-104880301D01*
X114369999Y-104880301D02*
X105220203Y-95730505D01*
X105220203Y-95730505D02*
X104820204Y-95330506D01*
X104145000Y-92080000D02*
X104775000Y-92710000D01*
X102870000Y-92080000D02*
X104145000Y-92080000D01*
X102870000Y-92080000D02*
X102870000Y-88560000D01*
X113110000Y-124460000D02*
X113110000Y-114871044D01*
X113110000Y-114871044D02*
X116840000Y-111141044D01*
X116840000Y-111141044D02*
X116840000Y-103473981D01*
X116840000Y-103473981D02*
X110605094Y-97239075D01*
X110605094Y-97239075D02*
X110605094Y-95406890D01*
X110605094Y-95406890D02*
X110598896Y-95400692D01*
X109850000Y-92080000D02*
X110480000Y-92710000D01*
X108585000Y-92080000D02*
X109850000Y-92080000D01*
X108585000Y-92080000D02*
X108585000Y-88560000D01*
X113665000Y-92075000D02*
X118110000Y-92075000D01*
X118110000Y-92075000D02*
X119449999Y-93414999D01*
X119449999Y-93414999D02*
X119449999Y-111420851D01*
X119449999Y-111420851D02*
X118110000Y-112760850D01*
X118110000Y-112760850D02*
X118110000Y-124460000D01*
X113665000Y-92075000D02*
X113665000Y-88730000D01*
X113665000Y-91760000D02*
X113665000Y-91985000D01*
D34*
X174280411Y-127000000D02*
X176530000Y-127000000D01*
X176530000Y-127000000D02*
X199390000Y-127000000D01*
X201930000Y-101600000D02*
X210202408Y-101600000D01*
X210630000Y-103950000D02*
X210630000Y-102870000D01*
X212090000Y-105410000D02*
X210630000Y-103950000D01*
X212090000Y-107365000D02*
X212090000Y-105410000D01*
X204935000Y-113030000D02*
X205085000Y-113030000D01*
X199390000Y-127000000D02*
X201295000Y-125095000D01*
X201295000Y-125095000D02*
X201295000Y-118745000D01*
X196860000Y-102830000D02*
X196850000Y-102840000D01*
X204935000Y-116840000D02*
X204935000Y-118477710D01*
X204935000Y-118477710D02*
X204922544Y-118490166D01*
X201509789Y-102830000D02*
X196860000Y-102830000D01*
X201930000Y-102409789D02*
X201509789Y-102830000D01*
X201930000Y-101600000D02*
X201930000Y-102409789D01*
X210619223Y-102016815D02*
X210619223Y-102727802D01*
X210202408Y-101600000D02*
X210619223Y-102016815D01*
X173083174Y-125802763D02*
X174280411Y-127000000D01*
X173083174Y-109816208D02*
X173083174Y-125802763D01*
X173679382Y-109220000D02*
X173083174Y-109816208D01*
X204935000Y-116840000D02*
X204935000Y-116090000D01*
X174330000Y-109220000D02*
X173679382Y-109220000D01*
X212090000Y-109220000D02*
X212090000Y-107365000D01*
X210820000Y-110490000D02*
X212090000Y-109220000D01*
X206297082Y-110490000D02*
X210820000Y-110490000D01*
X174330000Y-106680000D02*
X174330000Y-109220000D01*
X205085000Y-111702082D02*
X206297082Y-110490000D01*
X204935000Y-116090000D02*
X204935000Y-113030000D01*
X205085000Y-113030000D02*
X205085000Y-111702082D01*
D33*
X131690000Y-98745000D02*
X131690000Y-120444962D01*
X131690000Y-120444962D02*
X133367121Y-122122083D01*
X133367121Y-122122083D02*
X133367121Y-124437121D01*
X133367121Y-124437121D02*
X133390000Y-124460000D01*
X207120000Y-64770000D02*
X208050000Y-65700000D01*
X208050000Y-65700000D02*
X211328000Y-65700000D01*
X203835000Y-64770000D02*
X207120000Y-64770000D01*
X202735000Y-113030000D02*
X197040000Y-113030000D01*
X197040000Y-113030000D02*
X196850000Y-112840000D01*
X176530000Y-103505000D02*
X178422847Y-103505000D01*
X178422847Y-103505000D02*
X179692847Y-104775000D01*
X179692847Y-104775000D02*
X182785000Y-104775000D01*
X182785000Y-104775000D02*
X182850000Y-104840000D01*
X181040000Y-104840000D02*
X182850000Y-104840000D01*
X232252997Y-64770000D02*
X235173997Y-64770000D01*
X236119152Y-65715155D02*
X236927441Y-65715155D01*
X235173997Y-64770000D02*
X236119152Y-65715155D01*
X229365000Y-64770000D02*
X232252997Y-64770000D01*
X176530000Y-106680000D02*
X176672482Y-106822482D01*
X176672482Y-106822482D02*
X182832482Y-106822482D01*
X182832482Y-106822482D02*
X182850000Y-106840000D01*
X176530000Y-109220000D02*
X176857680Y-108892320D01*
X176857680Y-108892320D02*
X182797680Y-108892320D01*
X182797680Y-108892320D02*
X182850000Y-108840000D01*
X203835000Y-55388887D02*
X203775275Y-55329162D01*
X203835000Y-57150000D02*
X203835000Y-55388887D01*
X219710000Y-55245000D02*
X219710000Y-56895000D01*
X219710000Y-56895000D02*
X219965000Y-57150000D01*
X182850000Y-114840000D02*
X180880000Y-114840000D01*
X173990000Y-113665000D02*
X173990000Y-116205000D01*
X180880000Y-114840000D02*
X178435000Y-112395000D01*
X174625000Y-116840000D02*
X176530000Y-116840000D01*
X178435000Y-112395000D02*
X175260000Y-112395000D01*
X175260000Y-112395000D02*
X173990000Y-113665000D01*
X173990000Y-116205000D02*
X174625000Y-116840000D01*
X177800000Y-114300000D02*
X180340000Y-116840000D01*
X180340000Y-116840000D02*
X182850000Y-116840000D01*
X176530000Y-114300000D02*
X177800000Y-114300000D01*
D35*
X163830000Y-127000000D02*
X163830000Y-128678348D01*
X163830000Y-128678348D02*
X165503205Y-130351553D01*
X165503205Y-130351553D02*
X210564042Y-130351553D01*
X210564042Y-130351553D02*
X220472000Y-120443595D01*
X69175000Y-117475000D02*
X69175000Y-112073281D01*
X69175000Y-112073281D02*
X88427206Y-92821075D01*
X88427206Y-92821075D02*
X88427206Y-83880605D01*
X88427206Y-83880605D02*
X91440000Y-80867811D01*
X222068617Y-99058617D02*
X208129456Y-99058617D01*
X225880000Y-102870000D02*
X222068617Y-99058617D01*
X227330000Y-102870000D02*
X225880000Y-102870000D01*
X208129456Y-99058617D02*
X207422350Y-99058617D01*
X241932923Y-81478540D02*
X241932923Y-82978412D01*
X241504511Y-82550000D02*
X240665000Y-82550000D01*
X241932923Y-82978412D02*
X241504511Y-82550000D01*
X241940721Y-69198866D02*
X241940721Y-69905972D01*
X241940721Y-64843721D02*
X241940721Y-69198866D01*
X240597000Y-63500000D02*
X241940721Y-64843721D01*
X239522000Y-63500000D02*
X240597000Y-63500000D01*
X241940721Y-81589279D02*
X241940721Y-70613078D01*
X240980000Y-82550000D02*
X241940721Y-81589279D01*
X241940721Y-70613078D02*
X241940721Y-69905972D01*
X241823318Y-102125986D02*
X241814829Y-102117497D01*
X241814829Y-83143330D02*
X241221499Y-82550000D01*
X241814829Y-102117497D02*
X241814829Y-83143330D01*
X241221499Y-82550000D02*
X240980000Y-82550000D01*
X241781735Y-82323945D02*
X241818649Y-82360859D01*
X241818649Y-82360859D02*
X241818649Y-83010552D01*
X69175000Y-117475000D02*
X69215000Y-117515000D01*
X69215000Y-125508379D02*
X72611621Y-128905000D01*
X69215000Y-117515000D02*
X69215000Y-125508379D01*
X72611621Y-128905000D02*
X134128993Y-128905000D01*
X134128993Y-128905000D02*
X135890000Y-127143993D01*
X135890000Y-127143993D02*
X135890000Y-124460000D01*
X206913567Y-106683573D02*
X206413568Y-106183574D01*
X209790000Y-107365000D02*
X207594994Y-107365000D01*
X207594994Y-107365000D02*
X206913567Y-106683573D01*
X240980000Y-82550000D02*
X240665000Y-82550000D01*
X241040000Y-102870000D02*
X241095498Y-102870000D01*
X241095498Y-102870000D02*
X241813557Y-102151941D01*
D34*
X241607858Y-102866514D02*
X241782337Y-102692035D01*
X241782337Y-102692035D02*
X241791166Y-102692035D01*
X241791166Y-102692035D02*
X241801626Y-102681575D01*
D35*
X241814749Y-103520000D02*
X241814749Y-102282583D01*
X241814749Y-104568350D02*
X241814749Y-103520000D01*
X241814749Y-103520000D02*
X241814749Y-103108515D01*
X241040000Y-102870000D02*
X241164749Y-102870000D01*
X241164749Y-102870000D02*
X241814749Y-103520000D01*
X241040000Y-102870000D02*
X241576234Y-102870000D01*
X237490000Y-102870000D02*
X241040000Y-102870000D01*
X241801605Y-104581494D02*
X241814749Y-104568350D01*
X241814749Y-103108515D02*
X241576234Y-102870000D01*
X214503000Y-63500000D02*
X214503000Y-62329496D01*
X214503000Y-62329496D02*
X214086736Y-61913232D01*
X214086736Y-61913232D02*
X211822443Y-61913232D01*
X211822443Y-61913232D02*
X211348928Y-62386747D01*
X211348928Y-62386747D02*
X211328000Y-62386747D01*
X211328000Y-62386747D02*
X211328000Y-63500000D01*
X212979000Y-63981000D02*
X213460000Y-63500000D01*
X213460000Y-63500000D02*
X214503000Y-63500000D01*
X212979000Y-68453000D02*
X212979000Y-63981000D01*
X229365000Y-63500000D02*
X235204000Y-63500000D01*
X235204000Y-63500000D02*
X236982000Y-63500000D01*
X203835000Y-63500000D02*
X209426560Y-63500000D01*
X108585000Y-80985000D02*
X109855000Y-80985000D01*
X110490000Y-80264000D02*
X110490000Y-80350000D01*
X109855000Y-80985000D02*
X110490000Y-80985000D01*
X110490000Y-80350000D02*
X109855000Y-80985000D01*
X111252000Y-80985000D02*
X113495000Y-80985000D01*
X110490000Y-80985000D02*
X111252000Y-80985000D01*
X110490000Y-73620000D02*
X110490000Y-80264000D01*
X110490000Y-80264000D02*
X110490000Y-80985000D01*
X111252000Y-80985000D02*
X111211000Y-80985000D01*
X111211000Y-80985000D02*
X110490000Y-80264000D01*
X227330000Y-102870000D02*
X236240000Y-102870000D01*
X236240000Y-102870000D02*
X237490000Y-102870000D01*
X222475090Y-118440505D02*
X240075050Y-118440505D01*
X240075050Y-118440505D02*
X241801605Y-116713950D01*
X241801605Y-116713950D02*
X241801605Y-104581494D01*
X239522000Y-63500000D02*
X236982000Y-63500000D01*
X212979000Y-68453000D02*
X214376000Y-69850000D01*
X214376000Y-69850000D02*
X216408000Y-69850000D01*
X240665000Y-82550000D02*
X237490000Y-82550000D01*
X113495000Y-80985000D02*
X113665000Y-80815000D01*
X102870000Y-80985000D02*
X103820000Y-80985000D01*
X103820000Y-80985000D02*
X108585000Y-80985000D01*
X96520000Y-80985000D02*
X97470000Y-80985000D01*
X97470000Y-80985000D02*
X102870000Y-80985000D01*
X92710000Y-80985000D02*
X96520000Y-80985000D01*
X241801605Y-104581494D02*
X241812327Y-104570772D01*
X241576234Y-102870000D02*
X241643602Y-102937368D01*
X220579000Y-120336595D02*
X220472000Y-120443595D01*
X220472000Y-120443595D02*
X221662595Y-119253000D01*
X209426560Y-63500000D02*
X211328000Y-63500000D01*
X221662595Y-119253000D02*
X222170595Y-118745000D01*
X222170595Y-118745000D02*
X222475090Y-118440505D01*
X92710000Y-80985000D02*
X92710000Y-80010000D01*
X92710000Y-80010000D02*
X92710000Y-79597811D01*
X92075000Y-80645000D02*
X92710000Y-80010000D01*
X92487189Y-80645000D02*
X92075000Y-80232811D01*
X92710000Y-80867811D02*
X92487189Y-80645000D01*
X92487189Y-80645000D02*
X92075000Y-80645000D01*
X91440000Y-80867811D02*
X92075000Y-80232811D01*
X92075000Y-80232811D02*
X92710000Y-79597811D01*
X92710000Y-80985000D02*
X92710000Y-80867811D01*
X92710000Y-80985000D02*
X91557189Y-80985000D01*
X92710000Y-79597811D02*
X102870000Y-69437811D01*
X91557189Y-80985000D02*
X91440000Y-80867811D01*
X102870000Y-67266173D02*
X102870000Y-69135000D01*
X102870000Y-69437811D02*
X102870000Y-67266173D01*
X69175000Y-117475000D02*
X69175000Y-116075000D01*
X102870000Y-59690000D02*
X102870000Y-67266173D01*
D34*
X160030000Y-123850000D02*
X160030000Y-125850000D01*
X160020000Y-118745000D02*
X160020000Y-121340000D01*
X160020000Y-121340000D02*
X160030000Y-121350000D01*
D35*
X163830000Y-124460000D02*
X162089287Y-124460000D01*
X162089287Y-124460000D02*
X161925000Y-124624287D01*
X161925000Y-124624287D02*
X161925000Y-130357071D01*
X161925000Y-130357071D02*
X163292448Y-131724519D01*
X163292448Y-131724519D02*
X232953105Y-131724519D01*
X232953105Y-131724519D02*
X235328575Y-129349049D01*
X235328575Y-129349049D02*
X235728574Y-128949050D01*
X210420001Y-97390001D02*
X210820000Y-97790000D01*
X201930000Y-97560000D02*
X202099999Y-97390001D01*
X202099999Y-97390001D02*
X210420001Y-97390001D01*
X100610000Y-124460000D02*
X100513263Y-124556737D01*
X100513263Y-124556737D02*
X100513263Y-126524212D01*
X100513263Y-126524212D02*
X100989051Y-127000000D01*
X100989051Y-127000000D02*
X104648000Y-127000000D01*
X58481740Y-130810000D02*
X58438974Y-130852766D01*
X60325000Y-130810000D02*
X58481740Y-130810000D01*
X248158558Y-121158830D02*
X248158558Y-116118100D01*
X243405201Y-124193757D02*
X243805200Y-123793758D01*
X240832275Y-126766683D02*
X243405201Y-124193757D01*
X240832275Y-128835889D02*
X240832275Y-126766683D01*
D34*
X130890000Y-125904000D02*
X130302000Y-126492000D01*
D35*
X130890000Y-125730000D02*
X130890000Y-126890000D01*
X130890000Y-124460000D02*
X130890000Y-125730000D01*
D34*
X130890000Y-125730000D02*
X130890000Y-125904000D01*
X105584759Y-125904759D02*
X105572967Y-125904759D01*
X105572967Y-125904759D02*
X104648000Y-126829726D01*
X104648000Y-126829726D02*
X104648000Y-127000000D01*
X115824000Y-125984000D02*
X115433990Y-125984000D01*
X115433990Y-125984000D02*
X114554000Y-126863990D01*
X114554000Y-126863990D02*
X114554000Y-127000000D01*
D35*
X111125000Y-127000000D02*
X114554000Y-127000000D01*
X114554000Y-127000000D02*
X115202908Y-127000000D01*
D34*
X115824000Y-125984000D02*
X116332000Y-126492000D01*
D35*
X115610000Y-125984000D02*
X115610000Y-126522324D01*
X115610000Y-124460000D02*
X115610000Y-125984000D01*
D34*
X115610000Y-125984000D02*
X115824000Y-125984000D01*
X110610000Y-125850000D02*
X111252000Y-126492000D01*
X110610000Y-125730000D02*
X110610000Y-125850000D01*
X110610000Y-125864000D02*
X109982000Y-126492000D01*
D35*
X110610000Y-125730000D02*
X110610000Y-126245000D01*
X110610000Y-124460000D02*
X110610000Y-125730000D01*
D34*
X110610000Y-125730000D02*
X110610000Y-125864000D01*
D35*
X104648000Y-127000000D02*
X104984229Y-127000000D01*
X106026115Y-127000000D02*
X106172000Y-127000000D01*
X106172000Y-127000000D02*
X110120148Y-127000000D01*
D34*
X105584759Y-125904759D02*
X106172000Y-126492000D01*
X106172000Y-126492000D02*
X106172000Y-127000000D01*
D35*
X105584759Y-125730000D02*
X105584759Y-124485241D01*
X105584759Y-126399470D02*
X105584759Y-125730000D01*
D34*
X105584759Y-125730000D02*
X105584759Y-125904759D01*
X244094000Y-74168000D02*
X244094000Y-76200000D01*
X244094000Y-69850000D02*
X244094000Y-72136000D01*
X244094000Y-63754000D02*
X244094000Y-66294000D01*
X242824000Y-58674000D02*
X242824000Y-59944000D01*
X242824000Y-59944000D02*
X244094000Y-61214000D01*
X235458000Y-76200000D02*
X239522000Y-76200000D01*
X226822000Y-76200000D02*
X231140000Y-76200000D01*
X242824000Y-51054000D02*
X242824000Y-48006000D01*
X242824000Y-58674000D02*
X242824000Y-54864000D01*
X238760000Y-68580000D02*
X237236000Y-70104000D01*
X194435000Y-67310000D02*
X196597854Y-67310000D01*
D35*
X196597854Y-67310000D02*
X196838500Y-67069354D01*
X219965000Y-67310000D02*
X214853437Y-67310000D01*
X214503000Y-65400000D02*
X214503000Y-66959563D01*
D34*
X214726437Y-67183000D02*
X214722981Y-67179544D01*
D35*
X214853437Y-67310000D02*
X214722981Y-67179544D01*
X214503000Y-66959563D02*
X214722981Y-67179544D01*
D34*
X216662000Y-67183000D02*
X214726437Y-67183000D01*
D36*
X239522000Y-67056000D02*
X239522000Y-65797301D01*
X239522000Y-65797301D02*
X239531342Y-65787959D01*
D35*
X212090000Y-124460000D02*
X212090000Y-126694777D01*
X212090000Y-126694777D02*
X209982567Y-128802210D01*
X209982567Y-128802210D02*
X171862017Y-128802210D01*
X171862017Y-128802210D02*
X168469807Y-125410000D01*
X222030000Y-87554855D02*
X221966310Y-87618545D01*
X222030000Y-83850000D02*
X222030000Y-87554855D01*
X222030000Y-80100000D02*
X222030000Y-76350000D01*
X168667492Y-123237336D02*
X168667492Y-109882716D01*
X168667492Y-109882716D02*
X174330000Y-104220208D01*
X174330000Y-104220208D02*
X174330000Y-103505000D01*
X224830000Y-85050000D02*
X224030000Y-85850000D01*
X225030000Y-85050000D02*
X221939480Y-85050000D01*
X225533001Y-85050000D02*
X225030000Y-85050000D01*
X225030000Y-85050000D02*
X224830000Y-85050000D01*
X225533001Y-85050000D02*
X224827703Y-85050000D01*
X224827703Y-85050000D02*
X224340988Y-84563285D01*
X224340988Y-84563285D02*
X224340988Y-72597910D01*
X224340988Y-72597910D02*
X224968898Y-71970000D01*
X104984229Y-127000000D02*
X105584759Y-126399470D01*
X105584759Y-124485241D02*
X105610000Y-124460000D01*
X100610000Y-124460000D02*
X99455019Y-125614981D01*
X99455019Y-125614981D02*
X99455019Y-125653138D01*
X99455019Y-125653138D02*
X99136862Y-125653138D01*
X99136862Y-125653138D02*
X99060000Y-125730000D01*
X99060000Y-125730000D02*
X97790000Y-124460000D01*
X115966113Y-126927436D02*
X120700000Y-126927436D01*
X123470000Y-126927436D02*
X120700000Y-126927436D01*
X126650000Y-126927436D02*
X123470000Y-126927436D01*
X129380000Y-126927436D02*
X126650000Y-126927436D01*
X130890000Y-126890000D02*
X130852564Y-126927436D01*
X130852564Y-126927436D02*
X129380000Y-126927436D01*
X130890000Y-124460000D02*
X130616873Y-124186873D01*
X128270000Y-102191757D02*
X128144229Y-102317528D01*
X128270000Y-99695000D02*
X128270000Y-102191757D01*
X130890000Y-124460000D02*
X130596492Y-124166492D01*
X134010000Y-117060000D02*
X134010000Y-120520000D01*
X134010000Y-120520000D02*
X134090000Y-120600000D01*
X133970000Y-110810000D02*
X133970000Y-113960000D01*
X141130000Y-110700000D02*
X137900000Y-110700000D01*
X137900000Y-110700000D02*
X137830000Y-110770000D01*
X146636736Y-118315550D02*
X146071051Y-118315550D01*
X148795550Y-118315550D02*
X146636736Y-118315550D01*
X149225000Y-118745000D02*
X148795550Y-118315550D01*
X141340000Y-112980000D02*
X141340000Y-110910000D01*
X141340000Y-110910000D02*
X141130000Y-110700000D01*
X143900000Y-116240000D02*
X143760000Y-116240000D01*
X143760000Y-116240000D02*
X142220000Y-114700000D01*
X168190000Y-123714828D02*
X168190000Y-124280000D01*
X168190000Y-124280000D02*
X168010000Y-124460000D01*
X167444828Y-124460000D02*
X168010000Y-124460000D01*
X168010000Y-124460000D02*
X168219614Y-124460000D01*
X168667492Y-125212315D02*
X168667492Y-125117492D01*
X168667492Y-125117492D02*
X168010000Y-124460000D01*
X168219614Y-124460000D02*
X168370000Y-124309614D01*
X167444828Y-124460000D02*
X168190000Y-123714828D01*
X168190000Y-123714828D02*
X168667492Y-123237336D01*
X168370000Y-124309614D02*
X168370000Y-123894828D01*
X168370000Y-123894828D02*
X168190000Y-123714828D01*
X168159807Y-124519807D02*
X168370000Y-124309614D01*
X168159807Y-125100000D02*
X167552861Y-124493054D01*
X168469807Y-125410000D02*
X168159807Y-125100000D01*
X168159807Y-125100000D02*
X168159807Y-124519807D01*
X168667492Y-123237336D02*
X168667492Y-125212315D01*
X168667492Y-125212315D02*
X168469807Y-125410000D01*
X224910000Y-71970000D02*
X224370000Y-72510000D01*
X224968898Y-71970000D02*
X224968898Y-70652823D01*
X224968898Y-71970000D02*
X224910000Y-71970000D01*
X214630000Y-121240322D02*
X214644114Y-121254436D01*
X214630000Y-118902185D02*
X214630000Y-121240322D01*
X215903870Y-117628315D02*
X214630000Y-118902185D01*
X214630000Y-118902185D02*
X214152185Y-119380000D01*
X212090000Y-116840000D02*
X214630000Y-116840000D01*
X212090000Y-124460000D02*
X212090000Y-116840000D01*
X220980000Y-111760000D02*
X220980000Y-114300000D01*
X220980000Y-106680000D02*
X220980000Y-109220000D01*
X220622409Y-102870000D02*
X220622409Y-103782409D01*
X220622409Y-103782409D02*
X220980000Y-104140000D01*
X214630000Y-102870000D02*
X220622409Y-102870000D01*
X220622409Y-102870000D02*
X223122409Y-105370000D01*
X223122409Y-105370000D02*
X227330000Y-105370000D01*
X167552861Y-124493054D02*
X165701946Y-124493054D01*
X165701946Y-124493054D02*
X165735000Y-124460000D01*
X212090000Y-124460000D02*
X212090000Y-120189580D01*
X212090000Y-120189580D02*
X211280420Y-119380000D01*
X211280420Y-119380000D02*
X209545000Y-119380000D01*
X224968898Y-70652823D02*
X224968898Y-70087138D01*
X210740000Y-75640000D02*
X214760000Y-75640000D01*
X214760000Y-75640000D02*
X214870000Y-75530000D01*
X203930000Y-75730000D02*
X206940000Y-75730000D01*
X206940000Y-75730000D02*
X206960000Y-75710000D01*
X199090000Y-80690000D02*
X199090000Y-80540000D01*
X199090000Y-80540000D02*
X201420000Y-78210000D01*
X193160000Y-86280000D02*
X193200000Y-86280000D01*
X193200000Y-86280000D02*
X196150000Y-83330000D01*
X188030000Y-91070000D02*
X188280000Y-91070000D01*
X188280000Y-91070000D02*
X190720000Y-88630000D01*
X182850000Y-102840000D02*
X182850000Y-96150000D01*
X182850000Y-96150000D02*
X185320000Y-93680000D01*
X130890000Y-124460000D02*
X130596408Y-124166408D01*
X201930000Y-97560000D02*
X202190000Y-97820000D01*
X201930000Y-99700000D02*
X201930000Y-97560000D01*
X115610293Y-126508820D02*
X115610293Y-126571616D01*
X115610293Y-126571616D02*
X115966113Y-126927436D01*
X221939480Y-85050000D02*
X220962833Y-86026647D01*
X220962833Y-86026647D02*
X220962833Y-92079673D01*
X220962833Y-92079673D02*
X217733735Y-95308771D01*
X217733735Y-95308771D02*
X202905009Y-95308771D01*
X202905009Y-95308771D02*
X202903691Y-95310089D01*
X202903691Y-95310089D02*
X202490645Y-95310089D01*
X202490645Y-95310089D02*
X201930000Y-95870734D01*
X201930000Y-95870734D02*
X201930000Y-99700000D01*
X202903691Y-95310089D02*
X184560549Y-95310089D01*
X184560549Y-95310089D02*
X182814283Y-97056355D01*
X182814283Y-97056355D02*
X182814283Y-100294283D01*
X182814283Y-100294283D02*
X182850000Y-100330000D01*
X227330000Y-85050000D02*
X225533001Y-85050000D01*
X105601462Y-126422418D02*
X105601462Y-126575347D01*
X105601462Y-126575347D02*
X106026115Y-127000000D01*
X110120148Y-127000000D02*
X110610000Y-126510148D01*
X110610000Y-126510148D02*
X110610000Y-126245000D01*
X110610000Y-126245000D02*
X110610000Y-126485000D01*
X110610000Y-126485000D02*
X111125000Y-127000000D01*
X115202908Y-127000000D02*
X115610000Y-126592908D01*
X115610000Y-126592908D02*
X115610000Y-126467287D01*
X115610000Y-126522324D02*
X115613793Y-126526117D01*
X156210000Y-118745000D02*
X156210000Y-121285000D01*
X147320000Y-118745000D02*
X149225000Y-118745000D01*
X156210000Y-118745000D02*
X149225000Y-118745000D01*
X227330000Y-105370000D02*
X236429340Y-105370000D01*
X236429340Y-105370000D02*
X237490000Y-105370000D01*
X182112500Y-100965000D02*
X182268702Y-100965000D01*
X182268702Y-100965000D02*
X182850000Y-101546298D01*
X182850000Y-101546298D02*
X182850000Y-102840000D01*
X61239519Y-54153178D02*
X60839520Y-54553177D01*
X62256613Y-47578311D02*
X62256613Y-53136084D01*
X62256613Y-53136084D02*
X61239519Y-54153178D01*
X53925003Y-59859251D02*
X53925003Y-56085202D01*
X53925003Y-56085202D02*
X53853361Y-56013560D01*
X65093753Y-47879466D02*
X65493752Y-47479467D01*
X54610000Y-114420000D02*
X54610000Y-58363219D01*
X65893751Y-47079468D02*
X65493752Y-47479467D01*
X184785000Y-46355000D02*
X66618219Y-46355000D01*
X185184999Y-46754999D02*
X184785000Y-46355000D01*
X185184999Y-51670001D02*
X185184999Y-46754999D01*
X54610000Y-58363219D02*
X65093753Y-47879466D01*
X66618219Y-46355000D02*
X65893751Y-47079468D01*
X184785000Y-52070000D02*
X185184999Y-51670001D01*
X237490000Y-85050000D02*
X227330000Y-85050000D01*
X196417719Y-60960000D02*
X196463438Y-61005719D01*
X194435000Y-60960000D02*
X196417719Y-60960000D01*
X221918588Y-60960000D02*
X221930206Y-60948382D01*
X219965000Y-60960000D02*
X221918588Y-60960000D01*
X177165000Y-89535000D02*
X175260000Y-91440000D01*
X182245000Y-84455000D02*
X179070000Y-87630000D01*
X184785000Y-78105000D02*
X184785000Y-81915000D01*
X184785000Y-69850000D02*
X184785000Y-74295000D01*
X184785000Y-62865000D02*
X184785000Y-66675000D01*
X184785000Y-55880000D02*
X184785000Y-59690000D01*
X184785000Y-52070000D02*
X184785000Y-55880000D01*
X158115000Y-118745000D02*
X160020000Y-118745000D01*
X146170000Y-119895000D02*
X147320000Y-118745000D01*
X146170000Y-124460000D02*
X146170000Y-119895000D01*
X215903870Y-117020367D02*
X215903870Y-117348000D01*
X215903870Y-117348000D02*
X215903870Y-117628315D01*
X215900000Y-110375000D02*
X215900000Y-116332000D01*
X215900000Y-116332000D02*
X215900000Y-117016497D01*
X214390000Y-107365000D02*
X214390000Y-108865000D01*
X214390000Y-108865000D02*
X215900000Y-110375000D01*
X215900000Y-117016497D02*
X215903870Y-117020367D01*
X214152185Y-119380000D02*
X209545000Y-119380000D01*
X214390000Y-105650000D02*
X214630000Y-105410000D01*
X214630000Y-105410000D02*
X214630000Y-102870000D01*
X214390000Y-107365000D02*
X214390000Y-105650000D01*
X163830000Y-124460000D02*
X165735000Y-124460000D01*
X165735000Y-124460000D02*
X167444828Y-124460000D01*
X182850000Y-100330000D02*
X182850000Y-102840000D01*
X182215000Y-100965000D02*
X182850000Y-100330000D01*
X182112500Y-100965000D02*
X182215000Y-100965000D01*
X174330000Y-103505000D02*
X174330000Y-102530000D01*
X174330000Y-102530000D02*
X175895000Y-100965000D01*
X175895000Y-100965000D02*
X182112500Y-100965000D01*
D34*
X113665000Y-93975000D02*
X108590000Y-93975000D01*
X108590000Y-93975000D02*
X108585000Y-93980000D01*
X102870000Y-93980000D02*
X108585000Y-93980000D01*
D33*
X107910000Y-93980000D02*
X103505000Y-93980000D01*
D34*
X96520000Y-93980000D02*
X101303813Y-93980000D01*
D33*
X103505000Y-93980000D02*
X102870000Y-93980000D01*
D34*
X101303813Y-93980000D02*
X103505000Y-93980000D01*
D35*
X98425000Y-93980000D02*
X98425000Y-95250000D01*
D33*
X102076694Y-94098306D02*
X100926271Y-94098306D01*
X102195000Y-93980000D02*
X102076694Y-94098306D01*
X102870000Y-93980000D02*
X102195000Y-93980000D01*
X100926271Y-94098306D02*
X100807965Y-93980000D01*
X108585000Y-93980000D02*
X107910000Y-93980000D01*
D35*
X54610000Y-114420000D02*
X54692358Y-114502358D01*
D33*
X123190000Y-99400000D02*
X123190000Y-98500000D01*
X123190000Y-98500000D02*
X123895000Y-97795000D01*
X123895000Y-97795000D02*
X126970000Y-97795000D01*
X126970000Y-97795000D02*
X128270000Y-97795000D01*
D35*
X54610000Y-121920000D02*
X57557190Y-121920000D01*
X57557190Y-121920000D02*
X57740061Y-121737129D01*
X57740061Y-121737129D02*
X57740061Y-121027388D01*
X57740061Y-121027388D02*
X61292449Y-117475000D01*
X61292449Y-117475000D02*
X63325000Y-117475000D01*
X63325000Y-117475000D02*
X64175000Y-117475000D01*
D33*
G36*
X187683000Y-48785661D02*
X187676000Y-48820852D01*
X187676000Y-53910096D01*
X187651423Y-53910075D01*
X187081527Y-54145551D01*
X186645124Y-54581192D01*
X186408654Y-55150676D01*
X186408116Y-55767304D01*
X186643592Y-56337200D01*
X186658384Y-56352018D01*
X186658384Y-63696458D01*
X186757341Y-64193947D01*
X187039145Y-64615697D01*
X189382687Y-66959239D01*
X189804438Y-67241043D01*
X190301926Y-67340000D01*
X190985000Y-67340000D01*
X190985000Y-78956522D01*
X174033402Y-95908120D01*
X170729967Y-92989347D01*
X182289239Y-81430075D01*
X182571043Y-81008324D01*
X182670001Y-80510836D01*
X182670000Y-80510831D01*
X182670000Y-51292655D01*
X182937570Y-51120478D01*
X183200150Y-50736179D01*
X183292529Y-50280000D01*
X183292529Y-48780000D01*
X183212341Y-48353836D01*
X183155793Y-48265959D01*
X183157000Y-48260000D01*
X183157000Y-47625000D01*
X183146742Y-47570481D01*
X183114521Y-47520409D01*
X183065358Y-47486818D01*
X183007000Y-47475000D01*
X95885000Y-47475000D01*
X95858470Y-47479992D01*
X70485030Y-47475000D01*
X70430481Y-47485258D01*
X70380409Y-47517479D01*
X70346818Y-47566642D01*
X70335000Y-47625000D01*
X70335000Y-51435000D01*
X70345248Y-51489491D01*
X70377458Y-51539569D01*
X70426614Y-51573171D01*
X70484970Y-51585000D01*
X71115767Y-51585124D01*
X71188957Y-51953076D01*
X71470761Y-52374826D01*
X76061609Y-56965674D01*
X76050000Y-57023000D01*
X76050000Y-58997246D01*
X75990478Y-59140591D01*
X75989523Y-60234609D01*
X76050000Y-60380974D01*
X76050000Y-62611000D01*
X76060258Y-62665519D01*
X76092479Y-62715591D01*
X76141642Y-62749182D01*
X76200000Y-62761000D01*
X86741000Y-62761000D01*
X86795519Y-62750742D01*
X86845000Y-62718901D01*
X86845000Y-84455000D01*
X86863690Y-84527509D01*
X86902245Y-84572884D01*
X86927206Y-84585465D01*
X86927206Y-92199755D01*
X68114340Y-111012621D01*
X67789181Y-111499256D01*
X67675000Y-112073281D01*
X67675000Y-115200000D01*
X55729076Y-115200000D01*
X55820755Y-115176058D01*
X56017923Y-114655171D01*
X56000748Y-114098481D01*
X55820755Y-113663942D01*
X55572350Y-113599071D01*
X54751421Y-114420000D01*
X54765564Y-114434143D01*
X54624143Y-114575564D01*
X54610000Y-114561421D01*
X54595858Y-114575564D01*
X54454437Y-114434143D01*
X54468579Y-114420000D01*
X53647650Y-113599071D01*
X53399245Y-113663942D01*
X53202077Y-114184829D01*
X53219252Y-114741519D01*
X53399245Y-115176058D01*
X53490924Y-115200000D01*
X52030000Y-115200000D01*
X51974868Y-115210499D01*
X51924938Y-115242939D01*
X51891563Y-115292249D01*
X51880001Y-115350659D01*
X51920001Y-124460659D01*
X51930258Y-124514519D01*
X51962479Y-124564591D01*
X52011642Y-124598182D01*
X52070000Y-124610000D01*
X67715000Y-124610000D01*
X67715000Y-125508379D01*
X67829181Y-126082404D01*
X68154340Y-126569039D01*
X71550960Y-129965660D01*
X71869271Y-130178348D01*
X72037596Y-130290819D01*
X72611621Y-130405000D01*
X134128993Y-130405000D01*
X134703018Y-130290819D01*
X135189653Y-129965660D01*
X136950660Y-128204653D01*
X137275819Y-127718018D01*
X137390000Y-127143993D01*
X137390000Y-125647279D01*
X137499802Y-125537669D01*
X137789669Y-124839591D01*
X137790205Y-124224829D01*
X144762077Y-124224829D01*
X144779252Y-124781519D01*
X144959245Y-125216058D01*
X145207650Y-125280929D01*
X146028579Y-124460000D01*
X145207650Y-123639071D01*
X144959245Y-123703942D01*
X144762077Y-124224829D01*
X137790205Y-124224829D01*
X137790329Y-124083725D01*
X137548168Y-123497650D01*
X145349071Y-123497650D01*
X146170000Y-124318579D01*
X146184143Y-124304437D01*
X146325564Y-124445858D01*
X146311421Y-124460000D01*
X146325564Y-124474143D01*
X146184143Y-124615564D01*
X146170000Y-124601421D01*
X145349071Y-125422350D01*
X145413942Y-125670755D01*
X145934829Y-125867923D01*
X146491519Y-125850748D01*
X146535000Y-125832737D01*
X146535000Y-126365000D01*
X146545258Y-126419519D01*
X146577479Y-126469591D01*
X146626642Y-126503182D01*
X146685000Y-126515000D01*
X155575000Y-126515000D01*
X155629519Y-126504742D01*
X155679591Y-126472521D01*
X155713182Y-126423358D01*
X155725000Y-126365000D01*
X155725000Y-122555000D01*
X155714742Y-122500481D01*
X155682521Y-122450409D01*
X155633358Y-122416818D01*
X155575000Y-122405000D01*
X146685000Y-122405000D01*
X146630481Y-122415258D01*
X146580409Y-122447479D01*
X146546818Y-122496642D01*
X146535000Y-122555000D01*
X146535000Y-123101220D01*
X146405171Y-123052077D01*
X145848481Y-123069252D01*
X145413942Y-123249245D01*
X145349071Y-123497650D01*
X137548168Y-123497650D01*
X137501681Y-123385143D01*
X136967669Y-122850198D01*
X136269591Y-122560331D01*
X135672438Y-122559810D01*
X135669742Y-122545481D01*
X135637521Y-122495409D01*
X135588358Y-122461818D01*
X135530000Y-122450000D01*
X134667121Y-122450000D01*
X134667121Y-122122083D01*
X134619252Y-121881429D01*
X134568164Y-121624594D01*
X134286360Y-121202844D01*
X132990000Y-119906484D01*
X132990000Y-110005000D01*
X142210000Y-110005000D01*
X142210000Y-112683350D01*
X142308957Y-113180839D01*
X142590761Y-113602589D01*
X146747411Y-117759239D01*
X147169162Y-118041043D01*
X147666650Y-118140000D01*
X161880000Y-118140000D01*
X161880000Y-130346200D01*
X161890258Y-130400719D01*
X161922479Y-130450791D01*
X161971642Y-130484382D01*
X162030000Y-130496200D01*
X163526532Y-130496200D01*
X164442545Y-131412213D01*
X164929180Y-131737372D01*
X165503205Y-131851553D01*
X210564042Y-131851553D01*
X211138067Y-131737372D01*
X211624702Y-131412213D01*
X214196321Y-128840594D01*
X244731925Y-128840594D01*
X245172493Y-129906851D01*
X245987564Y-130723346D01*
X247053051Y-131165774D01*
X248206742Y-131166781D01*
X249272999Y-130726213D01*
X250089494Y-129911142D01*
X250531922Y-128845655D01*
X250532929Y-127691964D01*
X250092361Y-126625707D01*
X249277290Y-125809212D01*
X248211803Y-125366784D01*
X247058112Y-125365777D01*
X245991855Y-125806345D01*
X245175360Y-126621416D01*
X244732932Y-127686903D01*
X244731925Y-128840594D01*
X214196321Y-128840594D01*
X222723255Y-120313660D01*
X223096411Y-119940505D01*
X240075050Y-119940505D01*
X240649075Y-119826324D01*
X241135710Y-119501165D01*
X242862265Y-117774611D01*
X243187424Y-117287975D01*
X243219993Y-117124239D01*
X243301605Y-116713950D01*
X243301605Y-104634429D01*
X243314749Y-104568350D01*
X243314749Y-102282583D01*
X243303459Y-102225824D01*
X243323318Y-102125986D01*
X243314829Y-102083309D01*
X243314829Y-83558293D01*
X243318742Y-83552437D01*
X243432923Y-82978412D01*
X243432923Y-81628482D01*
X243440721Y-81589279D01*
X243440721Y-70596165D01*
X243590434Y-70235617D01*
X243591006Y-69579207D01*
X243440721Y-69215489D01*
X243440721Y-64843721D01*
X243326540Y-64269696D01*
X243001381Y-63783061D01*
X241657660Y-62439340D01*
X241171025Y-62114181D01*
X241069000Y-62093887D01*
X241069000Y-50064120D01*
X244716530Y-50064120D01*
X245157098Y-51130377D01*
X245972169Y-51946872D01*
X247037656Y-52389300D01*
X248191347Y-52390307D01*
X249257604Y-51949739D01*
X250074099Y-51134668D01*
X250516527Y-50069181D01*
X250517534Y-48915490D01*
X250076966Y-47849233D01*
X249261895Y-47032738D01*
X248196408Y-46590310D01*
X247042717Y-46589303D01*
X245976460Y-47029871D01*
X245159965Y-47844942D01*
X244717537Y-48910429D01*
X244716530Y-50064120D01*
X241069000Y-50064120D01*
X241069000Y-45675000D01*
X251505000Y-45675000D01*
X251505000Y-132125000D01*
X50755000Y-132125000D01*
X50755000Y-128762539D01*
X51702354Y-128762539D01*
X52142922Y-129828796D01*
X52957993Y-130645291D01*
X54023480Y-131087719D01*
X55177171Y-131088726D01*
X56243428Y-130648158D01*
X57059923Y-129833087D01*
X57502351Y-128767600D01*
X57503358Y-127613909D01*
X57062790Y-126547652D01*
X56247719Y-125731157D01*
X55182232Y-125288729D01*
X54028541Y-125287722D01*
X52962284Y-125728290D01*
X52145789Y-126543361D01*
X51703361Y-127608848D01*
X51702354Y-128762539D01*
X50755000Y-128762539D01*
X50755000Y-113457650D01*
X53789071Y-113457650D01*
X54610000Y-114278579D01*
X55430929Y-113457650D01*
X55366058Y-113209245D01*
X54845171Y-113012077D01*
X54288481Y-113029252D01*
X53853942Y-113209245D01*
X53789071Y-113457650D01*
X50755000Y-113457650D01*
X50755000Y-50104315D01*
X51709498Y-50104315D01*
X52150066Y-51170572D01*
X52965137Y-51987067D01*
X54030624Y-52429495D01*
X55184315Y-52430502D01*
X56250572Y-51989934D01*
X57067067Y-51174863D01*
X57509495Y-50109376D01*
X57510502Y-48955685D01*
X57069934Y-47889428D01*
X56254863Y-47072933D01*
X55189376Y-46630505D01*
X54035685Y-46629498D01*
X52969428Y-47070066D01*
X52152933Y-47885137D01*
X51710505Y-48950624D01*
X51709498Y-50104315D01*
X50755000Y-50104315D01*
X50755000Y-45675000D01*
X187683000Y-45675000D01*
X187683000Y-48785661D01*
X187683000Y-48785661D01*
G37*
X187683000Y-48785661D02*
X187676000Y-48820852D01*
X187676000Y-53910096D01*
X187651423Y-53910075D01*
X187081527Y-54145551D01*
X186645124Y-54581192D01*
X186408654Y-55150676D01*
X186408116Y-55767304D01*
X186643592Y-56337200D01*
X186658384Y-56352018D01*
X186658384Y-63696458D01*
X186757341Y-64193947D01*
X187039145Y-64615697D01*
X189382687Y-66959239D01*
X189804438Y-67241043D01*
X190301926Y-67340000D01*
X190985000Y-67340000D01*
X190985000Y-78956522D01*
X174033402Y-95908120D01*
X170729967Y-92989347D01*
X182289239Y-81430075D01*
X182571043Y-81008324D01*
X182670001Y-80510836D01*
X182670000Y-80510831D01*
X182670000Y-51292655D01*
X182937570Y-51120478D01*
X183200150Y-50736179D01*
X183292529Y-50280000D01*
X183292529Y-48780000D01*
X183212341Y-48353836D01*
X183155793Y-48265959D01*
X183157000Y-48260000D01*
X183157000Y-47625000D01*
X183146742Y-47570481D01*
X183114521Y-47520409D01*
X183065358Y-47486818D01*
X183007000Y-47475000D01*
X95885000Y-47475000D01*
X95858470Y-47479992D01*
X70485030Y-47475000D01*
X70430481Y-47485258D01*
X70380409Y-47517479D01*
X70346818Y-47566642D01*
X70335000Y-47625000D01*
X70335000Y-51435000D01*
X70345248Y-51489491D01*
X70377458Y-51539569D01*
X70426614Y-51573171D01*
X70484970Y-51585000D01*
X71115767Y-51585124D01*
X71188957Y-51953076D01*
X71470761Y-52374826D01*
X76061609Y-56965674D01*
X76050000Y-57023000D01*
X76050000Y-58997246D01*
X75990478Y-59140591D01*
X75989523Y-60234609D01*
X76050000Y-60380974D01*
X76050000Y-62611000D01*
X76060258Y-62665519D01*
X76092479Y-62715591D01*
X76141642Y-62749182D01*
X76200000Y-62761000D01*
X86741000Y-62761000D01*
X86795519Y-62750742D01*
X86845000Y-62718901D01*
X86845000Y-84455000D01*
X86863690Y-84527509D01*
X86902245Y-84572884D01*
X86927206Y-84585465D01*
X86927206Y-92199755D01*
X68114340Y-111012621D01*
X67789181Y-111499256D01*
X67675000Y-112073281D01*
X67675000Y-115200000D01*
X55729076Y-115200000D01*
X55820755Y-115176058D01*
X56017923Y-114655171D01*
X56000748Y-114098481D01*
X55820755Y-113663942D01*
X55572350Y-113599071D01*
X54751421Y-114420000D01*
X54765564Y-114434143D01*
X54624143Y-114575564D01*
X54610000Y-114561421D01*
X54595858Y-114575564D01*
X54454437Y-114434143D01*
X54468579Y-114420000D01*
X53647650Y-113599071D01*
X53399245Y-113663942D01*
X53202077Y-114184829D01*
X53219252Y-114741519D01*
X53399245Y-115176058D01*
X53490924Y-115200000D01*
X52030000Y-115200000D01*
X51974868Y-115210499D01*
X51924938Y-115242939D01*
X51891563Y-115292249D01*
X51880001Y-115350659D01*
X51920001Y-124460659D01*
X51930258Y-124514519D01*
X51962479Y-124564591D01*
X52011642Y-124598182D01*
X52070000Y-124610000D01*
X67715000Y-124610000D01*
X67715000Y-125508379D01*
X67829181Y-126082404D01*
X68154340Y-126569039D01*
X71550960Y-129965660D01*
X71869271Y-130178348D01*
X72037596Y-130290819D01*
X72611621Y-130405000D01*
X134128993Y-130405000D01*
X134703018Y-130290819D01*
X135189653Y-129965660D01*
X136950660Y-128204653D01*
X137275819Y-127718018D01*
X137390000Y-127143993D01*
X137390000Y-125647279D01*
X137499802Y-125537669D01*
X137789669Y-124839591D01*
X137790205Y-124224829D01*
X144762077Y-124224829D01*
X144779252Y-124781519D01*
X144959245Y-125216058D01*
X145207650Y-125280929D01*
X146028579Y-124460000D01*
X145207650Y-123639071D01*
X144959245Y-123703942D01*
X144762077Y-124224829D01*
X137790205Y-124224829D01*
X137790329Y-124083725D01*
X137548168Y-123497650D01*
X145349071Y-123497650D01*
X146170000Y-124318579D01*
X146184143Y-124304437D01*
X146325564Y-124445858D01*
X146311421Y-124460000D01*
X146325564Y-124474143D01*
X146184143Y-124615564D01*
X146170000Y-124601421D01*
X145349071Y-125422350D01*
X145413942Y-125670755D01*
X145934829Y-125867923D01*
X146491519Y-125850748D01*
X146535000Y-125832737D01*
X146535000Y-126365000D01*
X146545258Y-126419519D01*
X146577479Y-126469591D01*
X146626642Y-126503182D01*
X146685000Y-126515000D01*
X155575000Y-126515000D01*
X155629519Y-126504742D01*
X155679591Y-126472521D01*
X155713182Y-126423358D01*
X155725000Y-126365000D01*
X155725000Y-122555000D01*
X155714742Y-122500481D01*
X155682521Y-122450409D01*
X155633358Y-122416818D01*
X155575000Y-122405000D01*
X146685000Y-122405000D01*
X146630481Y-122415258D01*
X146580409Y-122447479D01*
X146546818Y-122496642D01*
X146535000Y-122555000D01*
X146535000Y-123101220D01*
X146405171Y-123052077D01*
X145848481Y-123069252D01*
X145413942Y-123249245D01*
X145349071Y-123497650D01*
X137548168Y-123497650D01*
X137501681Y-123385143D01*
X136967669Y-122850198D01*
X136269591Y-122560331D01*
X135672438Y-122559810D01*
X135669742Y-122545481D01*
X135637521Y-122495409D01*
X135588358Y-122461818D01*
X135530000Y-122450000D01*
X134667121Y-122450000D01*
X134667121Y-122122083D01*
X134619252Y-121881429D01*
X134568164Y-121624594D01*
X134286360Y-121202844D01*
X132990000Y-119906484D01*
X132990000Y-110005000D01*
X142210000Y-110005000D01*
X142210000Y-112683350D01*
X142308957Y-113180839D01*
X142590761Y-113602589D01*
X146747411Y-117759239D01*
X147169162Y-118041043D01*
X147666650Y-118140000D01*
X161880000Y-118140000D01*
X161880000Y-130346200D01*
X161890258Y-130400719D01*
X161922479Y-130450791D01*
X161971642Y-130484382D01*
X162030000Y-130496200D01*
X163526532Y-130496200D01*
X164442545Y-131412213D01*
X164929180Y-131737372D01*
X165503205Y-131851553D01*
X210564042Y-131851553D01*
X211138067Y-131737372D01*
X211624702Y-131412213D01*
X214196321Y-128840594D01*
X244731925Y-128840594D01*
X245172493Y-129906851D01*
X245987564Y-130723346D01*
X247053051Y-131165774D01*
X248206742Y-131166781D01*
X249272999Y-130726213D01*
X250089494Y-129911142D01*
X250531922Y-128845655D01*
X250532929Y-127691964D01*
X250092361Y-126625707D01*
X249277290Y-125809212D01*
X248211803Y-125366784D01*
X247058112Y-125365777D01*
X245991855Y-125806345D01*
X245175360Y-126621416D01*
X244732932Y-127686903D01*
X244731925Y-128840594D01*
X214196321Y-128840594D01*
X222723255Y-120313660D01*
X223096411Y-119940505D01*
X240075050Y-119940505D01*
X240649075Y-119826324D01*
X241135710Y-119501165D01*
X242862265Y-117774611D01*
X243187424Y-117287975D01*
X243219993Y-117124239D01*
X243301605Y-116713950D01*
X243301605Y-104634429D01*
X243314749Y-104568350D01*
X243314749Y-102282583D01*
X243303459Y-102225824D01*
X243323318Y-102125986D01*
X243314829Y-102083309D01*
X243314829Y-83558293D01*
X243318742Y-83552437D01*
X243432923Y-82978412D01*
X243432923Y-81628482D01*
X243440721Y-81589279D01*
X243440721Y-70596165D01*
X243590434Y-70235617D01*
X243591006Y-69579207D01*
X243440721Y-69215489D01*
X243440721Y-64843721D01*
X243326540Y-64269696D01*
X243001381Y-63783061D01*
X241657660Y-62439340D01*
X241171025Y-62114181D01*
X241069000Y-62093887D01*
X241069000Y-50064120D01*
X244716530Y-50064120D01*
X245157098Y-51130377D01*
X245972169Y-51946872D01*
X247037656Y-52389300D01*
X248191347Y-52390307D01*
X249257604Y-51949739D01*
X250074099Y-51134668D01*
X250516527Y-50069181D01*
X250517534Y-48915490D01*
X250076966Y-47849233D01*
X249261895Y-47032738D01*
X248196408Y-46590310D01*
X247042717Y-46589303D01*
X245976460Y-47029871D01*
X245159965Y-47844942D01*
X244717537Y-48910429D01*
X244716530Y-50064120D01*
X241069000Y-50064120D01*
X241069000Y-45675000D01*
X251505000Y-45675000D01*
X251505000Y-132125000D01*
X50755000Y-132125000D01*
X50755000Y-128762539D01*
X51702354Y-128762539D01*
X52142922Y-129828796D01*
X52957993Y-130645291D01*
X54023480Y-131087719D01*
X55177171Y-131088726D01*
X56243428Y-130648158D01*
X57059923Y-129833087D01*
X57502351Y-128767600D01*
X57503358Y-127613909D01*
X57062790Y-126547652D01*
X56247719Y-125731157D01*
X55182232Y-125288729D01*
X54028541Y-125287722D01*
X52962284Y-125728290D01*
X52145789Y-126543361D01*
X51703361Y-127608848D01*
X51702354Y-128762539D01*
X50755000Y-128762539D01*
X50755000Y-113457650D01*
X53789071Y-113457650D01*
X54610000Y-114278579D01*
X55430929Y-113457650D01*
X55366058Y-113209245D01*
X54845171Y-113012077D01*
X54288481Y-113029252D01*
X53853942Y-113209245D01*
X53789071Y-113457650D01*
X50755000Y-113457650D01*
X50755000Y-50104315D01*
X51709498Y-50104315D01*
X52150066Y-51170572D01*
X52965137Y-51987067D01*
X54030624Y-52429495D01*
X55184315Y-52430502D01*
X56250572Y-51989934D01*
X57067067Y-51174863D01*
X57509495Y-50109376D01*
X57510502Y-48955685D01*
X57069934Y-47889428D01*
X56254863Y-47072933D01*
X55189376Y-46630505D01*
X54035685Y-46629498D01*
X52969428Y-47070066D01*
X52152933Y-47885137D01*
X51710505Y-48950624D01*
X51709498Y-50104315D01*
X50755000Y-50104315D01*
X50755000Y-45675000D01*
X187683000Y-45675000D01*
X187683000Y-48785661D01*
G36*
X100180000Y-123114187D02*
X99853942Y-123249245D01*
X99789071Y-123497650D01*
X100180000Y-123888579D01*
X100180000Y-124171421D01*
X99647650Y-123639071D01*
X99399245Y-123703942D01*
X99202077Y-124224829D01*
X99219252Y-124781519D01*
X99399245Y-125216058D01*
X99647650Y-125280929D01*
X100180000Y-124748579D01*
X100180000Y-125031421D01*
X99789071Y-125422350D01*
X99853942Y-125670755D01*
X100201776Y-125802418D01*
X100222479Y-125834591D01*
X100271642Y-125868182D01*
X100330000Y-125880000D01*
X101842860Y-125880000D01*
X102032331Y-126069802D01*
X102730409Y-126359669D01*
X103486275Y-126360329D01*
X104184857Y-126071681D01*
X104376873Y-125880000D01*
X106842860Y-125880000D01*
X107032331Y-126069802D01*
X107730409Y-126359669D01*
X108486275Y-126360329D01*
X109184857Y-126071681D01*
X109376873Y-125880000D01*
X111842860Y-125880000D01*
X112032331Y-126069802D01*
X112730409Y-126359669D01*
X113486275Y-126360329D01*
X114184857Y-126071681D01*
X114376873Y-125880000D01*
X116424563Y-125880000D01*
X116519522Y-126027570D01*
X116903821Y-126290150D01*
X117256190Y-126361507D01*
X117277479Y-126394591D01*
X117326642Y-126428182D01*
X117385000Y-126440000D01*
X126163090Y-126440000D01*
X126172479Y-126454591D01*
X126221642Y-126488182D01*
X126280000Y-126500000D01*
X130880000Y-126500000D01*
X130880000Y-127405000D01*
X92860000Y-127405000D01*
X92860000Y-122705000D01*
X100180000Y-122705000D01*
X100180000Y-123114187D01*
X100180000Y-123114187D01*
G37*
X100180000Y-123114187D02*
X99853942Y-123249245D01*
X99789071Y-123497650D01*
X100180000Y-123888579D01*
X100180000Y-124171421D01*
X99647650Y-123639071D01*
X99399245Y-123703942D01*
X99202077Y-124224829D01*
X99219252Y-124781519D01*
X99399245Y-125216058D01*
X99647650Y-125280929D01*
X100180000Y-124748579D01*
X100180000Y-125031421D01*
X99789071Y-125422350D01*
X99853942Y-125670755D01*
X100201776Y-125802418D01*
X100222479Y-125834591D01*
X100271642Y-125868182D01*
X100330000Y-125880000D01*
X101842860Y-125880000D01*
X102032331Y-126069802D01*
X102730409Y-126359669D01*
X103486275Y-126360329D01*
X104184857Y-126071681D01*
X104376873Y-125880000D01*
X106842860Y-125880000D01*
X107032331Y-126069802D01*
X107730409Y-126359669D01*
X108486275Y-126360329D01*
X109184857Y-126071681D01*
X109376873Y-125880000D01*
X111842860Y-125880000D01*
X112032331Y-126069802D01*
X112730409Y-126359669D01*
X113486275Y-126360329D01*
X114184857Y-126071681D01*
X114376873Y-125880000D01*
X116424563Y-125880000D01*
X116519522Y-126027570D01*
X116903821Y-126290150D01*
X117256190Y-126361507D01*
X117277479Y-126394591D01*
X117326642Y-126428182D01*
X117385000Y-126440000D01*
X126163090Y-126440000D01*
X126172479Y-126454591D01*
X126221642Y-126488182D01*
X126280000Y-126500000D01*
X130880000Y-126500000D01*
X130880000Y-127405000D01*
X92860000Y-127405000D01*
X92860000Y-122705000D01*
X100180000Y-122705000D01*
X100180000Y-123114187D01*
G36*
X223880000Y-102991321D02*
X223880000Y-116940505D01*
X222475090Y-116940505D01*
X221901065Y-117054686D01*
X221414430Y-117379845D01*
X221109937Y-117684338D01*
X221109934Y-117684340D01*
X220601935Y-118192340D01*
X213540000Y-125254275D01*
X213540000Y-124722500D01*
X213377500Y-124560000D01*
X212190000Y-124560000D01*
X212190000Y-124580000D01*
X211990000Y-124580000D01*
X211990000Y-124560000D01*
X211970000Y-124560000D01*
X211970000Y-124360000D01*
X211990000Y-124360000D01*
X211990000Y-123172500D01*
X212190000Y-123172500D01*
X212190000Y-124360000D01*
X213377500Y-124360000D01*
X213540000Y-124197500D01*
X213540000Y-123530707D01*
X213441043Y-123291805D01*
X213258195Y-123108957D01*
X213019293Y-123010000D01*
X212352500Y-123010000D01*
X212190000Y-123172500D01*
X211990000Y-123172500D01*
X211827500Y-123010000D01*
X211160707Y-123010000D01*
X210970000Y-123088994D01*
X210970000Y-115837529D01*
X213990000Y-115837529D01*
X214416164Y-115757341D01*
X214807570Y-115505478D01*
X215070150Y-115121179D01*
X215162529Y-114665000D01*
X215162529Y-112665000D01*
X215082341Y-112238836D01*
X214830478Y-111847430D01*
X214780000Y-111812940D01*
X214780000Y-109015000D01*
X215269293Y-109015000D01*
X215508195Y-108916043D01*
X215691043Y-108733195D01*
X215790000Y-108494293D01*
X215790000Y-107627500D01*
X215627500Y-107465000D01*
X214780000Y-107465000D01*
X214780000Y-107265000D01*
X215627500Y-107265000D01*
X215790000Y-107102500D01*
X215790000Y-106235707D01*
X215691043Y-105996805D01*
X215508195Y-105813957D01*
X215269293Y-105715000D01*
X214780000Y-105715000D01*
X214780000Y-104657500D01*
X214892500Y-104770000D01*
X215759293Y-104770000D01*
X215998195Y-104671043D01*
X216181043Y-104488195D01*
X216280000Y-104249293D01*
X216280000Y-103132500D01*
X216117500Y-102970000D01*
X214780000Y-102970000D01*
X214780000Y-102770000D01*
X216117500Y-102770000D01*
X216280000Y-102607500D01*
X216280000Y-102362500D01*
X217755000Y-102362500D01*
X217755000Y-102979293D01*
X217853957Y-103218195D01*
X218036805Y-103401043D01*
X218275707Y-103500000D01*
X218767500Y-103500000D01*
X218930000Y-103337500D01*
X218930000Y-102200000D01*
X219130000Y-102200000D01*
X219130000Y-103337500D01*
X219292500Y-103500000D01*
X219784293Y-103500000D01*
X220023195Y-103401043D01*
X220206043Y-103218195D01*
X220305000Y-102979293D01*
X220305000Y-102362500D01*
X220142500Y-102200000D01*
X219130000Y-102200000D01*
X218930000Y-102200000D01*
X217917500Y-102200000D01*
X217755000Y-102362500D01*
X216280000Y-102362500D01*
X216280000Y-102000000D01*
X222888680Y-102000000D01*
X223880000Y-102991321D01*
X223880000Y-102991321D01*
G37*
X223880000Y-102991321D02*
X223880000Y-116940505D01*
X222475090Y-116940505D01*
X221901065Y-117054686D01*
X221414430Y-117379845D01*
X221109937Y-117684338D01*
X221109934Y-117684340D01*
X220601935Y-118192340D01*
X213540000Y-125254275D01*
X213540000Y-124722500D01*
X213377500Y-124560000D01*
X212190000Y-124560000D01*
X212190000Y-124580000D01*
X211990000Y-124580000D01*
X211990000Y-124560000D01*
X211970000Y-124560000D01*
X211970000Y-124360000D01*
X211990000Y-124360000D01*
X211990000Y-123172500D01*
X212190000Y-123172500D01*
X212190000Y-124360000D01*
X213377500Y-124360000D01*
X213540000Y-124197500D01*
X213540000Y-123530707D01*
X213441043Y-123291805D01*
X213258195Y-123108957D01*
X213019293Y-123010000D01*
X212352500Y-123010000D01*
X212190000Y-123172500D01*
X211990000Y-123172500D01*
X211827500Y-123010000D01*
X211160707Y-123010000D01*
X210970000Y-123088994D01*
X210970000Y-115837529D01*
X213990000Y-115837529D01*
X214416164Y-115757341D01*
X214807570Y-115505478D01*
X215070150Y-115121179D01*
X215162529Y-114665000D01*
X215162529Y-112665000D01*
X215082341Y-112238836D01*
X214830478Y-111847430D01*
X214780000Y-111812940D01*
X214780000Y-109015000D01*
X215269293Y-109015000D01*
X215508195Y-108916043D01*
X215691043Y-108733195D01*
X215790000Y-108494293D01*
X215790000Y-107627500D01*
X215627500Y-107465000D01*
X214780000Y-107465000D01*
X214780000Y-107265000D01*
X215627500Y-107265000D01*
X215790000Y-107102500D01*
X215790000Y-106235707D01*
X215691043Y-105996805D01*
X215508195Y-105813957D01*
X215269293Y-105715000D01*
X214780000Y-105715000D01*
X214780000Y-104657500D01*
X214892500Y-104770000D01*
X215759293Y-104770000D01*
X215998195Y-104671043D01*
X216181043Y-104488195D01*
X216280000Y-104249293D01*
X216280000Y-103132500D01*
X216117500Y-102970000D01*
X214780000Y-102970000D01*
X214780000Y-102770000D01*
X216117500Y-102770000D01*
X216280000Y-102607500D01*
X216280000Y-102362500D01*
X217755000Y-102362500D01*
X217755000Y-102979293D01*
X217853957Y-103218195D01*
X218036805Y-103401043D01*
X218275707Y-103500000D01*
X218767500Y-103500000D01*
X218930000Y-103337500D01*
X218930000Y-102200000D01*
X219130000Y-102200000D01*
X219130000Y-103337500D01*
X219292500Y-103500000D01*
X219784293Y-103500000D01*
X220023195Y-103401043D01*
X220206043Y-103218195D01*
X220305000Y-102979293D01*
X220305000Y-102362500D01*
X220142500Y-102200000D01*
X219130000Y-102200000D01*
X218930000Y-102200000D01*
X217917500Y-102200000D01*
X217755000Y-102362500D01*
X216280000Y-102362500D01*
X216280000Y-102000000D01*
X222888680Y-102000000D01*
X223880000Y-102991321D01*
G36*
X237645564Y-105355858D02*
X237631421Y-105370000D01*
X237645564Y-105384143D01*
X237504143Y-105525564D01*
X237490000Y-105511421D01*
X237475858Y-105525564D01*
X237334437Y-105384143D01*
X237348579Y-105370000D01*
X237334437Y-105355858D01*
X237475858Y-105214437D01*
X237490000Y-105228579D01*
X237504143Y-105214437D01*
X237645564Y-105355858D01*
X237645564Y-105355858D01*
G37*
X237645564Y-105355858D02*
X237631421Y-105370000D01*
X237645564Y-105384143D01*
X237504143Y-105525564D01*
X237490000Y-105511421D01*
X237475858Y-105525564D01*
X237334437Y-105384143D01*
X237348579Y-105370000D01*
X237334437Y-105355858D01*
X237475858Y-105214437D01*
X237490000Y-105228579D01*
X237504143Y-105214437D01*
X237645564Y-105355858D01*
G36*
X239622000Y-65300000D02*
X239642000Y-65300000D01*
X239642000Y-65500000D01*
X239622000Y-65500000D01*
X239622000Y-66487500D01*
X239784500Y-66650000D01*
X240026293Y-66650000D01*
X240265195Y-66551043D01*
X240440721Y-66375517D01*
X240440721Y-69215779D01*
X240291008Y-69576327D01*
X240290436Y-70232737D01*
X240440721Y-70596455D01*
X240440721Y-80200000D01*
X224280000Y-80200000D01*
X224225481Y-80210258D01*
X224175409Y-80242479D01*
X224141818Y-80291642D01*
X224130000Y-80350000D01*
X224130000Y-98950000D01*
X224081320Y-98950000D01*
X223129277Y-97997957D01*
X222642642Y-97672798D01*
X222068617Y-97558617D01*
X208112543Y-97558617D01*
X207751995Y-97408904D01*
X207095585Y-97408332D01*
X206488921Y-97659000D01*
X206024364Y-98122747D01*
X205772637Y-98728972D01*
X205772065Y-99385382D01*
X206022733Y-99992046D01*
X206230324Y-100200000D01*
X203156784Y-100200000D01*
X203145478Y-100182430D01*
X202955000Y-100052282D01*
X202955000Y-99962500D01*
X202792500Y-99800000D01*
X202030000Y-99800000D01*
X202030000Y-99820000D01*
X201830000Y-99820000D01*
X201830000Y-99800000D01*
X201067500Y-99800000D01*
X200967500Y-99900000D01*
X196930000Y-99900000D01*
X196930000Y-98970707D01*
X200905000Y-98970707D01*
X200905000Y-99437500D01*
X201067500Y-99600000D01*
X201830000Y-99600000D01*
X201830000Y-98612500D01*
X202030000Y-98612500D01*
X202030000Y-99600000D01*
X202792500Y-99600000D01*
X202955000Y-99437500D01*
X202955000Y-98970707D01*
X202856043Y-98731805D01*
X202673195Y-98548957D01*
X202434293Y-98450000D01*
X202192500Y-98450000D01*
X202030000Y-98612500D01*
X201830000Y-98612500D01*
X201667500Y-98450000D01*
X201425707Y-98450000D01*
X201186805Y-98548957D01*
X201003957Y-98731805D01*
X200905000Y-98970707D01*
X196930000Y-98970707D01*
X196930000Y-98850000D01*
X196919742Y-98795481D01*
X196887521Y-98745409D01*
X196838358Y-98711818D01*
X196780000Y-98700000D01*
X183280000Y-98700000D01*
X183225481Y-98710258D01*
X183175409Y-98742479D01*
X183141818Y-98791642D01*
X183130000Y-98850000D01*
X183130000Y-101640000D01*
X182412500Y-101640000D01*
X182348187Y-101704313D01*
X181951918Y-101704418D01*
X181887500Y-101640000D01*
X180770707Y-101640000D01*
X180614327Y-101704775D01*
X174811671Y-101706322D01*
X190967993Y-85550000D01*
X212380000Y-85550000D01*
X212380000Y-93750000D01*
X212390258Y-93804519D01*
X212422479Y-93854591D01*
X212471642Y-93888182D01*
X212530000Y-93900000D01*
X218130000Y-93900000D01*
X218184519Y-93889742D01*
X218234591Y-93857521D01*
X218268182Y-93808358D01*
X218280000Y-93750000D01*
X218280000Y-85550000D01*
X218269742Y-85495481D01*
X218237521Y-85445409D01*
X218188358Y-85411818D01*
X218130000Y-85400000D01*
X212530000Y-85400000D01*
X212475481Y-85410258D01*
X212425409Y-85442479D01*
X212391818Y-85491642D01*
X212380000Y-85550000D01*
X190967993Y-85550000D01*
X200754284Y-75763709D01*
X200773019Y-75763725D01*
X201342915Y-75528249D01*
X201779318Y-75092608D01*
X202015788Y-74523124D01*
X202016017Y-74260518D01*
X202455083Y-74079100D01*
X202469901Y-74064308D01*
X216925400Y-74064308D01*
X216926948Y-74064000D01*
X223774000Y-74064000D01*
X223828519Y-74053742D01*
X223878591Y-74021521D01*
X223912182Y-73972358D01*
X223924000Y-73914000D01*
X223924000Y-69492000D01*
X226164000Y-69492000D01*
X226164000Y-75438000D01*
X226174258Y-75492519D01*
X226206479Y-75542591D01*
X226255642Y-75576182D01*
X226314000Y-75588000D01*
X229362000Y-75588000D01*
X229404795Y-75581766D01*
X229457356Y-75553790D01*
X238093356Y-68441790D01*
X238104066Y-68432066D01*
X238612066Y-67924066D01*
X238644182Y-67876358D01*
X238656000Y-67818000D01*
X238656000Y-66428238D01*
X238778805Y-66551043D01*
X239017707Y-66650000D01*
X239259500Y-66650000D01*
X239422000Y-66487500D01*
X239422000Y-65500000D01*
X239402000Y-65500000D01*
X239402000Y-65300000D01*
X239422000Y-65300000D01*
X239422000Y-65280000D01*
X239622000Y-65280000D01*
X239622000Y-65300000D01*
X239622000Y-65300000D01*
G37*
X239622000Y-65300000D02*
X239642000Y-65300000D01*
X239642000Y-65500000D01*
X239622000Y-65500000D01*
X239622000Y-66487500D01*
X239784500Y-66650000D01*
X240026293Y-66650000D01*
X240265195Y-66551043D01*
X240440721Y-66375517D01*
X240440721Y-69215779D01*
X240291008Y-69576327D01*
X240290436Y-70232737D01*
X240440721Y-70596455D01*
X240440721Y-80200000D01*
X224280000Y-80200000D01*
X224225481Y-80210258D01*
X224175409Y-80242479D01*
X224141818Y-80291642D01*
X224130000Y-80350000D01*
X224130000Y-98950000D01*
X224081320Y-98950000D01*
X223129277Y-97997957D01*
X222642642Y-97672798D01*
X222068617Y-97558617D01*
X208112543Y-97558617D01*
X207751995Y-97408904D01*
X207095585Y-97408332D01*
X206488921Y-97659000D01*
X206024364Y-98122747D01*
X205772637Y-98728972D01*
X205772065Y-99385382D01*
X206022733Y-99992046D01*
X206230324Y-100200000D01*
X203156784Y-100200000D01*
X203145478Y-100182430D01*
X202955000Y-100052282D01*
X202955000Y-99962500D01*
X202792500Y-99800000D01*
X202030000Y-99800000D01*
X202030000Y-99820000D01*
X201830000Y-99820000D01*
X201830000Y-99800000D01*
X201067500Y-99800000D01*
X200967500Y-99900000D01*
X196930000Y-99900000D01*
X196930000Y-98970707D01*
X200905000Y-98970707D01*
X200905000Y-99437500D01*
X201067500Y-99600000D01*
X201830000Y-99600000D01*
X201830000Y-98612500D01*
X202030000Y-98612500D01*
X202030000Y-99600000D01*
X202792500Y-99600000D01*
X202955000Y-99437500D01*
X202955000Y-98970707D01*
X202856043Y-98731805D01*
X202673195Y-98548957D01*
X202434293Y-98450000D01*
X202192500Y-98450000D01*
X202030000Y-98612500D01*
X201830000Y-98612500D01*
X201667500Y-98450000D01*
X201425707Y-98450000D01*
X201186805Y-98548957D01*
X201003957Y-98731805D01*
X200905000Y-98970707D01*
X196930000Y-98970707D01*
X196930000Y-98850000D01*
X196919742Y-98795481D01*
X196887521Y-98745409D01*
X196838358Y-98711818D01*
X196780000Y-98700000D01*
X183280000Y-98700000D01*
X183225481Y-98710258D01*
X183175409Y-98742479D01*
X183141818Y-98791642D01*
X183130000Y-98850000D01*
X183130000Y-101640000D01*
X182412500Y-101640000D01*
X182348187Y-101704313D01*
X181951918Y-101704418D01*
X181887500Y-101640000D01*
X180770707Y-101640000D01*
X180614327Y-101704775D01*
X174811671Y-101706322D01*
X190967993Y-85550000D01*
X212380000Y-85550000D01*
X212380000Y-93750000D01*
X212390258Y-93804519D01*
X212422479Y-93854591D01*
X212471642Y-93888182D01*
X212530000Y-93900000D01*
X218130000Y-93900000D01*
X218184519Y-93889742D01*
X218234591Y-93857521D01*
X218268182Y-93808358D01*
X218280000Y-93750000D01*
X218280000Y-85550000D01*
X218269742Y-85495481D01*
X218237521Y-85445409D01*
X218188358Y-85411818D01*
X218130000Y-85400000D01*
X212530000Y-85400000D01*
X212475481Y-85410258D01*
X212425409Y-85442479D01*
X212391818Y-85491642D01*
X212380000Y-85550000D01*
X190967993Y-85550000D01*
X200754284Y-75763709D01*
X200773019Y-75763725D01*
X201342915Y-75528249D01*
X201779318Y-75092608D01*
X202015788Y-74523124D01*
X202016017Y-74260518D01*
X202455083Y-74079100D01*
X202469901Y-74064308D01*
X216925400Y-74064308D01*
X216926948Y-74064000D01*
X223774000Y-74064000D01*
X223828519Y-74053742D01*
X223878591Y-74021521D01*
X223912182Y-73972358D01*
X223924000Y-73914000D01*
X223924000Y-69492000D01*
X226164000Y-69492000D01*
X226164000Y-75438000D01*
X226174258Y-75492519D01*
X226206479Y-75542591D01*
X226255642Y-75576182D01*
X226314000Y-75588000D01*
X229362000Y-75588000D01*
X229404795Y-75581766D01*
X229457356Y-75553790D01*
X238093356Y-68441790D01*
X238104066Y-68432066D01*
X238612066Y-67924066D01*
X238644182Y-67876358D01*
X238656000Y-67818000D01*
X238656000Y-66428238D01*
X238778805Y-66551043D01*
X239017707Y-66650000D01*
X239259500Y-66650000D01*
X239422000Y-66487500D01*
X239422000Y-65500000D01*
X239402000Y-65500000D01*
X239402000Y-65300000D01*
X239422000Y-65300000D01*
X239422000Y-65280000D01*
X239622000Y-65280000D01*
X239622000Y-65300000D01*
G36*
X102970000Y-93880000D02*
X102990000Y-93880000D01*
X102990000Y-94080000D01*
X102970000Y-94080000D01*
X102970000Y-94100000D01*
X102770000Y-94100000D01*
X102770000Y-94080000D01*
X102750000Y-94080000D01*
X102750000Y-93880000D01*
X102770000Y-93880000D01*
X102770000Y-93860000D01*
X102970000Y-93860000D01*
X102970000Y-93880000D01*
X102970000Y-93880000D01*
G37*
X102970000Y-93880000D02*
X102990000Y-93880000D01*
X102990000Y-94080000D01*
X102970000Y-94080000D01*
X102970000Y-94100000D01*
X102770000Y-94100000D01*
X102770000Y-94080000D01*
X102750000Y-94080000D01*
X102750000Y-93880000D01*
X102770000Y-93880000D01*
X102770000Y-93860000D01*
X102970000Y-93860000D01*
X102970000Y-93880000D01*
G36*
X214603000Y-65300000D02*
X215133062Y-65300000D01*
X215138000Y-65301000D01*
X216168357Y-65301000D01*
X216335512Y-65551165D01*
X217743586Y-66959239D01*
X218165336Y-67241043D01*
X218280098Y-67263871D01*
X218348145Y-67310365D01*
X218147430Y-67439522D01*
X217884850Y-67823821D01*
X217864968Y-67922000D01*
X214569320Y-67922000D01*
X214479000Y-67831680D01*
X214479000Y-65500000D01*
X214603000Y-65500000D01*
X214603000Y-66487500D01*
X214765500Y-66650000D01*
X215007293Y-66650000D01*
X215246195Y-66551043D01*
X215429043Y-66368195D01*
X215528000Y-66129293D01*
X215528000Y-65662500D01*
X215365500Y-65500000D01*
X214603000Y-65500000D01*
X214479000Y-65500000D01*
X214479000Y-65280000D01*
X214603000Y-65280000D01*
X214603000Y-65300000D01*
X214603000Y-65300000D01*
G37*
X214603000Y-65300000D02*
X215133062Y-65300000D01*
X215138000Y-65301000D01*
X216168357Y-65301000D01*
X216335512Y-65551165D01*
X217743586Y-66959239D01*
X218165336Y-67241043D01*
X218280098Y-67263871D01*
X218348145Y-67310365D01*
X218147430Y-67439522D01*
X217884850Y-67823821D01*
X217864968Y-67922000D01*
X214569320Y-67922000D01*
X214479000Y-67831680D01*
X214479000Y-65500000D01*
X214603000Y-65500000D01*
X214603000Y-66487500D01*
X214765500Y-66650000D01*
X215007293Y-66650000D01*
X215246195Y-66551043D01*
X215429043Y-66368195D01*
X215528000Y-66129293D01*
X215528000Y-65662500D01*
X215365500Y-65500000D01*
X214603000Y-65500000D01*
X214479000Y-65500000D01*
X214479000Y-65280000D01*
X214603000Y-65280000D01*
X214603000Y-65300000D01*
G36*
X221936723Y-61316390D02*
X221805478Y-61112430D01*
X221581855Y-60959635D01*
X221782570Y-60830478D01*
X221936723Y-60604867D01*
X221936723Y-61316390D01*
X221936723Y-61316390D01*
G37*
X221936723Y-61316390D02*
X221805478Y-61112430D01*
X221581855Y-60959635D01*
X221782570Y-60830478D01*
X221936723Y-60604867D01*
X221936723Y-61316390D01*
M02*
