G04 #@! TF.FileFunction,Soldermask,Top*
%FSLAX46Y46*%
G04 Gerber Fmt 4.6, Leading zero omitted, Abs format (unit mm)*
G04 Created by KiCad (PCBNEW 4.0.7) date 01/22/18 23:51:58*
%MOMM*%
%LPD*%
G01*
G04 APERTURE LIST*
%ADD10C,0.100000*%
%ADD11R,1.900000X1.900000*%
%ADD12C,1.900000*%
%ADD13O,1.900000X1.900000*%
%ADD14C,3.600000*%
%ADD15R,2.900000X1.500000*%
%ADD16R,1.500000X2.900000*%
%ADD17R,4.200000X2.400000*%
%ADD18R,1.900000X2.400000*%
%ADD19R,2.400000X2.900000*%
%ADD20R,1.650000X1.900000*%
%ADD21R,2.400000X1.000000*%
%ADD22R,1.300000X1.600000*%
%ADD23R,1.600000X1.300000*%
%ADD24R,1.150000X1.600000*%
%ADD25R,1.600000X1.150000*%
%ADD26R,2.000000X2.000000*%
%ADD27O,2.000000X2.000000*%
%ADD28R,2.400000X1.050000*%
%ADD29R,2.200000X3.900000*%
%ADD30R,3.900000X2.200000*%
G04 APERTURE END LIST*
D10*
D11*
X156210000Y-49530000D03*
D12*
X153710000Y-49530000D03*
X151210000Y-49530000D03*
X148710000Y-49530000D03*
X146210000Y-49530000D03*
X143710000Y-49530000D03*
X141210000Y-49530000D03*
X138710000Y-49530000D03*
D11*
X181370000Y-49530000D03*
D12*
X178870000Y-49530000D03*
X176370000Y-49530000D03*
X173870000Y-49530000D03*
X171370000Y-49530000D03*
X168870000Y-49530000D03*
X166370000Y-49530000D03*
X163870000Y-49530000D03*
X54610000Y-121920000D03*
X54610000Y-119420000D03*
X54610000Y-116920000D03*
X54610000Y-114420000D03*
D11*
X118110000Y-124460000D03*
D12*
X115610000Y-124460000D03*
X113110000Y-124460000D03*
X110610000Y-124460000D03*
X108110000Y-124460000D03*
X105610000Y-124460000D03*
X103110000Y-124460000D03*
X100610000Y-124460000D03*
D11*
X90170000Y-124460000D03*
D12*
X87670000Y-124460000D03*
X85170000Y-124460000D03*
X82670000Y-124460000D03*
X80170000Y-124460000D03*
X77670000Y-124460000D03*
X75170000Y-124460000D03*
X72670000Y-124460000D03*
X123230000Y-49530000D03*
X125730000Y-49530000D03*
X128230000Y-49530000D03*
X130730000Y-49530000D03*
D11*
X97790000Y-49530000D03*
D12*
X100290000Y-49530000D03*
X102790000Y-49530000D03*
X105290000Y-49530000D03*
X107790000Y-49530000D03*
X110290000Y-49530000D03*
X112790000Y-49530000D03*
X115290000Y-49530000D03*
D11*
X72390000Y-49530000D03*
D12*
X74890000Y-49530000D03*
X77390000Y-49530000D03*
X79890000Y-49530000D03*
X82390000Y-49530000D03*
X84890000Y-49530000D03*
X87390000Y-49530000D03*
X89890000Y-49530000D03*
X153670000Y-124460000D03*
X151170000Y-124460000D03*
X148670000Y-124460000D03*
X146170000Y-124460000D03*
X135890000Y-124460000D03*
X133390000Y-124460000D03*
X130890000Y-124460000D03*
X128390000Y-124460000D03*
D11*
X227330000Y-102870000D03*
D12*
X227330000Y-105370000D03*
X227330000Y-107870000D03*
X227330000Y-110370000D03*
X227330000Y-112870000D03*
X227330000Y-115370000D03*
D11*
X237490000Y-102870000D03*
D12*
X237490000Y-105370000D03*
X237490000Y-107870000D03*
X237490000Y-110370000D03*
X237490000Y-112870000D03*
X237490000Y-115370000D03*
D11*
X227330000Y-82550000D03*
D12*
X227330000Y-85050000D03*
X227330000Y-87550000D03*
X227330000Y-90050000D03*
X227330000Y-92550000D03*
X227330000Y-95050000D03*
D11*
X237490000Y-82550000D03*
D12*
X237490000Y-85050000D03*
X237490000Y-87550000D03*
X237490000Y-90050000D03*
X237490000Y-92550000D03*
X237490000Y-95050000D03*
X238760000Y-48260000D03*
X238760000Y-50800000D03*
X236220000Y-48260000D03*
X236220000Y-50800000D03*
X233680000Y-48260000D03*
X233680000Y-50800000D03*
X231140000Y-48260000D03*
X231140000Y-50800000D03*
X228600000Y-48260000D03*
X228600000Y-50800000D03*
X226060000Y-48260000D03*
X226060000Y-50800000D03*
X223520000Y-48260000D03*
X223520000Y-50800000D03*
X220980000Y-48260000D03*
X220980000Y-50800000D03*
X208280000Y-48260000D03*
X208280000Y-50800000D03*
X205740000Y-48260000D03*
X205740000Y-50800000D03*
X203200000Y-48260000D03*
X203200000Y-50800000D03*
X200660000Y-48260000D03*
X200660000Y-50800000D03*
X198120000Y-48260000D03*
X198120000Y-50800000D03*
X195580000Y-48260000D03*
X195580000Y-50800000D03*
X193040000Y-48260000D03*
X193040000Y-50800000D03*
X190500000Y-48260000D03*
X190500000Y-50800000D03*
X115570000Y-59690000D03*
X110490000Y-59690000D03*
X107950000Y-59690000D03*
X105410000Y-59690000D03*
X102870000Y-59690000D03*
X100330000Y-59690000D03*
X97790000Y-59690000D03*
X95250000Y-59690000D03*
D13*
X151130000Y-107950000D03*
D12*
X148590000Y-107950000D03*
D13*
X146050000Y-107950000D03*
X143510000Y-107950000D03*
X140970000Y-107950000D03*
D12*
X138430000Y-107950000D03*
X135890000Y-107950000D03*
X133350000Y-107950000D03*
X128270000Y-107950000D03*
X125730000Y-107950000D03*
X123190000Y-107950000D03*
X120650000Y-107950000D03*
X118110000Y-107950000D03*
X115570000Y-107950000D03*
X113030000Y-107950000D03*
X110490000Y-107950000D03*
X91186000Y-107950000D03*
X106426000Y-107950000D03*
X103886000Y-107950000D03*
X101346000Y-107950000D03*
D14*
X154940000Y-107950000D03*
X80010000Y-107950000D03*
X161290000Y-59690000D03*
X78740000Y-59690000D03*
D12*
X83566000Y-107950000D03*
X86106000Y-107950000D03*
X88646000Y-107950000D03*
X93726000Y-107950000D03*
X96266000Y-107950000D03*
X98806000Y-107950000D03*
X92710000Y-59690000D03*
X118110000Y-59690000D03*
X120650000Y-59690000D03*
X123190000Y-59690000D03*
X125730000Y-59690000D03*
X128270000Y-59690000D03*
X130810000Y-59690000D03*
X133350000Y-59690000D03*
X138430000Y-59690000D03*
X140970000Y-59690000D03*
X143510000Y-59690000D03*
X146050000Y-59690000D03*
X148590000Y-59690000D03*
X151130000Y-59690000D03*
X153670000Y-59690000D03*
X156210000Y-59690000D03*
D13*
X158750000Y-107950000D03*
X161290000Y-107950000D03*
X158750000Y-105410000D03*
X161290000Y-105410000D03*
X158750000Y-102870000D03*
X161290000Y-102870000D03*
X158750000Y-100330000D03*
X161290000Y-100330000D03*
X158750000Y-97790000D03*
X161290000Y-97790000D03*
X158750000Y-95250000D03*
X161290000Y-95250000D03*
X158750000Y-92710000D03*
X161290000Y-92710000D03*
D12*
X158750000Y-90170000D03*
X161290000Y-90170000D03*
X158750000Y-87630000D03*
X161290000Y-87630000D03*
X158750000Y-85090000D03*
X161290000Y-85090000D03*
D13*
X158750000Y-82550000D03*
X161290000Y-82550000D03*
D12*
X158750000Y-80010000D03*
D13*
X161290000Y-80010000D03*
X158750000Y-77470000D03*
X161290000Y-77470000D03*
D12*
X158750000Y-74930000D03*
X161290000Y-74930000D03*
X158750000Y-72390000D03*
X161290000Y-72390000D03*
X158750000Y-69850000D03*
X161290000Y-69850000D03*
X158750000Y-67310000D03*
X161290000Y-67310000D03*
X158750000Y-64770000D03*
X161290000Y-64770000D03*
D15*
X197550000Y-116840000D03*
X197550000Y-114840000D03*
X197550000Y-112840000D03*
X197550000Y-110840000D03*
X197550000Y-108840000D03*
X197550000Y-106840000D03*
X197550000Y-104840000D03*
X197550000Y-102840000D03*
X182150000Y-102840000D03*
X182150000Y-104840000D03*
X182150000Y-106840000D03*
X182150000Y-108840000D03*
X182150000Y-110840000D03*
X182150000Y-112840000D03*
X182150000Y-114840000D03*
X182150000Y-116840000D03*
D16*
X194860000Y-101140000D03*
X192860000Y-101140000D03*
X190860000Y-101140000D03*
X188860000Y-101140000D03*
X186860000Y-101140000D03*
X184860000Y-101140000D03*
D17*
X212090000Y-113665000D03*
D18*
X212090000Y-107365000D03*
X209790000Y-107365000D03*
X214390000Y-107365000D03*
D19*
X210630000Y-102870000D03*
X214630000Y-102870000D03*
D20*
X219030000Y-99600000D03*
X219030000Y-102100000D03*
D21*
X219965000Y-57150000D03*
X219965000Y-58420000D03*
X219965000Y-59690000D03*
X219965000Y-60960000D03*
X219965000Y-62230000D03*
X219965000Y-63500000D03*
X219965000Y-64770000D03*
X219965000Y-66040000D03*
X219965000Y-67310000D03*
X219965000Y-68580000D03*
X219965000Y-69850000D03*
X219965000Y-71120000D03*
X229365000Y-71120000D03*
X229365000Y-69850000D03*
X229365000Y-68580000D03*
X229365000Y-67310000D03*
X229365000Y-66040000D03*
X229365000Y-64770000D03*
X229365000Y-63500000D03*
X229365000Y-62230000D03*
X229365000Y-60960000D03*
X229365000Y-59690000D03*
X229365000Y-58420000D03*
X229365000Y-57150000D03*
X194435000Y-57150000D03*
X194435000Y-58420000D03*
X194435000Y-59690000D03*
X194435000Y-60960000D03*
X194435000Y-62230000D03*
X194435000Y-63500000D03*
X194435000Y-64770000D03*
X194435000Y-66040000D03*
X194435000Y-67310000D03*
X194435000Y-68580000D03*
X194435000Y-69850000D03*
X194435000Y-71120000D03*
X203835000Y-71120000D03*
X203835000Y-69850000D03*
X203835000Y-68580000D03*
X203835000Y-67310000D03*
X203835000Y-66040000D03*
X203835000Y-64770000D03*
X203835000Y-63500000D03*
X203835000Y-62230000D03*
X203835000Y-60960000D03*
X203835000Y-59690000D03*
X203835000Y-58420000D03*
X203835000Y-57150000D03*
D22*
X96520000Y-88560000D03*
X96520000Y-86360000D03*
X102870000Y-88560000D03*
X102870000Y-86360000D03*
X108585000Y-88560000D03*
X108585000Y-86360000D03*
X113665000Y-88730000D03*
X113665000Y-86530000D03*
X113665000Y-80815000D03*
X113665000Y-83015000D03*
X108585000Y-80985000D03*
X108585000Y-83185000D03*
X102870000Y-80985000D03*
X102870000Y-83185000D03*
X96520000Y-80985000D03*
X96520000Y-83185000D03*
D23*
X176530000Y-109220000D03*
X174330000Y-109220000D03*
X176530000Y-106680000D03*
X174330000Y-106680000D03*
D22*
X236982000Y-63500000D03*
X236982000Y-65700000D03*
D23*
X176530000Y-103505000D03*
X174330000Y-103505000D03*
X204935000Y-113030000D03*
X202735000Y-113030000D03*
X204935000Y-116840000D03*
X202735000Y-116840000D03*
D22*
X211328000Y-63500000D03*
X211328000Y-65700000D03*
X123190000Y-99400000D03*
X123190000Y-101600000D03*
D24*
X113665000Y-93975000D03*
X113665000Y-92075000D03*
X108585000Y-93980000D03*
X108585000Y-92080000D03*
X102870000Y-93980000D03*
X102870000Y-92080000D03*
X96520000Y-93980000D03*
X96520000Y-92080000D03*
X239522000Y-63500000D03*
X239522000Y-65400000D03*
X214503000Y-63500000D03*
X214503000Y-65400000D03*
D25*
X209545000Y-119380000D03*
X207645000Y-119380000D03*
D24*
X201930000Y-99700000D03*
X201930000Y-101600000D03*
D26*
X212090000Y-124460000D03*
D27*
X204470000Y-124460000D03*
D28*
X128270000Y-97795000D03*
X128270000Y-99695000D03*
X131690000Y-98745000D03*
D29*
X110490000Y-68620000D03*
X110490000Y-73620000D03*
D30*
X69175000Y-117475000D03*
X64175000Y-117475000D03*
D12*
X163830000Y-127000000D03*
X163830000Y-124460000D03*
X163830000Y-121920000D03*
X163830000Y-119380000D03*
X163830000Y-116840000D03*
X163830000Y-114300000D03*
X176530000Y-127000000D03*
X176530000Y-124460000D03*
X176530000Y-121920000D03*
X176530000Y-119380000D03*
X176530000Y-116840000D03*
X176530000Y-114300000D03*
M02*
